<svg width="346" height="139" viewBox="0 0 346 139" fill="none" xmlns="http://www.w3.org/2000/svg">
<rect width="346" height="136" rx="10" fill="#229D71"/>
<mask id="mask0_276_7546" style="mask-type:luminance" maskUnits="userSpaceOnUse" x="0" y="0" width="346" height="136">
<rect width="346" height="136" rx="10" fill="white"/>
</mask>
<g mask="url(#mask0_276_7546)">
<path fill-rule="evenodd" clip-rule="evenodd" d="M55.4479 75H46.9989V80.5623C46.9989 82.5255 45.6665 87.7371 41.7101 90.4286C38.3272 92.7269 33.4715 92.9059 27.2792 90.9546L19.5811 88.5239L36.9204 144L70.37 141.733L55.4479 75Z" fill="#FFDA2D"/>
<path fill-rule="evenodd" clip-rule="evenodd" d="M83.8408 90.9546C77.6218 92.9061 72.7598 92.7386 69.3781 90.4366C65.448 87.7645 64.1242 82.5372 64.1242 80.5623V75H55.6784L49.208 141.733L74.1993 144L91.5322 88.5279L83.8408 90.9546Z" fill="#FDBF00"/>
<rect x="47.0918" y="67" width="16.9297" height="80" fill="#FDBF00"/>
<rect x="55.5566" y="67" width="8.46481" height="80" fill="#FF9100"/>
<path fill-rule="evenodd" clip-rule="evenodd" d="M89.4154 49.0313L66.3474 45.9109L56.0852 27L45.8229 45.9111L22.7549 49.0313L39.4621 64.3949L35.4764 85.9997L56.0852 75.7575L76.694 86L72.7082 64.3952L89.4154 49.0313Z" fill="#FFDA2D"/>
<path fill-rule="evenodd" clip-rule="evenodd" d="M75.8383 86L55.5566 75.7575V27L65.656 45.9111L88.3579 49.0313L71.9158 64.3949L75.8383 86Z" fill="#FDBF00"/>
<path d="M122.945 95.014C122.945 94.79 122.964 94.552 123.001 94.3C123.048 94.0387 123.113 93.7633 123.197 93.474C123.29 93.1753 123.402 92.8627 123.533 92.536L124.541 92.928C124.448 93.1893 124.364 93.4367 124.289 93.67C124.224 93.9033 124.172 94.1227 124.135 94.328C124.107 94.5333 124.093 94.7293 124.093 94.916C124.093 95.4013 124.219 95.8027 124.471 96.12C124.723 96.4373 125.068 96.6753 125.507 96.834C125.946 96.9927 126.44 97.072 126.991 97.072C127.616 97.072 128.139 96.988 128.559 96.82C128.988 96.652 129.329 96.428 129.581 96.148C129.833 95.8773 130.01 95.574 130.113 95.238C130.225 94.902 130.281 94.5707 130.281 94.244C130.281 93.8893 130.211 93.46 130.071 92.956C129.94 92.452 129.693 91.8267 129.329 91.08L130.379 90.548C130.566 90.9027 130.734 91.276 130.883 91.668C131.042 92.0507 131.168 92.4473 131.261 92.858C131.364 93.2593 131.415 93.67 131.415 94.09C131.415 94.454 131.368 94.8273 131.275 95.21C131.191 95.5927 131.046 95.9613 130.841 96.316C130.636 96.68 130.36 97.002 130.015 97.282C129.679 97.5713 129.259 97.8 128.755 97.968C128.26 98.136 127.668 98.22 126.977 98.22C126.436 98.22 125.918 98.1547 125.423 98.024C124.938 97.9027 124.508 97.7113 124.135 97.45C123.771 97.1887 123.482 96.8573 123.267 96.456C123.052 96.0547 122.945 95.574 122.945 95.014ZM127.173 89.428C126.977 89.428 126.809 89.3627 126.669 89.232C126.538 89.092 126.473 88.9287 126.473 88.742C126.473 88.5553 126.538 88.392 126.669 88.252C126.809 88.112 126.977 88.042 127.173 88.042C127.36 88.042 127.518 88.112 127.649 88.252C127.789 88.392 127.859 88.5553 127.859 88.742C127.859 88.9287 127.789 89.092 127.649 89.232C127.518 89.3627 127.36 89.428 127.173 89.428ZM137.511 87.496C137.511 87.2907 137.497 87.0433 137.469 86.754C137.441 86.4647 137.408 86.1753 137.371 85.886C137.334 85.5967 137.296 85.3493 137.259 85.144L138.463 85.004C138.491 85.1907 138.519 85.438 138.547 85.746C138.584 86.0447 138.612 86.3433 138.631 86.642C138.65 86.9407 138.659 87.188 138.659 87.384C138.659 87.832 138.626 88.2707 138.561 88.7C138.505 89.12 138.412 89.5353 138.281 89.946C138.15 90.3473 137.978 90.7393 137.763 91.122L137.595 91.43C137.334 91.8687 137.012 92.2933 136.629 92.704C136.246 93.1053 135.798 93.488 135.285 93.852H137.049C137.366 93.852 137.609 93.8147 137.777 93.74C137.945 93.656 138.057 93.5487 138.113 93.418C138.178 93.2873 138.211 93.1473 138.211 92.998C138.211 92.746 138.057 92.4333 137.749 92.06C137.45 91.6773 137.035 91.2573 136.503 90.8C135.971 90.3333 135.369 89.8433 134.697 89.33C134.025 88.8167 133.316 88.294 132.569 87.762L133.227 86.838C134.086 87.4727 134.842 88.0467 135.495 88.56C136.158 89.0733 136.722 89.5447 137.189 89.974C137.665 90.394 138.052 90.786 138.351 91.15C138.659 91.5047 138.883 91.8453 139.023 92.172C139.172 92.4893 139.247 92.802 139.247 93.11C139.247 93.3153 139.21 93.53 139.135 93.754C139.07 93.9687 138.948 94.174 138.771 94.37C138.603 94.5567 138.36 94.7107 138.043 94.832C137.735 94.944 137.334 95 136.839 95H133.619V93.866C134.58 93.1753 135.341 92.5033 135.901 91.85C136.47 91.1967 136.881 90.5153 137.133 89.806C137.385 89.0967 137.511 88.3267 137.511 87.496ZM141.345 95L141.065 85.004H142.199L142.479 95H141.345ZM149.494 95C149.037 95 148.626 94.9207 148.262 94.762C147.898 94.6033 147.609 94.3607 147.394 94.034C147.189 93.7073 147.086 93.292 147.086 92.788C147.086 92.3867 147.24 91.8873 147.548 91.29C147.856 90.6833 148.393 90.044 149.158 89.372L149.424 90.128L148.472 89.274L149.2 88.406C149.685 88.7887 150.133 89.1993 150.544 89.638C150.955 90.0767 151.286 90.5433 151.538 91.038C151.79 91.5327 151.916 92.0553 151.916 92.606C151.916 92.8207 151.879 93.0633 151.804 93.334C151.729 93.6047 151.603 93.8707 151.426 94.132C151.249 94.384 151.001 94.594 150.684 94.762C150.367 94.9207 149.97 95 149.494 95ZM149.494 93.852C149.811 93.852 150.073 93.8007 150.278 93.698C150.493 93.586 150.651 93.432 150.754 93.236C150.866 93.04 150.922 92.8113 150.922 92.55C150.922 92.3167 150.88 92.074 150.796 91.822C150.721 91.5607 150.563 91.2807 150.32 90.982C150.087 90.674 149.727 90.3287 149.242 89.946L149.858 89.918C149.513 90.2167 149.214 90.534 148.962 90.87C148.71 91.1967 148.519 91.5187 148.388 91.836C148.257 92.144 148.192 92.424 148.192 92.676C148.192 93.068 148.313 93.362 148.556 93.558C148.808 93.754 149.121 93.852 149.494 93.852ZM150.558 87.16C150.362 87.16 150.194 87.0947 150.054 86.964C149.923 86.824 149.858 86.6607 149.858 86.474C149.858 86.2873 149.923 86.124 150.054 85.984C150.194 85.844 150.362 85.774 150.558 85.774C150.745 85.774 150.903 85.844 151.034 85.984C151.174 86.124 151.244 86.2873 151.244 86.474C151.244 86.6607 151.174 86.824 151.034 86.964C150.903 87.0947 150.745 87.16 150.558 87.16ZM148.64 87.16C148.444 87.16 148.276 87.0947 148.136 86.964C148.005 86.824 147.94 86.6607 147.94 86.474C147.94 86.2873 148.005 86.124 148.136 85.984C148.276 85.844 148.444 85.774 148.64 85.774C148.827 85.774 148.985 85.844 149.116 85.984C149.256 86.124 149.326 86.2873 149.326 86.474C149.326 86.6607 149.256 86.824 149.116 86.964C148.985 87.0947 148.827 87.16 148.64 87.16ZM151.735 98.248L151.329 97.184C152.011 96.96 152.575 96.7033 153.023 96.414C153.481 96.1247 153.84 95.8167 154.101 95.49C154.372 95.1633 154.563 94.832 154.675 94.496C154.787 94.1507 154.843 93.8193 154.843 93.502C154.843 93.0447 154.741 92.5827 154.535 92.116C154.339 91.64 154.12 91.192 153.877 90.772L154.899 90.254C155.077 90.5807 155.231 90.9027 155.361 91.22C155.501 91.5373 155.623 91.836 155.725 92.116C155.837 92.396 155.926 92.6527 155.991 92.886C156.122 93.2873 156.29 93.5627 156.495 93.712C156.71 93.852 156.999 93.922 157.363 93.922C157.559 93.922 157.699 93.978 157.783 94.09C157.877 94.1927 157.923 94.3187 157.923 94.468C157.923 94.6173 157.858 94.7573 157.727 94.888C157.597 95.0093 157.429 95.07 157.223 95.07C156.813 95.07 156.477 95 156.215 94.86C155.963 94.7107 155.772 94.5193 155.641 94.286C155.511 94.0433 155.422 93.7913 155.375 93.53L155.823 93.782C155.823 94.398 155.683 94.958 155.403 95.462C155.133 95.9753 154.783 96.4187 154.353 96.792C153.924 97.1747 153.476 97.4873 153.009 97.73C152.543 97.9727 152.118 98.1453 151.735 98.248ZM157.13 95.07L157.27 93.922C157.503 93.922 157.76 93.922 158.04 93.922C158.329 93.9127 158.619 93.9033 158.908 93.894C159.207 93.8847 159.482 93.866 159.734 93.838C159.986 93.8007 160.196 93.754 160.364 93.698C160.7 93.5767 160.961 93.4273 161.148 93.25C161.335 93.0633 161.465 92.8207 161.54 92.522C161.624 92.214 161.666 91.822 161.666 91.346C161.666 90.954 161.615 90.59 161.512 90.254C161.409 89.918 161.265 89.6473 161.078 89.442C160.891 89.2367 160.667 89.134 160.406 89.134C160.191 89.134 159.995 89.218 159.818 89.386C159.65 89.5447 159.515 89.75 159.412 90.002C159.319 90.254 159.272 90.506 159.272 90.758C159.272 90.954 159.309 91.122 159.384 91.262C159.468 91.402 159.603 91.514 159.79 91.598C159.977 91.6727 160.219 91.71 160.518 91.71C160.789 91.71 161.059 91.682 161.33 91.626C161.61 91.57 161.848 91.4953 162.044 91.402L162.1 92.382C161.951 92.4847 161.783 92.5687 161.596 92.634C161.409 92.6993 161.213 92.746 161.008 92.774C160.803 92.802 160.597 92.816 160.392 92.816C159.916 92.816 159.51 92.7413 159.174 92.592C158.847 92.4333 158.595 92.2233 158.418 91.962C158.25 91.6913 158.166 91.3833 158.166 91.038C158.166 90.6833 158.222 90.3287 158.334 89.974C158.446 89.61 158.605 89.2787 158.81 88.98C159.015 88.6813 159.263 88.4433 159.552 88.266C159.841 88.0793 160.163 87.986 160.518 87.986C161.022 87.986 161.437 88.1493 161.764 88.476C162.1 88.8027 162.347 89.232 162.506 89.764C162.674 90.2867 162.758 90.842 162.758 91.43C162.758 92.13 162.637 92.732 162.394 93.236C162.161 93.7307 161.769 94.1413 161.218 94.468C161.003 94.5893 160.742 94.692 160.434 94.776C160.135 94.8507 159.804 94.9113 159.44 94.958C159.085 95.0047 158.712 95.0327 158.32 95.042C157.928 95.0607 157.531 95.07 157.13 95.07ZM160.252 86.544C160.056 86.544 159.888 86.4787 159.748 86.348C159.617 86.208 159.552 86.0447 159.552 85.858C159.552 85.6713 159.617 85.508 159.748 85.368C159.888 85.228 160.056 85.158 160.252 85.158C160.439 85.158 160.597 85.228 160.728 85.368C160.868 85.508 160.938 85.6713 160.938 85.858C160.938 86.0447 160.868 86.208 160.728 86.348C160.597 86.4787 160.439 86.544 160.252 86.544ZM164.104 98.22L163.852 97.072C164.412 96.9973 164.925 96.89 165.392 96.75C165.868 96.6193 166.274 96.428 166.61 96.176C166.955 95.924 167.221 95.5927 167.408 95.182C167.595 94.7713 167.688 94.258 167.688 93.642C167.688 93.0073 167.571 92.48 167.338 92.06C167.105 91.64 166.801 91.43 166.428 91.43C166.232 91.43 166.05 91.5047 165.882 91.654C165.714 91.8033 165.574 92.004 165.462 92.256C165.359 92.508 165.308 92.7833 165.308 93.082C165.308 93.25 165.345 93.39 165.42 93.502C165.495 93.6047 165.602 93.6887 165.742 93.754C165.891 93.81 166.078 93.852 166.302 93.88C166.526 93.908 166.787 93.922 167.086 93.922H170.04C170.236 93.922 170.376 93.978 170.46 94.09C170.553 94.1927 170.6 94.3187 170.6 94.468C170.6 94.6173 170.535 94.7573 170.404 94.888C170.273 95.0093 170.105 95.07 169.9 95.07H166.554C166.134 95.07 165.742 95.0093 165.378 94.888C165.023 94.7667 164.734 94.58 164.51 94.328C164.295 94.0667 164.188 93.726 164.188 93.306C164.188 92.914 164.249 92.5407 164.37 92.186C164.491 91.822 164.655 91.5 164.86 91.22C165.075 90.9307 165.322 90.702 165.602 90.534C165.891 90.366 166.204 90.282 166.54 90.282C166.969 90.282 167.352 90.408 167.688 90.66C168.024 90.912 168.29 91.2947 168.486 91.808C168.682 92.312 168.78 92.9513 168.78 93.726C168.78 94.594 168.603 95.3407 168.248 95.966C167.903 96.6007 167.38 97.1047 166.68 97.478C165.989 97.8513 165.131 98.0987 164.104 98.22ZM169.795 95.07L169.935 93.922C170.402 93.922 170.766 93.8893 171.027 93.824C171.289 93.7493 171.485 93.614 171.615 93.418C171.755 93.2127 171.867 92.9187 171.951 92.536C172.035 92.1533 172.138 91.654 172.259 91.038L173.351 91.248C173.314 91.416 173.272 91.6027 173.225 91.808C173.179 92.0133 173.137 92.2187 173.099 92.424C173.071 92.62 173.057 92.7927 173.057 92.942C173.057 93.082 173.067 93.2127 173.085 93.334C173.104 93.4553 173.174 93.558 173.295 93.642C173.417 93.726 173.622 93.796 173.911 93.852C174.201 93.8987 174.616 93.922 175.157 93.922C175.353 93.922 175.493 93.978 175.577 94.09C175.671 94.1927 175.717 94.3187 175.717 94.468C175.717 94.6173 175.652 94.7573 175.521 94.888C175.391 95.0093 175.223 95.07 175.017 95.07C174.448 95.07 173.995 95.042 173.659 94.986C173.323 94.9207 173.067 94.8273 172.889 94.706C172.721 94.5847 172.6 94.4353 172.525 94.258C172.46 94.0713 172.409 93.8567 172.371 93.614L172.791 93.642C172.642 93.9407 172.479 94.1833 172.301 94.37C172.133 94.5567 171.937 94.7013 171.713 94.804C171.489 94.9067 171.219 94.9767 170.901 95.014C170.593 95.0513 170.225 95.07 169.795 95.07ZM173.533 89.596C173.337 89.596 173.169 89.5307 173.029 89.4C172.899 89.26 172.833 89.0967 172.833 88.91C172.833 88.7233 172.899 88.56 173.029 88.42C173.169 88.28 173.337 88.21 173.533 88.21C173.72 88.21 173.879 88.28 174.009 88.42C174.149 88.56 174.219 88.7233 174.219 88.91C174.219 89.0967 174.149 89.26 174.009 89.4C173.879 89.5307 173.72 89.596 173.533 89.596ZM171.615 89.596C171.419 89.596 171.251 89.5307 171.111 89.4C170.981 89.26 170.915 89.0967 170.915 88.91C170.915 88.7233 170.981 88.56 171.111 88.42C171.251 88.28 171.419 88.21 171.615 88.21C171.802 88.21 171.961 88.28 172.091 88.42C172.231 88.56 172.301 88.7233 172.301 88.91C172.301 89.0967 172.231 89.26 172.091 89.4C171.961 89.5307 171.802 89.596 171.615 89.596ZM174.918 95.07L175.058 93.922C175.319 93.922 175.539 93.866 175.716 93.754C175.893 93.642 176.066 93.4553 176.234 93.194C176.402 92.9327 176.584 92.5827 176.78 92.144C177.051 91.5467 177.317 91.094 177.578 90.786C177.849 90.478 178.115 90.268 178.376 90.156C178.647 90.044 178.913 89.988 179.174 89.988C179.491 89.988 179.785 90.072 180.056 90.24C180.327 90.3987 180.565 90.6133 180.77 90.884C180.975 91.1547 181.134 91.4533 181.246 91.78C181.367 92.0973 181.428 92.4147 181.428 92.732C181.428 93.292 181.33 93.74 181.134 94.076C180.938 94.4027 180.686 94.6407 180.378 94.79C180.079 94.93 179.767 95 179.44 95C179.151 95 178.777 94.944 178.32 94.832C177.872 94.72 177.303 94.4353 176.612 93.978L177.158 93.096C177.615 93.3853 178.026 93.586 178.39 93.698C178.763 93.8007 179.071 93.852 179.314 93.852C179.585 93.852 179.799 93.8147 179.958 93.74C180.117 93.656 180.233 93.5393 180.308 93.39C180.383 93.2407 180.42 93.0727 180.42 92.886C180.42 92.6153 180.355 92.3447 180.224 92.074C180.093 91.8033 179.925 91.5793 179.72 91.402C179.524 91.2247 179.314 91.136 179.09 91.136C178.922 91.136 178.759 91.1827 178.6 91.276C178.441 91.3693 178.278 91.542 178.11 91.794C177.942 92.046 177.751 92.41 177.536 92.886C177.312 93.39 177.097 93.7913 176.892 94.09C176.696 94.3793 176.495 94.594 176.29 94.734C176.085 94.874 175.87 94.9627 175.646 95C175.431 95.0467 175.189 95.07 174.918 95.07ZM186.624 100.502C186.428 99.7833 186.26 99.0787 186.12 98.388C185.98 97.7067 185.873 97.0953 185.798 96.554C185.723 96.0127 185.686 95.6113 185.686 95.35C185.686 94.6593 185.798 94.0293 186.022 93.46C186.246 92.8907 186.535 92.3913 186.89 91.962C187.245 91.5233 187.627 91.1547 188.038 90.856C188.449 90.548 188.845 90.3193 189.228 90.17C189.62 90.0113 189.951 89.932 190.222 89.932C190.455 89.932 190.661 89.9833 190.838 90.086C191.015 90.1887 191.188 90.3893 191.356 90.688C191.524 90.9867 191.701 91.4253 191.888 92.004C192.065 92.536 192.233 92.942 192.392 93.222C192.551 93.4927 192.723 93.6793 192.91 93.782C193.097 93.8753 193.311 93.922 193.554 93.922C193.75 93.922 193.89 93.978 193.974 94.09C194.067 94.1927 194.114 94.3187 194.114 94.468C194.114 94.6173 194.049 94.7573 193.918 94.888C193.787 95.0093 193.619 95.07 193.414 95.07C193.05 95.07 192.737 95.0047 192.476 94.874C192.224 94.7433 192.005 94.566 191.818 94.342L192.14 94.076C192.028 94.3467 191.883 94.5707 191.706 94.748C191.538 94.916 191.347 95.042 191.132 95.126C190.927 95.21 190.707 95.252 190.474 95.252C190.203 95.252 189.923 95.2007 189.634 95.098C189.345 95.0047 189.06 94.8647 188.78 94.678C188.5 94.482 188.234 94.244 187.982 93.964C187.739 93.684 187.525 93.3667 187.338 93.012L187.478 93.04C187.217 93.404 187.044 93.8007 186.96 94.23C186.876 94.65 186.834 95.0233 186.834 95.35C186.834 95.6113 186.862 95.9427 186.918 96.344C186.974 96.7547 187.044 97.1887 187.128 97.646C187.221 98.1033 187.319 98.556 187.422 99.004C187.534 99.4613 187.637 99.872 187.73 100.236L186.624 100.502ZM190.586 94.104C190.754 94.104 190.889 94.0713 190.992 94.006C191.104 93.9407 191.179 93.8427 191.216 93.712C191.253 93.5813 191.239 93.418 191.174 93.222C191.062 92.886 190.959 92.592 190.866 92.34C190.773 92.0787 190.679 91.864 190.586 91.696C190.502 91.5187 190.413 91.388 190.32 91.304C190.227 91.22 190.129 91.178 190.026 91.178C189.923 91.178 189.793 91.2013 189.634 91.248C189.485 91.2947 189.321 91.3647 189.144 91.458C188.976 91.5513 188.803 91.668 188.626 91.808C188.449 91.948 188.281 92.1113 188.122 92.298L188.136 92.186C188.341 92.6153 188.589 92.9747 188.878 93.264C189.177 93.5533 189.475 93.768 189.774 93.908C190.082 94.0387 190.353 94.104 190.586 94.104ZM193.307 95.07L193.447 93.922C193.998 93.922 194.427 93.9033 194.735 93.866C195.043 93.8193 195.263 93.712 195.393 93.544C195.524 93.3667 195.589 93.0913 195.589 92.718C195.589 92.4847 195.552 92.2093 195.477 91.892C195.403 91.5653 195.305 91.22 195.183 90.856C195.062 90.492 194.931 90.1327 194.791 89.778L195.925 89.358C196.047 89.6567 196.159 89.9973 196.261 90.38C196.373 90.7627 196.467 91.1407 196.541 91.514C196.616 91.8873 196.653 92.214 196.653 92.494C196.653 92.9607 196.588 93.3573 196.457 93.684C196.336 94.0107 196.14 94.2767 195.869 94.482C195.599 94.6873 195.249 94.8367 194.819 94.93C194.399 95.0233 193.895 95.07 193.307 95.07ZM195.897 97.716C195.701 97.716 195.533 97.646 195.393 97.506C195.263 97.3753 195.197 97.2167 195.197 97.03C195.197 96.8433 195.263 96.68 195.393 96.54C195.533 96.4 195.701 96.33 195.897 96.33C196.084 96.33 196.243 96.4 196.373 96.54C196.513 96.68 196.583 96.8433 196.583 97.03C196.583 97.2167 196.513 97.3753 196.373 97.506C196.243 97.646 196.084 97.716 195.897 97.716ZM193.979 97.716C193.783 97.716 193.615 97.646 193.475 97.506C193.345 97.3753 193.279 97.2167 193.279 97.03C193.279 96.8433 193.345 96.68 193.475 96.54C193.615 96.4 193.783 96.33 193.979 96.33C194.166 96.33 194.325 96.4 194.455 96.54C194.595 96.68 194.665 96.8433 194.665 97.03C194.665 97.2167 194.595 97.3753 194.455 97.506C194.325 97.646 194.166 97.716 193.979 97.716ZM197.447 98.248L197.041 97.184C197.722 96.96 198.287 96.7033 198.735 96.414C199.192 96.1247 199.552 95.8167 199.813 95.49C200.084 95.1633 200.275 94.832 200.387 94.496C200.499 94.1507 200.555 93.8193 200.555 93.502C200.555 93.0447 200.452 92.5827 200.247 92.116C200.051 91.64 199.832 91.192 199.589 90.772L200.611 90.254C200.788 90.5807 200.942 90.9027 201.073 91.22C201.213 91.5373 201.334 91.836 201.437 92.116C201.549 92.396 201.638 92.6527 201.703 92.886C201.834 93.2873 202.002 93.5627 202.207 93.712C202.422 93.852 202.711 93.922 203.075 93.922C203.271 93.922 203.411 93.978 203.495 94.09C203.588 94.1927 203.635 94.3187 203.635 94.468C203.635 94.6173 203.57 94.7573 203.439 94.888C203.308 95.0093 203.14 95.07 202.935 95.07C202.524 95.07 202.188 95 201.927 94.86C201.675 94.7107 201.484 94.5193 201.353 94.286C201.222 94.0433 201.134 93.7913 201.087 93.53L201.535 93.782C201.535 94.398 201.395 94.958 201.115 95.462C200.844 95.9753 200.494 96.4187 200.065 96.792C199.636 97.1747 199.188 97.4873 198.721 97.73C198.254 97.9727 197.83 98.1453 197.447 98.248ZM202.842 95.07L202.982 93.922H204.06C204.835 93.922 205.409 93.88 205.782 93.796C206.155 93.712 206.398 93.6 206.51 93.46C206.631 93.32 206.692 93.1753 206.692 93.026C206.692 92.802 206.608 92.5547 206.44 92.284C206.272 92.0133 206.057 91.738 205.796 91.458C205.535 91.1687 205.255 90.884 204.956 90.604C204.667 90.324 204.391 90.0673 204.13 89.834C203.869 89.6007 203.654 89.4 203.486 89.232C203.318 89.0547 203.234 88.9287 203.234 88.854C203.234 88.714 203.243 88.5787 203.262 88.448C203.29 88.3173 203.323 88.196 203.36 88.084C203.407 87.972 203.463 87.8833 203.528 87.818C203.715 87.622 203.971 87.4167 204.298 87.202C204.625 86.978 205.003 86.754 205.432 86.53C205.861 86.2967 206.319 86.0633 206.804 85.83C207.289 85.5873 207.779 85.3447 208.274 85.102L208.75 86.138C208.302 86.362 207.854 86.586 207.406 86.81C206.958 87.0247 206.524 87.2393 206.104 87.454C205.684 87.6687 205.287 87.888 204.914 88.112C204.55 88.3267 204.219 88.546 203.92 88.77L204.004 88.294C204.424 88.6487 204.821 88.9893 205.194 89.316C205.567 89.6427 205.922 89.9787 206.258 90.324C206.594 90.66 206.907 91.024 207.196 91.416C207.485 91.808 207.756 92.242 208.008 92.718C208.204 93.082 208.433 93.348 208.694 93.516C208.955 93.684 209.212 93.796 209.464 93.852C209.725 93.8987 209.935 93.922 210.094 93.922C210.29 93.922 210.43 93.978 210.514 94.09C210.607 94.1927 210.654 94.3187 210.654 94.468C210.654 94.6173 210.589 94.7573 210.458 94.888C210.327 95.0093 210.159 95.07 209.954 95.07C209.702 95.07 209.403 95.0327 209.058 94.958C208.722 94.874 208.391 94.7153 208.064 94.482C207.737 94.2487 207.467 93.894 207.252 93.418L207.672 93.586C207.532 93.838 207.369 94.0573 207.182 94.244C207.005 94.4213 206.776 94.5753 206.496 94.706C206.216 94.8273 205.875 94.9207 205.474 94.986C205.073 95.042 204.583 95.07 204.004 95.07H202.842ZM209.851 95.07L209.977 93.922C210.509 93.922 210.883 93.8707 211.097 93.768C211.312 93.6653 211.433 93.4833 211.461 93.222C211.499 92.9607 211.508 92.5967 211.489 92.13L211.223 85.004H212.357L212.637 92.004C212.656 92.4987 212.637 92.9373 212.581 93.32C212.535 93.7027 212.413 94.0247 212.217 94.286C212.031 94.5473 211.746 94.7433 211.363 94.874C210.99 95.0047 210.486 95.07 209.851 95.07ZM214.676 95L214.396 85.004H215.53L215.81 95H214.676ZM220.417 95.014C220.417 94.79 220.435 94.552 220.473 94.3C220.519 94.0387 220.585 93.7633 220.669 93.474C220.762 93.1753 220.874 92.8627 221.005 92.536L222.013 92.928C221.919 93.1893 221.835 93.4367 221.761 93.67C221.695 93.9033 221.644 94.1227 221.607 94.328C221.579 94.5333 221.565 94.7293 221.565 94.916C221.565 95.4013 221.691 95.8027 221.943 96.12C222.195 96.4373 222.54 96.6753 222.979 96.834C223.417 96.9927 223.912 97.072 224.463 97.072C225.088 97.072 225.611 96.988 226.031 96.82C226.46 96.652 226.801 96.428 227.053 96.148C227.305 95.8773 227.482 95.574 227.585 95.238C227.697 94.902 227.753 94.5707 227.753 94.244C227.753 93.8893 227.683 93.46 227.543 92.956C227.412 92.452 227.165 91.8267 226.801 91.08L227.851 90.548C228.037 90.9027 228.205 91.276 228.355 91.668C228.513 92.0507 228.639 92.4473 228.733 92.858C228.835 93.2593 228.887 93.67 228.887 94.09C228.887 94.454 228.84 94.8273 228.747 95.21C228.663 95.5927 228.518 95.9613 228.313 96.316C228.107 96.68 227.832 97.002 227.487 97.282C227.151 97.5713 226.731 97.8 226.227 97.968C225.732 98.136 225.139 98.22 224.449 98.22C223.907 98.22 223.389 98.1547 222.895 98.024C222.409 97.9027 221.98 97.7113 221.607 97.45C221.243 97.1887 220.953 96.8573 220.739 96.456C220.524 96.0547 220.417 95.574 220.417 95.014ZM224.645 89.428C224.449 89.428 224.281 89.3627 224.141 89.232C224.01 89.092 223.945 88.9287 223.945 88.742C223.945 88.5553 224.01 88.392 224.141 88.252C224.281 88.112 224.449 88.042 224.645 88.042C224.831 88.042 224.99 88.112 225.121 88.252C225.261 88.392 225.331 88.5553 225.331 88.742C225.331 88.9287 225.261 89.092 225.121 89.232C224.99 89.3627 224.831 89.428 224.645 89.428ZM230.769 95L230.489 85.004H231.623L231.903 95H230.769ZM232.417 98.248L232.011 97.184C232.692 96.96 233.257 96.7033 233.705 96.414C234.162 96.1247 234.522 95.8167 234.783 95.49C235.054 95.1633 235.245 94.832 235.357 94.496C235.469 94.1507 235.525 93.8193 235.525 93.502C235.525 93.0447 235.422 92.5827 235.217 92.116C235.021 91.64 234.802 91.192 234.559 90.772L235.581 90.254C235.758 90.5807 235.912 90.9027 236.043 91.22C236.183 91.5373 236.304 91.836 236.407 92.116C236.519 92.396 236.608 92.6527 236.673 92.886C236.804 93.2873 236.972 93.5627 237.177 93.712C237.392 93.852 237.681 93.922 238.045 93.922C238.241 93.922 238.381 93.978 238.465 94.09C238.558 94.1927 238.605 94.3187 238.605 94.468C238.605 94.6173 238.54 94.7573 238.409 94.888C238.278 95.0093 238.11 95.07 237.905 95.07C237.494 95.07 237.158 95 236.897 94.86C236.645 94.7107 236.454 94.5193 236.323 94.286C236.192 94.0433 236.104 93.7913 236.057 93.53L236.505 93.782C236.505 94.398 236.365 94.958 236.085 95.462C235.814 95.9753 235.464 96.4187 235.035 96.792C234.606 97.1747 234.158 97.4873 233.691 97.73C233.224 97.9727 232.8 98.1453 232.417 98.248ZM237.812 95.07L237.952 93.922C238.185 93.922 238.423 93.922 238.666 93.922C238.918 93.9127 239.165 93.8987 239.408 93.88C239.65 93.8613 239.884 93.838 240.108 93.81C240.332 93.782 240.532 93.74 240.71 93.684C241.036 93.5813 241.335 93.446 241.606 93.278C241.886 93.11 242.11 92.9047 242.278 92.662C242.455 92.4193 242.544 92.1393 242.544 91.822C242.544 91.6073 242.492 91.388 242.39 91.164C242.287 90.9307 242.147 90.7347 241.97 90.576C241.792 90.4173 241.587 90.338 241.354 90.338C241.13 90.338 240.92 90.4127 240.724 90.562C240.537 90.7113 240.383 90.9073 240.262 91.15C240.15 91.3833 240.094 91.626 240.094 91.878C240.094 92.1767 240.168 92.4473 240.318 92.69C240.476 92.9233 240.668 93.124 240.892 93.292C241.116 93.46 241.34 93.5953 241.564 93.698L240.234 94.09C240.084 93.978 239.907 93.824 239.702 93.628C239.506 93.4227 239.328 93.1707 239.17 92.872C239.02 92.5733 238.946 92.2327 238.946 91.85C238.946 91.4767 239.011 91.1313 239.142 90.814C239.282 90.4873 239.464 90.2027 239.688 89.96C239.921 89.7173 240.182 89.5307 240.472 89.4C240.77 89.26 241.078 89.19 241.396 89.19C241.853 89.19 242.254 89.316 242.6 89.568C242.945 89.82 243.211 90.142 243.398 90.534C243.594 90.9167 243.692 91.318 243.692 91.738C243.692 92.1393 243.617 92.5033 243.468 92.83C243.318 93.1473 243.113 93.432 242.852 93.684C242.6 93.936 242.301 94.1507 241.956 94.328C241.62 94.5053 241.26 94.65 240.878 94.762C240.663 94.8273 240.43 94.8787 240.178 94.916C239.935 94.9533 239.678 94.9813 239.408 95C239.137 95.028 238.866 95.0467 238.596 95.056C238.325 95.0653 238.064 95.07 237.812 95.07ZM244.742 95.07C244.275 95.07 243.79 95.042 243.286 94.986C242.791 94.9207 242.32 94.8413 241.872 94.748C241.433 94.6453 241.069 94.5333 240.78 94.412L241.746 93.712C242.026 93.7493 242.357 93.7867 242.74 93.824C243.122 93.852 243.505 93.8753 243.888 93.894C244.27 93.9127 244.602 93.922 244.882 93.922C245.078 93.922 245.218 93.978 245.302 94.09C245.395 94.1927 245.442 94.3187 245.442 94.468C245.442 94.6173 245.376 94.7573 245.246 94.888C245.115 95.0093 244.947 95.07 244.742 95.07ZM242.25 87.748C242.054 87.748 241.886 87.6827 241.746 87.552C241.615 87.412 241.55 87.2487 241.55 87.062C241.55 86.8753 241.615 86.712 241.746 86.572C241.886 86.432 242.054 86.362 242.25 86.362C242.436 86.362 242.595 86.432 242.726 86.572C242.866 86.712 242.936 86.8753 242.936 87.062C242.936 87.2487 242.866 87.412 242.726 87.552C242.595 87.6827 242.436 87.748 242.25 87.748ZM240.332 87.748C240.136 87.748 239.968 87.6827 239.828 87.552C239.697 87.412 239.632 87.2487 239.632 87.062C239.632 86.8753 239.697 86.712 239.828 86.572C239.968 86.432 240.136 86.362 240.332 86.362C240.518 86.362 240.677 86.432 240.808 86.572C240.948 86.712 241.018 86.8753 241.018 87.062C241.018 87.2487 240.948 87.412 240.808 87.552C240.677 87.6827 240.518 87.748 240.332 87.748ZM244.643 95.07L244.769 93.922C245.301 93.922 245.675 93.8707 245.889 93.768C246.104 93.6653 246.225 93.4833 246.253 93.222C246.291 92.9607 246.3 92.5967 246.281 92.13L246.015 85.004H247.149L247.429 92.004C247.448 92.4987 247.429 92.9373 247.373 93.32C247.327 93.7027 247.205 94.0247 247.009 94.286C246.823 94.5473 246.538 94.7433 246.155 94.874C245.782 95.0047 245.278 95.07 244.643 95.07ZM249.468 95L249.188 85.004H250.322L250.602 95H249.468ZM266.423 95.07C266.18 95.07 265.872 95.0467 265.499 95C265.135 94.944 264.761 94.8507 264.379 94.72C264.005 94.5893 263.688 94.4073 263.427 94.174L264.575 93.6C264.901 93.7307 265.237 93.8193 265.583 93.866C265.937 93.9033 266.264 93.922 266.563 93.922C266.759 93.922 266.899 93.978 266.983 94.09C267.076 94.1927 267.123 94.3187 267.123 94.468C267.123 94.6173 267.057 94.7573 266.927 94.888C266.796 95.0093 266.628 95.07 266.423 95.07ZM259.955 95.182C259.367 95.182 258.821 95.1727 258.317 95.154C257.822 95.1353 257.369 95.112 256.959 95.084C256.548 95.0653 256.184 95.0373 255.867 95C255.549 94.972 255.283 94.944 255.069 94.916L255.195 93.824C255.465 93.8613 255.773 93.894 256.119 93.922C256.473 93.95 256.861 93.9733 257.281 93.992C257.71 94.0013 258.167 94.0107 258.653 94.02C259.138 94.0293 259.656 94.034 260.207 94.034C260.823 94.034 261.373 93.9967 261.859 93.922C262.344 93.8473 262.75 93.7353 263.077 93.586C263.413 93.4273 263.669 93.236 263.847 93.012C264.024 92.788 264.113 92.5313 264.113 92.242C264.113 92.0367 264.061 91.836 263.959 91.64C263.856 91.4347 263.697 91.262 263.483 91.122C263.268 90.982 262.983 90.912 262.629 90.912C262.181 90.912 261.733 91.0287 261.285 91.262C260.846 91.4953 260.426 91.7893 260.025 92.144C259.633 92.4893 259.283 92.844 258.975 93.208C258.667 93.572 258.419 93.8893 258.233 94.16L257.015 94.118C257.313 93.6327 257.668 93.138 258.079 92.634C258.499 92.1207 258.956 91.6493 259.451 91.22C259.955 90.7813 260.482 90.4313 261.033 90.17C261.583 89.8993 262.143 89.764 262.713 89.764C263.226 89.764 263.665 89.8713 264.029 90.086C264.402 90.2913 264.687 90.5713 264.883 90.926C265.088 91.2807 265.191 91.682 265.191 92.13C265.191 92.6807 265.027 93.1893 264.701 93.656C264.383 94.1133 263.842 94.482 263.077 94.762C262.311 95.042 261.271 95.182 259.955 95.182ZM257.771 93.614L257.491 85.004H258.625L258.905 92.634L257.771 93.614ZM262.027 88.322C261.831 88.322 261.663 88.2567 261.523 88.126C261.392 87.986 261.327 87.8227 261.327 87.636C261.327 87.4493 261.392 87.286 261.523 87.146C261.663 87.006 261.831 86.936 262.027 86.936C262.213 86.936 262.372 87.006 262.503 87.146C262.643 87.286 262.713 87.4493 262.713 87.636C262.713 87.8227 262.643 87.986 262.503 88.126C262.372 88.2567 262.213 88.322 262.027 88.322ZM266.323 95.07L266.463 93.922C266.697 93.922 266.935 93.922 267.177 93.922C267.429 93.9127 267.677 93.8987 267.919 93.88C268.162 93.8613 268.395 93.838 268.619 93.81C268.843 93.782 269.044 93.74 269.221 93.684C269.548 93.5813 269.847 93.446 270.117 93.278C270.397 93.11 270.621 92.9047 270.789 92.662C270.967 92.4193 271.055 92.1393 271.055 91.822C271.055 91.6073 271.004 91.388 270.901 91.164C270.799 90.9307 270.659 90.7347 270.481 90.576C270.304 90.4173 270.099 90.338 269.865 90.338C269.641 90.338 269.431 90.4127 269.235 90.562C269.049 90.7113 268.895 90.9073 268.773 91.15C268.661 91.3833 268.605 91.626 268.605 91.878C268.605 92.1767 268.68 92.4473 268.829 92.69C268.988 92.9233 269.179 93.124 269.403 93.292C269.627 93.46 269.851 93.5953 270.075 93.698L268.745 94.09C268.596 93.978 268.419 93.824 268.213 93.628C268.017 93.4227 267.84 93.1707 267.681 92.872C267.532 92.5733 267.457 92.2327 267.457 91.85C267.457 91.4767 267.523 91.1313 267.653 90.814C267.793 90.4873 267.975 90.2027 268.199 89.96C268.433 89.7173 268.694 89.5307 268.983 89.4C269.282 89.26 269.59 89.19 269.907 89.19C270.365 89.19 270.766 89.316 271.111 89.568C271.457 89.82 271.723 90.142 271.909 90.534C272.105 90.9167 272.203 91.318 272.203 91.738C272.203 92.1393 272.129 92.5033 271.979 92.83C271.83 93.1473 271.625 93.432 271.363 93.684C271.111 93.936 270.813 94.1507 270.467 94.328C270.131 94.5053 269.772 94.65 269.389 94.762C269.175 94.8273 268.941 94.8787 268.689 94.916C268.447 94.9533 268.19 94.9813 267.919 95C267.649 95.028 267.378 95.0467 267.107 95.056C266.837 95.0653 266.575 95.07 266.323 95.07ZM273.253 95.07C272.787 95.07 272.301 95.042 271.797 94.986C271.303 94.9207 270.831 94.8413 270.383 94.748C269.945 94.6453 269.581 94.5333 269.291 94.412L270.257 93.712C270.537 93.7493 270.869 93.7867 271.251 93.824C271.634 93.852 272.017 93.8753 272.399 93.894C272.782 93.9127 273.113 93.922 273.393 93.922C273.589 93.922 273.729 93.978 273.813 94.09C273.907 94.1927 273.953 94.3187 273.953 94.468C273.953 94.6173 273.888 94.7573 273.757 94.888C273.627 95.0093 273.459 95.07 273.253 95.07ZM269.781 87.748C269.585 87.748 269.417 87.6827 269.277 87.552C269.147 87.412 269.081 87.2487 269.081 87.062C269.081 86.8753 269.147 86.712 269.277 86.572C269.417 86.432 269.585 86.362 269.781 86.362C269.968 86.362 270.127 86.432 270.257 86.572C270.397 86.712 270.467 86.8753 270.467 87.062C270.467 87.2487 270.397 87.412 270.257 87.552C270.127 87.6827 269.968 87.748 269.781 87.748ZM273.155 95.07L273.281 93.922C273.766 93.922 274.242 93.8847 274.709 93.81C275.176 93.7353 275.633 93.628 276.081 93.488C276.529 93.348 276.958 93.18 277.369 92.984C277.789 92.7787 278.186 92.5453 278.559 92.284C278.316 92.0693 278.036 91.8827 277.719 91.724C277.402 91.5653 277.052 91.444 276.669 91.36C276.296 91.2667 275.899 91.22 275.479 91.22C275.33 91.22 275.19 91.2247 275.059 91.234C274.928 91.2433 274.798 91.262 274.667 91.29C274.536 91.3087 274.387 91.3367 274.219 91.374L273.995 90.31C274.247 90.2353 274.499 90.1793 274.751 90.142C275.003 90.0953 275.246 90.072 275.479 90.072C275.964 90.072 276.403 90.1327 276.795 90.254C277.187 90.366 277.542 90.506 277.859 90.674C278.186 90.842 278.489 91.01 278.769 91.178C279.058 91.346 279.338 91.4907 279.609 91.612C279.88 91.724 280.16 91.78 280.449 91.78H280.743L280.841 92.788C280.44 92.788 280.071 92.844 279.735 92.956C279.399 93.068 279.068 93.2127 278.741 93.39C278.424 93.558 278.088 93.74 277.733 93.936C277.378 94.1227 276.986 94.3047 276.557 94.482C276.128 94.65 275.633 94.79 275.073 94.902C274.522 95.014 273.883 95.07 273.155 95.07ZM290.132 95.294L290.496 94.146C291.588 94.146 292.526 94.118 293.31 94.062C294.103 94.006 294.752 93.9173 295.256 93.796C295.769 93.6653 296.147 93.4927 296.39 93.278C296.642 93.054 296.768 92.7833 296.768 92.466C296.768 92.1113 296.703 91.7007 296.572 91.234C296.441 90.7673 296.273 90.268 296.068 89.736L297.146 89.358C297.267 89.6567 297.379 89.9787 297.482 90.324C297.594 90.66 297.687 90.996 297.762 91.332C297.837 91.6587 297.874 91.962 297.874 92.242C297.874 92.7927 297.748 93.264 297.496 93.656C297.244 94.0387 296.824 94.3513 296.236 94.594C295.648 94.8367 294.855 95.014 293.856 95.126C292.867 95.238 291.625 95.294 290.132 95.294ZM290.132 95.294C289.301 95.294 288.569 95.238 287.934 95.126C287.309 95.0233 286.786 94.86 286.366 94.636C285.946 94.412 285.629 94.1227 285.414 93.768C285.199 93.404 285.092 92.9653 285.092 92.452C285.092 92.2187 285.111 91.9807 285.148 91.738C285.185 91.486 285.232 91.234 285.288 90.982C285.353 90.73 285.419 90.4873 285.484 90.254L286.534 90.52C286.497 90.66 286.455 90.828 286.408 91.024C286.361 91.2107 286.319 91.402 286.282 91.598C286.254 91.794 286.24 91.9713 286.24 92.13C286.24 92.6153 286.361 93.0073 286.604 93.306C286.856 93.5953 287.29 93.81 287.906 93.95C288.522 94.0807 289.385 94.146 290.496 94.146L290.776 94.846L290.132 95.294ZM292.47 89.386C292.274 89.386 292.106 89.3207 291.966 89.19C291.835 89.05 291.77 88.8867 291.77 88.7C291.77 88.5133 291.835 88.35 291.966 88.21C292.106 88.07 292.274 88 292.47 88C292.657 88 292.815 88.07 292.946 88.21C293.086 88.35 293.156 88.5133 293.156 88.7C293.156 88.8867 293.086 89.05 292.946 89.19C292.815 89.3207 292.657 89.386 292.47 89.386ZM290.552 89.386C290.356 89.386 290.188 89.3207 290.048 89.19C289.917 89.05 289.852 88.8867 289.852 88.7C289.852 88.5133 289.917 88.35 290.048 88.21C290.188 88.07 290.356 88 290.552 88C290.739 88 290.897 88.07 291.028 88.21C291.168 88.35 291.238 88.5133 291.238 88.7C291.238 88.8867 291.168 89.05 291.028 89.19C290.897 89.3207 290.739 89.386 290.552 89.386ZM302.55 95.07C301.804 95.07 301.23 94.986 300.828 94.818C300.436 94.65 300.166 94.3887 300.016 94.034C299.867 93.6793 299.783 93.222 299.764 92.662L299.484 85.004H300.632L300.912 92.214C300.931 92.6713 300.973 93.026 301.038 93.278C301.113 93.5207 301.272 93.6887 301.514 93.782C301.766 93.8753 302.158 93.922 302.69 93.922C302.886 93.922 303.026 93.978 303.11 94.09C303.204 94.1927 303.25 94.3187 303.25 94.468C303.25 94.6173 303.185 94.7573 303.054 94.888C302.924 95.0093 302.756 95.07 302.55 95.07ZM302.45 95.07L302.59 93.922C303.141 93.922 303.57 93.9033 303.878 93.866C304.186 93.8193 304.406 93.712 304.536 93.544C304.667 93.3667 304.732 93.0913 304.732 92.718C304.732 92.4847 304.695 92.2093 304.62 91.892C304.546 91.5653 304.448 91.22 304.326 90.856C304.205 90.492 304.074 90.1327 303.934 89.778L305.068 89.358C305.19 89.6567 305.302 89.9973 305.404 90.38C305.516 90.7627 305.61 91.1407 305.684 91.514C305.759 91.8873 305.796 92.214 305.796 92.494C305.796 92.9607 305.731 93.3573 305.6 93.684C305.479 94.0107 305.283 94.2767 305.012 94.482C304.742 94.6873 304.392 94.8367 303.962 94.93C303.542 95.0233 303.038 95.07 302.45 95.07ZM305.04 97.716C304.844 97.716 304.676 97.646 304.536 97.506C304.406 97.3753 304.34 97.2167 304.34 97.03C304.34 96.8433 304.406 96.68 304.536 96.54C304.676 96.4 304.844 96.33 305.04 96.33C305.227 96.33 305.386 96.4 305.516 96.54C305.656 96.68 305.726 96.8433 305.726 97.03C305.726 97.2167 305.656 97.3753 305.516 97.506C305.386 97.646 305.227 97.716 305.04 97.716ZM303.122 97.716C302.926 97.716 302.758 97.646 302.618 97.506C302.488 97.3753 302.422 97.2167 302.422 97.03C302.422 96.8433 302.488 96.68 302.618 96.54C302.758 96.4 302.926 96.33 303.122 96.33C303.309 96.33 303.468 96.4 303.598 96.54C303.738 96.68 303.808 96.8433 303.808 97.03C303.808 97.2167 303.738 97.3753 303.598 97.506C303.468 97.646 303.309 97.716 303.122 97.716ZM309.544 93.922C310.011 93.922 310.379 93.8753 310.65 93.782C310.93 93.6887 311.131 93.5533 311.252 93.376C311.383 93.1893 311.448 92.9747 311.448 92.732C311.448 92.5453 311.397 92.3213 311.294 92.06C311.201 91.7987 311.07 91.5093 310.902 91.192C310.734 90.8653 310.538 90.5247 310.314 90.17C310.099 89.806 309.866 89.4373 309.614 89.064L310.58 88.434C310.944 88.9847 311.261 89.5073 311.532 90.002C311.803 90.4873 312.031 90.9447 312.218 91.374C312.405 91.794 312.554 92.1907 312.666 92.564C312.797 92.9747 312.941 93.278 313.1 93.474C313.268 93.67 313.441 93.796 313.618 93.852C313.795 93.8987 313.959 93.922 314.108 93.922C314.304 93.922 314.449 93.978 314.542 94.09C314.635 94.1927 314.682 94.3187 314.682 94.468C314.682 94.6173 314.617 94.7573 314.486 94.888C314.355 95.0093 314.187 95.07 313.982 95.07C313.674 95.07 313.371 95.014 313.072 94.902C312.783 94.7807 312.531 94.5893 312.316 94.328C312.101 94.0573 311.952 93.698 311.868 93.25L312.428 92.802C312.428 93.1753 312.349 93.5393 312.19 93.894C312.031 94.2393 311.742 94.524 311.322 94.748C310.911 94.972 310.319 95.084 309.544 95.084C309.208 95.084 308.881 95.056 308.564 95C308.256 94.944 307.971 94.8647 307.71 94.762C307.449 94.65 307.22 94.5193 307.024 94.37L307.584 93.404C307.771 93.5253 308.032 93.642 308.368 93.754C308.704 93.866 309.096 93.922 309.544 93.922ZM322.803 95.07C322.411 95.07 322.052 95.0467 321.725 95C321.399 94.944 321.105 94.846 320.843 94.706C320.582 94.566 320.363 94.3653 320.185 94.104C320.008 93.8333 319.873 93.4787 319.779 93.04L320.605 92.55C320.727 92.9233 320.876 93.208 321.053 93.404C321.231 93.6 321.469 93.7353 321.767 93.81C322.075 93.8847 322.467 93.922 322.943 93.922C323.139 93.922 323.279 93.978 323.363 94.09C323.457 94.1927 323.503 94.3187 323.503 94.468C323.503 94.6173 323.438 94.7573 323.307 94.888C323.177 95.0093 323.009 95.07 322.803 95.07ZM313.885 95.07L314.011 93.922C314.497 93.922 314.973 93.8847 315.439 93.81C315.906 93.7353 316.363 93.628 316.811 93.488C317.259 93.348 317.689 93.18 318.099 92.984C318.519 92.7787 318.916 92.5453 319.289 92.284C319.047 92.0693 318.767 91.8827 318.449 91.724C318.132 91.5653 317.782 91.444 317.399 91.36C317.026 91.2667 316.629 91.22 316.209 91.22C316.06 91.22 315.92 91.2247 315.789 91.234C315.659 91.2433 315.528 91.262 315.397 91.29C315.267 91.3087 315.117 91.3367 314.949 91.374L314.725 90.31C314.977 90.2353 315.229 90.1793 315.481 90.142C315.733 90.0953 315.976 90.072 316.209 90.072C316.695 90.072 317.133 90.1327 317.525 90.254C317.917 90.366 318.272 90.506 318.589 90.674C318.916 90.842 319.219 91.01 319.499 91.178C319.789 91.346 320.069 91.4907 320.339 91.612C320.61 91.724 320.89 91.78 321.179 91.78H321.473L321.571 92.788C321.17 92.788 320.801 92.844 320.465 92.956C320.129 93.068 319.798 93.2127 319.471 93.39C319.154 93.558 318.818 93.74 318.463 93.936C318.109 94.1227 317.717 94.3047 317.287 94.482C316.858 94.65 316.363 94.79 315.803 94.902C315.253 95.014 314.613 95.07 313.885 95.07ZM322.699 95.07L322.839 93.922C323.39 93.922 323.819 93.9033 324.127 93.866C324.435 93.8193 324.655 93.712 324.785 93.544C324.916 93.3667 324.981 93.0913 324.981 92.718C324.981 92.4847 324.944 92.2093 324.869 91.892C324.795 91.5653 324.697 91.22 324.575 90.856C324.454 90.492 324.323 90.1327 324.183 89.778L325.317 89.358C325.439 89.6567 325.551 89.9973 325.653 90.38C325.765 90.7627 325.859 91.1407 325.933 91.514C326.008 91.8873 326.045 92.214 326.045 92.494C326.045 92.9607 325.98 93.3573 325.849 93.684C325.728 94.0107 325.532 94.2767 325.261 94.482C324.991 94.6873 324.641 94.8367 324.211 94.93C323.791 95.0233 323.287 95.07 322.699 95.07ZM325.751 87.902C325.555 87.902 325.387 87.8367 325.247 87.706C325.117 87.566 325.051 87.4027 325.051 87.216C325.051 87.0293 325.117 86.866 325.247 86.726C325.387 86.586 325.555 86.516 325.751 86.516C325.938 86.516 326.097 86.586 326.227 86.726C326.367 86.866 326.437 87.0293 326.437 87.216C326.437 87.4027 326.367 87.566 326.227 87.706C326.097 87.8367 325.938 87.902 325.751 87.902ZM323.833 87.902C323.637 87.902 323.469 87.8367 323.329 87.706C323.199 87.566 323.133 87.4027 323.133 87.216C323.133 87.0293 323.199 86.866 323.329 86.726C323.469 86.586 323.637 86.516 323.833 86.516C324.02 86.516 324.179 86.586 324.309 86.726C324.449 86.866 324.519 87.0293 324.519 87.216C324.519 87.4027 324.449 87.566 324.309 87.706C324.179 87.8367 324.02 87.902 323.833 87.902Z" fill="white"/>
<path d="M158.822 111.14L158.834 112.868C158.834 112.94 158.786 113 158.714 113C157.55 113 156.746 112.688 156.29 112.076C155.402 112.664 154.382 113 153.05 113H151.394C149.414 113 148.406 112.1 148.406 110.288C148.406 109.832 148.466 109.112 148.634 108.344L150.242 108.536C150.158 109.1 150.122 109.46 150.122 109.712C150.122 110.624 150.662 111.02 151.862 111.02H153.05C154.334 111.02 155.198 110.876 155.834 110.564V110.456L155.822 104.456L157.694 104.24L157.706 109.784C157.706 110.636 158.006 111.02 158.702 111.02C158.774 111.02 158.822 111.068 158.822 111.14ZM154.79 107.552L154.406 108.776H151.598V107.552H152.198C152.078 107.348 152.018 107.144 152.018 106.916C152.018 106.148 152.618 105.644 153.398 105.644C153.674 105.644 153.986 105.728 154.334 105.896V106.964C153.974 106.844 153.722 106.796 153.518 106.796C153.194 106.796 152.99 106.94 152.99 107.192C152.99 107.312 153.038 107.432 153.134 107.552H154.79ZM161.615 105.296L160.679 106.22L159.419 104.984L160.655 103.748L161.603 104.672L162.539 103.748L163.799 104.984L162.563 106.22L161.615 105.296ZM160.739 109.796L160.727 107.144L162.599 106.916V110.48C162.599 112.136 161.651 113 159.719 113H158.711C158.639 113 158.591 112.94 158.591 112.868L158.615 111.14C158.615 111.068 158.663 111.02 158.735 111.02H159.743C160.415 111.02 160.739 110.648 160.739 109.796ZM168.124 111.02C168.196 111.02 168.244 111.068 168.244 111.14V112.868C168.244 112.94 168.196 113 168.124 113C167.62 113 167.188 112.832 166.876 112.52V112.724C166.876 114.8 165.76 115.58 163.468 115.58L163.336 114.056C164.308 114.056 165.016 113.672 165.016 112.64L165.004 107.144L166.876 106.916V110.144C166.972 110.708 167.488 111.02 168.124 111.02ZM172.765 111.02C172.837 111.02 172.885 111.068 172.885 111.14V112.868C172.885 112.94 172.837 113 172.765 113C172.129 113 171.445 112.676 170.881 112.1C170.329 112.7 169.381 113 168.121 113C168.049 113 168.001 112.94 168.001 112.868L168.025 111.14C168.025 111.068 168.073 111.02 168.145 111.02C169.081 111.02 169.585 110.66 169.585 109.796L169.573 108.356L171.445 108.14V110.48V110.636C171.841 110.888 172.297 111.02 172.765 111.02ZM170.449 114.464L171.301 113.612L172.561 114.848L171.325 116.084L170.449 115.232L169.597 116.084L168.337 114.848L169.573 113.612L170.449 114.464ZM175.666 105.296L174.73 106.22L173.47 104.984L174.706 103.748L175.654 104.672L176.59 103.748L177.85 104.984L176.614 106.22L175.666 105.296ZM174.79 109.796L174.778 107.144L176.65 106.916V110.48C176.65 112.136 175.702 113 173.77 113H172.762C172.69 113 172.642 112.94 172.642 112.868L172.666 111.14C172.666 111.068 172.714 111.02 172.786 111.02H173.794C174.466 111.02 174.79 110.648 174.79 109.796ZM180.914 106.916C182.522 106.916 183.722 108.056 183.722 109.916V112.736C183.722 114.812 181.718 115.58 178.79 115.58L178.598 114.056C180.806 114.056 181.79 113.696 181.85 112.748C181.478 112.904 181.106 113 180.746 113C179.102 113 177.962 111.824 177.962 110.012C177.962 108.236 179.258 106.916 180.914 106.916ZM179.642 109.952C179.642 110.744 180.182 111.14 180.914 111.128C181.202 111.128 181.526 111.08 181.862 111.008V110.048C181.862 109.268 181.418 108.812 180.77 108.812C180.17 108.812 179.642 109.256 179.642 109.952ZM199.269 111.02C199.341 111.02 199.389 111.068 199.389 111.14V112.868C199.389 112.94 199.341 113 199.269 113H196.065V109.052H195.381C194.733 109.052 194.373 109.46 194.373 110.264V112.016C194.373 114.32 193.305 115.58 190.689 115.58C188.349 115.58 187.101 114.524 187.101 112.376C187.101 111.56 187.269 110.636 187.617 109.58L189.129 109.988C188.913 110.672 188.793 111.248 188.793 111.824C188.805 113.012 189.441 113.6 190.689 113.6C191.937 113.6 192.501 113.096 192.501 111.764V109.796C192.501 108.164 193.365 107.072 195.021 107.072H196.845L197.937 108.032V111.02H199.269ZM203.326 111.14L203.338 112.868C203.338 112.94 203.29 113 203.218 113C202.162 113 201.406 112.748 200.926 112.244C200.374 112.76 199.906 113 199.27 113C199.198 113 199.15 112.94 199.15 112.868V111.14C199.15 111.068 199.198 111.02 199.27 111.02C199.714 111.02 200.062 110.912 200.35 110.708C200.338 110.624 200.338 110.54 200.338 110.456L200.326 104.456L202.21 104.24V109.784C202.21 110.636 202.522 111.02 203.206 111.02C203.278 111.02 203.326 111.068 203.326 111.14ZM205.69 110.972C207.034 110.9 208.162 110.756 209.602 110.516L209.206 112.508C207.598 112.808 205.918 113 203.23 113C203.158 113 203.11 112.94 203.11 112.868V111.14C203.11 111.068 203.158 111.02 203.23 111.02H204.082C203.806 110.444 203.674 109.916 203.674 109.34C203.674 107.96 204.802 106.916 206.458 106.916C207.07 106.916 207.838 107.084 208.834 107.42L208.33 109.016C207.622 108.824 207.13 108.74 206.77 108.74C205.906 108.74 205.378 109.208 205.378 109.856C205.378 110.204 205.498 110.6 205.69 110.972ZM219.525 104.684L218.289 105.92L217.029 104.684L218.277 103.448L219.525 104.684ZM224.409 111.02C224.481 111.02 224.529 111.068 224.529 111.14V112.868C224.529 112.94 224.481 113 224.409 113C223.677 113 223.041 112.712 222.537 112.196C222.057 112.724 221.277 113 220.233 113H214.881H213.969H212.709L212.433 111.02H213.969V104.456L215.853 104.24V107.972C218.109 106.916 219.213 106.568 220.389 106.568C222.033 106.568 223.185 107.708 223.149 109.4L223.125 110.48V110.648C223.485 110.888 223.893 111.02 224.409 111.02ZM221.265 110.024V109.58C221.265 108.932 220.737 108.488 219.969 108.488C218.985 108.488 218.457 108.656 215.853 109.484V111.02H220.257C220.893 111.02 221.265 110.66 221.265 110.024ZM228.786 104.804L227.55 106.04L226.29 104.804L227.538 103.568L228.786 104.804ZM227.634 106.82C229.35 106.82 230.598 108.044 230.598 109.724C230.598 111.716 229.278 113 227.166 113H224.406C224.322 113 224.286 112.964 224.286 112.868V111.14C224.286 111.068 224.334 111.02 224.406 111.02H225.15C224.922 110.54 224.79 110.084 224.79 109.616C224.79 107.984 226.026 106.82 227.634 106.82ZM227.178 111.02C228.15 111.02 228.726 110.504 228.726 109.712C228.726 109.076 228.246 108.608 227.61 108.608C226.974 108.608 226.458 109.124 226.458 109.784C226.458 110.168 226.578 110.576 226.794 111.02H227.178ZM234.784 113C232.852 113 231.904 112.148 231.904 110.456L231.892 104.456L233.764 104.24L233.776 109.784C233.776 110.636 234.088 111.02 234.772 111.02C234.844 111.02 234.892 111.068 234.892 111.14L234.904 112.868C234.904 112.94 234.856 113 234.784 113ZM236.937 106.952C237.993 106.952 238.905 107.396 241.677 109.328L241.305 111.236C238.929 112.556 237.333 113 234.801 113C234.729 113 234.669 112.94 234.669 112.868V111.14C234.669 111.068 234.729 111.02 234.801 111.02C237.069 111.02 238.317 110.816 239.757 110.264C238.149 109.172 237.513 108.848 236.709 108.848C236.325 108.848 236.049 108.92 235.557 109.016L235.209 107.36C235.881 107.072 236.421 106.952 236.937 106.952ZM247.723 106.916C249.331 106.916 250.531 108.056 250.531 109.916V112.736C250.531 114.812 248.527 115.58 245.599 115.58L245.407 114.056C247.615 114.056 248.599 113.696 248.659 112.748C248.287 112.904 247.915 113 247.555 113C245.911 113 244.771 111.824 244.771 110.012C244.771 108.236 246.067 106.916 247.723 106.916ZM246.451 109.952C246.451 110.744 246.991 111.14 247.723 111.128C248.011 111.128 248.335 111.08 248.671 111.008V110.048C248.671 109.268 248.227 108.812 247.579 108.812C246.979 108.812 246.451 109.256 246.451 109.952ZM262.478 111.02C262.55 111.02 262.598 111.068 262.598 111.14V112.868C262.598 112.94 262.55 113 262.478 113C261.95 113 261.482 112.82 261.158 112.46C260.954 114.416 259.694 115.58 257.498 115.58C255.158 115.58 253.91 114.524 253.91 112.376C253.91 111.56 254.078 110.636 254.426 109.58L255.938 109.988C255.722 110.672 255.602 111.248 255.602 111.824C255.614 113.012 256.25 113.6 257.498 113.6C258.71 113.6 259.322 112.964 259.31 111.62V107.144V104.36L261.182 104.144V109.352V109.928C261.182 110.576 261.746 111.02 262.478 111.02ZM265.468 104.924H267.124L266.752 106.136H263.944V104.924H264.544C264.424 104.72 264.364 104.516 264.364 104.288C264.364 103.52 264.964 103.016 265.732 103.016C266.008 103.016 266.32 103.1 266.668 103.268V104.336C266.308 104.216 266.068 104.168 265.864 104.168C265.528 104.168 265.324 104.312 265.324 104.552C265.324 104.684 265.372 104.804 265.468 104.924ZM264.508 109.796L264.496 107.144L266.368 106.916V110.48C266.368 112.136 265.42 113 263.488 113H262.48C262.408 113 262.36 112.94 262.36 112.868L262.384 111.14C262.384 111.068 262.432 111.02 262.504 111.02H263.512C264.184 111.02 264.508 110.648 264.508 109.796ZM267.738 113V104.456L269.61 104.24V113H267.738ZM273.786 106.916C275.394 106.916 276.594 108.056 276.594 109.916V112.736C276.594 114.812 274.59 115.58 271.662 115.58L271.47 114.056C273.678 114.056 274.662 113.696 274.722 112.748C274.35 112.904 273.978 113 273.618 113C271.974 113 270.833 111.824 270.833 110.012C270.833 108.236 272.13 106.916 273.786 106.916ZM272.514 109.952C272.514 110.744 273.054 111.14 273.786 111.128C274.074 111.128 274.398 111.08 274.734 111.008V110.048C274.734 109.268 274.29 108.812 273.642 108.812C273.042 108.812 272.514 109.256 272.514 109.952ZM280.789 104.228L280.561 105.236H277.705V104.228H278.221C278.125 104.048 278.089 103.856 278.089 103.64C278.089 103.016 278.581 102.548 279.265 102.548C279.661 102.548 280.081 102.668 280.345 102.788V103.7C280.045 103.58 279.769 103.52 279.589 103.52C279.313 103.52 279.133 103.652 279.133 103.856C279.133 104 279.169 104.12 279.253 104.228H280.789ZM282.361 104.456L284.233 104.24L284.221 110.456C284.221 112.148 283.273 113 281.341 113H277.561L277.285 111.02H279.349L278.425 106.292L280.261 105.824L281.089 111.02H281.341C281.353 111.02 281.353 111.02 281.353 111.02C282.037 111.02 282.349 110.636 282.349 109.784L282.361 104.456ZM285.925 113V104.456L287.797 104.24V113H285.925ZM296.029 106.976L294.793 108.212L293.533 106.976L294.781 105.74L296.029 106.976ZM300.001 111.02C300.073 111.02 300.121 111.068 300.121 111.14V112.868C300.121 112.94 300.073 113 300.001 113C299.473 113 299.017 112.808 298.705 112.46C298.501 114.416 297.241 115.58 295.045 115.58C292.705 115.58 291.457 114.524 291.457 112.376C291.457 111.56 291.625 110.636 291.973 109.58L293.485 109.988C293.269 110.672 293.149 111.248 293.149 111.824C293.161 113.012 293.797 113.6 295.045 113.6C296.257 113.6 296.869 112.964 296.857 111.62V107.144L298.729 106.916V109.916C298.753 110.624 299.281 111.02 300.001 111.02ZM303.232 106.82C304.948 106.82 306.196 108.044 306.196 109.724C306.196 111.716 304.876 113 302.764 113H300.004C299.92 113 299.884 112.964 299.884 112.868V111.14C299.884 111.068 299.932 111.02 300.004 111.02H300.748C300.52 110.54 300.388 110.084 300.388 109.616C300.388 107.984 301.624 106.82 303.232 106.82ZM302.776 111.02C303.748 111.02 304.324 110.504 304.324 109.712C304.324 109.076 303.844 108.608 303.208 108.608C302.572 108.608 302.056 109.124 302.056 109.784C302.056 110.168 302.176 110.576 302.392 111.02H302.776ZM314.005 106.976L312.769 108.212L311.509 106.976L312.757 105.74L314.005 106.976ZM317.977 111.02C318.049 111.02 318.097 111.068 318.097 111.14V112.868C318.097 112.94 318.049 113 317.977 113C317.449 113 316.993 112.808 316.681 112.46C316.477 114.416 315.217 115.58 313.021 115.58C310.681 115.58 309.433 114.524 309.433 112.376C309.433 111.56 309.601 110.636 309.949 109.58L311.461 109.988C311.245 110.672 311.125 111.248 311.125 111.824C311.137 113.012 311.773 113.6 313.021 113.6C314.233 113.6 314.845 112.964 314.833 111.62V107.144L316.705 106.916V109.916C316.729 110.624 317.257 111.02 317.977 111.02ZM321.628 107.636C323.452 107.636 324.664 108.644 324.664 110.192C324.664 111.968 323.572 113 321.736 113H317.98C317.908 113 317.86 112.94 317.86 112.868V111.14C317.86 111.068 317.908 111.02 317.98 111.02H321.736C322.372 111.02 322.78 110.696 322.78 110.156C322.78 109.64 322.384 109.316 321.748 109.316H319.06L318.1 107.636L321.484 103.424L323.152 104.372L319.972 107.636H321.628Z" fill="white"/>
<path d="M133.372 33.7C133.492 33.7 133.572 33.78 133.572 33.9V36.78C133.572 36.94 133.512 37 133.372 37H128.692C126.252 37 124.412 35.92 123.572 34.08C123.052 34.28 122.772 34.76 122.772 35.62V42.04L119.652 42.4V35.52C119.652 32.6 120.772 31.08 123.112 30.74C123.472 28.36 125.412 26.7 128.012 26.7C130.612 26.7 132.672 28.7 132.672 31.24C132.672 32.02 132.532 32.82 132.252 33.7H133.372ZM128.672 33.7H129.672C129.872 32.88 129.952 32.2 129.952 31.64C129.952 30.56 129.112 29.66 128.052 29.66C126.972 29.66 126.192 30.46 126.192 31.54C126.192 32.82 127.112 33.7 128.672 33.7ZM133.371 37C133.251 37 133.171 36.9 133.171 36.78L133.191 33.9C133.191 33.78 133.271 33.7 133.391 33.7C134.531 33.7 135.051 33.06 135.051 31.64L135.071 22.76L138.191 22.4L138.171 32.76C138.171 35.58 136.591 37 133.371 37ZM145.98 37C142.76 37 141.18 35.58 141.18 32.76L141.16 22.76L144.28 22.4L144.3 31.64C144.3 33.06 144.82 33.7 145.96 33.7C146.08 33.7 146.16 33.78 146.16 33.9L146.18 36.78C146.18 36.9 146.1 37 145.98 37ZM157.868 33.7C157.988 33.7 158.068 33.78 158.068 33.9V36.78C158.068 36.9 157.988 37 157.868 37C155.628 37 154.028 36.6 152.488 35.7C150.508 36.68 148.968 37 145.988 37C145.868 36.98 145.788 36.9 145.788 36.78V33.9C145.788 33.78 145.868 33.7 145.988 33.7C147.048 33.7 147.908 33.66 148.708 33.58C147.948 32.58 147.248 31.5 146.508 30L147.528 27.54C149.468 26.6 150.968 26.2 152.448 26.2C155.228 26.2 157.148 27.74 157.148 30.04C157.148 31.1 156.668 32.42 155.468 33.56C156.148 33.66 156.908 33.7 157.868 33.7ZM152.028 29.26C151.248 29.24 150.368 29.42 149.328 29.84C150.148 31.52 150.828 32.54 151.808 33.54C153.448 32.94 154.308 31.94 154.308 31.06C154.308 30.04 153.408 29.26 152.028 29.26ZM157.941 37C157.821 37 157.741 36.9 157.741 36.78L157.761 33.9C157.761 33.78 157.841 33.7 157.961 33.7C159.101 33.7 159.621 33.06 159.621 31.64L159.641 22.76L162.761 22.4L162.741 32.76C162.741 35.58 161.161 37 157.941 37ZM165.59 37V22.76L168.71 22.4V37H165.59ZM195.089 33.7C195.209 33.7 195.289 33.78 195.289 33.9V36.78C195.289 36.9 195.209 37 195.089 37H189.749V30.42H188.609C187.529 30.42 186.929 31.1 186.929 32.44V35.36C186.929 39.2 185.149 41.3 180.789 41.3C176.889 41.3 174.809 39.54 174.809 35.96C174.809 34.6 175.089 33.06 175.669 31.3L178.189 31.98C177.829 33.12 177.629 34.08 177.629 35.04C177.649 37.02 178.709 38 180.789 38C182.869 38 183.809 37.16 183.809 34.94V31.66C183.809 28.94 185.249 27.12 188.009 27.12H191.049L192.869 28.72V33.7H195.089ZM182.509 43.52L183.929 42.1L186.029 44.16L183.969 46.22L182.509 44.8L181.089 46.22L178.989 44.16L181.049 42.1L182.509 43.52ZM202.39 23.34L200.33 25.4L198.23 23.34L200.31 21.28L202.39 23.34ZM200.47 26.7C203.33 26.7 205.41 28.74 205.41 31.54C205.41 34.86 203.21 37 199.69 37H195.09C194.95 37 194.89 36.94 194.89 36.78V33.9C194.89 33.78 194.97 33.7 195.09 33.7H196.33C195.95 32.9 195.73 32.14 195.73 31.36C195.73 28.64 197.79 26.7 200.47 26.7ZM199.71 33.7C201.33 33.7 202.29 32.84 202.29 31.52C202.29 30.46 201.49 29.68 200.43 29.68C199.37 29.68 198.51 30.54 198.51 31.64C198.51 32.28 198.71 32.96 199.07 33.7H199.71ZM219.805 22.6L222.925 22.24V34.4V35.14C222.925 38.98 220.785 41.3 216.785 41.3C212.885 41.3 210.805 39.54 210.805 35.96C210.805 34.6 211.085 33.06 211.665 31.3L214.185 31.98C213.825 33.12 213.625 34.08 213.625 35.04C213.645 37.02 214.705 38 216.785 38C218.805 38 219.825 36.94 219.805 34.7V27.24V22.6ZM229.537 26.86C232.217 26.86 234.217 28.76 234.217 31.86V36.56C234.217 40.02 230.877 41.3 225.997 41.3L225.677 38.76C229.357 38.76 230.997 38.16 231.097 36.58C230.477 36.84 229.857 37 229.257 37C226.517 37 224.617 35.04 224.617 32.02C224.617 29.06 226.777 26.86 229.537 26.86ZM227.417 31.92C227.417 33.24 228.317 33.9 229.537 33.88C230.017 33.88 230.557 33.8 231.117 33.68V32.08C231.117 30.78 230.377 30.02 229.297 30.02C228.297 30.02 227.417 30.76 227.417 31.92ZM241.209 22.38L240.829 24.06H236.069V22.38H236.929C236.769 22.08 236.709 21.76 236.709 21.4C236.709 20.36 237.529 19.58 238.669 19.58C239.329 19.58 240.029 19.78 240.469 19.98V21.5C239.969 21.3 239.509 21.2 239.209 21.2C238.749 21.2 238.449 21.42 238.449 21.76C238.449 22 238.509 22.2 238.649 22.38H241.209ZM243.829 22.76L246.949 22.4L246.929 32.76C246.929 35.58 245.349 37 242.129 37H235.829L235.369 33.7H238.809L237.269 25.82L240.329 25.04L241.709 33.7H242.129C242.149 33.7 242.149 33.7 242.149 33.7C243.289 33.7 243.809 33.06 243.809 31.64L243.829 22.76ZM249.77 37V22.76L252.89 22.4V37H249.77ZM268.789 23.82L267.229 25.38L265.149 23.3L267.209 21.24L268.789 22.78L270.349 21.24L272.429 23.3L270.389 25.38L268.789 23.82ZM274.549 33.7C274.669 33.7 274.749 33.78 274.749 33.9V36.78C274.749 36.9 274.669 37 274.549 37H273.449C272.969 39.74 270.709 41.3 265.789 41.3C261.509 41.3 258.989 39.4 258.989 35.96C258.989 34.6 259.269 33.06 259.849 31.3L262.369 31.98C262.009 33.12 261.809 34.08 261.809 35.04C261.829 37.38 263.349 38.58 266.209 38.58C268.449 38.58 269.889 38.04 270.389 37H268.689C265.869 37 263.989 35.04 263.989 32.06C263.989 29.08 266.129 26.9 268.869 26.9C271.549 26.92 273.549 28.78 273.549 31.9V33.7H274.549ZM266.769 31.96C266.769 33.26 267.729 33.88 268.969 33.88C269.429 33.88 269.929 33.84 270.449 33.8V32.1C270.449 30.8 269.709 30.06 268.629 30.06C267.609 30.04 266.769 30.8 266.769 31.96ZM282.283 33.7C282.403 33.7 282.483 33.78 282.483 33.9V36.78C282.483 36.9 282.403 37 282.283 37C281.223 37 280.083 36.46 279.143 35.5C278.223 36.5 276.643 37 274.543 37C274.423 37 274.343 36.9 274.343 36.78L274.383 33.9C274.383 33.78 274.463 33.7 274.583 33.7C276.143 33.7 276.983 33.1 276.983 31.66L276.963 29.26L280.083 28.9V32.8V33.06C280.743 33.48 281.503 33.7 282.283 33.7ZM278.423 39.44L279.843 38.02L281.943 40.08L279.883 42.14L278.423 40.72L277.003 42.14L274.903 40.08L276.963 38.02L278.423 39.44ZM289.177 33.7C289.297 33.7 289.377 33.78 289.377 33.9V36.78C289.377 36.9 289.297 37 289.177 37C287.997 37 286.937 36.54 286.117 35.72C285.317 36.56 284.037 37 282.277 37C282.157 37 282.077 36.9 282.077 36.78L282.117 33.9C282.117 33.78 282.197 33.7 282.317 33.7C283.437 33.7 283.977 33.08 283.977 31.66L283.957 29.26L287.077 28.9V32.8V33.12C287.677 33.48 288.337 33.7 289.177 33.7ZM283.597 40.14L285.677 38.08L287.757 40.14L285.697 42.2L283.597 40.14ZM308.112 33.7C308.232 33.7 308.312 33.78 308.312 33.9V36.78C308.312 36.9 308.232 37 308.112 37C306.892 37 305.832 36.52 304.992 35.66C304.192 36.54 302.892 37 301.152 37H293.852H290.712H289.172C289.052 37 288.972 36.9 288.972 36.78V33.9C289.012 33.78 289.092 33.7 289.172 33.7H290.712V22.76L293.852 22.4V28.64C297.592 26.86 299.452 26.28 301.412 26.28C304.152 26.28 306.072 28.18 306.012 31L305.972 32.8V33.08C306.592 33.48 307.252 33.7 308.112 33.7ZM302.872 32.04V31.3C302.872 30.22 301.992 29.48 300.712 29.48C299.072 29.48 298.192 29.76 293.852 31.16V33.7H301.192C302.252 33.7 302.872 33.1 302.872 32.04ZM312.017 26.3L310.457 27.86L308.377 25.78L310.437 23.72L312.017 25.26L313.577 23.72L315.657 25.78L313.617 27.86L312.017 26.3ZM315.857 33.7C315.977 33.7 316.057 33.78 316.057 33.9V36.78C316.057 36.9 315.977 37 315.857 37C314.797 37 313.657 36.46 312.717 35.5C311.797 36.5 310.217 37 308.117 37C307.997 37 307.917 36.9 307.917 36.78L307.957 33.9C307.957 33.78 308.037 33.7 308.157 33.7C309.717 33.7 310.557 33.1 310.557 31.66L310.537 29.26L313.657 28.9V32.8V33.06C314.317 33.48 315.077 33.7 315.857 33.7ZM315.852 37C315.732 37 315.652 36.9 315.652 36.78L315.672 33.9C315.672 33.78 315.752 33.7 315.872 33.7C317.012 33.7 317.532 33.06 317.532 31.64L317.552 22.76L320.672 22.4L320.652 32.76C320.652 35.58 319.072 37 315.852 37ZM323.5 37V22.76L326.62 22.4V37H323.5ZM119.774 61.4H117.674L116.994 57.28V51.4H120.454V57.28L119.774 61.4ZM120.114 65H117.314V62.52H120.114V65ZM132.21 65C128.99 65 127.41 63.58 127.41 60.76L127.39 50.76L130.51 50.4L130.53 59.64C130.53 61.06 131.05 61.7 132.19 61.7C132.31 61.7 132.39 61.78 132.39 61.9L132.41 64.78C132.41 64.9 132.33 65 132.21 65ZM139.959 61.7C140.079 61.7 140.159 61.78 140.159 61.9V64.78C140.159 64.9 140.079 65 139.959 65C138.899 65 137.759 64.46 136.819 63.5C135.899 64.5 134.319 65 132.219 65C132.099 65 132.019 64.9 132.019 64.78L132.059 61.9C132.059 61.78 132.139 61.7 132.259 61.7C133.819 61.7 134.659 61.1 134.659 59.66L134.639 57.26L137.759 56.9V60.8V61.06C138.419 61.48 139.179 61.7 139.959 61.7ZM136.099 67.44L137.519 66.02L139.619 68.08L137.559 70.14L136.099 68.72L134.679 70.14L132.579 68.08L134.639 66.02L136.099 67.44ZM143.133 53.4L141.033 51.34L143.113 49.28L145.193 51.34L143.133 53.4ZM139.953 65C139.833 65 139.753 64.9 139.753 64.78L139.793 61.9C139.793 61.78 139.873 61.7 139.993 61.7C141.113 61.7 141.653 61.08 141.653 59.66L141.633 55.24L144.753 54.86V60.8C144.753 63.56 143.173 65 139.953 65ZM147.035 65V50.76L150.155 50.4V65H147.035ZM159.215 61.7C159.335 61.7 159.415 61.78 159.415 61.9V64.78C159.415 64.9 159.335 65 159.215 65C158.375 65 157.655 64.72 157.135 64.2V64.54C157.135 68 155.275 69.3 151.455 69.3L151.235 66.76C152.855 66.76 154.035 66.12 154.035 64.4L154.015 55.24L157.135 54.86V60.24C157.295 61.18 158.155 61.7 159.215 61.7ZM164.491 51.82L162.931 53.38L160.851 51.3L162.911 49.24L164.491 50.78L166.051 49.24L168.131 51.3L166.091 53.38L164.491 51.82ZM164.591 54.7C167.451 54.7 169.531 56.74 169.531 59.54C169.531 62.86 167.331 65 163.811 65H159.211C159.071 65 159.011 64.94 159.011 64.78V61.9C159.011 61.78 159.091 61.7 159.211 61.7H160.451C160.071 60.9 159.851 60.14 159.851 59.36C159.851 56.64 161.911 54.7 164.591 54.7ZM163.831 61.7C165.451 61.7 166.411 60.84 166.411 59.52C166.411 58.46 165.611 57.68 164.551 57.68C163.491 57.68 162.631 58.54 162.631 59.64C162.631 60.28 162.831 60.96 163.191 61.7H163.831ZM180.706 65C177.486 65 175.906 63.58 175.906 60.76L175.886 50.76L179.006 50.4L179.026 59.64C179.026 61.06 179.546 61.7 180.686 61.7C180.806 61.7 180.886 61.78 180.886 61.9L180.906 64.78C180.906 64.9 180.826 65 180.706 65ZM192.595 61.7C192.715 61.7 192.795 61.78 192.795 61.9V64.78C192.795 64.9 192.715 65 192.595 65C190.355 65 188.755 64.6 187.215 63.7C185.235 64.68 183.695 65 180.715 65C180.595 64.98 180.515 64.9 180.515 64.78V61.9C180.515 61.78 180.595 61.7 180.715 61.7C181.775 61.7 182.635 61.66 183.435 61.58C182.675 60.58 181.975 59.5 181.235 58L182.255 55.54C184.195 54.6 185.695 54.2 187.175 54.2C189.955 54.2 191.875 55.74 191.875 58.04C191.875 59.1 191.395 60.42 190.195 61.56C190.875 61.66 191.635 61.7 192.595 61.7ZM186.755 57.26C185.975 57.24 185.095 57.42 184.055 57.84C184.875 59.52 185.555 60.54 186.535 61.54C188.175 60.94 189.035 59.94 189.035 59.06C189.035 58.04 188.135 57.26 186.755 57.26ZM204.148 61.7C204.268 61.7 204.348 61.78 204.348 61.9V64.78C204.348 64.94 204.288 65 204.148 65H199.448C198.068 65 196.868 64.64 195.948 64C194.928 64.64 193.708 65 192.668 65C192.548 65 192.468 64.9 192.468 64.78V61.9C192.468 61.78 192.548 61.7 192.668 61.7C193.208 61.7 193.688 61.62 194.108 61.48C193.928 60.88 193.828 60.24 193.828 59.54C193.828 56.76 195.888 54.7 198.768 54.7C201.368 54.7 203.468 56.7 203.468 59.24C203.468 60.02 203.328 60.82 203.068 61.7H204.148ZM199.428 61.7H200.428C200.628 60.88 200.708 60.2 200.708 59.64C200.708 58.56 199.868 57.66 198.808 57.66C197.728 57.66 196.948 58.46 196.948 59.54C196.948 60.82 197.868 61.7 199.428 61.7ZM208.052 54.3L206.492 55.86L204.412 53.78L206.472 51.72L208.052 53.26L209.612 51.72L211.692 53.78L209.652 55.86L208.052 54.3ZM211.892 61.7C212.012 61.7 212.092 61.78 212.092 61.9V64.78C212.092 64.9 212.012 65 211.892 65C210.832 65 209.692 64.46 208.752 63.5C207.832 64.5 206.252 65 204.152 65C204.032 65 203.952 64.9 203.952 64.78L203.992 61.9C203.992 61.78 204.072 61.7 204.192 61.7C205.752 61.7 206.592 61.1 206.592 59.66L206.572 57.26L209.692 56.9V60.8V61.06C210.352 61.48 211.112 61.7 211.892 61.7ZM224.527 61.7C224.647 61.7 224.727 61.78 224.727 61.9V64.78C224.727 64.9 224.647 65 224.527 65H224.187C222.647 65 221.507 64.24 221.027 62.96C217.947 64.46 215.487 65 211.907 65C211.787 65 211.687 64.9 211.687 64.78V61.9C211.687 61.78 211.787 61.7 211.907 61.7C215.687 61.7 217.767 61.36 220.167 60.44C217.487 58.62 216.427 58.08 215.087 58.08C214.447 58.08 213.987 58.2 213.167 58.36L212.587 55.6C213.707 55.12 214.607 54.92 215.467 54.92C217.227 54.92 218.747 55.66 223.367 58.88L222.867 61.48C223.187 61.62 223.627 61.68 224.207 61.7H224.527ZM216.407 67.82L218.487 65.76L220.567 67.82L218.507 69.88L216.407 67.82ZM229.903 54.7C232.763 54.7 234.843 56.74 234.843 59.54C234.843 62.86 232.643 65 229.123 65H224.523C224.383 65 224.323 64.94 224.323 64.78V61.9C224.323 61.78 224.403 61.7 224.523 61.7H225.763C225.383 60.9 225.163 60.14 225.163 59.36C225.163 56.64 227.223 54.7 229.903 54.7ZM229.143 61.7C230.763 61.7 231.723 60.84 231.723 59.52C231.723 58.46 230.923 57.68 229.863 57.68C228.803 57.68 227.943 58.54 227.943 59.64C227.943 60.28 228.143 60.96 228.503 61.7H229.143ZM253.919 61.7C254.039 61.7 254.119 61.78 254.119 61.9V64.78C254.119 64.94 254.059 65 253.919 65H249.239C246.799 65 244.959 63.92 244.119 62.08C243.599 62.28 243.319 62.76 243.319 63.62V70.04L240.199 70.4V63.52C240.199 60.6 241.319 59.08 243.659 58.74C244.019 56.36 245.959 54.7 248.559 54.7C251.159 54.7 253.219 56.7 253.219 59.24C253.219 60.02 253.079 60.82 252.799 61.7H253.919ZM249.219 61.7H250.219C250.419 60.88 250.499 60.2 250.499 59.64C250.499 58.56 249.659 57.66 248.599 57.66C247.519 57.66 246.739 58.46 246.739 59.54C246.739 60.82 247.659 61.7 249.219 61.7ZM263.678 51.14L261.618 53.2L259.518 51.14L261.598 49.08L263.678 51.14ZM272.858 61.7C272.978 61.7 273.058 61.78 273.058 61.9V64.78C273.058 64.9 272.978 65 272.858 65C271.638 65 270.578 64.52 269.738 63.66C268.938 64.54 267.638 65 265.898 65H256.978H253.918C253.798 65 253.718 64.9 253.718 64.78V61.9C253.758 61.78 253.838 61.7 253.918 61.7H255.478L255.458 55.24L258.598 54.86V56.64C262.338 54.86 264.198 54.28 266.158 54.28C268.898 54.28 270.818 56.18 270.758 59L270.718 60.8V61.08C271.338 61.48 271.998 61.7 272.858 61.7ZM267.618 60.04V59.3C267.618 58.22 266.738 57.48 265.458 57.48C263.818 57.48 262.938 57.76 258.598 59.16V61.7H265.938C266.998 61.7 267.618 61.1 267.618 60.04ZM272.863 65C272.743 65 272.663 64.9 272.663 64.78L272.703 61.9C272.703 61.78 272.783 61.7 272.903 61.7H274.583C275.703 61.7 276.243 61.08 276.243 59.66L276.223 55.24L279.343 54.86V60.8C279.343 63.56 277.763 65 274.543 65H272.863ZM279.603 68.08L277.543 70.14L276.083 68.72L274.663 70.14L272.563 68.08L274.623 66.02L276.083 67.44L277.503 66.02L279.603 68.08ZM301.244 55.12L303.064 56.72V64.84L299.944 65.2V58.42H298.804C297.724 58.42 297.124 59.1 297.124 60.44V63.36C297.124 67.2 295.344 69.3 290.984 69.3C287.084 69.3 285.004 67.54 285.004 63.96C285.004 62.6 285.284 61.06 285.864 59.3L288.384 59.98C288.024 61.12 287.824 62.08 287.824 63.04C287.844 65.02 288.904 66 290.984 66C293.064 66 294.004 65.16 294.004 62.94V59.66C294.004 56.94 295.444 55.12 298.204 55.12H301.244ZM292.244 71.52L293.664 70.1L295.764 72.16L293.704 74.22L292.244 72.8L290.824 74.22L288.724 72.16L290.784 70.1L292.244 71.52ZM310.777 51.2L308.717 53.26L306.617 51.2L308.697 49.14L310.777 51.2ZM315.857 61.7C315.977 61.7 316.057 61.78 316.057 61.9V64.78C316.057 64.9 315.977 65 315.857 65C314.697 65 313.677 64.58 312.877 63.8C312.077 64.6 310.817 65 309.117 65H304.637L304.157 61.7H309.157C310.277 61.7 310.817 61.08 310.817 60.16V59.52C310.797 58.46 309.917 57.74 308.637 57.74H307.277V54.54H309.357C312.077 54.54 313.957 56.18 313.957 59.24V60.8C313.957 60.94 313.957 61.08 313.937 61.22C314.477 61.52 315.077 61.7 315.857 61.7ZM315.852 65C315.732 65 315.652 64.9 315.652 64.78L315.672 61.9C315.672 61.78 315.752 61.7 315.872 61.7C317.012 61.7 317.532 61.06 317.532 59.64L317.552 50.76L320.672 50.4L320.652 60.76C320.652 63.58 319.072 65 315.852 65ZM323.5 65V50.76L326.62 50.4V65H323.5Z" fill="white"/>
</g>
</svg>
