<svg width="207" height="102" viewBox="0 0 207 102" fill="none" xmlns="http://www.w3.org/2000/svg">
<path d="M68.72 13.03C68.828 13.03 68.9 13.102 68.9 13.21V15.802C68.9 15.91 68.828 16 68.72 16H63.914V10.078H62.888C61.916 10.078 61.376 10.69 61.376 11.896V14.524C61.376 17.98 59.774 19.87 55.85 19.87C52.34 19.87 50.468 18.286 50.468 15.064C50.468 13.84 50.72 12.454 51.242 10.87L53.51 11.482C53.186 12.508 53.006 13.372 53.006 14.236C53.024 16.018 53.978 16.9 55.85 16.9C57.722 16.9 58.568 16.144 58.568 14.146V11.194C58.568 8.746 59.864 7.108 62.348 7.108H65.084L66.722 8.548V13.03H68.72ZM57.398 21.868L58.676 20.59L60.566 22.444L58.712 24.298L57.398 23.02L56.12 24.298L54.23 22.444L56.084 20.59L57.398 21.868ZM74.9307 13.03C75.0387 13.03 75.1107 13.102 75.1107 13.21V15.802C75.1107 15.91 75.0387 16 74.9307 16C73.8687 16 72.9147 15.586 72.1767 14.848C71.4567 15.604 70.3047 16 68.7207 16C68.6127 16 68.5407 15.91 68.5407 15.802L68.5767 13.21C68.5767 13.102 68.6487 13.03 68.7567 13.03C69.7647 13.03 70.2507 12.472 70.2507 11.194L70.2327 9.034L73.0407 8.71V12.22V12.508C73.5807 12.832 74.1747 13.03 74.9307 13.03ZM69.9087 18.826L71.7807 16.972L73.6527 18.826L71.7987 20.68L69.9087 18.826ZM81.8918 13.03C81.9998 13.03 82.0718 13.102 82.0718 13.21V15.802C82.0718 15.91 81.9998 16 81.8918 16C80.9378 16 79.9118 15.514 79.0658 14.65C78.2378 15.55 76.8158 16 74.9258 16C74.8178 16 74.7458 15.91 74.7458 15.802L74.7818 13.21C74.7818 13.102 74.8538 13.03 74.9618 13.03C76.3658 13.03 77.1218 12.49 77.1218 11.194L77.1038 9.034L79.9118 8.71V12.22V12.454C80.5058 12.832 81.1898 13.03 81.8918 13.03ZM78.4178 18.196L79.6958 16.918L81.5858 18.772L79.7318 20.626L78.4178 19.348L77.1398 20.626L75.2498 18.772L77.1038 16.918L78.4178 18.196ZM85.3967 6.37L83.9927 7.774L82.1207 5.902L83.9747 4.048L85.3967 5.434L86.8007 4.048L88.6727 5.902L86.8367 7.774L85.3967 6.37ZM88.8527 13.03C88.9607 13.03 89.0327 13.102 89.0327 13.21V15.802C89.0327 15.91 88.9607 16 88.8527 16C87.8987 16 86.8727 15.514 86.0267 14.65C85.1987 15.55 83.7767 16 81.8867 16C81.7787 16 81.7067 15.91 81.7067 15.802L81.7427 13.21C81.7427 13.102 81.8147 13.03 81.9227 13.03C83.3267 13.03 84.0827 12.49 84.0827 11.194L84.0647 9.034L86.8727 8.71V12.22V12.454C87.4667 12.832 88.1507 13.03 88.8527 13.03ZM99.5397 13.03C99.6477 13.03 99.7197 13.102 99.7197 13.21V15.802C99.7197 15.91 99.6477 16 99.5397 16C97.5237 16 96.0837 15.64 94.6977 14.83C92.9157 15.712 91.5297 16 88.8477 16C88.7397 15.982 88.6677 15.91 88.6677 15.802V13.21C88.6677 13.102 88.7397 13.03 88.8477 13.03C89.8017 13.03 90.5757 12.994 91.2957 12.922C90.6117 12.022 89.9817 11.05 89.3157 9.7L90.2337 7.486C91.9797 6.64 93.3297 6.28 94.6617 6.28C97.1637 6.28 98.8917 7.666 98.8917 9.736C98.8917 10.69 98.4597 11.878 97.3797 12.904C97.9917 12.994 98.6757 13.03 99.5397 13.03ZM94.2837 9.034C93.5817 9.016 92.7897 9.178 91.8537 9.556C92.5917 11.068 93.2037 11.986 94.0857 12.886C95.5617 12.346 96.3357 11.446 96.3357 10.654C96.3357 9.736 95.5257 9.034 94.2837 9.034ZM99.6055 16C99.4975 16 99.4255 15.91 99.4255 15.802L99.4435 13.21C99.4435 13.102 99.5155 13.03 99.6235 13.03C100.649 13.03 101.117 12.454 101.117 11.176L101.135 3.184L103.943 2.86L103.925 12.184C103.925 14.722 102.503 16 99.6055 16ZM106.489 16V3.184L109.297 2.86V16H106.489ZM125.028 13.03C125.136 13.03 125.208 13.102 125.208 13.21V15.802C125.208 15.91 125.136 16 125.028 16C123.984 16 123.066 15.622 122.346 14.92C121.626 15.64 120.492 16 118.962 16H114.93L114.498 13.03H118.998C120.006 13.03 120.492 12.472 120.492 11.644V11.068C120.474 10.114 119.682 9.466 118.53 9.466H117.306V6.586H119.178C121.626 6.586 123.318 8.062 123.318 10.816V12.22C123.318 12.346 123.318 12.472 123.3 12.598C123.786 12.868 124.326 13.03 125.028 13.03ZM135.355 13.03C135.463 13.03 135.535 13.102 135.535 13.21V15.802C135.535 15.946 135.481 16 135.355 16H131.125C129.883 16 128.803 15.676 127.975 15.1C127.057 15.676 125.959 16 125.023 16C124.915 16 124.843 15.91 124.843 15.802V13.21C124.843 13.102 124.915 13.03 125.023 13.03C125.509 13.03 125.941 12.958 126.319 12.832C126.157 12.292 126.067 11.716 126.067 11.086C126.067 8.584 127.921 6.73 130.513 6.73C132.853 6.73 134.743 8.53 134.743 10.816C134.743 11.518 134.617 12.238 134.383 13.03H135.355ZM131.107 13.03H132.007C132.187 12.292 132.259 11.68 132.259 11.176C132.259 10.204 131.503 9.394 130.549 9.394C129.577 9.394 128.875 10.114 128.875 11.086C128.875 12.238 129.703 13.03 131.107 13.03ZM146.735 13.03C146.843 13.03 146.915 13.102 146.915 13.21V15.802C146.915 15.91 146.843 16 146.735 16H146.429C145.043 16 144.017 15.316 143.585 14.164C140.813 15.514 138.599 16 135.377 16C135.269 16 135.179 15.91 135.179 15.802V13.21C135.179 13.102 135.269 13.03 135.377 13.03C138.779 13.03 140.651 12.724 142.811 11.896C140.399 10.258 139.445 9.772 138.239 9.772C137.663 9.772 137.249 9.88 136.511 10.024L135.989 7.54C136.997 7.108 137.807 6.928 138.581 6.928C140.165 6.928 141.533 7.594 145.691 10.492L145.241 12.832C145.529 12.958 145.925 13.012 146.447 13.03H146.735ZM151.574 6.73C154.148 6.73 156.02 8.566 156.02 11.086C156.02 14.074 154.04 16 150.872 16H146.732C146.606 16 146.552 15.946 146.552 15.802V13.21C146.552 13.102 146.624 13.03 146.732 13.03H147.848C147.506 12.31 147.308 11.626 147.308 10.924C147.308 8.476 149.162 6.73 151.574 6.73ZM150.89 13.03C152.348 13.03 153.212 12.256 153.212 11.068C153.212 10.114 152.492 9.412 151.538 9.412C150.584 9.412 149.81 10.186 149.81 11.176C149.81 11.752 149.99 12.364 150.314 13.03H150.89Z" fill="#229D71"/>
<path d="M67.629 40.999L67.811 42H62.611V40.999H64.6V34.291L62.897 35.253L62.52 34.317L64.73 33.095H65.809V40.999H67.629ZM76.6245 35.747C77.4825 35.747 78.1932 36.0677 78.7565 36.709C79.3198 37.3417 79.6015 38.1043 79.6015 38.997C79.6015 39.881 79.3198 40.622 78.7565 41.22C78.2018 41.818 77.4912 42.117 76.6245 42.117C75.8965 42.117 75.2725 41.9003 74.7525 41.467C74.2325 41.0337 73.8945 40.4703 73.7385 39.777C73.1145 39.907 72.8025 40.3707 72.8025 41.168V45.341L71.7105 45.51L71.6975 41.025C71.6975 39.5777 72.3562 38.7717 73.6735 38.607C73.7515 37.7923 74.0635 37.112 74.6095 36.566C75.1555 36.02 75.8272 35.747 76.6245 35.747ZM75.2725 40.375C75.6278 40.7477 76.0785 40.934 76.6245 40.934C77.1705 40.934 77.6168 40.7477 77.9635 40.375C78.3188 40.0023 78.4965 39.5387 78.4965 38.984C78.4965 38.412 78.3188 37.9267 77.9635 37.528C77.6168 37.1207 77.1705 36.917 76.6245 36.917C76.0785 36.917 75.6278 37.1207 75.2725 37.528C74.9172 37.9267 74.7395 38.412 74.7395 38.984C74.7395 39.5387 74.9172 40.0023 75.2725 40.375ZM83.4983 33.602L82.5493 34.551L81.5873 33.602L82.5233 32.666L83.4983 33.602ZM84.5383 40.83C84.625 40.83 84.6683 40.869 84.6683 40.947V41.87C84.6683 41.9567 84.625 42 84.5383 42C83.871 42 83.3813 41.7703 83.0693 41.311V41.649C83.0693 42.7323 82.792 43.5253 82.2373 44.028C81.6827 44.5393 80.8507 44.795 79.7413 44.795L79.6373 43.846C81.1973 43.846 81.9773 43.1007 81.9773 41.61L81.9643 35.721L83.0693 35.539V39.595C83.13 40.4183 83.6197 40.83 84.5383 40.83ZM86.9389 35.058L85.9899 35.994L85.0409 35.058L85.9899 34.122L86.9389 35.058ZM89.0059 35.058L88.0569 35.994L87.0949 35.058L88.0569 34.122L89.0059 35.058ZM89.4349 40.83C89.5215 40.83 89.5649 40.869 89.5649 40.947V41.87C89.5649 41.9567 89.5215 42 89.4349 42C88.6289 42 87.8835 41.6837 87.1989 41.051C86.7309 41.6837 85.8469 42 84.5469 42C84.4602 42 84.4169 41.9567 84.4169 41.87L84.4299 40.947C84.4299 40.869 84.4732 40.83 84.5599 40.83C85.2532 40.83 85.7559 40.7043 86.0679 40.453C86.3885 40.193 86.5489 39.777 86.5489 39.205V37.099L87.6409 36.93V39.504C87.6409 39.7207 87.6192 39.946 87.5759 40.18C88.1565 40.6133 88.7762 40.83 89.4349 40.83ZM93.6466 40.83C93.7332 40.83 93.7766 40.869 93.7766 40.947V41.87C93.7766 41.9567 93.7332 42 93.6466 42C92.5979 42 91.8526 41.7183 91.4106 41.155C90.8126 41.7183 90.1539 42 89.4346 42C89.3479 42 89.3046 41.9567 89.3046 41.87V40.947C89.3046 40.869 89.3479 40.83 89.4346 40.83C90.0586 40.83 90.5829 40.648 91.0076 40.284C90.9469 40.0413 90.9166 39.7467 90.9166 39.4V32.679L92.0216 32.51V39.14C92.0216 40.2667 92.5632 40.83 93.6466 40.83ZM97.2111 35.695C98.0431 35.695 98.7408 35.981 99.3041 36.553C99.8674 37.1163 100.149 37.8227 100.149 38.672C100.149 39.712 99.8241 40.5267 99.1741 41.116C98.5328 41.7053 97.6444 42 96.5091 42H93.6621C93.5754 42 93.5321 41.9567 93.5321 41.87V40.947C93.5321 40.869 93.5754 40.83 93.6621 40.83H94.7801C94.3901 40.024 94.1951 39.322 94.1951 38.724C94.1951 37.8487 94.4768 37.125 95.0401 36.553C95.6121 35.981 96.3358 35.695 97.2111 35.695ZM96.6001 40.83C97.3454 40.83 97.9391 40.6437 98.3811 40.271C98.8231 39.8983 99.0441 39.3783 99.0441 38.711C99.0441 38.1563 98.8621 37.7013 98.4981 37.346C98.1428 36.982 97.6921 36.8 97.1461 36.8C96.6261 36.8 96.1841 36.995 95.8201 37.385C95.4561 37.7663 95.2741 38.217 95.2741 38.737C95.2741 39.361 95.4908 40.0587 95.9241 40.83H96.6001ZM105.677 37.931H104.689V36.566H105.677V37.931ZM105.677 41.051H104.689V39.686H105.677V41.051Z" fill="#544C4C"/>
<path d="M113.22 33.511L112.206 34.525L110.854 33.173L112.193 31.834L113.22 32.835L114.234 31.834L115.586 33.173L114.26 34.525L113.22 33.511ZM117.211 39.855C117.289 39.855 117.341 39.907 117.341 39.985V41.857C117.341 41.935 117.289 42 117.211 42C116.392 42 115.768 41.844 115.313 41.519C114.533 41.922 113.844 42.117 113.129 42.117C111.283 42.117 109.97 40.687 109.97 38.841C109.97 36.995 111.283 35.422 113.129 35.422C113.558 35.422 113.974 35.513 114.442 35.669V34.967L116.47 34.72L116.483 39.049C116.483 39.621 116.743 39.855 117.211 39.855ZM113.129 40.115C113.61 40.128 114.078 40.05 114.481 39.894C114.455 39.725 114.455 39.53 114.455 39.335L114.442 37.658C114.026 37.515 113.636 37.424 113.233 37.424C112.401 37.424 111.855 37.996 111.855 38.802C111.855 39.53 112.388 40.089 113.129 40.115ZM119.539 35.448C120.683 35.448 121.671 35.929 124.674 38.022L124.271 40.089C121.697 41.519 119.968 42 117.225 42C117.147 42 117.082 41.935 117.082 41.857V39.985C117.082 39.907 117.147 39.855 117.225 39.855C119.682 39.855 121.034 39.634 122.594 39.036C120.852 37.853 120.163 37.502 119.292 37.502C118.876 37.502 118.577 37.58 118.044 37.684L117.667 35.89C118.395 35.578 118.98 35.448 119.539 35.448ZM120.085 43.833L121.437 42.494L122.789 43.833L121.45 45.172L120.085 43.833ZM124.815 44.795L124.672 43.144C125.725 43.144 126.492 42.728 126.492 41.61L126.479 35.656L128.507 35.409V41.701C128.507 43.95 127.298 44.795 124.815 44.795ZM136.893 39.855C136.971 39.855 137.023 39.907 137.023 39.985V41.857C137.023 41.935 136.971 42 136.893 42C136.139 42 135.476 41.727 134.956 41.22C134.436 41.74 133.617 42 132.512 42H129.6L129.288 39.855H132.538C133.266 39.855 133.617 39.452 133.617 38.854V38.438C133.604 37.749 133.032 37.281 132.2 37.281H131.316V35.201H132.668C134.436 35.201 135.658 36.267 135.658 38.256V39.27C135.658 39.361 135.658 39.452 135.645 39.543C135.996 39.738 136.386 39.855 136.893 39.855ZM136.89 42C136.812 42 136.76 41.935 136.76 41.857L136.773 39.985C136.773 39.907 136.825 39.855 136.903 39.855C137.644 39.855 137.982 39.439 137.982 38.516L137.995 32.744L140.023 32.51L140.01 39.244C140.01 41.077 138.983 42 136.89 42ZM141.861 42V32.744L143.889 32.51V42H141.861Z" fill="#229D71"/>
<path d="M32.6506 58.5455V76H29.4886V61.6222H29.3864L25.304 64.2301V61.3324L29.642 58.5455H32.6506ZM43.5341 76.3324C42.1307 76.3324 40.9261 75.9773 39.9205 75.267C38.9205 74.5511 38.1506 73.5199 37.6108 72.1733C37.0767 70.821 36.8097 69.1932 36.8097 67.2898C36.8153 65.3864 37.0852 63.767 37.6193 62.4318C38.1591 61.0909 38.929 60.0682 39.929 59.3636C40.9347 58.6591 42.1364 58.3068 43.5341 58.3068C44.9318 58.3068 46.1335 58.6591 47.1392 59.3636C48.1449 60.0682 48.9148 61.0909 49.4489 62.4318C49.9886 63.7727 50.2585 65.392 50.2585 67.2898C50.2585 69.1989 49.9886 70.8295 49.4489 72.1818C48.9148 73.5284 48.1449 74.5568 47.1392 75.267C46.1392 75.9773 44.9375 76.3324 43.5341 76.3324ZM43.5341 73.6648C44.625 73.6648 45.4858 73.1278 46.1165 72.054C46.7528 70.9744 47.071 69.3864 47.071 67.2898C47.071 65.9034 46.9261 64.7386 46.6364 63.7955C46.3466 62.8523 45.9375 62.142 45.4091 61.6648C44.8807 61.1818 44.2557 60.9403 43.5341 60.9403C42.4489 60.9403 41.5909 61.4801 40.9602 62.5597C40.3295 63.6335 40.0114 65.2102 40.0057 67.2898C40 68.6818 40.1392 69.8523 40.4233 70.8011C40.7131 71.75 41.1222 72.4659 41.6506 72.9489C42.179 73.4261 42.8068 73.6648 43.5341 73.6648ZM59.5419 76.3324C58.1385 76.3324 56.9339 75.9773 55.9283 75.267C54.9283 74.5511 54.1584 73.5199 53.6186 72.1733C53.0845 70.821 52.8175 69.1932 52.8175 67.2898C52.8232 65.3864 53.093 63.767 53.6271 62.4318C54.1669 61.0909 54.9368 60.0682 55.9368 59.3636C56.9425 58.6591 58.1442 58.3068 59.5419 58.3068C60.9396 58.3068 62.1413 58.6591 63.147 59.3636C64.1527 60.0682 64.9226 61.0909 65.4567 62.4318C65.9964 63.7727 66.2663 65.392 66.2663 67.2898C66.2663 69.1989 65.9964 70.8295 65.4567 72.1818C64.9226 73.5284 64.1527 74.5568 63.147 75.267C62.147 75.9773 60.9453 76.3324 59.5419 76.3324ZM59.5419 73.6648C60.6328 73.6648 61.4936 73.1278 62.1243 72.054C62.7607 70.9744 63.0788 69.3864 63.0788 67.2898C63.0788 65.9034 62.9339 64.7386 62.6442 63.7955C62.3544 62.8523 61.9453 62.142 61.4169 61.6648C60.8885 61.1818 60.2635 60.9403 59.5419 60.9403C58.4567 60.9403 57.5987 61.4801 56.968 62.5597C56.3374 63.6335 56.0192 65.2102 56.0135 67.2898C56.0078 68.6818 56.147 69.8523 56.4311 70.8011C56.7209 71.75 57.13 72.4659 57.6584 72.9489C58.1868 73.4261 58.8146 73.6648 59.5419 73.6648Z" fill="#229D71"/>
<path d="M3.626 86.928L2.604 87.936L1.582 86.928L2.604 85.92L3.626 86.928ZM5.852 86.928L4.83 87.936L3.794 86.928L4.83 85.92L5.852 86.928ZM8.162 94.74C8.25533 94.74 8.302 94.782 8.302 94.866V95.86C8.302 95.9533 8.25533 96 8.162 96C7.30333 96 6.66867 95.7993 6.258 95.398C5.31533 95.8833 4.47067 96.126 3.724 96.126C2.78133 96.126 2.00667 95.804 1.4 95.16C0.802667 94.516 0.504 93.718 0.504 92.766C0.504 91.7953 0.807333 90.9693 1.414 90.288C2.02067 89.6067 2.79067 89.266 3.724 89.266C4.29333 89.266 4.91867 89.3967 5.6 89.658V88.79L6.776 88.594L6.79 93.172C6.79 93.732 6.89733 94.1333 7.112 94.376C7.32667 94.6187 7.67667 94.74 8.162 94.74ZM3.724 94.922C4.34933 94.9313 5.02133 94.7727 5.74 94.446C5.64667 94.1287 5.6 93.7413 5.6 93.284V90.848C4.844 90.596 4.23267 90.47 3.766 90.47C3.14067 90.47 2.62733 90.6893 2.226 91.128C1.834 91.5667 1.638 92.108 1.638 92.752C1.638 93.368 1.82933 93.8813 2.212 94.292C2.604 94.7027 3.108 94.9127 3.724 94.922ZM13.4261 94.74C13.5194 94.74 13.5661 94.782 13.5661 94.866V95.86C13.5661 95.9533 13.5194 96 13.4261 96C12.5581 96 11.7554 95.6593 11.0181 94.978C10.5141 95.6593 9.56211 96 8.16211 96C8.06878 96 8.02211 95.9533 8.02211 95.86L8.03611 94.866C8.03611 94.782 8.08278 94.74 8.17611 94.74C8.92278 94.74 9.46411 94.6047 9.80011 94.334C10.1454 94.054 10.3181 93.606 10.3181 92.99V90.722L11.4941 90.54V93.312C11.4941 93.5453 11.4708 93.788 11.4241 94.04C12.0494 94.5067 12.7168 94.74 13.4261 94.74ZM8.62411 98.114L9.64611 97.106L10.6681 98.114L9.64611 99.122L8.62411 98.114ZM10.8361 98.114L11.8721 97.106L12.8941 98.114L11.8721 99.122L10.8361 98.114ZM13.4258 96C13.3324 96 13.2858 95.9533 13.2858 95.86V94.866C13.2858 94.782 13.3371 94.74 13.4398 94.74C14.6064 94.74 15.1898 94.1333 15.1898 92.92L15.2038 85.962L16.3798 85.78V93.2C16.3798 95.0667 15.3951 96 13.4258 96ZM21.74 96C19.78 96 18.8 95.0667 18.8 93.2L18.786 85.962L19.976 85.78V92.92C19.976 94.1333 20.5594 94.74 21.726 94.74C21.8194 94.74 21.866 94.782 21.866 94.866L21.88 95.86C21.88 95.9533 21.8334 96 21.74 96ZM29.6343 94.74C29.7276 94.74 29.7743 94.782 29.7743 94.866V95.86C29.7743 95.9533 29.7276 96 29.6343 96H26.2463C25.3223 96 24.5476 95.7713 23.9223 95.314C23.1943 95.7713 22.4663 96 21.7383 96C21.6449 96 21.5983 95.9533 21.5983 95.86V94.866C21.5983 94.782 21.6449 94.74 21.7383 94.74C22.2236 94.74 22.6856 94.6373 23.1243 94.432C22.7883 93.8813 22.6203 93.2233 22.6203 92.458C22.6203 91.5247 22.9189 90.75 23.5163 90.134C24.1136 89.518 24.8743 89.21 25.7983 89.21C26.6663 89.21 27.4083 89.5227 28.0243 90.148C28.6403 90.764 28.9483 91.492 28.9483 92.332C28.9483 93.06 28.7849 93.8627 28.4583 94.74H29.6343ZM26.1483 94.74H27.3103C27.6369 93.8253 27.8003 93.088 27.8003 92.528C27.8003 91.9587 27.6136 91.4593 27.2403 91.03C26.8763 90.6007 26.4189 90.386 25.8683 90.386C25.2429 90.386 24.7436 90.582 24.3703 90.974C23.9969 91.3567 23.8103 91.8653 23.8103 92.5C23.8103 93.172 24.0203 93.7133 24.4403 94.124C24.8603 94.5347 25.4296 94.74 26.1483 94.74ZM32.1046 89.392C32.7113 89.392 33.3506 89.5927 34.0226 89.994C34.704 90.3953 35.8426 91.2587 37.4386 92.584L37.2566 93.746C35.8006 94.5207 34.4753 95.09 33.2806 95.454C32.0953 95.818 30.8866 96 29.6546 96C29.552 96 29.5006 95.9533 29.5006 95.86V94.866C29.5006 94.782 29.552 94.74 29.6546 94.74C31.8106 94.74 33.9993 94.1987 36.2206 93.116C35.0166 92.108 34.1253 91.4407 33.5466 91.114C32.9773 90.7873 32.436 90.624 31.9226 90.624C31.708 90.624 31.2506 90.6987 30.5506 90.848L30.3126 89.784C31.0033 89.5227 31.6006 89.392 32.1046 89.392ZM32.5946 98.044L33.6026 97.022L34.6526 98.044L33.6306 99.052L32.5946 98.044ZM44.7174 85.962L45.9074 85.78V93.2C45.9074 95.0667 44.9228 96 42.9534 96H42.9394H38.3194L38.0954 94.74H41.4134L40.0134 87.908L41.1894 87.614L42.5334 94.74H42.9394H42.9534C44.1294 94.74 44.7174 94.1333 44.7174 92.92V85.962ZM48.3313 96V85.962L49.5213 85.78V96H48.3313ZM62.9493 89.098C63.8359 89.098 64.5639 89.378 65.1333 89.938C65.7119 90.498 66.0013 91.212 66.0013 92.08C66.0013 92.5093 65.9639 92.9013 65.8893 93.256C65.8239 93.6013 65.6933 94.1567 65.4973 94.922L64.5593 96H56.8873H56.2993H54.4932L54.2693 94.74H56.2993V85.962L57.4893 85.78V90.722C58.9266 90.106 60.0186 89.6813 60.7653 89.448C61.5213 89.2147 62.2493 89.098 62.9493 89.098ZM64.3493 94.74C64.6573 93.6947 64.8113 92.864 64.8113 92.248C64.8019 91.688 64.5966 91.2307 64.1953 90.876C63.8033 90.512 63.3039 90.33 62.6973 90.33C62.0719 90.33 61.4606 90.4187 60.8633 90.596C60.2753 90.764 59.1506 91.156 57.4893 91.772V94.74H64.3493ZM70.781 96C68.821 96 67.841 95.0667 67.841 93.2L67.827 85.962L69.017 85.78V92.92C69.017 94.1333 69.6004 94.74 70.767 94.74C70.8604 94.74 70.907 94.782 70.907 94.866L70.921 95.86C70.921 95.9533 70.8744 96 70.781 96ZM74.6433 87.026L73.6213 88.034L72.5993 87.026L73.6213 86.018L74.6433 87.026ZM76.8693 87.026L75.8473 88.034L74.8113 87.026L75.8473 86.018L76.8693 87.026ZM78.6613 94.74C78.7546 94.74 78.8013 94.782 78.8013 94.866V95.86C78.8013 95.9533 78.7546 96 78.6613 96C77.28 96 75.9966 95.8273 74.8113 95.482C73.7473 95.8273 72.4033 96 70.7793 96C70.686 95.9907 70.6393 95.944 70.6393 95.86V94.866C70.6393 94.782 70.686 94.74 70.7793 94.74C71.5913 94.74 72.3193 94.712 72.9633 94.656C72.1046 94.012 71.6753 93.186 71.6753 92.178C71.6753 91.3287 71.9693 90.624 72.5573 90.064C73.1453 89.4947 73.878 89.21 74.7553 89.21C75.6513 89.21 76.3886 89.4993 76.9673 90.078C77.546 90.6473 77.8353 91.3473 77.8353 92.178C77.8353 93.1767 77.406 93.9933 76.5473 94.628C77.098 94.7027 77.8026 94.74 78.6613 94.74ZM74.7133 90.386C74.1626 90.386 73.71 90.568 73.3553 90.932C73.01 91.2867 72.8373 91.744 72.8373 92.304C72.8373 92.7987 73.01 93.2467 73.3553 93.648C73.7006 94.0493 74.1626 94.334 74.7413 94.502C75.3386 94.306 75.81 94.012 76.1553 93.62C76.51 93.228 76.6873 92.7893 76.6873 92.304C76.6873 91.744 76.496 91.2867 76.1133 90.932C75.74 90.568 75.2733 90.386 74.7133 90.386ZM82.042 88.482L81.02 89.504L79.984 88.482L80.992 87.474L82.042 88.482ZM83.302 94.74C83.3953 94.74 83.442 94.782 83.442 94.866V95.86C83.442 95.9533 83.3953 96 83.302 96C82.5086 96 81.7666 95.6967 81.076 95.09C80.5813 95.6967 79.7786 96 78.668 96C78.5746 96 78.528 95.9533 78.528 95.86L78.542 94.866C78.542 94.782 78.5886 94.74 78.682 94.74C79.858 94.74 80.446 94.1567 80.446 92.99L80.432 90.722L81.622 90.54V93.312C81.622 93.6387 81.5893 93.9187 81.524 94.152C82.1026 94.544 82.6953 94.74 83.302 94.74ZM83.3027 96C83.2094 96 83.1627 95.9533 83.1627 95.86V94.866C83.1627 94.782 83.2141 94.74 83.3167 94.74C84.4834 94.74 85.0667 94.1333 85.0667 92.92L85.0807 85.962L86.2567 85.78V93.2C86.2567 95.0667 85.2721 96 83.3027 96ZM88.677 96V85.962L89.867 85.78V96H88.677Z" fill="#544C4C"/>
<path d="M135.815 76.2386C134.588 76.2386 133.497 76.0284 132.543 75.608C131.594 75.1875 130.844 74.6023 130.293 73.8523C129.741 73.1023 129.449 72.2358 129.415 71.2528H132.619C132.648 71.7244 132.804 72.1364 133.088 72.4886C133.372 72.8352 133.75 73.1051 134.222 73.2983C134.693 73.4915 135.222 73.5881 135.807 73.5881C136.432 73.5881 136.986 73.4801 137.469 73.2642C137.952 73.0426 138.33 72.7358 138.602 72.3438C138.875 71.9517 139.009 71.5 139.003 70.9886C139.009 70.4602 138.872 69.9943 138.594 69.5909C138.315 69.1875 137.912 68.8722 137.384 68.6449C136.861 68.4176 136.23 68.304 135.491 68.304H133.949V65.8665H135.491C136.099 65.8665 136.631 65.7614 137.085 65.5511C137.545 65.3409 137.906 65.0455 138.168 64.6648C138.429 64.2784 138.557 63.8324 138.551 63.3267C138.557 62.8324 138.446 62.4034 138.219 62.0398C137.997 61.6705 137.682 61.3835 137.273 61.179C136.869 60.9744 136.395 60.8722 135.849 60.8722C135.315 60.8722 134.821 60.9687 134.366 61.1619C133.912 61.3551 133.545 61.6307 133.267 61.9886C132.989 62.3409 132.841 62.7614 132.824 63.25H129.781C129.804 62.2727 130.085 61.4148 130.625 60.6761C131.17 59.9318 131.898 59.3523 132.807 58.9375C133.716 58.517 134.736 58.3068 135.866 58.3068C137.031 58.3068 138.043 58.5256 138.901 58.9631C139.764 59.3949 140.432 59.9773 140.903 60.7102C141.375 61.4432 141.611 62.2528 141.611 63.1392C141.616 64.1222 141.327 64.946 140.741 65.6108C140.162 66.2756 139.401 66.7102 138.457 66.9148V67.0511C139.685 67.2216 140.625 67.6761 141.278 68.4148C141.938 69.1477 142.264 70.0597 142.259 71.1506C142.259 72.1278 141.98 73.0028 141.423 73.7756C140.872 74.5426 140.111 75.1449 139.139 75.5824C138.173 76.0199 137.065 76.2386 135.815 76.2386ZM151.388 76.2386C150.121 76.2386 148.996 76.0256 148.013 75.5994C147.036 75.1733 146.269 74.5909 145.712 73.8523C145.161 73.108 144.888 72.2642 144.894 71.321C144.888 70.5881 145.048 69.9148 145.371 69.3011C145.695 68.6875 146.133 68.1761 146.684 67.767C147.241 67.3523 147.86 67.0881 148.542 66.9744V66.8551C147.644 66.6562 146.917 66.1989 146.36 65.483C145.809 64.7614 145.536 63.929 145.542 62.9858C145.536 62.0881 145.786 61.2869 146.292 60.5824C146.798 59.8778 147.491 59.3239 148.371 58.9205C149.252 58.5114 150.258 58.3068 151.388 58.3068C152.508 58.3068 153.505 58.5114 154.38 58.9205C155.261 59.3239 155.954 59.8778 156.46 60.5824C156.971 61.2869 157.227 62.0881 157.227 62.9858C157.227 63.929 156.945 64.7614 156.383 65.483C155.826 66.1989 155.107 66.6562 154.227 66.8551V66.9744C154.908 67.0881 155.522 67.3523 156.067 67.767C156.619 68.1761 157.056 68.6875 157.38 69.3011C157.71 69.9148 157.874 70.5881 157.874 71.321C157.874 72.2642 157.596 73.108 157.039 73.8523C156.482 74.5909 155.715 75.1733 154.738 75.5994C153.766 76.0256 152.65 76.2386 151.388 76.2386ZM151.388 73.8011C152.042 73.8011 152.61 73.6903 153.093 73.4688C153.576 73.2415 153.951 72.9233 154.218 72.5142C154.485 72.1051 154.621 71.6335 154.627 71.0994C154.621 70.5426 154.477 70.0511 154.192 69.625C153.914 69.1932 153.531 68.8551 153.042 68.6108C152.559 68.3665 152.008 68.2443 151.388 68.2443C150.763 68.2443 150.207 68.3665 149.718 68.6108C149.229 68.8551 148.843 69.1932 148.559 69.625C148.281 70.0511 148.144 70.5426 148.15 71.0994C148.144 71.6335 148.275 72.1051 148.542 72.5142C148.809 72.9176 149.184 73.233 149.667 73.4602C150.156 73.6875 150.729 73.8011 151.388 73.8011ZM151.388 65.8494C151.923 65.8494 152.394 65.7415 152.803 65.5256C153.218 65.3097 153.545 65.0085 153.783 64.6222C154.022 64.2358 154.144 63.7898 154.15 63.2841C154.144 62.7841 154.025 62.3466 153.792 61.9716C153.559 61.5909 153.235 61.2983 152.82 61.0938C152.406 60.8835 151.928 60.7784 151.388 60.7784C150.837 60.7784 150.352 60.8835 149.931 61.0938C149.516 61.2983 149.192 61.5909 148.96 61.9716C148.732 62.3466 148.621 62.7841 148.627 63.2841C148.621 63.7898 148.735 64.2358 148.968 64.6222C149.207 65.0028 149.533 65.304 149.948 65.5256C150.369 65.7415 150.849 65.8494 151.388 65.8494ZM167.068 76.2386C166.233 76.233 165.418 76.0881 164.622 75.804C163.827 75.5142 163.111 75.0455 162.474 74.3977C161.838 73.7443 161.332 72.8778 160.957 71.7983C160.582 70.7131 160.398 69.3693 160.403 67.767C160.403 66.2727 160.563 64.9403 160.881 63.7699C161.199 62.5994 161.656 61.6108 162.253 60.804C162.849 59.9915 163.568 59.3722 164.409 58.946C165.256 58.5199 166.202 58.3068 167.247 58.3068C168.344 58.3068 169.315 58.5227 170.162 58.9545C171.014 59.3864 171.702 59.9773 172.224 60.7273C172.747 61.4716 173.071 62.3125 173.196 63.25H170.085C169.926 62.5795 169.599 62.0455 169.105 61.6477C168.616 61.2443 167.997 61.0426 167.247 61.0426C166.037 61.0426 165.105 61.5682 164.452 62.6193C163.804 63.6705 163.477 65.1136 163.472 66.9489H163.591C163.869 66.4489 164.23 66.0199 164.673 65.6619C165.116 65.304 165.616 65.0284 166.173 64.8352C166.736 64.6364 167.33 64.5369 167.955 64.5369C168.977 64.5369 169.895 64.7812 170.707 65.2699C171.526 65.7585 172.173 66.4318 172.651 67.2898C173.128 68.142 173.364 69.1193 173.358 70.2216C173.364 71.3693 173.102 72.4006 172.574 73.3153C172.045 74.2244 171.31 74.9403 170.366 75.4631C169.423 75.9858 168.324 76.2443 167.068 76.2386ZM167.051 73.6818C167.67 73.6818 168.224 73.5312 168.713 73.2301C169.202 72.929 169.588 72.5227 169.872 72.0114C170.156 71.5 170.295 70.9261 170.29 70.2898C170.295 69.6648 170.159 69.0994 169.881 68.5938C169.608 68.0881 169.23 67.6875 168.747 67.392C168.264 67.0966 167.713 66.9489 167.094 66.9489C166.634 66.9489 166.205 67.0369 165.807 67.2131C165.409 67.3892 165.063 67.6335 164.767 67.946C164.472 68.2528 164.239 68.6108 164.068 69.0199C163.903 69.4233 163.818 69.8551 163.812 70.3153C163.818 70.9233 163.96 71.483 164.239 71.9943C164.517 72.5057 164.901 72.9148 165.389 73.2216C165.878 73.5284 166.432 73.6818 167.051 73.6818ZM182.298 58.3068C183.134 58.3125 183.946 58.4602 184.736 58.75C185.531 59.0341 186.247 59.5 186.884 60.1477C187.52 60.7898 188.026 61.6506 188.401 62.7301C188.776 63.8097 188.963 65.1449 188.963 66.7358C188.969 68.2358 188.81 69.5767 188.486 70.7585C188.168 71.9347 187.71 72.929 187.114 73.7415C186.517 74.554 185.798 75.1733 184.957 75.5994C184.116 76.0256 183.17 76.2386 182.119 76.2386C181.017 76.2386 180.04 76.0227 179.188 75.5909C178.341 75.1591 177.656 74.5682 177.134 73.8182C176.611 73.0682 176.29 72.2102 176.17 71.2443H179.281C179.44 71.9375 179.764 72.4886 180.253 72.8977C180.747 73.3011 181.369 73.5028 182.119 73.5028C183.33 73.5028 184.261 72.9773 184.915 71.9261C185.568 70.875 185.895 69.4148 185.895 67.5455H185.776C185.497 68.0455 185.136 68.4773 184.693 68.8409C184.25 69.1989 183.747 69.4744 183.185 69.6676C182.628 69.8608 182.037 69.9574 181.412 69.9574C180.389 69.9574 179.469 69.7131 178.651 69.2244C177.838 68.7358 177.193 68.0653 176.716 67.2131C176.244 66.3608 176.006 65.3864 176 64.2898C176 63.1534 176.261 62.1335 176.784 61.2301C177.313 60.321 178.048 59.6051 178.991 59.0824C179.935 58.554 181.037 58.2955 182.298 58.3068ZM182.307 60.8636C181.693 60.8636 181.139 61.0142 180.645 61.3153C180.156 61.6108 179.77 62.0142 179.486 62.5256C179.207 63.0312 179.068 63.5966 179.068 64.2216C179.074 64.8409 179.213 65.4034 179.486 65.9091C179.764 66.4148 180.142 66.8153 180.619 67.1108C181.102 67.4062 181.653 67.554 182.273 67.554C182.733 67.554 183.162 67.4659 183.56 67.2898C183.957 67.1136 184.304 66.8693 184.599 66.5568C184.901 66.2386 185.134 65.8778 185.298 65.4744C185.469 65.071 185.551 64.6449 185.545 64.196C185.545 63.5994 185.403 63.0483 185.119 62.5426C184.841 62.0369 184.457 61.6307 183.969 61.3239C183.486 61.017 182.932 60.8636 182.307 60.8636Z" fill="#229D71"/>
<path d="M125.196 94.74C125.289 94.74 125.336 94.782 125.336 94.866V95.86C125.336 95.9533 125.289 96 125.196 96H122.354V90.596H121.22C120.651 90.596 120.207 90.7453 119.89 91.044C119.582 91.3333 119.428 91.7627 119.428 92.332V94.88C119.428 96.2427 119.129 97.2693 118.532 97.96C117.944 98.66 116.908 99.01 115.424 99.01C114.248 99.01 113.315 98.702 112.624 98.086C111.943 97.4793 111.602 96.5787 111.602 95.384C111.602 94.3853 111.807 93.2607 112.218 92.01L113.184 92.276C112.857 93.2373 112.694 94.1707 112.694 95.076C112.703 95.9533 112.951 96.616 113.436 97.064C113.921 97.5213 114.607 97.75 115.494 97.75C116.511 97.75 117.225 97.526 117.636 97.078C118.047 96.63 118.252 95.8553 118.252 94.754V92.122C118.252 91.2633 118.49 90.5867 118.966 90.092C119.451 89.588 120.147 89.336 121.052 89.336H122.732L123.544 90.05V94.74H125.196ZM114.094 100.858L115.116 99.85L116.138 100.858L115.116 101.866L114.094 100.858ZM116.306 100.858L117.342 99.85L118.364 100.858L117.342 101.866L116.306 100.858ZM125.191 96C125.098 96 125.051 95.9533 125.051 95.86V94.866C125.051 94.782 125.103 94.74 125.205 94.74C126.372 94.74 126.955 94.1333 126.955 92.92L126.969 85.962L128.145 85.78V93.2C128.145 95.0667 127.161 96 125.191 96ZM133.506 96C131.546 96 130.566 95.0667 130.566 93.2L130.552 85.962L131.742 85.78V92.92C131.742 94.1333 132.325 94.74 133.492 94.74C133.585 94.74 133.632 94.782 133.632 94.866L133.646 95.86C133.646 95.9533 133.599 96 133.506 96ZM141.4 94.74C141.493 94.74 141.54 94.782 141.54 94.866V95.86C141.54 95.9533 141.493 96 141.4 96H138.012C137.088 96 136.313 95.7713 135.688 95.314C134.96 95.7713 134.232 96 133.504 96C133.411 96 133.364 95.9533 133.364 95.86V94.866C133.364 94.782 133.411 94.74 133.504 94.74C133.989 94.74 134.451 94.6373 134.89 94.432C134.554 93.8813 134.386 93.2233 134.386 92.458C134.386 91.5247 134.685 90.75 135.282 90.134C135.879 89.518 136.64 89.21 137.564 89.21C138.432 89.21 139.174 89.5227 139.79 90.148C140.406 90.764 140.714 91.492 140.714 92.332C140.714 93.06 140.551 93.8627 140.224 94.74H141.4ZM137.914 94.74H139.076C139.403 93.8253 139.566 93.088 139.566 92.528C139.566 91.9587 139.379 91.4593 139.006 91.03C138.642 90.6007 138.185 90.386 137.634 90.386C137.009 90.386 136.509 90.582 136.136 90.974C135.763 91.3567 135.576 91.8653 135.576 92.5C135.576 93.172 135.786 93.7133 136.206 94.124C136.626 94.5347 137.195 94.74 137.914 94.74ZM143.87 89.392C144.477 89.392 145.116 89.5927 145.788 89.994C146.47 90.3953 147.608 91.2587 149.204 92.584L149.022 93.746C147.566 94.5207 146.241 95.09 145.046 95.454C143.861 95.818 142.652 96 141.42 96C141.318 96 141.266 95.9533 141.266 95.86V94.866C141.266 94.782 141.318 94.74 141.42 94.74C143.576 94.74 145.765 94.1987 147.986 93.116C146.782 92.108 145.891 91.4407 145.312 91.114C144.743 90.7873 144.202 90.624 143.688 90.624C143.474 90.624 143.016 90.6987 142.316 90.848L142.078 89.784C142.769 89.5227 143.366 89.392 143.87 89.392ZM144.36 98.044L145.368 97.022L146.418 98.044L145.396 99.052L144.36 98.044ZM156.483 85.962L157.673 85.78V93.2C157.673 95.0667 156.688 96 154.719 96H154.705H150.085L149.861 94.74H153.179L151.779 87.908L152.955 87.614L154.299 94.74H154.705H154.719C155.895 94.74 156.483 94.1333 156.483 92.92V85.962ZM160.097 96V85.962L161.287 85.78V96H160.097ZM177.977 94.74C178.07 94.74 178.117 94.782 178.117 94.866V95.86C178.117 95.9533 178.07 96 177.977 96C177.184 96 176.442 95.6967 175.751 95.09C175.275 95.6687 174.524 95.972 173.497 96H173.469H169.829C168.709 96 167.855 95.7387 167.267 95.216C166.688 94.6933 166.399 93.9187 166.399 92.892C166.399 92.1173 166.539 91.1 166.819 89.84L167.855 89.98C167.631 91.128 167.519 91.9913 167.519 92.57C167.519 94.0167 168.382 94.74 170.109 94.74H173.343C174.519 94.74 175.107 94.1567 175.107 92.99V90.722L176.297 90.54V93.312C176.297 93.6387 176.264 93.9187 176.199 94.152C176.778 94.544 177.37 94.74 177.977 94.74ZM170.711 98.114L171.719 97.092L172.769 98.114L171.747 99.122L170.711 98.114ZM183.243 94.74C183.336 94.74 183.383 94.782 183.383 94.866V95.86C183.383 95.9533 183.336 96 183.243 96C182.375 96 181.572 95.6593 180.835 94.978C180.331 95.6593 179.379 96 177.979 96C177.885 96 177.839 95.9533 177.839 95.86L177.853 94.866C177.853 94.782 177.899 94.74 177.993 94.74C178.739 94.74 179.281 94.6047 179.617 94.334C179.962 94.054 180.135 93.606 180.135 92.99V90.722L181.311 90.54V93.312C181.311 93.5453 181.287 93.788 181.241 94.04C181.866 94.5067 182.533 94.74 183.243 94.74ZM178.441 98.114L179.463 97.106L180.485 98.114L179.463 99.122L178.441 98.114ZM180.653 98.114L181.689 97.106L182.711 98.114L181.689 99.122L180.653 98.114ZM185.44 87.95L184.418 86.928L185.44 85.92L186.462 86.928L185.44 87.95ZM187.666 87.95L186.63 86.928L187.666 85.92L188.688 86.928L187.666 87.95ZM183.242 96C183.149 96 183.102 95.9533 183.102 95.86L183.116 94.866C183.116 94.782 183.163 94.74 183.256 94.74H184.32C185.487 94.74 186.07 94.1567 186.07 92.99V89.238L187.246 89.042V93.312C187.246 94.1707 186.999 94.8333 186.504 95.3C186.01 95.7667 185.277 96 184.306 96H183.242ZM193.323 94.74C193.416 94.74 193.463 94.782 193.463 94.866V95.86C193.463 95.9533 193.416 96 193.323 96C192.604 96 192.077 95.7527 191.741 95.258V95.622C191.741 96.7887 191.442 97.6427 190.845 98.184C190.248 98.7347 189.352 99.01 188.157 99.01L188.045 97.988C189.725 97.988 190.565 97.1853 190.565 95.58L190.551 89.238L191.741 89.042V93.41C191.806 94.2967 192.334 94.74 193.323 94.74ZM195.908 88.524L194.886 89.532L193.864 88.524L194.886 87.516L195.908 88.524ZM198.134 88.524L197.112 89.532L196.076 88.524L197.112 87.516L198.134 88.524ZM198.596 94.74C198.689 94.74 198.736 94.782 198.736 94.866V95.86C198.736 95.9533 198.689 96 198.596 96C197.728 96 196.925 95.6593 196.188 94.978C195.684 95.6593 194.732 96 193.332 96C193.239 96 193.192 95.9533 193.192 95.86L193.206 94.866C193.206 94.782 193.253 94.74 193.346 94.74C194.093 94.74 194.634 94.6047 194.97 94.334C195.315 94.054 195.488 93.606 195.488 92.99V90.722L196.664 90.54V93.312C196.664 93.5453 196.641 93.788 196.594 94.04C197.219 94.5067 197.887 94.74 198.596 94.74ZM198.596 96C198.502 96 198.456 95.9533 198.456 95.86V94.866C198.456 94.782 198.507 94.74 198.61 94.74C199.776 94.74 200.36 94.1333 200.36 92.92L200.374 85.962L201.55 85.78V93.2C201.55 95.0667 200.565 96 198.596 96ZM203.97 96V85.962L205.16 85.78V96H203.97Z" fill="#544C4C"/>
</svg>
