<svg width="98" height="34" viewBox="0 0 98 34" fill="none" xmlns="http://www.w3.org/2000/svg">
<path d="M30.4512 26.7091V17.428L32.4847 17.1934V26.7091H30.4512Z" fill="white"/>
<path d="M25.2225 29.513L25.0791 27.8575C26.135 27.8575 26.904 27.4404 26.904 26.3194L26.891 20.3492L28.9245 20.1016V26.4106C28.9245 28.6657 27.7122 29.513 25.2225 29.513Z" fill="white"/>
<path d="M23.2107 18.3417L22.1939 19.3454L20.8252 18.0028L22.1678 16.6602L23.1976 17.6639L24.2144 16.6602L25.5831 18.0028L24.2404 19.3454L23.2107 18.3417ZM22.2591 23.2299L22.246 20.3491L24.2795 20.1014V23.9729C24.2795 25.7718 23.2498 26.7103 21.1511 26.7103H20.0561C19.9779 26.7103 19.9258 26.6451 19.9258 26.5669L19.9519 24.6898C19.9519 24.6116 20.004 24.5595 20.0822 24.5595H21.1772C21.9071 24.5595 22.2591 24.1554 22.2591 23.2299Z" fill="white"/>
<path d="M16.3188 18.119L15.302 19.1358L13.9464 17.7801L15.289 16.4375L16.3188 17.4412L17.3355 16.4375L18.6912 17.7801L17.3616 19.1358L16.3188 18.119ZM20.0599 24.5584C20.1381 24.5584 20.1902 24.6106 20.1902 24.6888V26.5658C20.1902 26.6441 20.1381 26.7092 20.0599 26.7092C19.0561 26.7092 17.8699 26.4876 16.6316 26.0575C15.5236 26.5137 14.1549 26.7092 12.8384 26.7092C12.7601 26.6962 12.708 26.6441 12.708 26.5658V24.6888C12.708 24.6106 12.7601 24.5584 12.8384 24.5584C13.2685 24.5584 13.6987 24.5454 14.1028 24.5063C13.7378 24.024 13.5292 23.4504 13.5292 22.7987C13.5292 21.2345 14.6894 19.9961 16.4752 19.9961C18.274 19.9961 19.4733 21.3257 19.4733 22.8117C19.4733 23.4374 19.2386 23.9979 18.8606 24.4802C19.2256 24.5324 19.6167 24.5584 20.0599 24.5584ZM16.3709 21.9384C15.6931 21.9384 15.2629 22.4598 15.2629 23.0724C15.2629 23.646 15.667 24.2065 16.3839 24.4672C17.0878 24.1674 17.518 23.6329 17.518 23.0724C17.518 22.3946 16.9575 21.9384 16.3709 21.9384Z" fill="white"/>
<path d="M12.8379 24.5579C12.9161 24.5579 12.9683 24.61 12.9683 24.6882V26.5653C12.9683 26.6435 12.9161 26.7087 12.8379 26.7087H9.3575V22.4201H8.6145C7.9106 22.4201 7.51954 22.8633 7.51954 23.7367V25.6398C7.51954 28.1426 6.92434 29.4517 4.08266 29.4517C1.5408 29.4517 0.601562 28.132 0.601562 25.7987V15.7852H2.53551V25.3661C2.53551 26.6696 2.53551 27.4318 4.08266 27.4318C5.48605 27.4318 5.48605 25.3661 5.48605 25.3661V24.2972V23.2283C5.48605 21.4555 6.42458 20.2693 8.22344 20.2693H10.2048L11.391 21.3121V24.5579H12.8379Z" fill="white"/>
<path d="M5.00816 30.0986L4.08266 31.0241L3.13109 30.0986L1.78847 31.4413L3.15716 32.7839L4.08266 31.8584L5.03423 32.7839L6.37686 31.4413L5.00816 30.0986Z" fill="white"/>
<path d="M2.78603 15.8093H0.255843C0.028339 15.8093 -0.0854132 15.4724 0.0751156 15.276L1.34021 13.7284C1.44014 13.6062 1.60173 13.6062 1.7006 13.7284L2.9657 15.276C3.12729 15.4724 3.01354 15.8093 2.78603 15.8093Z" fill="white"/>
<path d="M6.87305 12.9492C7.76087 12.9492 8.42343 13.5373 8.42343 14.4969V15.9516C8.42343 17.0226 7.31696 17.4188 5.70033 17.4188L5.59432 16.6326C6.81342 16.6326 7.35672 16.4469 7.38984 15.9578C7.18445 16.0383 6.97906 16.0878 6.78029 16.0878C5.87259 16.0878 5.24316 15.4811 5.24316 14.5464C5.24316 13.6302 5.95872 12.9492 6.87305 12.9492ZM6.17074 14.5154C6.17074 14.924 6.46889 15.1283 6.87305 15.1221C7.03206 15.1221 7.21095 15.0973 7.39647 15.0602V14.5649C7.39647 14.1626 7.15132 13.9273 6.79354 13.9273C6.46227 13.9273 6.17074 14.1564 6.17074 14.5154Z" fill="white"/>
<path d="M28.4496 2.95508V12.5312H26.4032V3.1912L28.4496 2.95508ZM27.2952 14.8924H28.9612L28.7119 15.9943H25.5898V14.8924H26.1539C26.049 14.6957 26.0096 14.4858 26.0096 14.2496C26.0096 13.5675 26.5606 13.0559 27.2952 13.0559C27.7412 13.0559 28.1872 13.1871 28.4758 13.3183V14.3152C28.1478 14.1841 27.8593 14.1185 27.6494 14.1185C27.3477 14.1185 27.1509 14.2628 27.1509 14.4858C27.1509 14.6432 27.2034 14.7744 27.2952 14.8924Z" fill="white"/>
<path d="M21.775 3.88558L20.7518 4.90878L19.3875 3.54451L20.7387 2.19336L21.775 3.20344L22.7982 2.19336L24.1625 3.54451L22.8244 4.90878L21.775 3.88558ZM21.8406 5.77456C23.7164 5.77456 25.0807 7.11259 25.0807 8.94911C25.0807 11.1267 23.6377 12.5303 21.329 12.5303H18.3118C18.22 12.5303 18.1807 12.491 18.1807 12.386V10.497C18.1807 10.4183 18.2331 10.3658 18.3118 10.3658H19.1252C18.8759 9.84113 18.7316 9.34265 18.7316 8.83105C18.7316 7.04701 20.0828 5.77456 21.8406 5.77456ZM21.3421 10.3658C22.4046 10.3658 23.0343 9.80178 23.0343 8.93599C23.0343 8.24074 22.5096 7.72914 21.8143 7.72914C21.1191 7.72914 20.555 8.29321 20.555 9.0147C20.555 9.43447 20.6862 9.88048 20.9223 10.3658H21.3421Z" fill="white"/>
<path d="M18.3141 10.3652C18.3929 10.3652 18.4453 10.4177 18.4453 10.4964V12.3854C18.4453 12.4641 18.3929 12.5297 18.3141 12.5297C17.7632 12.5297 17.2909 12.3461 16.9499 12.005V12.228C16.9499 14.4974 15.7299 15.3501 13.2244 15.3501L13.0801 13.6841C14.1426 13.6841 14.9166 13.2643 14.9166 12.1362L14.9035 6.12815L16.9499 5.87891V9.40764C17.0548 10.0242 17.6189 10.3652 18.3141 10.3652Z" fill="white"/>
<path d="M11.4051 2.83652H13.0711L12.835 3.93842H9.71289V2.83652H10.2638C10.172 2.63975 10.1195 2.42986 10.1195 2.19373C10.1195 1.5116 10.6705 1 11.4182 1C11.8511 1 12.3102 1.13118 12.5988 1.26236V2.25932C12.2578 2.12815 11.9692 2.06256 11.7593 2.06256C11.4707 2.06256 11.2608 2.20685 11.2608 2.42986C11.2608 2.58727 11.3133 2.71845 11.4051 2.83652ZM10.3294 12.5307V4.79109L12.3758 4.55497V12.5307H10.3294Z" fill="white"/>
<path d="M42.4844 1.29297L42.4844 32.7657" stroke="white" stroke-linecap="round"/>
<path d="M84.7306 12.4189C82.2504 12.9212 79.5433 13.949 77.6152 15.5118C75.8647 16.9299 74.6687 18.7669 74.0273 21.023C73.9156 21.4137 73.4448 21.4805 73.3271 21.0764C72.4535 18.0494 70.6504 15.7982 67.9178 14.3227C66.0893 13.335 64.0496 12.6749 61.914 12.2745C59.2215 11.7709 57.3565 9.75185 56.819 7.04235C56.789 6.89108 56.7458 6.88704 56.6891 7.03022C56.3211 7.97342 56.1524 8.92674 56.1832 9.89018C56.1953 10.2627 55.9223 10.5539 55.5473 10.5139C54.5807 10.4095 53.7337 10.7003 53.0065 11.3863C52.9986 11.3937 52.9925 11.4029 52.9887 11.4131C52.985 11.4234 52.9836 11.4343 52.9848 11.4451C52.986 11.4559 52.9896 11.4663 52.9955 11.4755C53.0014 11.4847 53.0093 11.4923 53.0186 11.4979L73.6378 23.8405C73.6572 23.8526 73.677 23.8526 73.6972 23.8405L94.3297 11.4882C94.3361 11.4843 94.3416 11.479 94.3458 11.4727C94.3499 11.4664 94.3525 11.4592 94.3534 11.4517C94.3544 11.4443 94.3536 11.4367 94.3512 11.4295C94.3487 11.4224 94.3447 11.4159 94.3394 11.4106C93.6732 10.7456 92.7632 10.3937 91.8289 10.5175C91.4455 10.5697 91.1385 10.293 91.1518 9.90959C91.1834 8.92836 91.0111 7.96695 90.6349 7.02536C90.5831 6.89593 90.5439 6.89957 90.5172 7.03628C90.0197 9.51038 88.3465 11.578 85.8445 12.1738C85.4926 12.2579 85.1213 12.3396 84.7306 12.4189Z" fill="url(#paint0_linear_175_4228)"/>
<path d="M71.7661 24.4892C66.1408 21.4667 60.5034 18.4235 54.8199 15.3682C54.3078 15.0931 53.9163 14.9224 53.6453 14.8561C52.4125 14.5552 51.5255 14.9884 50.3946 15.407C49.5926 15.7031 49.5635 16.7478 50.2939 17.1482C56.102 20.3338 61.9861 23.5573 67.9463 26.8189C67.972 26.8327 68.0011 26.8387 68.0302 26.8364C68.0592 26.834 68.087 26.8233 68.1101 26.8056C69.2345 25.9319 70.452 25.195 71.7624 24.5948C71.7725 24.5901 71.781 24.5827 71.7872 24.5734C71.7933 24.5642 71.7968 24.5534 71.7971 24.5425C71.7975 24.5315 71.7948 24.5206 71.7893 24.5112C71.7838 24.5018 71.7758 24.4942 71.7661 24.4892Z" fill="url(#paint1_linear_175_4228)"/>
<path d="M77.6753 27.689C78.43 27.3112 79.1269 26.948 79.766 26.5993C85.2181 23.6241 90.841 20.5482 96.6345 17.3715C97.1186 17.1058 97.5858 16.9189 97.5555 16.2418C97.5369 15.8374 97.3346 15.5587 96.9488 15.4058C95.921 15.0005 94.9309 14.5807 93.8279 14.8198C93.4688 14.8982 92.9943 15.0968 92.4046 15.4155C86.1128 18.8154 79.8541 22.1858 73.6286 25.5267C72.9734 25.8778 72.304 26.228 71.6205 26.5775C69.2701 27.7775 67.2426 29.5685 65.8035 31.8958C65.4783 32.4212 65.7113 32.9963 66.3798 32.9951C67.4751 32.9935 68.5457 32.9951 69.5917 33C70.0261 33.0012 70.4398 32.8823 70.6752 32.4806C71.4057 31.2406 72.3643 30.2771 73.5862 29.6437C73.6363 29.617 73.6869 29.6162 73.7378 29.6413C74.9488 30.2347 75.8855 31.2199 76.5893 32.3775C76.8029 32.7294 77.1111 32.9878 77.543 32.9903C78.6521 32.9984 79.8015 33.0004 80.9915 32.9963C81.3664 32.9939 81.6843 32.7621 81.6795 32.3629C81.6779 32.202 81.5925 31.9876 81.4234 31.7198C80.4406 30.1683 79.1888 28.8587 77.668 27.7909C77.6595 27.785 77.6528 27.777 77.6483 27.7677C77.6439 27.7584 77.6419 27.7481 77.6427 27.7379C77.6434 27.7276 77.6468 27.7177 77.6525 27.7091C77.6582 27.7005 77.6661 27.6936 77.6753 27.689Z" fill="url(#paint2_linear_175_4228)"/>
<path d="M73.3431 1.46074C73.0819 1.47243 72.827 1.39034 72.5615 1.41241C72.3684 1.4283 72.1775 1.47192 71.9889 1.54326C71.8704 1.58828 71.7548 1.65735 71.6383 1.7167C71.6365 1.71766 71.6345 1.7181 71.6324 1.71798C71.6304 1.71785 71.6285 1.71717 71.6268 1.71601C71.6251 1.71484 71.6238 1.71324 71.623 1.71138C71.6222 1.70951 71.6219 1.70746 71.6222 1.70545C71.6245 1.68824 71.6317 1.67206 71.6436 1.6569C71.6862 1.60189 71.7295 1.55525 71.7733 1.517C71.7995 1.4942 71.8248 1.46964 71.8492 1.4433C71.8828 1.40712 71.9258 1.38262 71.9624 1.3482C72.2102 1.11452 72.5512 0.985871 72.891 1.02074C73.0319 1.03515 73.1823 1.04935 73.3422 1.06332C73.5682 1.08333 73.8003 1.08237 74.0386 1.06045C74.1203 1.05295 74.1986 1.03375 74.2761 1.01125C74.3055 1.00271 74.3226 0.999037 74.3275 1.00021C74.3884 1.0139 74.3919 1.03633 74.3379 1.06752C74.3021 1.08826 74.2666 1.11562 74.2269 1.13548C74.1782 1.1599 74.1301 1.1866 74.0828 1.21558C73.8654 1.34864 73.5975 1.44904 73.3431 1.46074Z" fill="url(#paint3_linear_175_4228)"/>
<path d="M74.4331 2.40449C74.3978 2.43583 74.3611 2.46562 74.323 2.49386C74.2773 2.52784 74.2364 2.55167 74.2005 2.56535C74.1427 2.58742 74.0775 2.60522 74.0048 2.61875C73.9591 2.62729 73.9146 2.62493 73.8713 2.61169C73.8641 2.60949 73.8585 2.60515 73.8546 2.59867C73.8351 2.56631 73.8419 2.54152 73.8749 2.52431C73.958 2.48121 74.0353 2.43134 74.1068 2.3747C74.1344 2.35264 74.1612 2.33226 74.1871 2.31358C74.3086 2.22502 74.4217 2.13573 74.5265 2.0457C74.5627 2.01458 74.5384 1.9731 74.5095 1.94794C74.4197 1.87049 74.3596 1.8012 74.3566 1.67278C74.3539 1.56929 74.3612 1.46226 74.4091 1.37599C74.4251 1.3473 74.4398 1.31861 74.4532 1.28993C74.4887 1.21373 74.5426 1.14988 74.6152 1.09839C74.6827 1.05029 74.761 1.03587 74.8502 1.05514C74.9256 1.07147 74.9749 1.11509 74.998 1.186C75.0386 1.31001 75.0396 1.43718 75.0009 1.56752C74.9834 1.62695 74.9668 1.68491 74.951 1.7414C74.9422 1.77288 74.9418 1.80525 74.9497 1.83849C74.9513 1.84541 74.9553 1.85056 74.9616 1.85394L75.0241 1.88748C75.0304 1.8909 75.0358 1.89592 75.0397 1.90203C75.0436 1.90814 75.0458 1.91514 75.0461 1.92235C75.0513 2.02105 75.0509 2.11263 75.045 2.19707C75.0443 2.2081 75.0416 2.21877 75.0371 2.22907C75.0287 2.24775 75.0145 2.25481 74.9945 2.25025C74.9278 2.23524 74.8948 2.21649 74.8447 2.16529C74.7851 2.10461 74.7193 2.08541 74.6597 2.16198C74.5903 2.25113 74.5148 2.33197 74.4331 2.40449ZM74.5589 1.40026C74.5128 1.53575 74.6381 1.63504 74.7449 1.68866C74.7492 1.69083 74.7539 1.69201 74.7587 1.69212C74.7635 1.69223 74.7682 1.69126 74.7726 1.68929C74.7769 1.68732 74.7808 1.6844 74.7839 1.68074C74.787 1.67708 74.7892 1.67278 74.7904 1.66814C74.8277 1.52582 74.7688 1.34598 74.5871 1.37621C74.5807 1.37727 74.5747 1.38006 74.5698 1.3843C74.5648 1.38853 74.561 1.39405 74.5589 1.40026Z" fill="url(#paint4_linear_175_4228)"/>
<path d="M76.3348 7.3196L76.3423 7.32158C76.3467 7.32261 76.3507 7.32166 76.3544 7.31872C76.4038 7.27929 76.4488 7.23104 76.4894 7.17396C76.5872 7.03605 76.6834 6.89858 76.7458 6.74345C76.8385 6.51337 76.8961 6.30978 76.9186 6.13266C76.9653 5.76533 76.9642 5.40491 76.9155 5.05141C76.9069 4.98875 76.8974 4.92277 76.8871 4.85348C76.8681 4.72461 76.8328 4.60303 76.8034 4.4788C76.785 4.40112 76.7677 4.3364 76.7514 4.28461C76.6284 3.89389 76.4566 3.52429 76.2361 3.17579C76.1785 3.08473 76.1123 3.00036 76.0377 2.92269C76.0244 2.90871 76.0111 2.90114 75.998 2.89996C75.9912 2.89934 75.9844 2.90146 75.9791 2.90584C75.9738 2.91022 75.9704 2.91651 75.9698 2.92335C75.958 3.05545 75.9501 3.17733 75.9459 3.28899C75.9406 3.43756 75.935 3.55981 75.929 3.65573C75.9025 4.07918 75.8959 4.50792 75.9047 4.93821C75.9064 5.02839 75.9123 5.11496 75.9221 5.19793C75.9234 5.20941 75.9206 5.21794 75.9135 5.22353C75.9119 5.2248 75.91 5.22572 75.908 5.22622C75.9061 5.22672 75.904 5.2268 75.902 5.22645C75.8999 5.22609 75.898 5.22532 75.8963 5.22417C75.8946 5.22302 75.8932 5.22152 75.8921 5.21978C75.8524 5.15512 75.8208 5.09621 75.7992 5.01854C75.7807 4.9519 75.7509 4.88879 75.7379 4.82237C75.7109 4.68497 75.6801 4.54257 75.6454 4.39516C75.6351 4.35133 75.6274 4.30867 75.6222 4.26718C75.6152 4.21047 75.6103 4.15442 75.5966 4.09749C75.5613 3.95053 75.5393 3.80261 75.5304 3.65374C75.5216 3.50899 75.4982 3.36842 75.4755 3.22742C75.4517 3.07737 75.4472 2.92467 75.4373 2.77462C75.4303 2.66584 75.4311 2.52748 75.4203 2.40391C75.4196 2.39538 75.418 2.3864 75.4155 2.37699C75.4118 2.3636 75.4095 2.34941 75.4086 2.3344C75.3957 2.12963 75.3883 1.91007 75.3863 1.67573C75.3859 1.62041 75.3838 1.56495 75.3799 1.50935C75.3755 1.44683 75.3778 1.38144 75.3868 1.31318C75.3947 1.25338 75.4514 1.2461 75.4909 1.27986C75.7295 1.48419 75.9671 1.75185 76.1622 2.02614C76.3737 2.32359 76.5616 2.64112 76.7258 2.97874C76.8218 3.17645 76.9224 3.38475 77.0005 3.58798C77.1079 3.86793 77.1756 4.05718 77.2037 4.15575C77.2606 4.35596 77.3191 4.5689 77.3791 4.79456C77.3968 4.86054 77.4039 4.93888 77.4175 4.99713C77.4769 5.25089 77.4939 5.4998 77.5184 5.74915C77.5321 5.89037 77.5338 6.04182 77.5237 6.20349C77.5144 6.34913 77.5045 6.48255 77.4939 6.60377C77.4852 6.70233 77.4554 6.8401 77.4045 7.01707C77.335 7.25848 77.1854 7.53364 77.0064 7.72142C76.7828 7.95636 76.5139 8.10707 76.1995 8.17356C76.1434 8.18533 76.0797 8.19629 76.0082 8.20644C75.8656 8.22674 75.7171 8.23071 75.5792 8.268C75.5496 8.2761 75.5151 8.30169 75.4755 8.34479C75.3222 8.51206 75.1596 8.68608 74.9876 8.86688C74.902 8.95691 74.8254 9.05312 74.7444 9.14867C74.6537 9.25591 74.5869 9.35918 74.5439 9.48341C74.5178 9.55843 74.4991 9.64427 74.4876 9.74092C74.473 9.86361 74.466 9.9835 74.4666 10.1006C74.4671 10.1893 74.4739 10.3112 74.4871 10.4662C74.5098 10.7302 74.4893 11.0048 74.4256 11.2902C74.4084 11.3679 74.3796 11.453 74.3393 11.5455C74.2487 11.7538 74.1197 11.9309 73.9523 12.0769C73.8355 12.1786 73.7106 12.2721 73.5679 12.3379C73.3265 12.449 73.0912 12.5172 72.862 12.5427C72.2871 12.6065 71.727 12.5212 71.1816 12.2867C71.0503 12.2302 70.9327 12.1567 70.8056 12.0965C70.7101 12.0515 70.6443 11.9804 70.6397 11.8747C70.6394 11.869 70.6404 11.8632 70.6424 11.8578C70.6444 11.8524 70.6475 11.8474 70.6514 11.8432C70.6554 11.839 70.6601 11.8357 70.6654 11.8334C70.6706 11.831 70.6763 11.8298 70.6821 11.8297C70.7366 11.8287 70.7902 11.8377 70.8429 11.8566C71.104 11.9513 71.3928 12.0407 71.6726 12.0687C71.8546 12.0869 72.0262 12.0895 72.1874 12.0764C72.5755 12.0445 72.9119 11.9002 73.1967 11.6435C73.4346 11.429 73.6003 11.1529 73.7179 10.8438C73.7313 10.8085 73.7529 10.7406 73.7828 10.6401C73.8034 10.5708 73.8195 10.5019 73.8311 10.4334C73.8629 10.2457 73.8856 10.0578 73.8993 9.86979C73.9156 9.64626 73.9198 9.43111 73.9673 9.2056C73.9942 9.07695 74.0107 8.94477 74.0535 8.81414C74.1361 8.56237 74.2358 8.33332 74.4029 8.1409C74.4708 8.06249 74.5574 7.97541 74.6626 7.87964C74.7358 7.813 74.8063 7.75592 74.874 7.7084C74.8812 7.7034 74.8837 7.69664 74.8815 7.6881C74.8722 7.65089 74.8583 7.61242 74.8398 7.5727C74.7793 7.44236 74.7433 7.35424 74.7316 7.30834C74.7135 7.23685 74.6937 7.16675 74.6721 7.09805C74.6537 7.03936 74.6418 6.94977 74.6365 6.82929C74.6295 6.66887 74.627 6.49984 74.6599 6.34118C74.7407 5.95282 74.962 5.62889 75.2809 5.39344C75.3808 5.31959 75.489 5.28965 75.6057 5.30363C75.9905 5.34975 76.2302 5.85683 76.3114 6.17966C76.3473 6.32265 76.3809 6.46873 76.3837 6.61547C76.3865 6.75669 76.385 6.86327 76.3791 6.9352C76.3688 7.0601 76.351 7.18345 76.3257 7.30526C76.325 7.30835 76.3256 7.31159 76.3273 7.31427C76.329 7.31695 76.3317 7.31886 76.3348 7.3196ZM75.5298 6.37428C75.2862 6.58568 75.1937 6.87254 75.3535 7.17506C75.3786 7.22229 75.4402 7.22846 75.4819 7.20265C75.5119 7.18389 75.5337 7.1402 75.5604 7.10975C75.6439 7.01486 75.7198 6.89196 75.774 6.77655C75.8208 6.67725 75.8308 6.5539 75.8188 6.44357C75.8135 6.39517 75.8026 6.36045 75.786 6.33942C75.7235 6.26064 75.5916 6.32088 75.5298 6.37428Z" fill="url(#paint5_linear_175_4228)"/>
<path d="M70.3185 2.37836C70.3085 2.37556 70.2977 2.37887 70.2863 2.38829C70.1903 2.46566 70.0977 2.54768 70.0084 2.63432C69.9109 2.72921 69.8112 2.81769 69.7183 2.91589C69.5598 3.08344 69.4261 3.24151 69.3171 3.39009C69.117 3.66298 68.948 3.93954 68.81 4.21978C68.7251 4.39219 68.6375 4.60601 68.547 4.86124C68.5223 4.93068 68.501 5.00401 68.4832 5.08124C68.4607 5.17767 68.4265 5.27212 68.4095 5.3648C68.3867 5.49043 68.3636 5.62091 68.34 5.75625C68.3163 5.89291 68.3023 6.08599 68.2979 6.33549C68.291 6.72209 68.3268 7.09133 68.4053 7.44321C68.4558 7.67005 68.52 7.85909 68.598 8.01031C68.6657 8.14117 68.7436 8.28371 68.8365 8.39404C68.9536 8.53321 69.089 8.65347 69.2427 8.75483C69.5177 8.93592 69.8237 9.01888 70.1607 9.00373C70.2753 8.99858 70.3878 8.97975 70.4981 8.94724C70.6065 8.91532 70.7074 8.86869 70.8006 8.80734C71.0739 8.62743 71.2583 8.38176 71.3536 8.07033C71.3808 7.98163 71.3975 7.88659 71.4037 7.78524C71.4198 7.52927 71.4183 7.29029 71.3203 7.05043C71.1898 6.73062 70.971 6.4851 70.664 6.31386C70.553 6.25208 70.4265 6.22074 70.2847 6.21986C70.1114 6.21898 69.9545 6.27208 69.814 6.37918C69.6684 6.49039 69.5551 6.62404 69.4742 6.78012C69.3836 6.95503 69.3302 7.12406 69.314 7.2872C69.303 7.39783 69.2898 7.50176 69.2745 7.599C69.2732 7.60724 69.2701 7.61261 69.2653 7.61511C69.2637 7.61585 69.2621 7.61628 69.2604 7.61637C69.2587 7.61646 69.257 7.61621 69.2554 7.61563C69.2537 7.61506 69.2523 7.61417 69.251 7.61302C69.2498 7.61187 69.2488 7.61048 69.248 7.60893C69.2244 7.5584 69.2211 7.50478 69.2004 7.45093C69.1642 7.35627 69.1516 7.2744 69.1298 7.18592C69.1159 7.13016 69.106 7.07515 69.1 7.02086C69.0732 6.77755 69.0819 6.56122 69.126 6.3719C69.2096 6.01369 69.4083 5.73595 69.7222 5.53868C70.0583 5.32772 70.4304 5.33942 70.7823 5.50447C71.0347 5.62275 71.2469 5.77765 71.4187 5.96919C71.7595 6.34902 71.9465 6.78946 71.9796 7.29051C71.9901 7.44998 71.9859 7.63099 71.9673 7.83356C71.9621 7.89049 71.9531 7.95353 71.9401 8.02267C71.9209 8.12417 71.915 8.22811 71.8843 8.3274C71.8605 8.40419 71.8357 8.47856 71.8102 8.55049C71.6901 8.88708 71.4973 9.17695 71.2316 9.42012C71.053 9.58356 70.8435 9.70125 70.6031 9.77318C70.4423 9.82129 70.3083 9.85071 70.2009 9.86145C70.0898 9.87263 69.9771 9.87152 69.8628 9.85814C69.7229 9.84181 69.581 9.82989 69.4462 9.78554C69.2217 9.71169 69.0127 9.60106 68.8191 9.45366C68.6909 9.35613 68.5702 9.25595 68.4684 9.13194C68.2631 8.88127 68.1064 8.60926 67.9984 8.31593C67.9743 8.25032 67.9503 8.18206 67.9263 8.11115C67.9048 8.04716 67.8863 7.97699 67.8707 7.90064C67.8396 7.74883 67.8029 7.5979 67.7934 7.44454C67.7787 7.20946 67.7702 6.99571 67.7678 6.80329C67.7655 6.60028 67.7788 6.37616 67.8078 6.13093C67.8144 6.07474 67.8276 5.99493 67.8475 5.89152C67.868 5.78582 67.8826 5.67262 67.906 5.5731C68.199 4.3268 68.8175 3.28101 69.7613 2.43573C69.8705 2.3379 69.9854 2.24463 70.1062 2.15593C70.4148 1.92938 70.733 1.73093 71.0606 1.56058C71.1343 1.52219 71.2107 1.49188 71.2898 1.46967C71.294 1.46852 71.2983 1.46845 71.3025 1.46947C71.3066 1.47048 71.3105 1.47256 71.3136 1.47548C71.3167 1.47841 71.319 1.48209 71.3203 1.48617C71.3216 1.49026 71.3218 1.49461 71.3209 1.4988C71.3009 1.59346 71.2283 1.62678 71.1793 1.70225C71.0644 1.87907 70.9468 2.05685 70.8267 2.23559C70.4913 2.7345 70.2004 3.21797 69.9698 3.76411C69.9478 3.81619 69.9294 3.86584 69.9147 3.91306C69.9038 3.94778 69.8927 3.9811 69.8813 4.01302C69.854 4.09047 69.8427 4.17234 69.8249 4.25266C69.8157 4.29385 69.8032 4.33769 69.7873 4.38417C69.7529 4.48524 69.7308 4.59307 69.7209 4.70766C69.7199 4.72017 69.7155 4.73157 69.7077 4.74187C69.707 4.74278 69.7061 4.74349 69.7051 4.74391C69.704 4.74433 69.7029 4.74444 69.7018 4.74423C69.7006 4.74402 69.6996 4.7435 69.6988 4.74273C69.698 4.74196 69.6974 4.74097 69.6971 4.73988C69.681 4.67854 69.6675 4.61962 69.6644 4.55695C69.6556 4.37071 69.6633 4.24229 69.673 4.08209C69.6764 4.02486 69.6829 3.97176 69.6925 3.92277C69.7222 3.77022 69.7529 3.63885 69.7847 3.52867C69.8065 3.45261 69.8441 3.34625 69.8977 3.20959C70.01 2.92339 70.1581 2.65992 70.3286 2.40594C70.3302 2.40356 70.3313 2.40083 70.3316 2.39798C70.332 2.39513 70.3316 2.39224 70.3306 2.38954C70.3296 2.38685 70.328 2.38443 70.3259 2.38248C70.3238 2.38054 70.3212 2.37912 70.3185 2.37836Z" fill="url(#paint6_linear_175_4228)"/>
<path d="M72.9887 3.28844C72.9847 3.30006 72.9855 3.32404 72.9911 3.36037C73.0417 3.69416 73.0678 3.89276 73.0695 3.95616C73.0733 4.11842 73.0807 4.24905 73.0917 4.34806C73.1212 4.61006 73.1365 4.7793 73.1376 4.8558C73.1413 5.10956 73.1376 5.38576 73.1266 5.68439C73.1193 5.88056 73.094 6.10387 73.0831 6.3168C73.0794 6.39139 73.0679 6.4631 73.0586 6.53813C73.0553 6.56593 73.0495 6.59484 73.0414 6.62485C73.0044 6.75989 72.99 6.91281 72.9574 7.03373C72.8725 7.34987 72.7665 7.65747 72.6394 7.95654C72.6145 8.01568 72.5703 8.08276 72.5416 8.14896C72.5281 8.1803 72.5156 8.20582 72.5041 8.22553C72.4416 8.33351 72.3781 8.437 72.3137 8.536C72.3018 8.55439 72.2916 8.56204 72.2832 8.55895C72.2687 8.5538 72.264 8.54395 72.2693 8.52938C72.2982 8.44906 72.3208 8.36874 72.3563 8.28754C72.3792 8.23517 72.4031 8.17419 72.4278 8.10461C72.4891 7.93264 72.5421 7.7631 72.5866 7.59598C72.6264 7.44682 72.6543 7.3025 72.6705 7.16304C72.6837 7.04801 72.6978 6.93348 72.7126 6.81947C72.7269 6.71047 72.7372 6.5958 72.7435 6.47546C72.7724 5.91645 72.7555 5.36023 72.6928 4.80681C72.6782 4.67927 72.6653 4.53878 72.654 4.38535C72.6438 4.24839 72.626 4.10849 72.6006 3.96565C72.5639 3.76021 72.5646 3.55544 72.5359 3.35C72.4975 3.07594 72.4785 2.81828 72.4787 2.57702C72.479 2.45419 72.484 2.20896 72.4938 1.84134C72.4953 1.78507 72.5046 1.70254 72.5344 1.65554C72.5611 1.61347 72.5909 1.60994 72.6237 1.64495C72.6668 1.69085 72.7109 1.74329 72.7559 1.80228C72.8614 1.941 72.9615 2.08679 73.0562 2.23963C73.3759 2.75583 73.6135 3.28763 73.769 3.83502C73.8627 4.16469 73.9378 4.54768 73.9943 4.98401C74.0048 5.0655 74.0133 5.17069 74.0196 5.29955C74.0265 5.43989 74.0406 5.58597 74.0402 5.72631C74.0397 5.92932 74.0338 6.11402 74.0223 6.2804C74.0148 6.38867 74.0039 6.51893 73.9896 6.67119C73.9767 6.80815 73.9587 6.93723 73.9358 7.05845C73.8983 7.25594 73.8676 7.44902 73.8188 7.64982C73.7489 7.93801 73.6759 8.18831 73.5997 8.40074C73.5509 8.53733 73.505 8.67017 73.4468 8.80411C73.3407 9.04772 73.2399 9.26014 73.1443 9.44138C73.0532 9.61408 72.9446 9.79613 72.8183 9.98752C72.7314 10.119 72.631 10.2468 72.5302 10.3693C72.2239 10.7406 71.8761 11.0531 71.4465 11.2768C71.0895 11.4629 70.6737 11.5249 70.2821 11.4631C69.846 11.3942 69.4616 11.0983 69.1642 10.7916C69.0802 10.705 68.9959 10.6008 68.9113 10.4792C68.8505 10.3918 68.781 10.2794 68.7026 10.142C68.6358 10.0247 68.5705 9.91264 68.5068 9.80569C68.4708 9.74523 68.4473 9.69779 68.4364 9.66337C68.4185 9.60658 68.4105 9.55348 68.4124 9.50405C68.4136 9.47345 68.4295 9.45764 68.4603 9.45661C68.5329 9.45418 68.5675 9.49831 68.6152 9.54222C68.6328 9.55855 68.6494 9.57598 68.6648 9.59452C68.7586 9.70595 68.8407 9.82246 68.9404 9.92485C69.0564 10.0436 69.1667 10.144 69.2714 10.2263C69.3687 10.3026 69.4848 10.377 69.6198 10.4494C69.661 10.4714 69.7094 10.4935 69.765 10.5156C69.8326 10.5423 69.9019 10.5743 69.9696 10.5924C70.1931 10.6518 70.4221 10.6702 70.6567 10.6477C70.7225 10.6414 70.7882 10.6343 70.8538 10.6263C70.9226 10.6182 70.9898 10.6029 71.0553 10.5802C71.3115 10.4914 71.5334 10.379 71.721 10.2433C71.8549 10.1463 71.9705 10.0564 72.0679 9.9734C72.2685 9.8026 72.4485 9.57819 72.6122 9.36393C72.9357 8.94114 73.1767 8.44046 73.3243 7.93669C73.3502 7.84827 73.3736 7.75765 73.3945 7.66483C73.4155 7.57142 73.4352 7.48153 73.4536 7.39518C73.4597 7.36738 73.465 7.33869 73.4695 7.30912C73.4947 7.1498 73.5359 7.00064 73.5465 6.87398C73.5643 6.66523 73.5774 6.44104 73.5858 6.2014C73.5913 6.0412 73.5814 5.88916 73.5792 5.73426C73.5772 5.582 73.5611 5.4293 73.5509 5.27969C73.5461 5.20717 73.5356 5.13464 73.5194 5.06212C73.4931 4.94384 73.468 4.82344 73.4441 4.7009C73.4303 4.6294 73.3854 4.46155 73.3093 4.19735C73.2993 4.16292 73.2896 4.12688 73.2802 4.08922C73.2586 4.00338 73.2199 3.91093 73.2023 3.84031C73.1864 3.77588 73.1741 3.71387 73.1491 3.65054C73.1034 3.53477 73.0639 3.41488 73.0306 3.29087C73.0181 3.24394 73.0041 3.24313 72.9887 3.28844Z" fill="url(#paint7_linear_175_4228)"/>
<path d="M79.6309 7.70313C79.6076 7.83847 79.5836 7.97285 79.5587 8.10628C79.5377 8.21903 79.4982 8.34437 79.4722 8.46309C79.4622 8.50943 79.4495 8.55628 79.434 8.60365C79.3787 8.77444 79.323 8.9328 79.2668 9.07873C79.1823 9.29792 79.0765 9.52491 78.9492 9.7597C78.8646 9.91563 78.7603 10.0858 78.6361 10.2701C78.5581 10.386 78.4688 10.5052 78.368 10.6278C78.0939 10.9608 77.8202 11.2417 77.5467 11.4703C77.3663 11.6209 77.1504 11.7777 76.8988 11.9407C76.7862 12.0137 76.6585 12.0865 76.516 12.1592C76.2543 12.2925 76.0133 12.3999 75.7516 12.4997C75.6572 12.5356 75.5691 12.5652 75.4875 12.5886C75.2676 12.6518 75.086 12.698 74.9427 12.7272C74.6667 12.7832 74.3575 12.8244 74.0152 12.8507C73.8072 12.8666 73.6222 12.866 73.46 12.849C73.4541 12.8483 73.4484 12.8464 73.4433 12.8433C73.4382 12.8402 73.4338 12.8361 73.4305 12.8311C73.4272 12.8261 73.4251 12.8205 73.4242 12.8146C73.4234 12.8088 73.4239 12.8028 73.4256 12.7971C73.4343 12.7689 73.4526 12.7478 73.4806 12.734C73.5421 12.7035 73.6055 12.6796 73.6708 12.6621C73.9129 12.5972 74.0924 12.5408 74.2092 12.493C74.3464 12.4365 74.476 12.3825 74.5978 12.3309C75.0229 12.1505 75.4253 11.9392 75.8048 11.6971C76.003 11.5709 76.1985 11.4422 76.3873 11.2995C76.6367 11.1106 76.8864 10.9021 77.1365 10.6741C77.1915 10.624 77.2914 10.5251 77.4362 10.3776C77.5964 10.2143 77.7393 10.0406 77.8969 9.84465C78.1571 9.52087 78.3829 9.17479 78.5741 8.80644C78.6808 8.60107 78.7774 8.38328 78.8641 8.15306C78.9341 7.96667 78.9907 7.77903 79.034 7.59015C79.0604 7.47393 79.0838 7.34867 79.1041 7.21436C79.1224 7.09461 79.1324 6.9692 79.1341 6.83813C79.1375 6.61151 79.1463 6.34098 79.1163 6.10818C79.1071 6.03742 79.0896 5.93158 79.0638 5.79065C79.0445 5.68561 79.0199 5.58146 78.9901 5.47819C78.8746 5.0785 78.7084 4.69705 78.4916 4.33384C78.4336 4.23675 78.3727 4.14436 78.3089 4.05669C78.2027 3.91105 78.107 3.76321 77.9876 3.63191C77.9844 3.62844 77.9801 3.62627 77.9755 3.62583C77.9708 3.62538 77.9662 3.62668 77.9624 3.62948C77.9548 3.63537 77.9516 3.64294 77.9529 3.65221C77.9746 3.80999 78.0024 3.9693 78.0284 4.13855C78.0514 4.28882 78.0898 4.44902 78.1116 4.59289C78.126 4.68896 78.1426 4.78414 78.1612 4.87843C78.179 4.96876 78.1949 5.06474 78.2089 5.1664C78.2374 5.37558 78.2733 5.59117 78.2883 5.78977C78.3254 6.28118 78.332 6.78208 78.2444 7.26136C78.1812 7.60662 78.0644 7.92438 77.894 8.21462C77.8842 8.23154 77.8752 8.24794 77.8671 8.26383C77.8144 8.36739 77.7679 8.44146 77.7274 8.48604C77.7099 8.50531 77.6941 8.52583 77.68 8.5476C77.6763 8.55319 77.6718 8.55797 77.6665 8.56194C77.6253 8.59239 77.5938 8.62895 77.5721 8.67161C77.5687 8.67808 77.564 8.68331 77.558 8.68728C77.5352 8.70228 77.5157 8.72038 77.4997 8.74156C77.4773 8.77113 77.4604 8.79099 77.4489 8.80114C77.4256 8.82174 77.4022 8.84233 77.3788 8.86293C77.3617 8.87778 77.3522 8.87403 77.3503 8.85167C77.3496 8.84314 77.3533 8.82983 77.3616 8.81173C77.392 8.74553 77.4234 8.6672 77.4688 8.60607C77.4834 8.58636 77.496 8.56319 77.5068 8.53657C77.5146 8.517 77.5222 8.49802 77.5297 8.47964C77.5725 8.37328 77.6136 8.2753 77.6528 8.18571C77.6759 8.13261 77.6969 8.07774 77.7157 8.0211C77.7407 7.94608 77.7663 7.87635 77.7846 7.79669C77.8216 7.6359 77.8491 7.50527 77.8669 7.40479C77.8957 7.24224 77.9073 7.05681 77.9017 6.8485C77.9 6.7876 77.901 6.72692 77.9048 6.66646C77.9085 6.60761 77.9087 6.54642 77.9053 6.48286C77.8988 6.3615 77.8921 6.23999 77.8852 6.11833C77.87 5.85398 77.8203 5.58632 77.7786 5.32991C77.7614 5.22487 77.7199 5.02856 77.6542 4.74096C77.6186 4.58605 77.5959 4.4296 77.5564 4.27558C77.5413 4.21615 77.5286 4.15385 77.5185 4.08868C77.5054 4.00483 77.4895 3.92032 77.471 3.83514C77.4501 3.73893 77.4325 3.63199 77.4181 3.5143C77.4002 3.36646 77.3741 3.21574 77.3664 3.07143C77.3554 2.86607 77.3533 2.66056 77.36 2.4549C77.3616 2.404 77.3734 2.35501 77.3953 2.30794C77.4012 2.29558 77.4108 2.28999 77.4242 2.29117C77.4659 2.29455 77.5033 2.3072 77.5366 2.32912C77.6303 2.39113 77.7241 2.47277 77.8097 2.55817C77.8918 2.64011 77.9717 2.71955 78.0494 2.79649C78.1187 2.86489 78.2097 2.96706 78.3225 3.10298C78.413 3.21199 78.4958 3.32034 78.571 3.42802C78.8688 3.85522 79.1056 4.29449 79.2815 4.74581C79.3617 4.95147 79.4182 5.12042 79.451 5.25267C79.4728 5.34006 79.4946 5.42597 79.5163 5.51041C79.54 5.60191 79.5588 5.68885 79.5728 5.77123C79.6015 5.93871 79.6326 6.09649 79.6472 6.26904C79.6706 6.54796 79.6779 6.81047 79.669 7.05659C79.6642 7.19207 79.6606 7.32999 79.6582 7.47033C79.6572 7.52388 79.6481 7.60147 79.6309 7.70313Z" fill="url(#paint8_linear_175_4228)"/>
<path d="M74.626 4.12702C74.8628 4.12702 75.0548 3.93507 75.0548 3.69828C75.0548 3.46149 74.8628 3.26953 74.626 3.26953C74.3892 3.26953 74.1973 3.46149 74.1973 3.69828C74.1973 3.93507 74.3892 4.12702 74.626 4.12702Z" fill="url(#paint9_linear_175_4228)"/>
<path d="M70.8375 4.54182C70.8057 4.56741 70.7852 4.58948 70.736 4.5844C70.7295 4.58367 70.7243 4.5808 70.7203 4.5758C70.7089 4.56079 70.7022 4.5438 70.7002 4.52482C70.6901 4.41847 70.6878 4.31181 70.6934 4.20486C70.7002 4.07335 70.7927 3.93919 70.9397 3.9639C70.9891 3.97229 71.0657 4.03407 71.0955 4.07622C71.1934 4.21391 71.2283 4.33439 71.2673 4.48643C71.2681 4.4893 71.2695 4.49197 71.2713 4.49428C71.2732 4.49659 71.2755 4.49849 71.2782 4.49984C71.2808 4.50119 71.2837 4.50197 71.2867 4.50213C71.2896 4.50229 71.2926 4.50183 71.2954 4.50077C71.3205 4.49092 71.338 4.47334 71.3479 4.44803C71.3901 4.338 71.45 4.23561 71.5275 4.14087C71.5656 4.09439 71.605 4.06158 71.6456 4.04246C71.7367 3.99921 71.8506 3.99722 71.9154 4.08858C71.9496 4.13668 71.9761 4.1817 71.9856 4.24105C72.0037 4.35359 72.0044 4.46451 71.9876 4.57381C71.9868 4.57933 71.9838 4.5843 71.9793 4.58765C71.9749 4.59099 71.9693 4.59244 71.9638 4.59169C71.855 4.57756 71.8084 4.39375 71.6831 4.49967C71.62 4.55307 71.5691 4.62273 71.5306 4.70864C71.4432 4.90267 71.3775 5.10973 71.3333 5.3298C71.3322 5.33573 71.3297 5.34132 71.3261 5.34616C71.3224 5.35099 71.3178 5.35493 71.3124 5.35769C71.307 5.36046 71.3011 5.36196 71.295 5.3621C71.289 5.36224 71.283 5.361 71.2775 5.35849C71.2488 5.34554 71.2295 5.32311 71.2195 5.29118C71.1962 5.21792 71.172 5.14466 71.1466 5.0714C71.1257 5.01072 71.1193 4.94828 71.1014 4.88759C71.0738 4.79315 71.044 4.70319 71.012 4.61772C70.9869 4.54976 70.9061 4.48709 70.8375 4.54182Z" fill="url(#paint10_linear_175_4228)"/>
<path d="M74.9356 5.26558C75.1724 5.24278 75.346 5.03362 75.3233 4.7984C75.3007 4.56319 75.0903 4.39099 74.8536 4.41379C74.6168 4.43659 74.4432 4.64576 74.4658 4.88097C74.4885 5.11619 74.6988 5.28838 74.9356 5.26558Z" fill="url(#paint11_linear_175_4228)"/>
<path d="M69.8544 8.14832C70.0917 8.14832 70.2841 7.95597 70.2841 7.71869C70.2841 7.48141 70.0917 7.28906 69.8544 7.28906C69.6172 7.28906 69.4248 7.48141 69.4248 7.71869C69.4248 7.95597 69.6172 8.14832 69.8544 8.14832Z" fill="url(#paint12_linear_175_4228)"/>
<path d="M76.4883 8.88396C76.4999 8.87086 76.5099 8.8566 76.5181 8.84115C76.5422 8.79613 76.5898 8.76281 76.6253 8.72265C76.63 8.71746 76.636 8.71377 76.6427 8.71204C76.6495 8.71031 76.6565 8.71062 76.6631 8.71295C76.6696 8.71527 76.6753 8.71949 76.6795 8.72507C76.6836 8.73066 76.6859 8.73734 76.6862 8.74428C76.6871 8.76473 76.6839 8.78598 76.6765 8.80805C76.6452 8.9019 76.6183 8.97215 76.5958 9.01878C76.5834 9.04438 76.5673 9.07056 76.5475 9.09734C76.5301 9.12087 76.5149 9.14772 76.5018 9.17788C76.476 9.23746 76.4356 9.29726 76.4166 9.35154C76.3984 9.40435 76.3883 9.459 76.3864 9.51549C76.3842 9.57772 76.4104 9.6192 76.4612 9.65539C76.5177 9.6957 76.5586 9.71938 76.5839 9.72645C76.6351 9.74071 76.6843 9.75476 76.7317 9.76859C76.7682 9.77933 76.7835 9.80404 76.7776 9.84273C76.7685 9.90437 76.7491 9.97065 76.7193 10.0416C76.6618 10.1797 76.5241 10.249 76.3835 10.1909C76.1948 10.1133 76.1071 9.97925 76.1205 9.78889C76.123 9.75329 76.1309 9.71203 76.1443 9.6651C76.1666 9.58787 76.1765 9.52101 76.2193 9.44223C76.2309 9.42075 76.2408 9.39913 76.2489 9.37736C76.2573 9.3547 76.266 9.33249 76.2752 9.31072C76.3097 9.22819 76.3447 9.14941 76.38 9.07439C76.3867 9.06012 76.3945 9.046 76.4031 9.03202C76.4118 9.01834 76.4181 9.00297 76.4219 8.9859C76.4259 8.96796 76.4344 8.95045 76.4475 8.93339C76.4609 8.91603 76.4745 8.89955 76.4883 8.88396Z" fill="url(#paint13_linear_175_4228)"/>
<defs>
<linearGradient id="paint0_linear_175_4228" x1="84.0215" y1="12.6142" x2="77.5265" y2="25.372" gradientUnits="userSpaceOnUse">
<stop stop-color="white"/>
<stop offset="1" stop-color="#EFEFEF" stop-opacity="0.6"/>
</linearGradient>
<linearGradient id="paint1_linear_175_4228" x1="66.2954" y1="18.8165" x2="60.956" y2="26.6399" gradientUnits="userSpaceOnUse">
<stop stop-color="white"/>
<stop offset="1" stop-color="#EFEFEF" stop-opacity="0.6"/>
</linearGradient>
<linearGradient id="paint2_linear_175_4228" x1="89.59" y1="20.8841" x2="81.4051" y2="32.3798" gradientUnits="userSpaceOnUse">
<stop stop-color="white"/>
<stop offset="1" stop-color="#EFEFEF" stop-opacity="0.6"/>
</linearGradient>
<linearGradient id="paint3_linear_175_4228" x1="73.6881" y1="1.24133" x2="73.4881" y2="1.85795" gradientUnits="userSpaceOnUse">
<stop stop-color="white"/>
<stop offset="1" stop-color="#EFEFEF" stop-opacity="0.6"/>
</linearGradient>
<linearGradient id="paint4_linear_175_4228" x1="74.7485" y1="1.5769" x2="74.0808" y2="1.98722" gradientUnits="userSpaceOnUse">
<stop stop-color="white"/>
<stop offset="1" stop-color="#EFEFEF" stop-opacity="0.6"/>
</linearGradient>
<linearGradient id="paint5_linear_175_4228" x1="75.8092" y1="5.05903" x2="71.5705" y2="7.13531" gradientUnits="userSpaceOnUse">
<stop stop-color="white"/>
<stop offset="1" stop-color="#EFEFEF" stop-opacity="0.6"/>
</linearGradient>
<linearGradient id="paint6_linear_175_4228" x1="70.9319" y1="4.29224" x2="68.1652" y2="5.40846" gradientUnits="userSpaceOnUse">
<stop stop-color="white"/>
<stop offset="1" stop-color="#EFEFEF" stop-opacity="0.6"/>
</linearGradient>
<linearGradient id="paint7_linear_175_4228" x1="72.6345" y1="4.93693" x2="69.0872" y2="6.56311" gradientUnits="userSpaceOnUse">
<stop stop-color="white"/>
<stop offset="1" stop-color="#EFEFEF" stop-opacity="0.6"/>
</linearGradient>
<linearGradient id="paint8_linear_175_4228" x1="78.112" y1="5.84418" x2="74.2231" y2="7.69137" gradientUnits="userSpaceOnUse">
<stop stop-color="white"/>
<stop offset="1" stop-color="#EFEFEF" stop-opacity="0.6"/>
</linearGradient>
<linearGradient id="paint9_linear_175_4228" x1="74.8406" y1="3.55775" x2="74.4432" y2="3.87711" gradientUnits="userSpaceOnUse">
<stop stop-color="white"/>
<stop offset="1" stop-color="#EFEFEF" stop-opacity="0.6"/>
</linearGradient>
<linearGradient id="paint10_linear_175_4228" x1="71.6727" y1="4.4319" x2="71.0341" y2="4.91139" gradientUnits="userSpaceOnUse">
<stop stop-color="white"/>
<stop offset="1" stop-color="#EFEFEF" stop-opacity="0.6"/>
</linearGradient>
<linearGradient id="paint11_linear_175_4228" x1="75.0957" y1="4.67943" x2="74.7312" y2="5.03731" gradientUnits="userSpaceOnUse">
<stop stop-color="white"/>
<stop offset="1" stop-color="#EFEFEF" stop-opacity="0.6"/>
</linearGradient>
<linearGradient id="paint12_linear_175_4228" x1="70.0695" y1="7.57787" x2="69.6712" y2="7.89789" gradientUnits="userSpaceOnUse">
<stop stop-color="white"/>
<stop offset="1" stop-color="#EFEFEF" stop-opacity="0.6"/>
</linearGradient>
<linearGradient id="paint13_linear_175_4228" x1="76.6141" y1="9.21531" x2="76.1667" y2="9.37334" gradientUnits="userSpaceOnUse">
<stop stop-color="white"/>
<stop offset="1" stop-color="#EFEFEF" stop-opacity="0.6"/>
</linearGradient>
</defs>
</svg>
