<svg width="254" height="36" viewBox="0 0 254 36" fill="none" xmlns="http://www.w3.org/2000/svg">
<rect x="130" y="0.0703125" width="124" height="35" rx="11" fill="#229D71"/>
<path d="M152.255 21.65H156.275L155.93 23H149.42V21.65H151.175C150.705 20.87 150.47 20.125 150.47 19.415C150.47 18.655 150.74 18.025 151.28 17.525C151.82 17.015 152.485 16.76 153.275 16.76C153.935 16.76 154.75 16.945 155.72 17.315L155.36 18.41C154.61 18.14 153.985 18.005 153.485 18.005C152.915 18.005 152.46 18.16 152.12 18.47C151.79 18.77 151.615 19.185 151.595 19.715C151.565 20.275 151.785 20.92 152.255 21.65ZM161.131 23C159.031 23 157.981 22 157.981 20L157.966 12.245L159.241 12.05V19.7C159.241 21 159.866 21.65 161.116 21.65C161.216 21.65 161.266 21.695 161.266 21.785L161.281 22.85C161.281 22.95 161.231 23 161.131 23ZM165.014 13.385L163.919 14.465L162.824 13.385L163.919 12.305L165.014 13.385ZM167.399 13.385L166.304 14.465L165.194 13.385L166.304 12.305L167.399 13.385ZM165.224 15.725C166.184 15.725 166.989 16.055 167.639 16.715C168.289 17.365 168.614 18.18 168.614 19.16C168.614 20.36 168.239 21.3 167.489 21.98C166.749 22.66 165.724 23 164.414 23H161.129C161.029 23 160.979 22.95 160.979 22.85V21.785C160.979 21.695 161.029 21.65 161.129 21.65H162.419C161.969 20.72 161.744 19.91 161.744 19.22C161.744 18.21 162.069 17.375 162.719 16.715C163.379 16.055 164.214 15.725 165.224 15.725ZM164.519 21.65C165.379 21.65 166.064 21.435 166.574 21.005C167.084 20.575 167.339 19.975 167.339 19.205C167.339 18.565 167.129 18.04 166.709 17.63C166.299 17.21 165.779 17 165.149 17C164.549 17 164.039 17.225 163.619 17.675C163.199 18.115 162.989 18.635 162.989 19.235C162.989 19.955 163.239 20.76 163.739 21.65H164.519ZM178.184 21.65C178.284 21.65 178.334 21.695 178.334 21.785V22.85C178.334 22.95 178.284 23 178.184 23C177.304 23 176.504 22.665 175.784 21.995C175.234 22.665 174.364 23 173.174 23H169.664L169.409 21.65H173.189C173.799 21.65 174.264 21.5 174.584 21.2C174.914 20.9 175.079 20.475 175.079 19.925L175.064 19.055C175.054 18.445 174.834 17.95 174.404 17.57C173.984 17.19 173.444 17 172.784 17H171.899V15.68H173.054C174.014 15.68 174.799 15.975 175.409 16.565C176.019 17.155 176.329 17.93 176.339 18.89L176.354 20.12C176.354 20.39 176.319 20.68 176.249 20.99C176.869 21.43 177.514 21.65 178.184 21.65ZM186.79 15.605C187.74 15.605 188.52 15.905 189.13 16.505C189.75 17.105 190.06 17.87 190.06 18.8C190.06 19.26 190.02 19.68 189.94 20.06C189.87 20.43 189.73 21.025 189.52 21.845L188.515 23H180.295H178.18C178.08 23 178.03 22.95 178.03 22.85L178.045 21.785C178.045 21.695 178.095 21.65 178.195 21.65H179.68L179.665 15.755L180.94 15.545V17.345C182.48 16.685 183.65 16.23 184.45 15.98C185.26 15.73 186.04 15.605 186.79 15.605ZM188.29 21.65C188.62 20.53 188.785 19.64 188.785 18.98C188.775 18.38 188.555 17.89 188.125 17.51C187.705 17.12 187.17 16.925 186.52 16.925C185.85 16.925 185.195 17.015 184.555 17.195C183.925 17.375 182.72 17.795 180.94 18.455V21.65H188.29ZM192.579 12.305H194.529L194.319 13.16H190.929V12.305H191.754C191.594 12.045 191.514 11.755 191.514 11.435C191.514 11.065 191.639 10.76 191.889 10.52C192.149 10.27 192.474 10.145 192.864 10.145C193.214 10.145 193.604 10.24 194.034 10.43V11.165C193.684 11.015 193.364 10.94 193.074 10.94C192.854 10.94 192.674 11 192.534 11.12C192.394 11.24 192.324 11.4 192.324 11.6C192.324 11.89 192.409 12.125 192.579 12.305ZM192.069 23V14.15L193.344 13.955V23H192.069ZM202.06 13.28L200.965 14.36L199.87 13.28L200.965 12.2L202.06 13.28ZM204.445 13.28L203.35 14.36L202.24 13.28L203.35 12.2L204.445 13.28ZM206.92 21.65C207.02 21.65 207.07 21.695 207.07 21.785V22.85C207.07 22.95 207.02 23 206.92 23C206 23 205.32 22.785 204.88 22.355C203.87 22.875 202.965 23.135 202.165 23.135C201.155 23.135 200.325 22.79 199.675 22.1C199.035 21.41 198.715 20.555 198.715 19.535C198.715 18.495 199.04 17.61 199.69 16.88C200.34 16.15 201.165 15.785 202.165 15.785C202.775 15.785 203.445 15.925 204.175 16.205V15.275L205.435 15.065L205.45 19.97C205.45 20.57 205.565 21 205.795 21.26C206.025 21.52 206.4 21.65 206.92 21.65ZM202.165 21.845C202.835 21.855 203.555 21.685 204.325 21.335C204.225 20.995 204.175 20.58 204.175 20.09V17.48C203.365 17.21 202.71 17.075 202.21 17.075C201.54 17.075 200.99 17.31 200.56 17.78C200.14 18.25 199.93 18.83 199.93 19.52C199.93 20.18 200.135 20.73 200.545 21.17C200.965 21.61 201.505 21.835 202.165 21.845ZM211.915 13.37L210.82 14.465L209.71 13.37L210.79 12.29L211.915 13.37ZM211.015 15.725C211.975 15.725 212.78 16.055 213.43 16.715C214.08 17.365 214.405 18.18 214.405 19.16C214.405 20.36 214.03 21.3 213.28 21.98C212.54 22.66 211.515 23 210.205 23H206.92C206.82 23 206.77 22.95 206.77 22.85V21.785C206.77 21.695 206.82 21.65 206.92 21.65H208.21C207.76 20.72 207.535 19.91 207.535 19.22C207.535 18.21 207.86 17.375 208.51 16.715C209.17 16.055 210.005 15.725 211.015 15.725ZM210.31 21.65C211.17 21.65 211.855 21.435 212.365 21.005C212.875 20.575 213.13 19.975 213.13 19.205C213.13 18.565 212.92 18.04 212.5 17.63C212.09 17.21 211.57 17 210.94 17C210.34 17 209.83 17.225 209.41 17.675C208.99 18.115 208.78 18.635 208.78 19.235C208.78 19.955 209.03 20.76 209.53 21.65H210.31ZM219.505 23C217.405 23 216.355 22 216.355 20L216.34 12.245L217.615 12.05V19.7C217.615 21 218.24 21.65 219.49 21.65C219.59 21.65 219.64 21.695 219.64 21.785L219.655 22.85C219.655 22.95 219.605 23 219.505 23ZM227.153 13.145L226.058 14.24L224.948 13.145L226.028 12.065L227.153 13.145ZM228.113 15.605C229.063 15.605 229.843 15.905 230.453 16.505C231.073 17.105 231.383 17.87 231.383 18.8C231.383 19.26 231.343 19.68 231.263 20.06C231.193 20.43 231.053 21.025 230.843 21.845L229.838 23H221.618H219.503C219.403 23 219.353 22.95 219.353 22.85L219.368 21.785C219.368 21.695 219.418 21.65 219.518 21.65H221.003L220.988 15.755L222.263 15.545V17.345C223.803 16.685 224.973 16.23 225.773 15.98C226.583 15.73 227.363 15.605 228.113 15.605ZM229.613 21.65C229.943 20.53 230.108 19.64 230.108 18.98C230.098 18.38 229.878 17.89 229.448 17.51C229.028 17.12 228.493 16.925 227.843 16.925C227.173 16.925 226.518 17.015 225.878 17.195C225.248 17.375 224.043 17.795 222.263 18.455V21.65H229.613ZM233.347 23V12.245L234.622 12.05V23H233.347Z" fill="white"/>
<rect y="0.0703125" width="124" height="35" rx="11" fill="#229D71"/>
<path d="M24.2 15.755L25.475 15.545V20.12C25.475 21.04 25.205 21.75 24.665 22.25C24.135 22.75 23.35 23 22.31 23H18.305C17.115 23 16.205 22.725 15.575 22.175C14.955 21.625 14.645 20.815 14.645 19.745C14.645 19.015 14.75 18.16 14.96 17.18L16.085 17.33C15.925 18.22 15.845 18.905 15.845 19.385C15.845 20.895 16.765 21.65 18.605 21.65H22.31C23.57 21.65 24.2 21.025 24.2 19.775V15.755ZM19.325 25.25L20.405 24.155L21.53 25.25L20.435 26.33L19.325 25.25ZM30.9208 23C28.8208 23 27.7708 22 27.7708 20L27.7558 12.245L29.0308 12.05V19.7C29.0308 21 29.6558 21.65 30.9058 21.65C31.0058 21.65 31.0558 21.695 31.0558 21.785L31.0708 22.85C31.0708 22.95 31.0208 23 30.9208 23ZM45.0039 21.65C45.1039 21.65 45.1539 21.695 45.1539 21.785V22.85C45.1539 22.95 45.1039 23 45.0039 23C44.1739 23 43.3989 22.695 42.6789 22.085C42.1689 22.685 41.3839 22.985 40.3239 22.985C39.5239 22.985 38.6889 22.72 37.8189 22.19C37.2889 22.72 36.5289 22.985 35.5389 22.985C34.8189 22.985 34.0739 22.725 33.3039 22.205C32.7539 22.735 31.9589 23 30.9189 23C30.8189 23 30.7689 22.95 30.7689 22.85V21.785C30.7689 21.695 30.8189 21.65 30.9189 21.65C32.1789 21.65 32.8089 21.025 32.8089 19.775L32.7939 17.345L34.0689 17.15V20.12C34.0689 20.54 34.0089 20.925 33.8889 21.275C34.4689 21.515 34.9889 21.635 35.4489 21.635C36.7089 21.635 37.3389 21.01 37.3389 19.76L37.3239 17.33L38.5989 17.135V20.105C38.5989 20.545 38.5339 20.93 38.4039 21.26C39.0239 21.51 39.6039 21.635 40.1439 21.635C40.7539 21.635 41.2189 21.48 41.5389 21.17C41.8689 20.85 42.0339 20.38 42.0339 19.76V15.74L43.2939 15.53V20.105C43.2939 20.435 43.2539 20.76 43.1739 21.08C43.7539 21.46 44.3639 21.65 45.0039 21.65ZM54.5357 21.65C54.6357 21.65 54.6857 21.695 54.6857 21.785V22.85C54.6857 22.95 54.6357 23 54.5357 23H53.8457C53.2157 23 52.7057 22.86 52.3157 22.58C51.9257 22.3 51.6657 21.91 51.5357 21.41C49.2357 22.47 47.0657 23 45.0257 23C44.9157 23 44.8607 22.95 44.8607 22.85V21.785C44.8607 21.695 44.9157 21.65 45.0257 21.65C47.3357 21.65 49.6807 21.07 52.0607 19.91C50.7707 18.83 49.8157 18.115 49.1957 17.765C48.5857 17.415 48.0057 17.24 47.4557 17.24C47.2257 17.24 46.7357 17.32 45.9857 17.48L45.7307 16.34C46.4707 16.06 47.1107 15.92 47.6507 15.92C48.3007 15.92 48.9857 16.135 49.7057 16.565C50.4357 16.995 51.6557 17.92 53.3657 19.34L53.1707 20.585C52.8907 20.755 52.6057 20.905 52.3157 21.035C52.5657 21.445 53.0807 21.65 53.8607 21.65H54.5357ZM54.5322 23C54.4322 23 54.3822 22.95 54.3822 22.85V21.785C54.3822 21.695 54.4372 21.65 54.5472 21.65C55.7972 21.65 56.4222 21 56.4222 19.7L56.4372 12.245L57.6972 12.05V20C57.6972 22 56.6422 23 54.5322 23ZM60.2904 23V12.245L61.5654 12.05V23H60.2904ZM77.2875 21.65C77.3875 21.65 77.4375 21.695 77.4375 21.785V22.85C77.4375 22.95 77.3875 23 77.2875 23C76.4475 23 75.8225 22.71 75.4125 22.13C75.3225 23.41 74.9275 24.41 74.2275 25.13C73.5275 25.86 72.4975 26.225 71.1375 26.225C69.8775 26.225 68.8775 25.895 68.1375 25.235C67.4075 24.585 67.0425 23.62 67.0425 22.34C67.0425 21.27 67.2625 20.065 67.7025 18.725L68.7375 19.01C68.3875 20.04 68.2125 21.04 68.2125 22.01C68.2225 22.95 68.4875 23.66 69.0075 24.14C69.5275 24.63 70.2625 24.875 71.2125 24.875C72.2125 24.875 72.9525 24.59 73.4325 24.02C73.9225 23.46 74.1675 22.59 74.1675 21.41V15.755V12.2L75.4425 12.005V19.16V20.03C75.4425 20.55 75.6275 20.95 75.9975 21.23C76.3675 21.51 76.7975 21.65 77.2875 21.65ZM77.2812 23C77.1812 23 77.1312 22.95 77.1312 22.85L77.1462 21.785C77.1462 21.695 77.1962 21.65 77.2963 21.65H78.4363C79.6863 21.65 80.3113 21.025 80.3113 19.775V15.755L81.5713 15.545V20.12C81.5713 21.04 81.3063 21.75 80.7763 22.25C80.2463 22.75 79.4613 23 78.4213 23H77.2812ZM78.2413 26.345L77.1462 25.265L78.2413 24.185L79.3363 25.265L78.2413 26.345ZM80.6263 26.345L79.5163 25.265L80.6263 24.185L81.7213 25.265L80.6263 26.345ZM91.4943 21.65C91.5943 21.65 91.6443 21.695 91.6443 21.785V22.85C91.6443 22.95 91.5943 23 91.4943 23C90.6143 23 89.8143 22.665 89.0943 21.995C88.5443 22.665 87.6743 23 86.4843 23H82.9743L82.7193 21.65H86.4993C87.1093 21.65 87.5743 21.5 87.8943 21.2C88.2243 20.9 88.3893 20.475 88.3893 19.925L88.3743 19.055C88.3643 18.445 88.1443 17.95 87.7143 17.57C87.2943 17.19 86.7543 17 86.0943 17H85.2093V15.68H86.3643C87.3243 15.68 88.1093 15.975 88.7193 16.565C89.3293 17.155 89.6393 17.93 89.6493 18.89L89.6643 20.12C89.6643 20.39 89.6293 20.68 89.5593 20.99C90.1793 21.43 90.8243 21.65 91.4943 21.65ZM100.475 21.65C100.575 21.65 100.625 21.695 100.625 21.785V22.85C100.625 22.95 100.575 23 100.475 23C98.7252 23 97.3152 22.735 96.2452 22.205C95.5752 22.505 94.8852 22.715 94.1752 22.835C93.4652 22.945 92.5702 23 91.4902 23C91.3902 22.99 91.3402 22.94 91.3402 22.85V21.785C91.3402 21.695 91.3902 21.65 91.4902 21.65C92.5202 21.65 93.5352 21.56 94.5352 21.38C94.0052 20.75 93.5552 20.16 93.1852 19.61C92.8152 19.05 92.4052 18.345 91.9552 17.495L92.4352 16.34C93.8352 15.62 95.1002 15.26 96.2302 15.26C97.2302 15.26 98.0602 15.525 98.7202 16.055C99.3802 16.585 99.7102 17.26 99.7102 18.08C99.7102 18.65 99.5352 19.23 99.1852 19.82C98.8352 20.4 98.3202 20.93 97.6402 21.41C98.4402 21.57 99.3852 21.65 100.475 21.65ZM96.0202 16.55C95.2402 16.54 94.3352 16.775 93.3052 17.255C93.7452 18.105 94.1552 18.815 94.5352 19.385C94.9252 19.945 95.4002 20.54 95.9602 21.17C96.6802 20.82 97.2652 20.395 97.7152 19.895C98.1752 19.395 98.4052 18.93 98.4052 18.5C98.4052 17.92 98.1852 17.45 97.7452 17.09C97.3152 16.73 96.7402 16.55 96.0202 16.55ZM102.854 14.375L101.759 13.28L102.854 12.2L103.949 13.28L102.854 14.375ZM105.239 14.375L104.129 13.28L105.239 12.2L106.334 13.28L105.239 14.375ZM100.499 23C100.399 23 100.349 22.95 100.349 22.85L100.364 21.785C100.364 21.695 100.414 21.65 100.514 21.65H101.654C102.904 21.65 103.529 21.025 103.529 19.775V15.755L104.789 15.545V20.12C104.789 21.04 104.524 21.75 103.994 22.25C103.464 22.75 102.679 23 101.639 23H100.499Z" fill="white"/>
</svg>
