<svg width="279" height="132" viewBox="0 0 279 132" fill="none" xmlns="http://www.w3.org/2000/svg">
<path d="M104.72 13.03C104.828 13.03 104.9 13.102 104.9 13.21V15.802C104.9 15.91 104.828 16 104.72 16H99.914V10.078H98.888C97.916 10.078 97.376 10.69 97.376 11.896V14.524C97.376 17.98 95.774 19.87 91.85 19.87C88.34 19.87 86.468 18.286 86.468 15.064C86.468 13.84 86.72 12.454 87.242 10.87L89.51 11.482C89.186 12.508 89.006 13.372 89.006 14.236C89.024 16.018 89.978 16.9 91.85 16.9C93.722 16.9 94.568 16.144 94.568 14.146V11.194C94.568 8.746 95.864 7.108 98.348 7.108H101.084L102.722 8.548V13.03H104.72ZM93.398 21.868L94.676 20.59L96.566 22.444L94.712 24.298L93.398 23.02L92.12 24.298L90.23 22.444L92.084 20.59L93.398 21.868ZM110.931 13.03C111.039 13.03 111.111 13.102 111.111 13.21V15.802C111.111 15.91 111.039 16 110.931 16C109.869 16 108.915 15.586 108.177 14.848C107.457 15.604 106.305 16 104.721 16C104.613 16 104.541 15.91 104.541 15.802L104.577 13.21C104.577 13.102 104.649 13.03 104.757 13.03C105.765 13.03 106.251 12.472 106.251 11.194L106.233 9.034L109.041 8.71V12.22V12.508C109.581 12.832 110.175 13.03 110.931 13.03ZM105.909 18.826L107.781 16.972L109.653 18.826L107.799 20.68L105.909 18.826ZM117.892 13.03C118 13.03 118.072 13.102 118.072 13.21V15.802C118.072 15.91 118 16 117.892 16C116.938 16 115.912 15.514 115.066 14.65C114.238 15.55 112.816 16 110.926 16C110.818 16 110.746 15.91 110.746 15.802L110.782 13.21C110.782 13.102 110.854 13.03 110.962 13.03C112.366 13.03 113.122 12.49 113.122 11.194L113.104 9.034L115.912 8.71V12.22V12.454C116.506 12.832 117.19 13.03 117.892 13.03ZM114.418 18.196L115.696 16.918L117.586 18.772L115.732 20.626L114.418 19.348L113.14 20.626L111.25 18.772L113.104 16.918L114.418 18.196ZM121.397 6.37L119.993 7.774L118.121 5.902L119.975 4.048L121.397 5.434L122.801 4.048L124.673 5.902L122.837 7.774L121.397 6.37ZM124.853 13.03C124.961 13.03 125.033 13.102 125.033 13.21V15.802C125.033 15.91 124.961 16 124.853 16C123.899 16 122.873 15.514 122.027 14.65C121.199 15.55 119.777 16 117.887 16C117.779 16 117.707 15.91 117.707 15.802L117.743 13.21C117.743 13.102 117.815 13.03 117.923 13.03C119.327 13.03 120.083 12.49 120.083 11.194L120.065 9.034L122.873 8.71V12.22V12.454C123.467 12.832 124.151 13.03 124.853 13.03ZM135.54 13.03C135.648 13.03 135.72 13.102 135.72 13.21V15.802C135.72 15.91 135.648 16 135.54 16C133.524 16 132.084 15.64 130.698 14.83C128.916 15.712 127.53 16 124.848 16C124.74 15.982 124.668 15.91 124.668 15.802V13.21C124.668 13.102 124.74 13.03 124.848 13.03C125.802 13.03 126.576 12.994 127.296 12.922C126.612 12.022 125.982 11.05 125.316 9.7L126.234 7.486C127.98 6.64 129.33 6.28 130.662 6.28C133.164 6.28 134.892 7.666 134.892 9.736C134.892 10.69 134.46 11.878 133.38 12.904C133.992 12.994 134.676 13.03 135.54 13.03ZM130.284 9.034C129.582 9.016 128.79 9.178 127.854 9.556C128.592 11.068 129.204 11.986 130.086 12.886C131.562 12.346 132.336 11.446 132.336 10.654C132.336 9.736 131.526 9.034 130.284 9.034ZM135.605 16C135.497 16 135.425 15.91 135.425 15.802L135.443 13.21C135.443 13.102 135.515 13.03 135.623 13.03C136.649 13.03 137.117 12.454 137.117 11.176L137.135 3.184L139.943 2.86L139.925 12.184C139.925 14.722 138.503 16 135.605 16ZM142.489 16V3.184L145.297 2.86V16H142.489ZM161.028 13.03C161.136 13.03 161.208 13.102 161.208 13.21V15.802C161.208 15.91 161.136 16 161.028 16C159.984 16 159.066 15.622 158.346 14.92C157.626 15.64 156.492 16 154.962 16H150.93L150.498 13.03H154.998C156.006 13.03 156.492 12.472 156.492 11.644V11.068C156.474 10.114 155.682 9.466 154.53 9.466H153.306V6.586H155.178C157.626 6.586 159.318 8.062 159.318 10.816V12.22C159.318 12.346 159.318 12.472 159.3 12.598C159.786 12.868 160.326 13.03 161.028 13.03ZM171.355 13.03C171.463 13.03 171.535 13.102 171.535 13.21V15.802C171.535 15.946 171.481 16 171.355 16H167.125C165.883 16 164.803 15.676 163.975 15.1C163.057 15.676 161.959 16 161.023 16C160.915 16 160.843 15.91 160.843 15.802V13.21C160.843 13.102 160.915 13.03 161.023 13.03C161.509 13.03 161.941 12.958 162.319 12.832C162.157 12.292 162.067 11.716 162.067 11.086C162.067 8.584 163.921 6.73 166.513 6.73C168.853 6.73 170.743 8.53 170.743 10.816C170.743 11.518 170.617 12.238 170.383 13.03H171.355ZM167.107 13.03H168.007C168.187 12.292 168.259 11.68 168.259 11.176C168.259 10.204 167.503 9.394 166.549 9.394C165.577 9.394 164.875 10.114 164.875 11.086C164.875 12.238 165.703 13.03 167.107 13.03ZM182.735 13.03C182.843 13.03 182.915 13.102 182.915 13.21V15.802C182.915 15.91 182.843 16 182.735 16H182.429C181.043 16 180.017 15.316 179.585 14.164C176.813 15.514 174.599 16 171.377 16C171.269 16 171.179 15.91 171.179 15.802V13.21C171.179 13.102 171.269 13.03 171.377 13.03C174.779 13.03 176.651 12.724 178.811 11.896C176.399 10.258 175.445 9.772 174.239 9.772C173.663 9.772 173.249 9.88 172.511 10.024L171.989 7.54C172.997 7.108 173.807 6.928 174.581 6.928C176.165 6.928 177.533 7.594 181.691 10.492L181.241 12.832C181.529 12.958 181.925 13.012 182.447 13.03H182.735ZM187.574 6.73C190.148 6.73 192.02 8.566 192.02 11.086C192.02 14.074 190.04 16 186.872 16H182.732C182.606 16 182.552 15.946 182.552 15.802V13.21C182.552 13.102 182.624 13.03 182.732 13.03H183.848C183.506 12.31 183.308 11.626 183.308 10.924C183.308 8.476 185.162 6.73 187.574 6.73ZM186.89 13.03C188.348 13.03 189.212 12.256 189.212 11.068C189.212 10.114 188.492 9.412 187.538 9.412C186.584 9.412 185.81 10.186 185.81 11.176C185.81 11.752 185.99 12.364 186.314 13.03H186.89Z" fill="#229D71"/>
<path d="M103.629 40.999L103.811 42H98.611V40.999H100.6V34.291L98.897 35.253L98.52 34.317L100.73 33.095H101.809V40.999H103.629ZM112.624 35.747C113.482 35.747 114.193 36.0677 114.756 36.709C115.32 37.3417 115.601 38.1043 115.601 38.997C115.601 39.881 115.32 40.622 114.756 41.22C114.202 41.818 113.491 42.117 112.624 42.117C111.896 42.117 111.272 41.9003 110.752 41.467C110.232 41.0337 109.894 40.4703 109.738 39.777C109.114 39.907 108.802 40.3707 108.802 41.168V45.341L107.71 45.51L107.697 41.025C107.697 39.5777 108.356 38.7717 109.673 38.607C109.751 37.7923 110.063 37.112 110.609 36.566C111.155 36.02 111.827 35.747 112.624 35.747ZM111.272 40.375C111.628 40.7477 112.078 40.934 112.624 40.934C113.17 40.934 113.617 40.7477 113.963 40.375C114.319 40.0023 114.496 39.5387 114.496 38.984C114.496 38.412 114.319 37.9267 113.963 37.528C113.617 37.1207 113.17 36.917 112.624 36.917C112.078 36.917 111.628 37.1207 111.272 37.528C110.917 37.9267 110.739 38.412 110.739 38.984C110.739 39.5387 110.917 40.0023 111.272 40.375ZM119.498 33.602L118.549 34.551L117.587 33.602L118.523 32.666L119.498 33.602ZM120.538 40.83C120.625 40.83 120.668 40.869 120.668 40.947V41.87C120.668 41.9567 120.625 42 120.538 42C119.871 42 119.381 41.7703 119.069 41.311V41.649C119.069 42.7323 118.792 43.5253 118.237 44.028C117.683 44.5393 116.851 44.795 115.741 44.795L115.637 43.846C117.197 43.846 117.977 43.1007 117.977 41.61L117.964 35.721L119.069 35.539V39.595C119.13 40.4183 119.62 40.83 120.538 40.83ZM122.939 35.058L121.99 35.994L121.041 35.058L121.99 34.122L122.939 35.058ZM125.006 35.058L124.057 35.994L123.095 35.058L124.057 34.122L125.006 35.058ZM125.435 40.83C125.522 40.83 125.565 40.869 125.565 40.947V41.87C125.565 41.9567 125.522 42 125.435 42C124.629 42 123.884 41.6837 123.199 41.051C122.731 41.6837 121.847 42 120.547 42C120.46 42 120.417 41.9567 120.417 41.87L120.43 40.947C120.43 40.869 120.473 40.83 120.56 40.83C121.253 40.83 121.756 40.7043 122.068 40.453C122.389 40.193 122.549 39.777 122.549 39.205V37.099L123.641 36.93V39.504C123.641 39.7207 123.619 39.946 123.576 40.18C124.157 40.6133 124.776 40.83 125.435 40.83ZM129.647 40.83C129.733 40.83 129.777 40.869 129.777 40.947V41.87C129.777 41.9567 129.733 42 129.647 42C128.598 42 127.853 41.7183 127.411 41.155C126.813 41.7183 126.154 42 125.435 42C125.348 42 125.305 41.9567 125.305 41.87V40.947C125.305 40.869 125.348 40.83 125.435 40.83C126.059 40.83 126.583 40.648 127.008 40.284C126.947 40.0413 126.917 39.7467 126.917 39.4V32.679L128.022 32.51V39.14C128.022 40.2667 128.563 40.83 129.647 40.83ZM133.211 35.695C134.043 35.695 134.741 35.981 135.304 36.553C135.867 37.1163 136.149 37.8227 136.149 38.672C136.149 39.712 135.824 40.5267 135.174 41.116C134.533 41.7053 133.644 42 132.509 42H129.662C129.575 42 129.532 41.9567 129.532 41.87V40.947C129.532 40.869 129.575 40.83 129.662 40.83H130.78C130.39 40.024 130.195 39.322 130.195 38.724C130.195 37.8487 130.477 37.125 131.04 36.553C131.612 35.981 132.336 35.695 133.211 35.695ZM132.6 40.83C133.345 40.83 133.939 40.6437 134.381 40.271C134.823 39.8983 135.044 39.3783 135.044 38.711C135.044 38.1563 134.862 37.7013 134.498 37.346C134.143 36.982 133.692 36.8 133.146 36.8C132.626 36.8 132.184 36.995 131.82 37.385C131.456 37.7663 131.274 38.217 131.274 38.737C131.274 39.361 131.491 40.0587 131.924 40.83H132.6ZM141.677 37.931H140.689V36.566H141.677V37.931ZM141.677 41.051H140.689V39.686H141.677V41.051Z" fill="#544C4C"/>
<path d="M149.22 33.511L148.206 34.525L146.854 33.173L148.193 31.834L149.22 32.835L150.234 31.834L151.586 33.173L150.26 34.525L149.22 33.511ZM153.211 39.855C153.289 39.855 153.341 39.907 153.341 39.985V41.857C153.341 41.935 153.289 42 153.211 42C152.392 42 151.768 41.844 151.313 41.519C150.533 41.922 149.844 42.117 149.129 42.117C147.283 42.117 145.97 40.687 145.97 38.841C145.97 36.995 147.283 35.422 149.129 35.422C149.558 35.422 149.974 35.513 150.442 35.669V34.967L152.47 34.72L152.483 39.049C152.483 39.621 152.743 39.855 153.211 39.855ZM149.129 40.115C149.61 40.128 150.078 40.05 150.481 39.894C150.455 39.725 150.455 39.53 150.455 39.335L150.442 37.658C150.026 37.515 149.636 37.424 149.233 37.424C148.401 37.424 147.855 37.996 147.855 38.802C147.855 39.53 148.388 40.089 149.129 40.115ZM155.539 35.448C156.683 35.448 157.671 35.929 160.674 38.022L160.271 40.089C157.697 41.519 155.968 42 153.225 42C153.147 42 153.082 41.935 153.082 41.857V39.985C153.082 39.907 153.147 39.855 153.225 39.855C155.682 39.855 157.034 39.634 158.594 39.036C156.852 37.853 156.163 37.502 155.292 37.502C154.876 37.502 154.577 37.58 154.044 37.684L153.667 35.89C154.395 35.578 154.98 35.448 155.539 35.448ZM156.085 43.833L157.437 42.494L158.789 43.833L157.45 45.172L156.085 43.833ZM160.815 44.795L160.672 43.144C161.725 43.144 162.492 42.728 162.492 41.61L162.479 35.656L164.507 35.409V41.701C164.507 43.95 163.298 44.795 160.815 44.795ZM172.893 39.855C172.971 39.855 173.023 39.907 173.023 39.985V41.857C173.023 41.935 172.971 42 172.893 42C172.139 42 171.476 41.727 170.956 41.22C170.436 41.74 169.617 42 168.512 42H165.6L165.288 39.855H168.538C169.266 39.855 169.617 39.452 169.617 38.854V38.438C169.604 37.749 169.032 37.281 168.2 37.281H167.316V35.201H168.668C170.436 35.201 171.658 36.267 171.658 38.256V39.27C171.658 39.361 171.658 39.452 171.645 39.543C171.996 39.738 172.386 39.855 172.893 39.855ZM172.89 42C172.812 42 172.76 41.935 172.76 41.857L172.773 39.985C172.773 39.907 172.825 39.855 172.903 39.855C173.644 39.855 173.982 39.439 173.982 38.516L173.995 32.744L176.023 32.51L176.01 39.244C176.01 41.077 174.983 42 172.89 42ZM177.861 42V32.744L179.889 32.51V42H177.861Z" fill="#229D71"/>
<path d="M95.9999 65.1695C93.8699 65.1695 92.1299 63.4395 92.1299 61.2995C92.1299 59.1595 93.8699 57.4395 95.9999 57.4395C98.1299 57.4395 99.8699 59.1695 99.8699 61.3095C99.8699 63.4495 98.1299 65.1695 95.9999 65.1695ZM95.9999 58.9395C94.6999 58.9395 93.6299 59.9995 93.6299 61.3095C93.6299 62.6195 94.6899 63.6795 95.9999 63.6795C97.3099 63.6795 98.3699 62.6195 98.3699 61.3095C98.3699 59.9995 97.2999 58.9395 95.9999 58.9395Z" fill="#229D71"/>
<path d="M95.9997 73.76C94.5197 73.76 93.0297 73.2 91.8697 72.09C88.9197 69.25 85.6597 64.72 86.8897 59.33C87.9997 54.44 92.2697 52.25 95.9997 52.25C95.9997 52.25 95.9997 52.25 96.0097 52.25C99.7397 52.25 104.01 54.44 105.12 59.34C106.34 64.73 103.08 69.25 100.13 72.09C98.9697 73.2 97.4797 73.76 95.9997 73.76ZM95.9997 53.75C93.0897 53.75 89.3497 55.3 88.3597 59.66C87.2797 64.37 90.2397 68.43 92.9197 71C94.6497 72.67 97.3597 72.67 99.0897 71C101.76 68.43 104.72 64.37 103.66 59.66C102.66 55.3 98.9097 53.75 95.9997 53.75Z" fill="#229D71"/>
<path d="M116.626 67C116.201 67 115.82 66.9263 115.482 66.779C115.144 66.6317 114.875 66.4063 114.676 66.103C114.485 65.7997 114.39 65.414 114.39 64.946C114.39 64.5733 114.533 64.1097 114.819 63.555C115.105 62.9917 115.603 62.398 116.314 61.774L116.561 62.476L115.677 61.683L116.353 60.877C116.804 61.2323 117.22 61.6137 117.601 62.021C117.982 62.4283 118.29 62.8617 118.524 63.321C118.758 63.7803 118.875 64.2657 118.875 64.777C118.875 64.9763 118.84 65.2017 118.771 65.453C118.702 65.7043 118.585 65.9513 118.42 66.194C118.255 66.428 118.026 66.623 117.731 66.779C117.436 66.9263 117.068 67 116.626 67ZM116.626 65.934C116.921 65.934 117.163 65.8863 117.354 65.791C117.553 65.687 117.701 65.544 117.796 65.362C117.9 65.18 117.952 64.9677 117.952 64.725C117.952 64.5083 117.913 64.283 117.835 64.049C117.766 63.8063 117.618 63.5463 117.393 63.269C117.176 62.983 116.843 62.6623 116.392 62.307L116.964 62.281C116.643 62.5583 116.366 62.853 116.132 63.165C115.898 63.4683 115.72 63.7673 115.599 64.062C115.478 64.348 115.417 64.608 115.417 64.842C115.417 65.206 115.53 65.479 115.755 65.661C115.989 65.843 116.279 65.934 116.626 65.934ZM117.614 59.72C117.432 59.72 117.276 59.6593 117.146 59.538C117.025 59.408 116.964 59.2563 116.964 59.083C116.964 58.9097 117.025 58.758 117.146 58.628C117.276 58.498 117.432 58.433 117.614 58.433C117.787 58.433 117.935 58.498 118.056 58.628C118.186 58.758 118.251 58.9097 118.251 59.083C118.251 59.2563 118.186 59.408 118.056 59.538C117.935 59.6593 117.787 59.72 117.614 59.72ZM115.833 59.72C115.651 59.72 115.495 59.6593 115.365 59.538C115.244 59.408 115.183 59.2563 115.183 59.083C115.183 58.9097 115.244 58.758 115.365 58.628C115.495 58.498 115.651 58.433 115.833 58.433C116.006 58.433 116.154 58.498 116.275 58.628C116.405 58.758 116.47 58.9097 116.47 59.083C116.47 59.2563 116.405 59.408 116.275 59.538C116.154 59.6593 116.006 59.72 115.833 59.72ZM122.064 65.999C122.497 65.999 122.839 65.9557 123.091 65.869C123.351 65.7823 123.537 65.6567 123.65 65.492C123.771 65.3187 123.832 65.1193 123.832 64.894C123.832 64.7207 123.784 64.5127 123.689 64.27C123.602 64.0273 123.481 63.7587 123.325 63.464C123.169 63.1607 122.987 62.8443 122.779 62.515C122.579 62.177 122.363 61.8347 122.129 61.488L123.026 60.903C123.364 61.4143 123.658 61.8997 123.91 62.359C124.161 62.8097 124.373 63.2343 124.547 63.633C124.72 64.023 124.859 64.3913 124.963 64.738C125.084 65.1193 125.218 65.401 125.366 65.583C125.522 65.765 125.682 65.882 125.847 65.934C126.011 65.9773 126.163 65.999 126.302 65.999C126.484 65.999 126.618 66.051 126.705 66.155C126.791 66.2503 126.835 66.3673 126.835 66.506C126.835 66.6447 126.774 66.7747 126.653 66.896C126.531 67.0087 126.375 67.065 126.185 67.065C125.899 67.065 125.617 67.013 125.34 66.909C125.071 66.7963 124.837 66.6187 124.638 66.376C124.438 66.1247 124.3 65.791 124.222 65.375L124.742 64.959C124.742 65.3057 124.668 65.6437 124.521 65.973C124.373 66.2937 124.105 66.558 123.715 66.766C123.333 66.974 122.783 67.078 122.064 67.078C121.752 67.078 121.448 67.052 121.154 67C120.868 66.948 120.603 66.8743 120.361 66.779C120.118 66.675 119.906 66.5537 119.724 66.415L120.244 65.518C120.417 65.6307 120.66 65.739 120.972 65.843C121.284 65.947 121.648 65.999 122.064 65.999ZM126.188 67.065L126.305 65.999C126.755 65.999 127.197 65.9643 127.631 65.895C128.064 65.8257 128.489 65.726 128.905 65.596C129.321 65.466 129.719 65.31 130.101 65.128C130.491 64.9373 130.859 64.7207 131.206 64.478C130.98 64.2787 130.72 64.1053 130.426 63.958C130.131 63.8107 129.806 63.698 129.451 63.62C129.104 63.5333 128.736 63.49 128.346 63.49C128.207 63.49 128.077 63.4943 127.956 63.503C127.834 63.5117 127.713 63.529 127.592 63.555C127.47 63.5723 127.332 63.5983 127.176 63.633L126.968 62.645C127.202 62.5757 127.436 62.5237 127.67 62.489C127.904 62.4457 128.129 62.424 128.346 62.424C128.796 62.424 129.204 62.4803 129.568 62.593C129.932 62.697 130.261 62.827 130.556 62.983C130.859 63.139 131.141 63.295 131.401 63.451C131.669 63.607 131.929 63.7413 132.181 63.854C132.432 63.958 132.692 64.01 132.961 64.01H133.234L133.325 64.946C132.952 64.946 132.61 64.998 132.298 65.102C131.986 65.206 131.678 65.3403 131.375 65.505C131.08 65.661 130.768 65.83 130.439 66.012C130.109 66.1853 129.745 66.3543 129.347 66.519C128.948 66.675 128.489 66.805 127.969 66.909C127.457 67.013 126.864 67.065 126.188 67.065ZM129.815 69.418C129.633 69.418 129.477 69.353 129.347 69.223C129.225 69.1017 129.165 68.9543 129.165 68.781C129.165 68.6077 129.225 68.456 129.347 68.326C129.477 68.196 129.633 68.131 129.815 68.131C129.988 68.131 130.135 68.196 130.257 68.326C130.387 68.456 130.452 68.6077 130.452 68.781C130.452 68.9543 130.387 69.1017 130.257 69.223C130.135 69.353 129.988 69.418 129.815 69.418ZM140.007 65.7074L139.938 66.2106C139.892 66.5799 139.813 66.9646 139.702 67.3647C139.595 67.7679 139.482 68.1418 139.365 68.4865C139.251 68.8312 139.157 69.1051 139.084 69.3082H138.105C138.145 69.1174 138.2 68.8589 138.271 68.5327C138.342 68.2095 138.411 67.8479 138.479 67.4478C138.547 67.0477 138.597 66.6399 138.631 66.2244L138.677 65.7074H140.007ZM147.346 67.065C146.878 67.065 146.462 67 146.098 66.87C145.743 66.7313 145.457 66.5017 145.24 66.181C145.032 65.8517 144.915 65.3967 144.889 64.816L144.681 60.292H145.734L145.942 64.582C145.968 64.9893 146.042 65.297 146.163 65.505C146.285 65.7043 146.454 65.8387 146.67 65.908C146.896 65.9687 147.164 65.999 147.476 65.999C147.658 65.999 147.788 66.051 147.866 66.155C147.953 66.2503 147.996 66.3673 147.996 66.506C147.996 66.6447 147.936 66.7747 147.814 66.896C147.693 67.0087 147.537 67.065 147.346 67.065ZM145.383 65.635C144.889 65.791 144.408 65.869 143.94 65.869C143.472 65.869 143.048 65.7997 142.666 65.661C142.285 65.5223 141.982 65.323 141.756 65.063C141.531 64.7943 141.418 64.4737 141.418 64.101C141.418 63.737 141.509 63.3947 141.691 63.074C141.882 62.7533 142.138 62.4673 142.458 62.216C142.788 61.9647 143.165 61.7567 143.589 61.592C144.023 61.4187 144.482 61.3017 144.967 61.241L145.149 62.333C144.716 62.3503 144.33 62.411 143.992 62.515C143.663 62.6103 143.381 62.736 143.147 62.892C142.922 63.048 142.749 63.217 142.627 63.399C142.506 63.581 142.445 63.7587 142.445 63.932C142.445 64.1227 142.515 64.2787 142.653 64.4C142.792 64.5213 142.97 64.6167 143.186 64.686C143.403 64.7467 143.641 64.7857 143.901 64.803C144.161 64.8117 144.413 64.803 144.655 64.777C144.898 64.7423 145.106 64.6947 145.279 64.634L145.383 65.635ZM145.11 58.797C144.928 58.797 144.772 58.7363 144.642 58.615C144.521 58.485 144.46 58.3333 144.46 58.16C144.46 57.9867 144.521 57.835 144.642 57.705C144.772 57.575 144.928 57.51 145.11 57.51C145.284 57.51 145.431 57.575 145.552 57.705C145.682 57.835 145.747 57.9867 145.747 58.16C145.747 58.3333 145.682 58.485 145.552 58.615C145.431 58.7363 145.284 58.797 145.11 58.797ZM143.329 58.797C143.147 58.797 142.991 58.7363 142.861 58.615C142.74 58.485 142.679 58.3333 142.679 58.16C142.679 57.9867 142.74 57.835 142.861 57.705C142.991 57.575 143.147 57.51 143.329 57.51C143.503 57.51 143.65 57.575 143.771 57.705C143.901 57.835 143.966 57.9867 143.966 58.16C143.966 58.3333 143.901 58.485 143.771 58.615C143.65 58.7363 143.503 58.797 143.329 58.797ZM147.351 67.065L147.481 65.999C147.992 65.999 148.391 65.9817 148.677 65.947C148.963 65.9037 149.166 65.804 149.288 65.648C149.409 65.4833 149.47 65.2277 149.47 64.881C149.47 64.6643 149.435 64.4087 149.366 64.114C149.296 63.8107 149.205 63.49 149.093 63.152C148.98 62.814 148.859 62.4803 148.729 62.151L149.782 61.761C149.894 62.0383 149.998 62.3547 150.094 62.71C150.198 63.0653 150.284 63.4163 150.354 63.763C150.423 64.1097 150.458 64.413 150.458 64.673C150.458 65.1063 150.397 65.4747 150.276 65.778C150.163 66.0813 149.981 66.3283 149.73 66.519C149.478 66.7097 149.153 66.8483 148.755 66.935C148.365 67.0217 147.897 67.065 147.351 67.065ZM149.756 69.522C149.574 69.522 149.418 69.457 149.288 69.327C149.166 69.2057 149.106 69.0583 149.106 68.885C149.106 68.7117 149.166 68.56 149.288 68.43C149.418 68.3 149.574 68.235 149.756 68.235C149.929 68.235 150.076 68.3 150.198 68.43C150.328 68.56 150.393 68.7117 150.393 68.885C150.393 69.0583 150.328 69.2057 150.198 69.327C150.076 69.457 149.929 69.522 149.756 69.522ZM147.975 69.522C147.793 69.522 147.637 69.457 147.507 69.327C147.385 69.2057 147.325 69.0583 147.325 68.885C147.325 68.7117 147.385 68.56 147.507 68.43C147.637 68.3 147.793 68.235 147.975 68.235C148.148 68.235 148.295 68.3 148.417 68.43C148.547 68.56 148.612 68.7117 148.612 68.885C148.612 69.0583 148.547 69.2057 148.417 69.327C148.295 69.457 148.148 69.522 147.975 69.522ZM151.69 66.415L152.21 65.518C152.384 65.6307 152.626 65.739 152.938 65.843C153.25 65.947 153.614 65.999 154.03 65.999C154.464 65.999 154.806 65.9557 155.057 65.869C155.317 65.7823 155.504 65.6567 155.616 65.492C155.738 65.3187 155.798 65.1193 155.798 64.894C155.798 64.7207 155.759 64.5083 155.681 64.257C155.612 63.997 155.456 63.6503 155.213 63.217C154.971 62.775 154.598 62.1987 154.095 61.488L154.992 60.903C155.452 61.5357 155.816 62.1077 156.084 62.619C156.362 63.1303 156.557 63.581 156.669 63.971C156.791 64.3523 156.851 64.6817 156.851 64.959C156.851 65.3057 156.765 65.6437 156.591 65.973C156.418 66.2937 156.128 66.558 155.72 66.766C155.313 66.974 154.75 67.078 154.03 67.078C153.718 67.078 153.415 67.052 153.12 67C152.834 66.948 152.57 66.8743 152.327 66.779C152.085 66.675 151.872 66.5537 151.69 66.415ZM158.185 69.99L157.951 68.924C158.471 68.8547 158.947 68.755 159.381 68.625C159.823 68.5037 160.2 68.326 160.512 68.092C160.832 67.858 161.079 67.5503 161.253 67.169C161.426 66.7877 161.513 66.311 161.513 65.739C161.513 65.1497 161.404 64.66 161.188 64.27C160.971 63.88 160.689 63.685 160.343 63.685C160.161 63.685 159.992 63.7543 159.836 63.893C159.68 64.0317 159.55 64.218 159.446 64.452C159.35 64.686 159.303 64.9417 159.303 65.219C159.303 65.375 159.337 65.505 159.407 65.609C159.476 65.7043 159.576 65.7823 159.706 65.843C159.844 65.895 160.018 65.934 160.226 65.96C160.434 65.986 160.676 65.999 160.954 65.999H163.697C163.879 65.999 164.009 66.051 164.087 66.155C164.173 66.2503 164.217 66.3673 164.217 66.506C164.217 66.6447 164.156 66.7747 164.035 66.896C163.913 67.0087 163.757 67.065 163.567 67.065H160.46C160.07 67.065 159.706 67.0087 159.368 66.896C159.038 66.7833 158.77 66.61 158.562 66.376C158.362 66.1333 158.263 65.817 158.263 65.427C158.263 65.063 158.319 64.7163 158.432 64.387C158.544 64.049 158.696 63.75 158.887 63.49C159.086 63.2213 159.316 63.009 159.576 62.853C159.844 62.697 160.135 62.619 160.447 62.619C160.845 62.619 161.201 62.736 161.513 62.97C161.825 63.204 162.072 63.5593 162.254 64.036C162.436 64.504 162.527 65.0977 162.527 65.817C162.527 66.623 162.362 67.3163 162.033 67.897C161.712 68.4863 161.227 68.9543 160.577 69.301C159.935 69.6477 159.138 69.8773 158.185 69.99ZM163.562 67.065L163.693 65.999C164.213 65.999 164.702 65.9513 165.162 65.856C165.621 65.752 166.041 65.6177 166.423 65.453C166.813 65.2797 167.146 65.0847 167.424 64.868C167.701 64.6427 167.913 64.413 168.061 64.179C168.217 63.9363 168.295 63.698 168.295 63.464C168.295 63.3513 168.256 63.2387 168.178 63.126C168.1 63.0047 167.965 62.905 167.775 62.827C167.593 62.749 167.346 62.71 167.034 62.71C166.843 62.71 166.631 62.736 166.397 62.788C166.163 62.84 165.937 62.9137 165.721 63.009C165.513 63.0957 165.339 63.1953 165.201 63.308C165.435 63.4987 165.651 63.685 165.851 63.867C166.059 64.049 166.271 64.2483 166.488 64.465C166.704 64.673 166.938 64.9113 167.19 65.18C167.389 65.3273 167.61 65.453 167.853 65.557C168.104 65.661 168.373 65.7477 168.659 65.817C168.953 65.8777 169.252 65.9253 169.556 65.96C169.859 65.986 170.162 65.999 170.466 65.999C170.648 65.999 170.778 66.051 170.856 66.155C170.942 66.2503 170.986 66.3673 170.986 66.506C170.986 66.6447 170.925 66.7747 170.804 66.896C170.682 67.0087 170.526 67.065 170.336 67.065C169.859 67.065 169.369 67.0217 168.867 66.935C168.373 66.8397 167.909 66.701 167.476 66.519C167.042 66.3283 166.674 66.09 166.371 65.804C166.223 65.6133 166.059 65.4227 165.877 65.232C165.695 65.0413 165.495 64.8507 165.278 64.66C165.071 64.4607 164.845 64.2743 164.603 64.101C164.551 64.0577 164.499 63.9797 164.447 63.867C164.395 63.7543 164.351 63.6373 164.317 63.516C164.282 63.3947 164.265 63.3037 164.265 63.243C164.265 63.113 164.347 62.957 164.512 62.775C164.676 62.593 164.897 62.4197 165.175 62.255C165.452 62.0817 165.768 61.9387 166.124 61.826C166.479 61.7133 166.847 61.657 167.229 61.657C167.723 61.657 168.121 61.7307 168.425 61.878C168.737 62.0253 168.962 62.216 169.101 62.45C169.248 62.6753 169.322 62.918 169.322 63.178C169.322 63.5593 169.226 63.9407 169.036 64.322C168.845 64.6947 168.572 65.0457 168.217 65.375C167.861 65.7043 167.445 65.999 166.969 66.259C166.492 66.5103 165.963 66.7097 165.383 66.857C164.811 66.9957 164.204 67.065 163.562 67.065ZM170.342 67.065L170.472 65.999C170.749 65.999 170.974 65.9817 171.148 65.947C171.321 65.9037 171.464 65.804 171.577 65.648C171.698 65.4833 171.811 65.2277 171.915 64.881C172.019 64.5343 172.14 64.049 172.279 63.425L173.254 63.698C173.202 63.9147 173.141 64.1747 173.072 64.478C173.002 64.7813 172.968 65.0587 172.968 65.31C172.968 65.4487 173.002 65.57 173.072 65.674C173.141 65.778 173.258 65.8603 173.423 65.921C173.596 65.973 173.826 65.999 174.112 65.999C174.372 65.999 174.584 65.9773 174.749 65.934C174.913 65.8907 175.048 65.7867 175.152 65.622C175.264 65.4573 175.364 65.193 175.451 64.829C175.537 64.465 175.628 63.9667 175.724 63.334L176.712 63.516C176.686 63.672 176.655 63.8627 176.621 64.088C176.586 64.3133 176.551 64.5387 176.517 64.764C176.491 64.9807 176.478 65.1627 176.478 65.31C176.478 65.4313 176.504 65.5483 176.556 65.661C176.616 65.765 176.729 65.8473 176.894 65.908C177.067 65.9687 177.323 65.999 177.661 65.999C178.094 65.999 178.406 65.908 178.597 65.726C178.796 65.544 178.896 65.2667 178.896 64.894C178.896 64.6947 178.891 64.4867 178.883 64.27C178.874 64.0447 178.857 63.7977 178.831 63.529C178.813 63.2517 178.783 62.9353 178.74 62.58L179.689 62.515C179.741 63.217 179.797 63.7933 179.858 64.244C179.927 64.6947 180.022 65.05 180.144 65.31C180.274 65.5613 180.447 65.739 180.664 65.843C180.88 65.947 181.166 65.999 181.522 65.999C181.704 65.999 181.834 66.051 181.912 66.155C181.998 66.2503 182.042 66.3673 182.042 66.506C182.042 66.6447 181.981 66.7747 181.86 66.896C181.738 67.0087 181.582 67.065 181.392 67.065C181.097 67.065 180.833 67.026 180.599 66.948C180.373 66.8613 180.174 66.7487 180.001 66.61C179.836 66.4627 179.697 66.298 179.585 66.116C179.481 65.9253 179.407 65.726 179.364 65.518L179.598 65.596C179.502 65.986 179.351 66.2893 179.143 66.506C178.943 66.714 178.705 66.8613 178.428 66.948C178.15 67.026 177.856 67.065 177.544 67.065C177.162 67.065 176.85 67.0173 176.608 66.922C176.365 66.8267 176.174 66.6837 176.036 66.493C175.906 66.2937 175.819 66.0423 175.776 65.739H176.218C176.053 66.1117 175.88 66.3933 175.698 66.584C175.516 66.7747 175.29 66.9047 175.022 66.974C174.753 67.0347 174.398 67.065 173.956 67.065C173.739 67.065 173.505 67.0303 173.254 66.961C173.011 66.8917 172.799 66.7573 172.617 66.558C172.435 66.35 172.326 66.0423 172.292 65.635L172.682 65.557C172.534 65.999 172.352 66.3283 172.136 66.545C171.928 66.753 171.676 66.8917 171.382 66.961C171.087 67.0303 170.74 67.065 170.342 67.065ZM181.387 67.065L181.504 65.999C181.998 65.999 182.344 65.9513 182.544 65.856C182.743 65.7607 182.856 65.5917 182.882 65.349C182.916 65.1063 182.925 64.7683 182.908 64.335L182.661 57.718H183.714L183.974 64.218C183.991 64.6773 183.974 65.0847 183.922 65.44C183.878 65.7953 183.766 66.0943 183.584 66.337C183.41 66.5797 183.146 66.7617 182.791 66.883C182.444 67.0043 181.976 67.065 181.387 67.065ZM185.96 67L185.7 57.718H186.753L187.013 67H185.96Z" fill="#544C4C"/>
<path d="M32.6506 88.5455V106H29.4886V91.6222H29.3864L25.304 94.2301V91.3324L29.642 88.5455H32.6506ZM43.5341 106.332C42.1307 106.332 40.9261 105.977 39.9205 105.267C38.9205 104.551 38.1506 103.52 37.6108 102.173C37.0767 100.821 36.8097 99.1932 36.8097 97.2898C36.8153 95.3864 37.0852 93.767 37.6193 92.4318C38.1591 91.0909 38.929 90.0682 39.929 89.3636C40.9347 88.6591 42.1364 88.3068 43.5341 88.3068C44.9318 88.3068 46.1335 88.6591 47.1392 89.3636C48.1449 90.0682 48.9148 91.0909 49.4489 92.4318C49.9886 93.7727 50.2585 95.392 50.2585 97.2898C50.2585 99.1989 49.9886 100.83 49.4489 102.182C48.9148 103.528 48.1449 104.557 47.1392 105.267C46.1392 105.977 44.9375 106.332 43.5341 106.332ZM43.5341 103.665C44.625 103.665 45.4858 103.128 46.1165 102.054C46.7528 100.974 47.071 99.3864 47.071 97.2898C47.071 95.9034 46.9261 94.7386 46.6364 93.7955C46.3466 92.8523 45.9375 92.142 45.4091 91.6648C44.8807 91.1818 44.2557 90.9403 43.5341 90.9403C42.4489 90.9403 41.5909 91.4801 40.9602 92.5597C40.3295 93.6335 40.0114 95.2102 40.0057 97.2898C40 98.6818 40.1392 99.8523 40.4233 100.801C40.7131 101.75 41.1222 102.466 41.6506 102.949C42.179 103.426 42.8068 103.665 43.5341 103.665ZM59.5419 106.332C58.1385 106.332 56.9339 105.977 55.9283 105.267C54.9283 104.551 54.1584 103.52 53.6186 102.173C53.0845 100.821 52.8175 99.1932 52.8175 97.2898C52.8232 95.3864 53.093 93.767 53.6271 92.4318C54.1669 91.0909 54.9368 90.0682 55.9368 89.3636C56.9425 88.6591 58.1442 88.3068 59.5419 88.3068C60.9396 88.3068 62.1413 88.6591 63.147 89.3636C64.1527 90.0682 64.9226 91.0909 65.4567 92.4318C65.9964 93.7727 66.2663 95.392 66.2663 97.2898C66.2663 99.1989 65.9964 100.83 65.4567 102.182C64.9226 103.528 64.1527 104.557 63.147 105.267C62.147 105.977 60.9453 106.332 59.5419 106.332ZM59.5419 103.665C60.6328 103.665 61.4936 103.128 62.1243 102.054C62.7607 100.974 63.0788 99.3864 63.0788 97.2898C63.0788 95.9034 62.9339 94.7386 62.6442 93.7955C62.3544 92.8523 61.9453 92.142 61.4169 91.6648C60.8885 91.1818 60.2635 90.9403 59.5419 90.9403C58.4567 90.9403 57.5987 91.4801 56.968 92.5597C56.3374 93.6335 56.0192 95.2102 56.0135 97.2898C56.0078 98.6818 56.147 99.8523 56.4311 100.801C56.7209 101.75 57.13 102.466 57.6584 102.949C58.1868 103.426 58.8146 103.665 59.5419 103.665Z" fill="#229D71"/>
<path d="M3.626 116.928L2.604 117.936L1.582 116.928L2.604 115.92L3.626 116.928ZM5.852 116.928L4.83 117.936L3.794 116.928L4.83 115.92L5.852 116.928ZM8.162 124.74C8.25533 124.74 8.302 124.782 8.302 124.866V125.86C8.302 125.953 8.25533 126 8.162 126C7.30333 126 6.66867 125.799 6.258 125.398C5.31533 125.883 4.47067 126.126 3.724 126.126C2.78133 126.126 2.00667 125.804 1.4 125.16C0.802667 124.516 0.504 123.718 0.504 122.766C0.504 121.795 0.807333 120.969 1.414 120.288C2.02067 119.607 2.79067 119.266 3.724 119.266C4.29333 119.266 4.91867 119.397 5.6 119.658V118.79L6.776 118.594L6.79 123.172C6.79 123.732 6.89733 124.133 7.112 124.376C7.32667 124.619 7.67667 124.74 8.162 124.74ZM3.724 124.922C4.34933 124.931 5.02133 124.773 5.74 124.446C5.64667 124.129 5.6 123.741 5.6 123.284V120.848C4.844 120.596 4.23267 120.47 3.766 120.47C3.14067 120.47 2.62733 120.689 2.226 121.128C1.834 121.567 1.638 122.108 1.638 122.752C1.638 123.368 1.82933 123.881 2.212 124.292C2.604 124.703 3.108 124.913 3.724 124.922ZM13.4261 124.74C13.5194 124.74 13.5661 124.782 13.5661 124.866V125.86C13.5661 125.953 13.5194 126 13.4261 126C12.5581 126 11.7554 125.659 11.0181 124.978C10.5141 125.659 9.56211 126 8.16211 126C8.06878 126 8.02211 125.953 8.02211 125.86L8.03611 124.866C8.03611 124.782 8.08278 124.74 8.17611 124.74C8.92278 124.74 9.46411 124.605 9.80011 124.334C10.1454 124.054 10.3181 123.606 10.3181 122.99V120.722L11.4941 120.54V123.312C11.4941 123.545 11.4708 123.788 11.4241 124.04C12.0494 124.507 12.7168 124.74 13.4261 124.74ZM8.62411 128.114L9.64611 127.106L10.6681 128.114L9.64611 129.122L8.62411 128.114ZM10.8361 128.114L11.8721 127.106L12.8941 128.114L11.8721 129.122L10.8361 128.114ZM13.4258 126C13.3324 126 13.2858 125.953 13.2858 125.86V124.866C13.2858 124.782 13.3371 124.74 13.4398 124.74C14.6064 124.74 15.1898 124.133 15.1898 122.92L15.2038 115.962L16.3798 115.78V123.2C16.3798 125.067 15.3951 126 13.4258 126ZM21.74 126C19.78 126 18.8 125.067 18.8 123.2L18.786 115.962L19.976 115.78V122.92C19.976 124.133 20.5594 124.74 21.726 124.74C21.8194 124.74 21.866 124.782 21.866 124.866L21.88 125.86C21.88 125.953 21.8334 126 21.74 126ZM29.6343 124.74C29.7276 124.74 29.7743 124.782 29.7743 124.866V125.86C29.7743 125.953 29.7276 126 29.6343 126H26.2463C25.3223 126 24.5476 125.771 23.9223 125.314C23.1943 125.771 22.4663 126 21.7383 126C21.6449 126 21.5983 125.953 21.5983 125.86V124.866C21.5983 124.782 21.6449 124.74 21.7383 124.74C22.2236 124.74 22.6856 124.637 23.1243 124.432C22.7883 123.881 22.6203 123.223 22.6203 122.458C22.6203 121.525 22.9189 120.75 23.5163 120.134C24.1136 119.518 24.8743 119.21 25.7983 119.21C26.6663 119.21 27.4083 119.523 28.0243 120.148C28.6403 120.764 28.9483 121.492 28.9483 122.332C28.9483 123.06 28.7849 123.863 28.4583 124.74H29.6343ZM26.1483 124.74H27.3103C27.6369 123.825 27.8003 123.088 27.8003 122.528C27.8003 121.959 27.6136 121.459 27.2403 121.03C26.8763 120.601 26.4189 120.386 25.8683 120.386C25.2429 120.386 24.7436 120.582 24.3703 120.974C23.9969 121.357 23.8103 121.865 23.8103 122.5C23.8103 123.172 24.0203 123.713 24.4403 124.124C24.8603 124.535 25.4296 124.74 26.1483 124.74ZM32.1046 119.392C32.7113 119.392 33.3506 119.593 34.0226 119.994C34.704 120.395 35.8426 121.259 37.4386 122.584L37.2566 123.746C35.8006 124.521 34.4753 125.09 33.2806 125.454C32.0953 125.818 30.8866 126 29.6546 126C29.552 126 29.5006 125.953 29.5006 125.86V124.866C29.5006 124.782 29.552 124.74 29.6546 124.74C31.8106 124.74 33.9993 124.199 36.2206 123.116C35.0166 122.108 34.1253 121.441 33.5466 121.114C32.9773 120.787 32.436 120.624 31.9226 120.624C31.708 120.624 31.2506 120.699 30.5506 120.848L30.3126 119.784C31.0033 119.523 31.6006 119.392 32.1046 119.392ZM32.5946 128.044L33.6026 127.022L34.6526 128.044L33.6306 129.052L32.5946 128.044ZM44.7174 115.962L45.9074 115.78V123.2C45.9074 125.067 44.9228 126 42.9534 126H42.9394H38.3194L38.0954 124.74H41.4134L40.0134 117.908L41.1894 117.614L42.5334 124.74H42.9394H42.9534C44.1294 124.74 44.7174 124.133 44.7174 122.92V115.962ZM48.3313 126V115.962L49.5213 115.78V126H48.3313ZM62.9493 119.098C63.8359 119.098 64.5639 119.378 65.1333 119.938C65.7119 120.498 66.0013 121.212 66.0013 122.08C66.0013 122.509 65.9639 122.901 65.8893 123.256C65.8239 123.601 65.6933 124.157 65.4973 124.922L64.5593 126H56.8873H56.2993H54.4932L54.2693 124.74H56.2993V115.962L57.4893 115.78V120.722C58.9266 120.106 60.0186 119.681 60.7653 119.448C61.5213 119.215 62.2493 119.098 62.9493 119.098ZM64.3493 124.74C64.6573 123.695 64.8113 122.864 64.8113 122.248C64.8019 121.688 64.5966 121.231 64.1953 120.876C63.8033 120.512 63.3039 120.33 62.6973 120.33C62.0719 120.33 61.4606 120.419 60.8633 120.596C60.2753 120.764 59.1506 121.156 57.4893 121.772V124.74H64.3493ZM70.781 126C68.821 126 67.841 125.067 67.841 123.2L67.827 115.962L69.017 115.78V122.92C69.017 124.133 69.6004 124.74 70.767 124.74C70.8604 124.74 70.907 124.782 70.907 124.866L70.921 125.86C70.921 125.953 70.8744 126 70.781 126ZM74.6433 117.026L73.6213 118.034L72.5993 117.026L73.6213 116.018L74.6433 117.026ZM76.8693 117.026L75.8473 118.034L74.8113 117.026L75.8473 116.018L76.8693 117.026ZM78.6613 124.74C78.7546 124.74 78.8013 124.782 78.8013 124.866V125.86C78.8013 125.953 78.7546 126 78.6613 126C77.28 126 75.9966 125.827 74.8113 125.482C73.7473 125.827 72.4033 126 70.7793 126C70.686 125.991 70.6393 125.944 70.6393 125.86V124.866C70.6393 124.782 70.686 124.74 70.7793 124.74C71.5913 124.74 72.3193 124.712 72.9633 124.656C72.1046 124.012 71.6753 123.186 71.6753 122.178C71.6753 121.329 71.9693 120.624 72.5573 120.064C73.1453 119.495 73.878 119.21 74.7553 119.21C75.6513 119.21 76.3886 119.499 76.9673 120.078C77.546 120.647 77.8353 121.347 77.8353 122.178C77.8353 123.177 77.406 123.993 76.5473 124.628C77.098 124.703 77.8026 124.74 78.6613 124.74ZM74.7133 120.386C74.1626 120.386 73.71 120.568 73.3553 120.932C73.01 121.287 72.8373 121.744 72.8373 122.304C72.8373 122.799 73.01 123.247 73.3553 123.648C73.7006 124.049 74.1626 124.334 74.7413 124.502C75.3386 124.306 75.81 124.012 76.1553 123.62C76.51 123.228 76.6873 122.789 76.6873 122.304C76.6873 121.744 76.496 121.287 76.1133 120.932C75.74 120.568 75.2733 120.386 74.7133 120.386ZM82.042 118.482L81.02 119.504L79.984 118.482L80.992 117.474L82.042 118.482ZM83.302 124.74C83.3953 124.74 83.442 124.782 83.442 124.866V125.86C83.442 125.953 83.3953 126 83.302 126C82.5086 126 81.7666 125.697 81.076 125.09C80.5813 125.697 79.7786 126 78.668 126C78.5746 126 78.528 125.953 78.528 125.86L78.542 124.866C78.542 124.782 78.5886 124.74 78.682 124.74C79.858 124.74 80.446 124.157 80.446 122.99L80.432 120.722L81.622 120.54V123.312C81.622 123.639 81.5893 123.919 81.524 124.152C82.1026 124.544 82.6953 124.74 83.302 124.74ZM83.3027 126C83.2094 126 83.1627 125.953 83.1627 125.86V124.866C83.1627 124.782 83.2141 124.74 83.3167 124.74C84.4834 124.74 85.0667 124.133 85.0667 122.92L85.0807 115.962L86.2567 115.78V123.2C86.2567 125.067 85.2721 126 83.3027 126ZM88.677 126V115.962L89.867 115.78V126H88.677Z" fill="#544C4C"/>
<path d="M121.815 106.239C120.588 106.239 119.497 106.028 118.543 105.608C117.594 105.187 116.844 104.602 116.293 103.852C115.741 103.102 115.449 102.236 115.415 101.253H118.619C118.648 101.724 118.804 102.136 119.088 102.489C119.372 102.835 119.75 103.105 120.222 103.298C120.693 103.491 121.222 103.588 121.807 103.588C122.432 103.588 122.986 103.48 123.469 103.264C123.952 103.043 124.33 102.736 124.602 102.344C124.875 101.952 125.009 101.5 125.003 100.989C125.009 100.46 124.872 99.9943 124.594 99.5909C124.315 99.1875 123.912 98.8722 123.384 98.6449C122.861 98.4176 122.23 98.304 121.491 98.304H119.949V95.8665H121.491C122.099 95.8665 122.631 95.7614 123.085 95.5511C123.545 95.3409 123.906 95.0455 124.168 94.6648C124.429 94.2784 124.557 93.8324 124.551 93.3267C124.557 92.8324 124.446 92.4034 124.219 92.0398C123.997 91.6705 123.682 91.3835 123.273 91.179C122.869 90.9744 122.395 90.8722 121.849 90.8722C121.315 90.8722 120.821 90.9687 120.366 91.1619C119.912 91.3551 119.545 91.6307 119.267 91.9886C118.989 92.3409 118.841 92.7614 118.824 93.25H115.781C115.804 92.2727 116.085 91.4148 116.625 90.6761C117.17 89.9318 117.898 89.3523 118.807 88.9375C119.716 88.517 120.736 88.3068 121.866 88.3068C123.031 88.3068 124.043 88.5256 124.901 88.9631C125.764 89.3949 126.432 89.9773 126.903 90.7102C127.375 91.4432 127.611 92.2528 127.611 93.1392C127.616 94.1222 127.327 94.946 126.741 95.6108C126.162 96.2756 125.401 96.7102 124.457 96.9148V97.0511C125.685 97.2216 126.625 97.6761 127.278 98.4148C127.938 99.1477 128.264 100.06 128.259 101.151C128.259 102.128 127.98 103.003 127.423 103.776C126.872 104.543 126.111 105.145 125.139 105.582C124.173 106.02 123.065 106.239 121.815 106.239ZM131.823 106L139.246 91.3068V91.1875H130.63V88.5455H142.519V91.2472L135.104 106H131.823ZM145.44 106V88.5455H148.602V96.5653H148.815L155.625 88.5455H159.486L152.736 96.3778L159.545 106H155.744L150.537 98.517L148.602 100.801V106H145.44Z" fill="#229D71"/>
<path d="M116.53 119.238L115.508 120.26L114.472 119.238L115.48 118.23L116.53 119.238ZM121.038 124.74C121.131 124.74 121.178 124.782 121.178 124.866V125.86C121.178 125.953 121.131 126 121.038 126C120.31 126 119.769 125.725 119.414 125.174C119.33 126.369 118.961 127.307 118.308 127.988C117.655 128.669 116.693 129.01 115.424 129.01C114.248 129.01 113.315 128.702 112.624 128.086C111.943 127.479 111.602 126.579 111.602 125.384C111.602 124.385 111.807 123.261 112.218 122.01L113.184 122.276C112.857 123.237 112.694 124.171 112.694 125.076C112.703 125.953 112.951 126.616 113.436 127.064C113.921 127.521 114.607 127.75 115.494 127.75C116.427 127.75 117.118 127.484 117.566 126.952C118.023 126.429 118.252 125.617 118.252 124.516V119.238L119.428 119.042V123.074L119.442 123.186C119.535 124.222 120.067 124.74 121.038 124.74ZM126.299 124.74C126.392 124.74 126.439 124.782 126.439 124.866V125.86C126.439 125.953 126.392 126 126.299 126C125.431 126 124.628 125.659 123.891 124.978C123.387 125.659 122.435 126 121.035 126C120.942 126 120.895 125.953 120.895 125.86L120.909 124.866C120.909 124.782 120.956 124.74 121.049 124.74C121.796 124.74 122.337 124.605 122.673 124.334C123.018 124.054 123.191 123.606 123.191 122.99V120.722L124.367 120.54V123.312C124.367 123.545 124.344 123.788 124.297 124.04C124.922 124.507 125.59 124.74 126.299 124.74ZM121.497 128.114L122.519 127.106L123.541 128.114L122.519 129.122L121.497 128.114ZM123.709 128.114L124.745 127.106L125.767 128.114L124.745 129.122L123.709 128.114ZM134.685 124.74C134.778 124.74 134.825 124.782 134.825 124.866V125.86C134.825 125.953 134.778 126 134.685 126C133.051 126 131.735 125.753 130.737 125.258C130.111 125.538 129.467 125.734 128.805 125.846C128.142 125.949 127.307 126 126.299 126C126.205 125.991 126.159 125.944 126.159 125.86V124.866C126.159 124.782 126.205 124.74 126.299 124.74C127.26 124.74 128.207 124.656 129.141 124.488C128.646 123.9 128.226 123.349 127.881 122.836C127.535 122.313 127.153 121.655 126.733 120.862L127.181 119.784C128.487 119.112 129.668 118.776 130.723 118.776C131.656 118.776 132.431 119.023 133.047 119.518C133.663 120.013 133.971 120.643 133.971 121.408C133.971 121.94 133.807 122.481 133.481 123.032C133.154 123.573 132.673 124.068 132.039 124.516C132.785 124.665 133.667 124.74 134.685 124.74ZM130.527 119.98C129.799 119.971 128.954 120.19 127.993 120.638C128.403 121.431 128.786 122.094 129.141 122.626C129.505 123.149 129.948 123.704 130.471 124.292C131.143 123.965 131.689 123.569 132.109 123.102C132.538 122.635 132.753 122.201 132.753 121.8C132.753 121.259 132.547 120.82 132.137 120.484C131.735 120.148 131.199 119.98 130.527 119.98ZM134.707 126C134.614 126 134.567 125.953 134.567 125.86L134.581 124.866C134.581 124.782 134.628 124.74 134.721 124.74C135.897 124.74 136.485 124.157 136.485 122.99L136.471 119.238L137.661 119.042V123.312C137.661 124.171 137.409 124.833 136.905 125.3C136.41 125.767 135.678 126 134.707 126ZM136.233 129.136L135.197 128.128L136.205 127.106L137.255 128.128L136.233 129.136ZM142.762 126C140.802 126 139.822 125.067 139.822 123.2L139.808 115.962L140.998 115.78V122.92C140.998 124.133 141.581 124.74 142.748 124.74C142.841 124.74 142.888 124.782 142.888 124.866L142.902 125.86C142.902 125.953 142.855 126 142.762 126ZM145.336 118.524L144.314 119.532L143.292 118.524L144.314 117.516L145.336 118.524ZM147.562 118.524L146.54 119.532L145.504 118.524L146.54 117.516L147.562 118.524ZM148.024 124.74C148.117 124.74 148.164 124.782 148.164 124.866V125.86C148.164 125.953 148.117 126 148.024 126C147.156 126 146.353 125.659 145.616 124.978C145.112 125.659 144.16 126 142.76 126C142.666 126 142.62 125.953 142.62 125.86L142.634 124.866C142.634 124.782 142.68 124.74 142.774 124.74C143.52 124.74 144.062 124.605 144.398 124.334C144.743 124.054 144.916 123.606 144.916 122.99V120.722L146.092 120.54V123.312C146.092 123.545 146.068 123.788 146.022 124.04C146.647 124.507 147.314 124.74 148.024 124.74ZM155.919 124.74C156.013 124.74 156.059 124.782 156.059 124.866V125.86C156.059 125.953 156.013 126 155.919 126H152.531C151.607 126 150.833 125.771 150.207 125.314C149.479 125.771 148.751 126 148.023 126C147.93 126 147.883 125.953 147.883 125.86V124.866C147.883 124.782 147.93 124.74 148.023 124.74C148.509 124.74 148.971 124.637 149.409 124.432C149.073 123.881 148.905 123.223 148.905 122.458C148.905 121.525 149.204 120.75 149.801 120.134C150.399 119.518 151.159 119.21 152.083 119.21C152.951 119.21 153.693 119.523 154.309 120.148C154.925 120.764 155.233 121.492 155.233 122.332C155.233 123.06 155.07 123.863 154.743 124.74H155.919ZM152.433 124.74H153.595C153.922 123.825 154.085 123.088 154.085 122.528C154.085 121.959 153.899 121.459 153.525 121.03C153.161 120.601 152.704 120.386 152.153 120.386C151.528 120.386 151.029 120.582 150.655 120.974C150.282 121.357 150.095 121.865 150.095 122.5C150.095 123.172 150.305 123.713 150.725 124.124C151.145 124.535 151.715 124.74 152.433 124.74ZM155.926 126C155.832 126 155.786 125.953 155.786 125.86V124.866C155.786 124.782 155.837 124.74 155.94 124.74C157.106 124.74 157.69 124.133 157.69 122.92L157.704 115.962L158.88 115.78V123.2C158.88 125.067 157.895 126 155.926 126ZM161.3 126V115.962L162.49 115.78V126H161.3Z" fill="#544C4C"/>
<path d="M207.815 106.239C206.588 106.239 205.497 106.028 204.543 105.608C203.594 105.187 202.844 104.602 202.293 103.852C201.741 103.102 201.449 102.236 201.415 101.253H204.619C204.648 101.724 204.804 102.136 205.088 102.489C205.372 102.835 205.75 103.105 206.222 103.298C206.693 103.491 207.222 103.588 207.807 103.588C208.432 103.588 208.986 103.48 209.469 103.264C209.952 103.043 210.33 102.736 210.602 102.344C210.875 101.952 211.009 101.5 211.003 100.989C211.009 100.46 210.872 99.9943 210.594 99.5909C210.315 99.1875 209.912 98.8722 209.384 98.6449C208.861 98.4176 208.23 98.304 207.491 98.304H205.949V95.8665H207.491C208.099 95.8665 208.631 95.7614 209.085 95.5511C209.545 95.3409 209.906 95.0455 210.168 94.6648C210.429 94.2784 210.557 93.8324 210.551 93.3267C210.557 92.8324 210.446 92.4034 210.219 92.0398C209.997 91.6705 209.682 91.3835 209.273 91.179C208.869 90.9744 208.395 90.8722 207.849 90.8722C207.315 90.8722 206.821 90.9687 206.366 91.1619C205.912 91.3551 205.545 91.6307 205.267 91.9886C204.989 92.3409 204.841 92.7614 204.824 93.25H201.781C201.804 92.2727 202.085 91.4148 202.625 90.6761C203.17 89.9318 203.898 89.3523 204.807 88.9375C205.716 88.517 206.736 88.3068 207.866 88.3068C209.031 88.3068 210.043 88.5256 210.901 88.9631C211.764 89.3949 212.432 89.9773 212.903 90.7102C213.375 91.4432 213.611 92.2528 213.611 93.1392C213.616 94.1222 213.327 94.946 212.741 95.6108C212.162 96.2756 211.401 96.7102 210.457 96.9148V97.0511C211.685 97.2216 212.625 97.6761 213.278 98.4148C213.938 99.1477 214.264 100.06 214.259 101.151C214.259 102.128 213.98 103.003 213.423 103.776C212.872 104.543 212.111 105.145 211.139 105.582C210.173 106.02 209.065 106.239 207.815 106.239ZM223.388 106.239C222.121 106.239 220.996 106.026 220.013 105.599C219.036 105.173 218.269 104.591 217.712 103.852C217.161 103.108 216.888 102.264 216.894 101.321C216.888 100.588 217.048 99.9148 217.371 99.3011C217.695 98.6875 218.133 98.1761 218.684 97.767C219.241 97.3523 219.86 97.0881 220.542 96.9744V96.8551C219.644 96.6562 218.917 96.1989 218.36 95.483C217.809 94.7614 217.536 93.929 217.542 92.9858C217.536 92.0881 217.786 91.2869 218.292 90.5824C218.798 89.8778 219.491 89.3239 220.371 88.9205C221.252 88.5114 222.258 88.3068 223.388 88.3068C224.508 88.3068 225.505 88.5114 226.38 88.9205C227.261 89.3239 227.954 89.8778 228.46 90.5824C228.971 91.2869 229.227 92.0881 229.227 92.9858C229.227 93.929 228.945 94.7614 228.383 95.483C227.826 96.1989 227.107 96.6562 226.227 96.8551V96.9744C226.908 97.0881 227.522 97.3523 228.067 97.767C228.619 98.1761 229.056 98.6875 229.38 99.3011C229.71 99.9148 229.874 100.588 229.874 101.321C229.874 102.264 229.596 103.108 229.039 103.852C228.482 104.591 227.715 105.173 226.738 105.599C225.766 106.026 224.65 106.239 223.388 106.239ZM223.388 103.801C224.042 103.801 224.61 103.69 225.093 103.469C225.576 103.241 225.951 102.923 226.218 102.514C226.485 102.105 226.621 101.634 226.627 101.099C226.621 100.543 226.477 100.051 226.192 99.625C225.914 99.1932 225.531 98.8551 225.042 98.6108C224.559 98.3665 224.008 98.2443 223.388 98.2443C222.763 98.2443 222.207 98.3665 221.718 98.6108C221.229 98.8551 220.843 99.1932 220.559 99.625C220.281 100.051 220.144 100.543 220.15 101.099C220.144 101.634 220.275 102.105 220.542 102.514C220.809 102.918 221.184 103.233 221.667 103.46C222.156 103.687 222.729 103.801 223.388 103.801ZM223.388 95.8494C223.923 95.8494 224.394 95.7415 224.803 95.5256C225.218 95.3097 225.545 95.0085 225.783 94.6222C226.022 94.2358 226.144 93.7898 226.15 93.2841C226.144 92.7841 226.025 92.3466 225.792 91.9716C225.559 91.5909 225.235 91.2983 224.82 91.0938C224.406 90.8835 223.928 90.7784 223.388 90.7784C222.837 90.7784 222.352 90.8835 221.931 91.0938C221.516 91.2983 221.192 91.5909 220.96 91.9716C220.732 92.3466 220.621 92.7841 220.627 93.2841C220.621 93.7898 220.735 94.2358 220.968 94.6222C221.207 95.0028 221.533 95.304 221.948 95.5256C222.369 95.7415 222.849 95.8494 223.388 95.8494ZM239.068 106.239C238.233 106.233 237.418 106.088 236.622 105.804C235.827 105.514 235.111 105.045 234.474 104.398C233.838 103.744 233.332 102.878 232.957 101.798C232.582 100.713 232.398 99.3693 232.403 97.767C232.403 96.2727 232.563 94.9403 232.881 93.7699C233.199 92.5994 233.656 91.6108 234.253 90.804C234.849 89.9915 235.568 89.3722 236.409 88.946C237.256 88.5199 238.202 88.3068 239.247 88.3068C240.344 88.3068 241.315 88.5227 242.162 88.9545C243.014 89.3864 243.702 89.9773 244.224 90.7273C244.747 91.4716 245.071 92.3125 245.196 93.25H242.085C241.926 92.5795 241.599 92.0455 241.105 91.6477C240.616 91.2443 239.997 91.0426 239.247 91.0426C238.037 91.0426 237.105 91.5682 236.452 92.6193C235.804 93.6705 235.477 95.1136 235.472 96.9489H235.591C235.869 96.4489 236.23 96.0199 236.673 95.6619C237.116 95.304 237.616 95.0284 238.173 94.8352C238.736 94.6364 239.33 94.5369 239.955 94.5369C240.977 94.5369 241.895 94.7812 242.707 95.2699C243.526 95.7585 244.173 96.4318 244.651 97.2898C245.128 98.142 245.364 99.1193 245.358 100.222C245.364 101.369 245.102 102.401 244.574 103.315C244.045 104.224 243.31 104.94 242.366 105.463C241.423 105.986 240.324 106.244 239.068 106.239ZM239.051 103.682C239.67 103.682 240.224 103.531 240.713 103.23C241.202 102.929 241.588 102.523 241.872 102.011C242.156 101.5 242.295 100.926 242.29 100.29C242.295 99.6648 242.159 99.0994 241.881 98.5938C241.608 98.0881 241.23 97.6875 240.747 97.392C240.264 97.0966 239.713 96.9489 239.094 96.9489C238.634 96.9489 238.205 97.0369 237.807 97.2131C237.409 97.3892 237.063 97.6335 236.767 97.946C236.472 98.2528 236.239 98.6108 236.068 99.0199C235.903 99.4233 235.818 99.8551 235.812 100.315C235.818 100.923 235.96 101.483 236.239 101.994C236.517 102.506 236.901 102.915 237.389 103.222C237.878 103.528 238.432 103.682 239.051 103.682ZM254.298 88.3068C255.134 88.3125 255.946 88.4602 256.736 88.75C257.531 89.0341 258.247 89.5 258.884 90.1477C259.52 90.7898 260.026 91.6506 260.401 92.7301C260.776 93.8097 260.963 95.1449 260.963 96.7358C260.969 98.2358 260.81 99.5767 260.486 100.759C260.168 101.935 259.71 102.929 259.114 103.741C258.517 104.554 257.798 105.173 256.957 105.599C256.116 106.026 255.17 106.239 254.119 106.239C253.017 106.239 252.04 106.023 251.188 105.591C250.341 105.159 249.656 104.568 249.134 103.818C248.611 103.068 248.29 102.21 248.17 101.244H251.281C251.44 101.937 251.764 102.489 252.253 102.898C252.747 103.301 253.369 103.503 254.119 103.503C255.33 103.503 256.261 102.977 256.915 101.926C257.568 100.875 257.895 99.4148 257.895 97.5455H257.776C257.497 98.0455 257.136 98.4773 256.693 98.8409C256.25 99.1989 255.747 99.4744 255.185 99.6676C254.628 99.8608 254.037 99.9574 253.412 99.9574C252.389 99.9574 251.469 99.7131 250.651 99.2244C249.838 98.7358 249.193 98.0653 248.716 97.2131C248.244 96.3608 248.006 95.3864 248 94.2898C248 93.1534 248.261 92.1335 248.784 91.2301C249.313 90.321 250.048 89.6051 250.991 89.0824C251.935 88.554 253.037 88.2955 254.298 88.3068ZM254.307 90.8636C253.693 90.8636 253.139 91.0142 252.645 91.3153C252.156 91.6108 251.77 92.0142 251.486 92.5256C251.207 93.0312 251.068 93.5966 251.068 94.2216C251.074 94.8409 251.213 95.4034 251.486 95.9091C251.764 96.4148 252.142 96.8153 252.619 97.1108C253.102 97.4062 253.653 97.554 254.273 97.554C254.733 97.554 255.162 97.4659 255.56 97.2898C255.957 97.1136 256.304 96.8693 256.599 96.5568C256.901 96.2386 257.134 95.8778 257.298 95.4744C257.469 95.071 257.551 94.6449 257.545 94.196C257.545 93.5994 257.403 93.0483 257.119 92.5426C256.841 92.0369 256.457 91.6307 255.969 91.3239C255.486 91.017 254.932 90.8636 254.307 90.8636Z" fill="#229D71"/>
<path d="M197.196 124.74C197.289 124.74 197.336 124.782 197.336 124.866V125.86C197.336 125.953 197.289 126 197.196 126H194.354V120.596H193.22C192.651 120.596 192.207 120.745 191.89 121.044C191.582 121.333 191.428 121.763 191.428 122.332V124.88C191.428 126.243 191.129 127.269 190.532 127.96C189.944 128.66 188.908 129.01 187.424 129.01C186.248 129.01 185.315 128.702 184.624 128.086C183.943 127.479 183.602 126.579 183.602 125.384C183.602 124.385 183.807 123.261 184.218 122.01L185.184 122.276C184.857 123.237 184.694 124.171 184.694 125.076C184.703 125.953 184.951 126.616 185.436 127.064C185.921 127.521 186.607 127.75 187.494 127.75C188.511 127.75 189.225 127.526 189.636 127.078C190.047 126.63 190.252 125.855 190.252 124.754V122.122C190.252 121.263 190.49 120.587 190.966 120.092C191.451 119.588 192.147 119.336 193.052 119.336H194.732L195.544 120.05V124.74H197.196ZM186.094 130.858L187.116 129.85L188.138 130.858L187.116 131.866L186.094 130.858ZM188.306 130.858L189.342 129.85L190.364 130.858L189.342 131.866L188.306 130.858ZM197.191 126C197.098 126 197.051 125.953 197.051 125.86V124.866C197.051 124.782 197.103 124.74 197.205 124.74C198.372 124.74 198.955 124.133 198.955 122.92L198.969 115.962L200.145 115.78V123.2C200.145 125.067 199.161 126 197.191 126ZM205.506 126C203.546 126 202.566 125.067 202.566 123.2L202.552 115.962L203.742 115.78V122.92C203.742 124.133 204.325 124.74 205.492 124.74C205.585 124.74 205.632 124.782 205.632 124.866L205.646 125.86C205.646 125.953 205.599 126 205.506 126ZM213.4 124.74C213.493 124.74 213.54 124.782 213.54 124.866V125.86C213.54 125.953 213.493 126 213.4 126H210.012C209.088 126 208.313 125.771 207.688 125.314C206.96 125.771 206.232 126 205.504 126C205.411 126 205.364 125.953 205.364 125.86V124.866C205.364 124.782 205.411 124.74 205.504 124.74C205.989 124.74 206.451 124.637 206.89 124.432C206.554 123.881 206.386 123.223 206.386 122.458C206.386 121.525 206.685 120.75 207.282 120.134C207.879 119.518 208.64 119.21 209.564 119.21C210.432 119.21 211.174 119.523 211.79 120.148C212.406 120.764 212.714 121.492 212.714 122.332C212.714 123.06 212.551 123.863 212.224 124.74H213.4ZM209.914 124.74H211.076C211.403 123.825 211.566 123.088 211.566 122.528C211.566 121.959 211.379 121.459 211.006 121.03C210.642 120.601 210.185 120.386 209.634 120.386C209.009 120.386 208.509 120.582 208.136 120.974C207.763 121.357 207.576 121.865 207.576 122.5C207.576 123.172 207.786 123.713 208.206 124.124C208.626 124.535 209.195 124.74 209.914 124.74ZM215.87 119.392C216.477 119.392 217.116 119.593 217.788 119.994C218.47 120.395 219.608 121.259 221.204 122.584L221.022 123.746C219.566 124.521 218.241 125.09 217.046 125.454C215.861 125.818 214.652 126 213.42 126C213.318 126 213.266 125.953 213.266 125.86V124.866C213.266 124.782 213.318 124.74 213.42 124.74C215.576 124.74 217.765 124.199 219.986 123.116C218.782 122.108 217.891 121.441 217.312 121.114C216.743 120.787 216.202 120.624 215.688 120.624C215.474 120.624 215.016 120.699 214.316 120.848L214.078 119.784C214.769 119.523 215.366 119.392 215.87 119.392ZM216.36 128.044L217.368 127.022L218.418 128.044L217.396 129.052L216.36 128.044ZM228.483 115.962L229.673 115.78V123.2C229.673 125.067 228.688 126 226.719 126H226.705H222.085L221.861 124.74H225.179L223.779 117.908L224.955 117.614L226.299 124.74H226.705H226.719C227.895 124.74 228.483 124.133 228.483 122.92V115.962ZM232.097 126V115.962L233.287 115.78V126H232.097ZM249.977 124.74C250.07 124.74 250.117 124.782 250.117 124.866V125.86C250.117 125.953 250.07 126 249.977 126C249.184 126 248.442 125.697 247.751 125.09C247.275 125.669 246.524 125.972 245.497 126H245.469H241.829C240.709 126 239.855 125.739 239.267 125.216C238.688 124.693 238.399 123.919 238.399 122.892C238.399 122.117 238.539 121.1 238.819 119.84L239.855 119.98C239.631 121.128 239.519 121.991 239.519 122.57C239.519 124.017 240.382 124.74 242.109 124.74H245.343C246.519 124.74 247.107 124.157 247.107 122.99V120.722L248.297 120.54V123.312C248.297 123.639 248.264 123.919 248.199 124.152C248.778 124.544 249.37 124.74 249.977 124.74ZM242.711 128.114L243.719 127.092L244.769 128.114L243.747 129.122L242.711 128.114ZM255.243 124.74C255.336 124.74 255.383 124.782 255.383 124.866V125.86C255.383 125.953 255.336 126 255.243 126C254.375 126 253.572 125.659 252.835 124.978C252.331 125.659 251.379 126 249.979 126C249.885 126 249.839 125.953 249.839 125.86L249.853 124.866C249.853 124.782 249.899 124.74 249.993 124.74C250.739 124.74 251.281 124.605 251.617 124.334C251.962 124.054 252.135 123.606 252.135 122.99V120.722L253.311 120.54V123.312C253.311 123.545 253.287 123.788 253.241 124.04C253.866 124.507 254.533 124.74 255.243 124.74ZM250.441 128.114L251.463 127.106L252.485 128.114L251.463 129.122L250.441 128.114ZM252.653 128.114L253.689 127.106L254.711 128.114L253.689 129.122L252.653 128.114ZM257.44 117.95L256.418 116.928L257.44 115.92L258.462 116.928L257.44 117.95ZM259.666 117.95L258.63 116.928L259.666 115.92L260.688 116.928L259.666 117.95ZM255.242 126C255.149 126 255.102 125.953 255.102 125.86L255.116 124.866C255.116 124.782 255.163 124.74 255.256 124.74H256.32C257.487 124.74 258.07 124.157 258.07 122.99V119.238L259.246 119.042V123.312C259.246 124.171 258.999 124.833 258.504 125.3C258.01 125.767 257.277 126 256.306 126H255.242ZM265.323 124.74C265.416 124.74 265.463 124.782 265.463 124.866V125.86C265.463 125.953 265.416 126 265.323 126C264.604 126 264.077 125.753 263.741 125.258V125.622C263.741 126.789 263.442 127.643 262.845 128.184C262.248 128.735 261.352 129.01 260.157 129.01L260.045 127.988C261.725 127.988 262.565 127.185 262.565 125.58L262.551 119.238L263.741 119.042V123.41C263.806 124.297 264.334 124.74 265.323 124.74ZM267.908 118.524L266.886 119.532L265.864 118.524L266.886 117.516L267.908 118.524ZM270.134 118.524L269.112 119.532L268.076 118.524L269.112 117.516L270.134 118.524ZM270.596 124.74C270.689 124.74 270.736 124.782 270.736 124.866V125.86C270.736 125.953 270.689 126 270.596 126C269.728 126 268.925 125.659 268.188 124.978C267.684 125.659 266.732 126 265.332 126C265.239 126 265.192 125.953 265.192 125.86L265.206 124.866C265.206 124.782 265.253 124.74 265.346 124.74C266.093 124.74 266.634 124.605 266.97 124.334C267.315 124.054 267.488 123.606 267.488 122.99V120.722L268.664 120.54V123.312C268.664 123.545 268.641 123.788 268.594 124.04C269.219 124.507 269.887 124.74 270.596 124.74ZM270.596 126C270.502 126 270.456 125.953 270.456 125.86V124.866C270.456 124.782 270.507 124.74 270.61 124.74C271.776 124.74 272.36 124.133 272.36 122.92L272.374 115.962L273.55 115.78V123.2C273.55 125.067 272.565 126 270.596 126ZM275.97 126V115.962L277.16 115.78V126H275.97Z" fill="#544C4C"/>
</svg>
