<svg width="358" height="128" viewBox="0 0 358 128" fill="none" xmlns="http://www.w3.org/2000/svg">
<rect x="2" y="2" width="354" height="124" rx="25" fill="white" stroke="#229D71" stroke-width="4"/>
<path d="M92.6543 33.1836C92.7324 33.138 92.7552 33.2096 92.7227 33.3984C92.2799 34.4401 91.5996 35.166 90.6816 35.5762L87.3125 37.2656C87.1693 37.2266 87.1432 37.1094 87.2344 36.9141C87.6836 36.0482 87.9896 35.5339 88.1523 35.3711L92.6543 33.1836ZM96.668 43.9883C95.9583 43.9883 95.4082 43.8776 95.0176 43.6562C94.8223 45.349 94.4577 46.5208 93.9238 47.1719C92.6348 48.7865 91.3066 49.5938 89.9395 49.5938C87.4264 49.5938 85.7858 48.5 85.0176 46.3125C84.8613 45.8958 84.7832 45.4531 84.7832 44.9844V44.3594C84.7832 42.5104 85.3561 41.0521 86.502 39.9844C86.7103 40.0625 86.8145 40.2448 86.8145 40.5312L85.5645 42.7969L85.4863 43.5781C85.4863 45.3359 86.4499 46.5599 88.377 47.25L90.4082 47.4062C91.2676 47.4062 92.3353 46.9115 93.6113 45.9219C94.0801 45.1667 94.3145 44.6198 94.3145 44.2812C94.2624 43.7604 93.9238 43.0052 93.2988 42.0156V40.375L93.5332 40.1406C94.0996 41.2799 95.1445 41.8301 96.668 41.791V43.9883ZM89.7832 41.9375C90.5514 42.1849 91.1504 42.4974 91.5801 42.875V43.0312C91.5801 43.2917 91.2936 43.8646 90.7207 44.75C90.1868 44.75 89.5879 44.4635 88.9238 43.8906V43.7344C88.9238 43.1745 89.2103 42.5755 89.7832 41.9375ZM96.6094 41.7148H96.6289C97.5404 41.7148 98.2695 41.4023 98.8164 40.7773L98.7383 40.1523C98.7383 39.3841 98.8945 38.7591 99.207 38.2773C99.3503 38.2773 99.5586 39.6055 99.832 42.2617C100.145 43.694 101.235 44.3581 103.104 44.2539V46.4805C101.281 46.6107 100.008 45.7773 99.2852 43.9805C99.168 42.7305 99.0378 42.1055 98.8945 42.1055C98.5885 43.2904 97.8268 43.9121 96.6094 43.9707V41.7148ZM99.5195 47.5645C100.014 47.5645 100.613 47.903 101.316 48.5801C101.316 48.8535 100.978 49.4004 100.301 50.2207C99.9102 50.2207 99.3372 49.9603 98.582 49.4395C98.582 48.9837 98.8945 48.3587 99.5195 47.5645ZM96.7852 47.9551H97.0977C98.1263 48.541 98.6471 48.8796 98.6602 48.9707C98.1523 50.0645 97.8138 50.6374 97.6445 50.6895C97.0586 50.6895 96.4857 50.403 95.9258 49.8301C96.0299 49.2702 96.3164 48.6452 96.7852 47.9551ZM109.393 47.9316C109.471 47.8861 109.493 47.9577 109.461 48.1465C109.018 49.1882 108.338 49.9141 107.42 50.3242L104.051 52.0137C103.908 51.9746 103.882 51.8574 103.973 51.6621C104.422 50.7962 104.728 50.2819 104.891 50.1191L109.393 47.9316ZM107.166 34.2617C108.012 34.5221 108.742 34.9388 109.354 35.5117V35.5898C109.354 35.9154 109.015 36.4362 108.338 37.1523C108.13 37.1523 107.426 36.8919 106.229 36.3711V36.4492C105.812 37.2565 105.551 37.6732 105.447 37.6992C104.77 37.556 104.197 37.2435 103.729 36.7617C104.041 35.4596 104.301 34.8086 104.51 34.8086C104.679 34.8086 105.304 35.1211 106.385 35.7461C106.385 35.4727 106.645 34.9779 107.166 34.2617ZM102.889 43.7734C103.755 43.8451 104.493 43.7604 105.105 43.5195L104.783 42.9336C104.477 41.2148 104.614 40.0788 105.193 39.5254C105.773 38.9655 106.395 38.7083 107.059 38.7539C108.348 38.8125 109.077 39.4896 109.246 40.7852V41.2539C109.246 42.3346 109.09 43.0117 108.777 43.2852C108.582 43.487 109.025 43.6562 110.105 43.793L110.359 43.7832C110.555 43.7767 110.779 43.7734 111.033 43.7734V46L110.242 46.0098C108.771 46.0033 107.658 45.8177 106.902 45.4531C105.861 45.8177 105.053 46 104.48 46H104.168C103.777 46 103.351 46 102.889 46V43.7734ZM105.652 41.5664V41.7227C105.978 42.2826 106.473 42.6732 107.137 42.8945C107.579 42.8164 108.022 42.6341 108.465 42.3477C108.27 41.6185 107.618 41.2018 106.512 41.0977C105.939 41.2539 105.652 41.4102 105.652 41.5664ZM116.736 27.1836C116.814 27.138 116.837 27.2096 116.805 27.3984C116.362 28.4401 115.682 29.166 114.764 29.5762L111.395 31.2656C111.251 31.2266 111.225 31.1094 111.316 30.9141C111.766 30.0482 112.072 29.5339 112.234 29.3711L116.736 27.1836ZM115.564 31.3105C115.708 31.5579 115.874 32.2611 116.062 33.4199C115.945 34.123 115.639 34.4746 115.145 34.4746H115.076C114.861 34.4746 114.578 34.3346 114.227 34.0547C113.986 34.4779 113.634 34.6895 113.172 34.6895C112.612 34.6895 112.332 34.0091 112.332 32.6484C112.495 32.1341 112.635 31.877 112.752 31.877L112.82 31.9453V33.1465C112.918 33.5632 113.035 33.7715 113.172 33.7715H113.455C113.748 33.7715 113.937 33.6543 114.021 33.4199L113.875 32.3652C113.934 32.0137 114.028 31.8281 114.158 31.8086H114.305C114.454 32.9805 114.689 33.5664 115.008 33.5664H115.496V33.498L115.281 32.0918V32.0137C115.34 31.5449 115.434 31.3105 115.564 31.3105ZM110.857 43.7734C111.411 43.7799 111.756 43.7702 111.893 43.7441C113.064 43.3861 113.865 42.6276 114.295 41.4688C114.36 41.2474 114.49 41.2214 114.686 41.3906C114.79 41.4818 114.868 41.8464 114.92 42.4844C115.63 43.4414 116.515 43.8711 117.576 43.7734H117.781V46H117.732C116.072 45.9219 114.848 45.1667 114.061 43.7344H113.982C113.429 44.8997 112.7 45.6159 111.795 45.8828C111.521 45.9609 111.209 46 110.857 46V43.7734ZM115.047 36.9277C116.349 37.4876 117 37.9303 117 38.2559C116.922 38.5033 116.557 39.0501 115.906 39.8965C115.034 39.5579 114.409 39.1673 114.031 38.7246C114.305 37.8522 114.643 37.2533 115.047 36.9277ZM112.234 37.3184C112.56 37.3184 113.133 37.709 113.953 38.4902C113.953 38.7507 113.641 39.3236 113.016 40.209H112.859C112.534 40.209 112.039 39.8965 111.375 39.2715V39.1934C111.375 38.8809 111.661 38.2559 112.234 37.3184ZM120.184 34.4375C120.184 34.8542 120.535 35.1113 121.238 35.209H121.375C121.635 35.209 121.801 35.1146 121.873 34.9258C121.873 34.5026 121.567 34.1738 120.955 33.9395C120.688 33.9395 120.431 34.1055 120.184 34.4375ZM121.375 32.748C122.176 32.748 122.576 33.2396 122.576 34.2227C122.576 35.7917 121.238 37.1263 118.562 38.2266C118.178 38.3438 118.133 38.2038 118.426 37.8066C118.497 37.6569 119.129 37.1882 120.32 36.4004V36.332C119.806 36.1237 119.549 35.6777 119.549 34.9941C119.887 33.4967 120.428 32.748 121.17 32.748H121.375ZM117.469 43.7734H117.645C118.178 43.7734 118.742 43.5684 119.334 43.1582C119.926 42.7415 120.275 42.2207 120.379 41.5957L120.457 41.5176H120.535C120.626 41.5176 120.757 41.804 120.926 42.377C121.668 43.3926 122.71 43.8613 124.051 43.7832C124.142 43.7832 124.233 43.7799 124.324 43.7734V46.0098C124.233 46.0163 124.142 46.0195 124.051 46.0195L122.957 45.8926C122.84 46.9342 122.501 47.4551 121.941 47.4551H121.785C120.743 47.2598 120.223 46.8952 120.223 46.3613L120.457 44.9551C120.275 44.7467 120.092 44.6426 119.91 44.6426C119.324 45.5605 118.51 46.013 117.469 46V43.7734ZM125.984 29.9297H126.756C127.693 29.9297 128.162 30.2812 128.162 30.9844C127.557 32.625 126.821 33.4941 125.955 33.5918L124.93 33.7285C124.767 33.7285 124.699 33.6829 124.725 33.5918C125.551 33.1556 126.323 32.638 127.039 32.0391C126.785 31.8047 126.505 31.6875 126.199 31.6875H125.984L125.145 31.7559L125.076 31.6875V31.5508C125.473 30.4701 125.776 29.9297 125.984 29.9297ZM124.158 43.7734C124.171 43.7734 124.188 43.7734 124.207 43.7734C125.457 43.6953 126.173 43.1354 126.355 42.0938C125.887 38.9688 125.652 36.7812 125.652 35.5312C125.652 35.0495 125.861 34.4245 126.277 33.6562L126.355 33.7344L126.512 33.8906L126.434 34.4375C126.499 37.9466 126.941 40.668 127.762 42.6016C128.074 43.3047 128.842 43.6953 130.066 43.7734V46C128.387 45.974 127.254 45.0885 126.668 43.3438H126.59C126.049 45.0951 125.239 45.9805 124.158 46V43.7734ZM135.154 46.9316C135.232 46.8861 135.255 46.9577 135.223 47.1465C134.78 48.1882 134.1 48.9141 133.182 49.3242L129.812 51.0137C129.669 50.9746 129.643 50.8574 129.734 50.6621C130.184 49.7962 130.49 49.2819 130.652 49.1191L135.154 46.9316ZM133.611 29.3105C133.755 29.5579 133.921 30.2611 134.109 31.4199C133.992 32.123 133.686 32.4746 133.191 32.4746H133.123C132.908 32.4746 132.625 32.3346 132.273 32.0547C132.033 32.4779 131.681 32.6895 131.219 32.6895C130.659 32.6895 130.379 32.0091 130.379 30.6484C130.542 30.1341 130.682 29.877 130.799 29.877L130.867 29.9453V31.1465C130.965 31.5632 131.082 31.7715 131.219 31.7715H131.502C131.795 31.7715 131.984 31.6543 132.068 31.4199L131.922 30.3652C131.98 30.0137 132.075 29.8281 132.205 29.8086H132.352C132.501 30.9805 132.736 31.5664 133.055 31.5664H133.543V31.498L133.328 30.0918V30.0137C133.387 29.5449 133.481 29.3105 133.611 29.3105ZM129.842 43.7637C129.933 43.7702 130.031 43.7734 130.135 43.7734H130.877C131.658 43.6432 132.257 43.3698 132.674 42.9531L131.736 35.5312C131.971 34.125 132.179 33.4219 132.361 33.4219L133.377 35.7656C133.377 36.1302 133.247 36.6771 132.986 37.4062L133.377 41.625V42.7969C133.084 44.0404 132.69 44.9095 132.195 45.4043C131.824 45.8014 131.385 46 130.877 46H130.213C130.083 46 129.959 45.9967 129.842 45.9902V43.7637Z" fill="#14C75C"/>
<path d="M147.537 37.3281C148.038 37.2826 148.299 37.4128 148.318 37.7188V38.1875C148.188 39.4375 148.058 40.0625 147.928 40.0625H147.85C147.752 39.6979 147.439 39.5156 146.912 39.5156C145.831 39.5156 144.686 40.3229 143.475 41.9375V42.0938C143.475 42.3542 144.36 42.5885 146.131 42.7969C146.6 43.2526 146.834 43.7474 146.834 44.2812C146.834 45.7526 145.532 47.3411 142.928 49.0469C142.251 49.4115 141.574 49.5938 140.896 49.5938C139.113 49.5938 137.837 48.5 137.068 46.3125C136.821 45.5508 136.798 44.4896 137 43.1289C137.202 41.7617 137.804 40.9154 138.807 40.5898L138.943 40.6094C139.139 40.7135 138.995 41.013 138.514 41.5078C138.038 41.9961 137.739 42.6341 137.615 43.4219V44.0469C137.615 45.2969 138.292 46.3125 139.646 47.0938C140.115 47.3021 140.61 47.4062 141.131 47.4062H141.443C142.954 47.4062 144.464 46.6771 145.975 45.2188L143.553 44.6719C143.136 44.3984 142.928 44.0339 142.928 43.5781V42.6406C142.947 41.2083 143.624 39.903 144.959 38.7246C145.454 38.2103 146.313 37.7448 147.537 37.3281ZM153.914 49.4648C154.422 49.4844 154.754 49.8392 154.91 50.5293C154.91 51.0566 154.539 51.3203 153.797 51.3203C153.211 51.3594 152.918 51.4408 152.918 51.5645V51.6621C153.113 52.2871 153.302 53.5273 153.484 55.3828C153.406 55.6953 153.296 55.8613 153.152 55.8809L152.459 52.0234L152.42 51.6523C152.394 51.1055 152.576 50.7702 152.967 50.6465L153.26 50.5488C153.26 49.8913 153.478 49.5299 153.914 49.4648ZM153.777 50.334C153.699 50.4186 153.66 50.4707 153.66 50.4902C153.882 50.5163 154.077 50.5 154.246 50.4414C154.24 50.2852 154.083 50.2493 153.777 50.334ZM157.127 29.5723C157.218 29.5723 157.264 29.6406 157.264 29.7773C157.003 30.5326 156.232 31.2129 154.949 31.8184L151.99 33.4395L151.922 33.3711V33.293C152.202 32.3034 152.648 31.6947 153.26 31.4668L156.561 29.7773L157.127 29.5723ZM157.684 31.3301L157.762 31.3984V31.6133C157.358 32.4792 156.795 33.0879 156.072 33.4395C153.833 34.6569 152.589 35.2656 152.342 35.2656C152.251 35.2656 152.205 35.194 152.205 35.0508C152.42 34.224 152.889 33.6641 153.611 33.3711L157.615 31.3301H157.684ZM160.105 46.0098C158.764 45.9186 157.547 45.1862 156.453 43.8125H156.375C155.906 46.5208 154.865 47.875 153.25 47.875H153.016C152.312 47.875 151.635 47.25 150.984 46C150.464 44.2422 150.203 42.9141 150.203 42.0156V41.3906C150.203 41 150.281 40.7917 150.438 40.7656C150.659 40.8828 150.919 41.7389 151.219 43.334C151.525 44.9225 152.15 45.681 153.094 45.6094C154.917 45.3099 155.88 44.2682 155.984 42.4844L155.281 40.0625V39.2031C155.307 38.1615 155.411 37.6406 155.594 37.6406C155.698 37.875 155.776 38.1094 155.828 38.3438L156.922 41.7812C157.781 43.1745 158.842 43.832 160.105 43.7539V46.0098ZM162.371 32.4375C162.371 32.8542 162.723 33.1113 163.426 33.209H163.562C163.823 33.209 163.989 33.1146 164.061 32.9258C164.061 32.5026 163.755 32.1738 163.143 31.9395C162.876 31.9395 162.618 32.1055 162.371 32.4375ZM163.562 30.748C164.363 30.748 164.764 31.2396 164.764 32.2227C164.764 33.7917 163.426 35.1263 160.75 36.2266C160.366 36.3438 160.32 36.2038 160.613 35.8066C160.685 35.6569 161.316 35.1882 162.508 34.4004V34.332C161.993 34.1237 161.736 33.6777 161.736 32.9941C162.075 31.4967 162.615 30.748 163.357 30.748H163.562ZM159.734 43.7734C160.503 43.6758 160.887 43.526 160.887 43.3242C160.887 41.7747 161.355 39.8997 162.293 37.6992C162.423 37.4128 162.553 37.3867 162.684 37.6211C163.022 38.3503 163.621 38.9492 164.48 39.418C166.251 40.2773 167.137 41.4492 167.137 42.9336C167.137 44.4831 166.798 45.3685 166.121 45.5898L165.34 45.668L162.371 45.5117C161.544 45.8633 160.665 46.026 159.734 46V43.7734ZM161.59 42.3867C161.59 42.8815 161.98 43.194 162.762 43.3242C163.439 42.9466 163.777 42.556 163.777 42.1523C163.543 41.2148 163.152 40.7461 162.605 40.7461C162.046 40.7461 161.707 41.293 161.59 42.3867ZM164.168 43.4023L166.121 43.4805L166.434 43.4023C165.952 42.7383 165.327 42.2174 164.559 41.8398C164.415 41.8398 164.285 42.3607 164.168 43.4023ZM176.385 45.9316C176.463 45.8861 176.486 45.9577 176.453 46.1465C176.01 47.1882 175.33 47.9141 174.412 48.3242L171.043 50.0137C170.9 49.9746 170.874 49.8574 170.965 49.6621C171.414 48.7962 171.72 48.2819 171.883 48.1191L176.385 45.9316ZM178.523 46H178.504C177.007 46 175.991 45.2708 175.457 43.8125L175.301 43.1875H175.145C175.027 43.6042 174.194 43.8646 172.645 43.9688H172.254C171.212 43.9688 170.691 43.6562 170.691 43.0312V42.3281C170.691 41.5729 171.264 40.6354 172.41 39.5156C173.1 38.9948 173.882 38.5521 174.754 38.1875L174.676 37.9531C174.962 36.651 175.197 36 175.379 36C175.47 36.2214 175.6 37.8359 175.77 40.8438C176.004 42.8685 176.922 43.8548 178.523 43.8027V46ZM171.629 41.4688C171.928 41.6771 172.423 41.7812 173.113 41.7812C173.79 41.7292 174.415 41.599 174.988 41.3906L174.832 39.2031H174.754C172.671 40.1927 171.629 40.9479 171.629 41.4688ZM178.318 43.7734C178.872 43.7799 179.217 43.7702 179.354 43.7441C180.525 43.3861 181.326 42.6276 181.756 41.4688C181.821 41.2474 181.951 41.2214 182.146 41.3906C182.251 41.4818 182.329 41.8464 182.381 42.4844C183.09 43.4414 183.976 43.8711 185.037 43.7734H185.242V46H185.193C183.533 45.9219 182.309 45.1667 181.521 43.7344H181.443C180.89 44.8997 180.161 45.6159 179.256 45.8828C178.982 45.9609 178.67 46 178.318 46V43.7734ZM182.508 47.0156C183.81 47.5755 184.461 48.0182 184.461 48.3438C184.383 48.5911 184.018 49.138 183.367 49.9844C182.495 49.6458 181.87 49.2552 181.492 48.8125C181.766 47.9401 182.104 47.3411 182.508 47.0156ZM179.695 47.4062C180.021 47.4062 180.594 47.7969 181.414 48.5781C181.414 48.8385 181.102 49.4115 180.477 50.2969H180.32C179.995 50.2969 179.5 49.9844 178.836 49.3594V49.2812C178.836 48.9688 179.122 48.3438 179.695 47.4062ZM190.74 46.9316C190.818 46.8861 190.841 46.9577 190.809 47.1465C190.366 48.1882 189.686 48.9141 188.768 49.3242L185.398 51.0137C185.255 50.9746 185.229 50.8574 185.32 50.6621C185.77 49.7962 186.076 49.2819 186.238 49.1191L190.74 46.9316ZM185.018 43.7734H185.408C187.837 43.7279 189.451 43.3861 190.252 42.748L190.408 42.4355C190.304 42.1882 190.174 42.0645 190.018 42.0645C189.64 42.2728 189.223 42.377 188.768 42.377H188.689C187.335 42.2207 186.632 41.6738 186.58 40.7363V40.6582C186.71 38.8874 187.127 38.002 187.83 38.002H188.221C189.425 37.9434 190.337 38.8809 190.955 40.8145L191.033 41.5957V41.752C191.014 43.666 190.327 44.929 188.973 45.541C188.491 45.847 187.173 46 185.018 46V43.7734ZM187.547 33.9688C188.224 33.9688 188.849 34.3854 189.422 35.2188C188.94 36.3125 188.576 36.8594 188.328 36.8594C187.273 36.3385 186.701 36 186.609 35.8438C186.609 35.349 186.922 34.724 187.547 33.9688ZM186.268 33.7441C187.068 34.0762 187.469 34.3724 187.469 34.6328L186.785 35.6875H186.727C186.583 35.6875 186.176 35.4727 185.506 35.043C185.838 34.1771 186.092 33.7441 186.268 33.7441ZM187.332 35.3555C188.204 35.7266 188.641 36.0358 188.641 36.2832C188.582 36.459 188.335 36.8301 187.898 37.3965C187.319 37.1751 186.893 36.9049 186.619 36.5859C186.814 35.9805 187.052 35.5703 187.332 35.3555ZM185.477 35.3457C185.704 35.3457 186.092 35.6094 186.639 36.1367C186.639 36.3385 186.427 36.7389 186.004 37.3379H185.896C185.675 37.3379 185.34 37.1263 184.891 36.7031V36.625C184.891 36.4036 185.086 35.9772 185.477 35.3457ZM205.115 35.1836C205.193 35.138 205.216 35.2096 205.184 35.3984C204.741 36.4401 204.061 37.166 203.143 37.5762L199.773 39.2656C199.63 39.2266 199.604 39.1094 199.695 38.9141C200.145 38.0482 200.451 37.5339 200.613 37.3711L205.115 35.1836ZM209.93 46.0098C208.934 45.9316 208.032 45.2318 207.225 43.9102C206.027 45.3685 204.308 46.0977 202.068 46.0977H201.443C199.021 46.0977 197.355 45.056 196.443 42.9727L196.365 42.5039V41.8008C196.365 41.0456 196.704 40.1862 197.381 39.2227H197.459L197.615 39.3789V39.7695L197.225 41.0195C197.225 42.3867 198.37 43.3242 200.662 43.832L202.068 43.9102C204.503 43.9102 206.43 43.0768 207.85 41.4102C207.928 41.4102 208.006 41.5143 208.084 41.7227L208.006 42.2695C208.273 43.2526 208.914 43.7474 209.93 43.7539V46.0098ZM202.273 47.5234C202.54 47.5234 203.165 47.8359 204.148 48.4609C204.148 48.8516 203.836 49.4766 203.211 50.3359C201.961 49.9323 201.336 49.5677 201.336 49.2422C201.368 48.9492 201.681 48.3763 202.273 47.5234ZM212.469 32.9297H213.24C214.178 32.9297 214.646 33.2812 214.646 33.9844C214.041 35.625 213.305 36.4941 212.439 36.5918L211.414 36.7285C211.251 36.7285 211.183 36.6829 211.209 36.5918C212.036 36.1556 212.807 35.638 213.523 35.0391C213.27 34.8047 212.99 34.6875 212.684 34.6875H212.469L211.629 34.7559L211.561 34.6875V34.5508C211.958 33.4701 212.26 32.9297 212.469 32.9297ZM209.578 43.7734C211.622 43.793 212.768 43.4089 213.016 42.6211C213.016 42.3477 212.755 41.6706 212.234 40.5898L212.469 38.5586H212.625C213.302 39.7305 213.641 40.9023 213.641 42.0742V42.7773C213.641 43.2461 213.527 43.7409 213.299 44.2617C213.077 44.776 212.732 45.209 212.264 45.5605C211.801 45.9121 210.906 46.0586 209.578 46V43.7734ZM213.162 46.6445H213.24C213.774 46.7227 214.373 47.0872 215.037 47.7383V47.8164L214.1 49.457C212.85 49.0534 212.225 48.7148 212.225 48.4414C212.628 47.2435 212.941 46.6445 213.162 46.6445ZM210.271 47.3477H210.428C210.962 47.4648 211.535 47.7773 212.146 48.2852V48.3633C211.795 49.431 211.482 50.0039 211.209 50.082C210.415 49.9258 209.816 49.6654 209.412 49.3008V49.2227C209.412 48.6107 209.699 47.9857 210.271 47.3477ZM221.248 36.1836C221.326 36.138 221.349 36.2096 221.316 36.3984C220.874 37.4401 220.193 38.166 219.275 38.5762L215.906 40.2656C215.763 40.2266 215.737 40.1094 215.828 39.9141C216.277 39.0482 216.583 38.5339 216.746 38.3711L221.248 36.1836ZM219.637 41.6836C220.105 42.1523 220.548 43.168 220.965 44.7305L221.043 45.7461C221.043 47.582 220.132 48.832 218.309 49.4961L217.762 49.5742L216.375 49.5938L215.027 49.5742L214.949 49.4961V49.418C215.118 49.2357 216.238 48.6888 218.309 47.7773C219.611 47.0352 220.314 46.3841 220.418 45.8242C219.741 44.3789 219.402 43.5456 219.402 43.3242V43.0898C219.402 42.1523 219.48 41.6836 219.637 41.6836ZM224.998 33.7344C225.636 33.7344 226.938 34.724 228.904 36.7031C230.415 38.526 231.17 40.2448 231.17 41.8594V42.4844C231.131 43.5781 231.027 44.125 230.857 44.125L230.701 43.9688V43.0312C230.701 41.5469 229.607 39.724 227.42 37.5625L227.029 37.3281C226.886 37.849 226.756 38.1094 226.639 38.1094L224.764 35.7656L224.842 33.8125L224.92 33.7344H224.998ZM235.369 29.1836C235.447 29.138 235.47 29.2096 235.438 29.3984C234.995 30.4401 234.314 31.166 233.396 31.5762L230.027 33.2656C229.884 33.2266 229.858 33.1094 229.949 32.9141C230.398 32.0482 230.704 31.5339 230.867 31.3711L235.369 29.1836ZM232.781 34.2812L233.406 36.1562C233.719 36.4427 233.875 36.6771 233.875 36.8594L233.328 39.2031L233.406 40.4531C233.406 43.5195 232.312 45.6289 230.125 46.7812C228.348 47.3542 227.098 47.6406 226.375 47.6406L226.297 47.5625V47.4062L227.938 46.625C228.602 46.319 229.487 45.8242 230.594 45.1406C231.792 44.0208 232.469 43.2396 232.625 42.7969L232.43 39.5156L232.234 36.2344C232.443 34.9323 232.625 34.2812 232.781 34.2812ZM242.742 35.4375C242.742 35.8542 243.094 36.1113 243.797 36.209H243.934C244.194 36.209 244.36 36.1146 244.432 35.9258C244.432 35.5026 244.126 35.1738 243.514 34.9395C243.247 34.9395 242.99 35.1055 242.742 35.4375ZM243.934 33.748C244.734 33.748 245.135 34.2396 245.135 35.2227C245.135 36.7917 243.797 38.1263 241.121 39.2266C240.737 39.3438 240.691 39.2038 240.984 38.8066C241.056 38.6569 241.688 38.1882 242.879 37.4004V37.332C242.365 37.1237 242.107 36.6777 242.107 35.9941C242.446 34.4967 242.986 33.748 243.729 33.748H243.934ZM250.906 46.0098C249.91 45.9316 249.008 45.2318 248.201 43.9102C247.003 45.3685 245.285 46.0977 243.045 46.0977H242.42C239.998 46.0977 238.331 45.056 237.42 42.9727L237.342 42.5039V41.8008C237.342 41.0456 237.68 40.1862 238.357 39.2227H238.436L238.592 39.3789V39.7695L238.201 41.0195C238.201 42.3867 239.347 43.3242 241.639 43.832L243.045 43.9102C245.48 43.9102 247.407 43.0768 248.826 41.4102C248.904 41.4102 248.982 41.5143 249.061 41.7227L248.982 42.2695C249.249 43.2526 249.891 43.7474 250.906 43.7539V46.0098ZM243.25 47.5234C243.517 47.5234 244.142 47.8359 245.125 48.4609C245.125 48.8516 244.812 49.4766 244.188 50.3359C242.938 49.9323 242.312 49.5677 242.312 49.2422C242.345 48.9492 242.658 48.3763 243.25 47.5234ZM253.777 25.5859C254.402 26.6536 254.715 27.6953 254.715 28.7109C254.441 30.638 254.103 31.6016 253.699 31.6016L253.621 31.5234V31.4453L253.777 30.4297V30.3516C253.777 29.7266 253.517 28.7891 252.996 27.5391V27.3828C253.257 26.1849 253.517 25.5859 253.777 25.5859ZM256.736 31.1836C256.814 31.138 256.837 31.2096 256.805 31.3984C256.362 32.4401 255.682 33.166 254.764 33.5762L251.395 35.2656C251.251 35.2266 251.225 35.1094 251.316 34.9141C251.766 34.0482 252.072 33.5339 252.234 33.3711L256.736 31.1836ZM250.682 43.7734C251.235 43.7799 251.58 43.7702 251.717 43.7441C252.889 43.3861 253.689 42.6276 254.119 41.4688C254.184 41.2474 254.314 41.2214 254.51 41.3906C254.614 41.4818 254.692 41.8464 254.744 42.4844C255.454 43.4414 256.339 43.8711 257.4 43.7734H257.605V46H257.557C255.896 45.9219 254.673 45.1667 253.885 43.7344H253.807C253.253 44.8997 252.524 45.6159 251.619 45.8828C251.346 45.9609 251.033 46 250.682 46V43.7734ZM254.871 36.9277C256.173 37.4876 256.824 37.9303 256.824 38.2559C256.746 38.5033 256.382 39.0501 255.73 39.8965C254.858 39.5579 254.233 39.1673 253.855 38.7246C254.129 37.8522 254.467 37.2533 254.871 36.9277ZM252.059 37.3184C252.384 37.3184 252.957 37.709 253.777 38.4902C253.777 38.7507 253.465 39.3236 252.84 40.209H252.684C252.358 40.209 251.863 39.8965 251.199 39.2715V39.1934C251.199 38.8809 251.486 38.2559 252.059 37.3184ZM264.295 47.9316C264.373 47.8861 264.396 47.9577 264.363 48.1465C263.921 49.1882 263.24 49.9141 262.322 50.3242L258.953 52.0137C258.81 51.9746 258.784 51.8574 258.875 51.6621C259.324 50.7962 259.63 50.2819 259.793 50.1191L264.295 47.9316ZM258.592 43.6074C259.51 43.3991 260.076 43.015 260.291 42.4551C260.382 42.1426 260.408 41.8822 260.369 41.6738C259.08 38.946 258.436 37.3477 258.436 36.8789C258.37 36.0716 258.449 35.3132 258.67 34.6035C258.891 33.8939 259.256 33.4023 259.764 33.1289L265.936 29.3789C266.092 29.418 265.89 29.9648 265.33 31.0195C264.77 32.0677 264.428 32.6178 264.305 32.6699C264.181 32.7155 264.1 32.5299 264.061 32.1133C261.652 33.6367 260.213 34.5645 259.744 34.8965C259.275 35.2285 258.995 35.5247 258.904 35.7852C259.633 37.7643 260.643 39.8477 261.932 42.0352C262.856 43.2982 264.158 43.9297 265.838 43.9297C265.949 43.9297 266.089 43.9297 266.258 43.9297V46.166L265.994 46.1758C263.715 46.1758 262.049 45.056 260.994 42.8164C260.929 42.6797 260.877 42.6536 260.838 42.7383C260.415 44.5221 259.666 45.541 258.592 45.7949C258.214 45.9121 257.827 45.9805 257.43 46V43.7637C257.866 43.7311 258.253 43.679 258.592 43.6074ZM268.348 28.9297H269.119C270.057 28.9297 270.525 29.2812 270.525 29.9844C269.92 31.625 269.184 32.4941 268.318 32.5918L267.293 32.7285C267.13 32.7285 267.062 32.6829 267.088 32.5918C267.915 32.1556 268.686 31.638 269.402 31.0391C269.148 30.8047 268.868 30.6875 268.562 30.6875H268.348L267.508 30.7559L267.439 30.6875V30.5508C267.837 29.4701 268.139 28.9297 268.348 28.9297ZM266.189 43.7637C266.281 43.7702 266.378 43.7734 266.482 43.7734H267.225C268.006 43.6432 268.605 43.3698 269.021 42.9531L268.084 35.5312C268.318 34.125 268.527 33.4219 268.709 33.4219L269.725 35.7656C269.725 36.1302 269.594 36.6771 269.334 37.4062L269.725 41.625V42.7969C269.432 44.0404 269.038 44.9095 268.543 45.4043C268.172 45.8014 267.732 46 267.225 46H266.561C266.43 46 266.307 45.9967 266.189 45.9902V43.7637ZM272.547 32.875C272.703 32.875 272.859 33.3958 273.016 34.4375L273.719 36L273.406 37.7969L273.641 42.1719V42.875C273.536 44.6589 273.276 45.7005 272.859 46L272.781 45.9219L272.859 44.75C272.859 43.6953 272.521 40.3359 271.844 34.6719C272.169 33.474 272.404 32.875 272.547 32.875ZM275.438 30.3555C275.438 30.8828 275.203 31.3288 274.734 31.6934C274.292 32.0254 273.8 32.1914 273.26 32.1914H271.141C270.88 32.1914 270.75 32.3802 270.75 32.7578C270.75 33.1549 270.757 33.3079 270.77 33.2168C270.359 32.8066 270.154 32.3835 270.154 31.9473C270.154 31.3874 270.48 31.1074 271.131 31.1074H271.434C272.43 29.7533 273.419 29.0762 274.402 29.0762C275.092 29.0762 275.438 29.5026 275.438 30.3555ZM274.295 30.3359C274.295 30.0169 274.161 29.8574 273.895 29.8574C273.419 29.8574 272.827 30.2741 272.117 31.1074H273.152C273.914 31.1074 274.295 30.8503 274.295 30.3359ZM285.623 31.1836C285.701 31.138 285.724 31.2096 285.691 31.3984C285.249 32.4401 284.568 33.166 283.65 33.5762L280.281 35.2656C280.138 35.2266 280.112 35.1094 280.203 34.9141C280.652 34.0482 280.958 33.5339 281.121 33.3711L285.623 31.1836ZM291.033 46C289.848 45.9674 288.953 45.0137 288.348 43.1387L288.27 42.5918H288.191C287.866 43.7376 287.319 44.5449 286.551 45.0137C285.431 45.5866 284.233 45.873 282.957 45.873C280.301 45.873 278.556 44.9876 277.723 43.2168L277.566 42.0449C277.566 40.5736 278.139 39.4798 279.285 38.7637L279.676 38.6855L279.754 38.9199L278.582 40.4043L278.348 40.873C278.348 42.2012 279.337 43.0866 281.316 43.5293L283.191 43.6855C285.34 43.6855 286.954 43.0345 288.035 41.7324L288.113 41.4199L287.41 32.123C287.723 31.0293 287.983 30.4824 288.191 30.4824L288.348 30.7168C288.608 37.8262 288.999 41.7715 289.52 42.5527C289.969 43.3014 290.473 43.7214 291.033 43.8125V46ZM283.582 37.9824C283.868 37.9824 284.051 38.0866 284.129 38.2949V38.4512C284.025 38.9199 283.895 39.1543 283.738 39.1543L283.426 38.9199H283.27C282.801 39.0241 282.566 39.1543 282.566 39.3105V39.3887C282.566 39.5449 282.853 39.6491 283.426 39.7012L284.91 39.623C285.639 39.8184 286.004 40.0267 286.004 40.248V40.4824C286.004 41.3678 285.405 41.8887 284.207 42.0449C283.556 42.2012 282.697 42.2793 281.629 42.2793H281.316C280.848 42.2793 280.613 42.097 280.613 41.7324L284.598 41.1855C284.598 41.1074 284.806 41.0293 285.223 40.9512V40.873C285.197 40.7168 284.988 40.6387 284.598 40.6387H282.723C282.15 40.6387 281.863 40.3522 281.863 39.7793C282.254 38.5814 282.827 37.9824 283.582 37.9824ZM296.111 46.9316C296.189 46.8861 296.212 46.9577 296.18 47.1465C295.737 48.1882 295.057 48.9141 294.139 49.3242L290.77 51.0137C290.626 50.9746 290.6 50.8574 290.691 50.6621C291.141 49.7962 291.447 49.2819 291.609 49.1191L296.111 46.9316ZM290.799 43.7637C290.89 43.7702 290.988 43.7734 291.092 43.7734H291.834C292.615 43.6432 293.214 43.3698 293.631 42.9531L292.693 35.5312C292.928 34.125 293.136 33.4219 293.318 33.4219L294.334 35.7656C294.334 36.1302 294.204 36.6771 293.943 37.4062L294.334 41.625V42.7969C294.041 44.0404 293.647 44.9095 293.152 45.4043C292.781 45.8014 292.342 46 291.834 46H291.17C291.04 46 290.916 45.9967 290.799 45.9902V43.7637ZM298.562 24.5859C299.188 25.6536 299.5 26.6953 299.5 27.7109C299.227 29.638 298.888 30.6016 298.484 30.6016L298.406 30.5234V30.4453L298.562 29.4297V29.3516C298.562 28.7266 298.302 27.7891 297.781 26.5391V26.3828C298.042 25.1849 298.302 24.5859 298.562 24.5859ZM301.521 30.1836C301.6 30.138 301.622 30.2096 301.59 30.3984C301.147 31.4401 300.467 32.166 299.549 32.5762L296.18 34.2656C296.036 34.2266 296.01 34.1094 296.102 33.9141C296.551 33.0482 296.857 32.5339 297.02 32.3711L301.521 30.1836ZM298.396 34.9844C299.035 35.0885 299.66 35.4792 300.271 36.1562V36.3125C299.881 37.3542 299.594 37.875 299.412 37.875C298.162 37.4453 297.537 37.1068 297.537 36.8594C297.537 36.3776 297.824 35.7526 298.396 34.9844ZM298.631 38.6562C301.287 39.6068 302.615 40.7786 302.615 42.1719L302.693 42.6406C302.472 44.4635 301.873 45.375 300.896 45.375C300.896 45.5443 299.594 45.7526 296.99 46L296.912 45.7656C296.912 44.4635 297.146 43.8125 297.615 43.8125C300.219 43.6042 301.652 43.2917 301.912 42.875C301.014 42.0026 299.842 41.2995 298.396 40.7656L298.318 40.375C298.357 39.2292 298.462 38.6562 298.631 38.6562Z" fill="black"/>
<path d="M98.3184 83.1836C98.3965 83.138 98.4193 83.2096 98.3867 83.3984C97.944 84.4401 97.2637 85.166 96.3457 85.5762L92.9766 87.2656C92.8333 87.2266 92.8073 87.1094 92.8984 86.9141C93.3477 86.0482 93.6536 85.5339 93.8164 85.3711L98.3184 83.1836ZM102.332 93.9883C101.622 93.9883 101.072 93.8776 100.682 93.6562C100.486 95.349 100.122 96.5208 99.5879 97.1719C98.2988 98.7865 96.9707 99.5938 95.6035 99.5938C93.0905 99.5938 91.4499 98.5 90.6816 96.3125C90.5254 95.8958 90.4473 95.4531 90.4473 94.9844V94.3594C90.4473 92.5104 91.0202 91.0521 92.166 89.9844C92.3743 90.0625 92.4785 90.2448 92.4785 90.5312L91.2285 92.7969L91.1504 93.5781C91.1504 95.3359 92.1139 96.5599 94.041 97.25L96.0723 97.4062C96.9316 97.4062 97.9993 96.9115 99.2754 95.9219C99.7441 95.1667 99.9785 94.6198 99.9785 94.2812C99.9264 93.7604 99.5879 93.0052 98.9629 92.0156V90.375L99.1973 90.1406C99.7637 91.2799 100.809 91.8301 102.332 91.791V93.9883ZM95.4473 91.9375C96.2155 92.1849 96.8145 92.4974 97.2441 92.875V93.0312C97.2441 93.2917 96.9577 93.8646 96.3848 94.75C95.8509 94.75 95.252 94.4635 94.5879 93.8906V93.7344C94.5879 93.1745 94.8743 92.5755 95.4473 91.9375ZM102.273 91.7148H102.293C103.204 91.7148 103.934 91.4023 104.48 90.7773L104.402 90.1523C104.402 89.3841 104.559 88.7591 104.871 88.2773C105.014 88.2773 105.223 89.6055 105.496 92.2617C105.809 93.694 106.899 94.3581 108.768 94.2539V96.4805C106.945 96.6107 105.672 95.7773 104.949 93.9805C104.832 92.7305 104.702 92.1055 104.559 92.1055C104.253 93.2904 103.491 93.9121 102.273 93.9707V91.7148ZM105.184 97.5645C105.678 97.5645 106.277 97.903 106.98 98.5801C106.98 98.8535 106.642 99.4004 105.965 100.221C105.574 100.221 105.001 99.9603 104.246 99.4395C104.246 98.9837 104.559 98.3587 105.184 97.5645ZM102.449 97.9551H102.762C103.79 98.541 104.311 98.8796 104.324 98.9707C103.816 100.064 103.478 100.637 103.309 100.689C102.723 100.689 102.15 100.403 101.59 99.8301C101.694 99.2702 101.98 98.6452 102.449 97.9551ZM115.057 97.9316C115.135 97.8861 115.158 97.9577 115.125 98.1465C114.682 99.1882 114.002 99.9141 113.084 100.324L109.715 102.014C109.572 101.975 109.546 101.857 109.637 101.662C110.086 100.796 110.392 100.282 110.555 100.119L115.057 97.9316ZM112.83 84.2617C113.676 84.5221 114.406 84.9388 115.018 85.5117V85.5898C115.018 85.9154 114.679 86.4362 114.002 87.1523C113.794 87.1523 113.09 86.8919 111.893 86.3711V86.4492C111.476 87.2565 111.215 87.6732 111.111 87.6992C110.434 87.556 109.861 87.2435 109.393 86.7617C109.705 85.4596 109.965 84.8086 110.174 84.8086C110.343 84.8086 110.968 85.1211 112.049 85.7461C112.049 85.4727 112.309 84.9779 112.83 84.2617ZM108.553 93.7734C109.419 93.8451 110.158 93.7604 110.77 93.5195L110.447 92.9336C110.141 91.2148 110.278 90.0788 110.857 89.5254C111.437 88.9655 112.059 88.7083 112.723 88.7539C114.012 88.8125 114.741 89.4896 114.91 90.7852V91.2539C114.91 92.3346 114.754 93.0117 114.441 93.2852C114.246 93.487 114.689 93.6562 115.77 93.793L116.023 93.7832C116.219 93.7767 116.443 93.7734 116.697 93.7734V96L115.906 96.0098C114.435 96.0033 113.322 95.8177 112.566 95.4531C111.525 95.8177 110.717 96 110.145 96H109.832C109.441 96 109.015 96 108.553 96V93.7734ZM111.316 91.5664V91.7227C111.642 92.2826 112.137 92.6732 112.801 92.8945C113.243 92.8164 113.686 92.6341 114.129 92.3477C113.934 91.6185 113.283 91.2018 112.176 91.0977C111.603 91.2539 111.316 91.4102 111.316 91.5664ZM122.4 77.1836C122.479 77.138 122.501 77.2096 122.469 77.3984C122.026 78.4401 121.346 79.166 120.428 79.5762L117.059 81.2656C116.915 81.2266 116.889 81.1094 116.98 80.9141C117.43 80.0482 117.736 79.5339 117.898 79.3711L122.4 77.1836ZM121.229 81.3105C121.372 81.5579 121.538 82.2611 121.727 83.4199C121.609 84.123 121.303 84.4746 120.809 84.4746H120.74C120.525 84.4746 120.242 84.3346 119.891 84.0547C119.65 84.4779 119.298 84.6895 118.836 84.6895C118.276 84.6895 117.996 84.0091 117.996 82.6484C118.159 82.1341 118.299 81.877 118.416 81.877L118.484 81.9453V83.1465C118.582 83.5632 118.699 83.7715 118.836 83.7715H119.119C119.412 83.7715 119.601 83.6543 119.686 83.4199L119.539 82.3652C119.598 82.0137 119.692 81.8281 119.822 81.8086H119.969C120.118 82.9805 120.353 83.5664 120.672 83.5664H121.16V83.498L120.945 82.0918V82.0137C121.004 81.5449 121.098 81.3105 121.229 81.3105ZM116.521 93.7734C117.075 93.7799 117.42 93.7702 117.557 93.7441C118.729 93.3861 119.529 92.6276 119.959 91.4688C120.024 91.2474 120.154 91.2214 120.35 91.3906C120.454 91.4818 120.532 91.8464 120.584 92.4844C121.294 93.4414 122.179 93.8711 123.24 93.7734H123.445V96H123.396C121.736 95.9219 120.512 95.1667 119.725 93.7344H119.646C119.093 94.8997 118.364 95.6159 117.459 95.8828C117.186 95.9609 116.873 96 116.521 96V93.7734ZM120.711 86.9277C122.013 87.4876 122.664 87.9303 122.664 88.2559C122.586 88.5033 122.221 89.0501 121.57 89.8965C120.698 89.5579 120.073 89.1673 119.695 88.7246C119.969 87.8522 120.307 87.2533 120.711 86.9277ZM117.898 87.3184C118.224 87.3184 118.797 87.709 119.617 88.4902C119.617 88.7507 119.305 89.3236 118.68 90.209H118.523C118.198 90.209 117.703 89.8965 117.039 89.2715V89.1934C117.039 88.8809 117.326 88.2559 117.898 87.3184ZM125.848 84.4375C125.848 84.8542 126.199 85.1113 126.902 85.209H127.039C127.299 85.209 127.465 85.1146 127.537 84.9258C127.537 84.5026 127.231 84.1738 126.619 83.9395C126.352 83.9395 126.095 84.1055 125.848 84.4375ZM127.039 82.748C127.84 82.748 128.24 83.2396 128.24 84.2227C128.24 85.7917 126.902 87.1263 124.227 88.2266C123.842 88.3438 123.797 88.2038 124.09 87.8066C124.161 87.6569 124.793 87.1882 125.984 86.4004V86.332C125.47 86.1237 125.213 85.6777 125.213 84.9941C125.551 83.4967 126.092 82.748 126.834 82.748H127.039ZM123.133 93.7734H123.309C123.842 93.7734 124.406 93.5684 124.998 93.1582C125.59 92.7415 125.939 92.2207 126.043 91.5957L126.121 91.5176H126.199C126.29 91.5176 126.421 91.804 126.59 92.377C127.332 93.3926 128.374 93.8613 129.715 93.7832C129.806 93.7832 129.897 93.7799 129.988 93.7734V96.0098C129.897 96.0163 129.806 96.0195 129.715 96.0195L128.621 95.8926C128.504 96.9342 128.165 97.4551 127.605 97.4551H127.449C126.408 97.2598 125.887 96.8952 125.887 96.3613L126.121 94.9551C125.939 94.7467 125.757 94.6426 125.574 94.6426C124.988 95.5605 124.174 96.013 123.133 96V93.7734ZM132 78.9297H132.771C133.709 78.9297 134.178 79.2812 134.178 79.9844C133.572 81.625 132.837 82.4941 131.971 82.5918L130.945 82.7285C130.783 82.7285 130.714 82.6829 130.74 82.5918C131.567 82.1556 132.339 81.638 133.055 81.0391C132.801 80.8047 132.521 80.6875 132.215 80.6875H132L131.16 80.7559L131.092 80.6875V80.5508C131.489 79.4701 131.792 78.9297 132 78.9297ZM129.842 93.7637C129.933 93.7702 130.031 93.7734 130.135 93.7734H130.877C131.658 93.6432 132.257 93.3698 132.674 92.9531L131.736 85.5312C131.971 84.125 132.179 83.4219 132.361 83.4219L133.377 85.7656C133.377 86.1302 133.247 86.6771 132.986 87.4062L133.377 91.625V92.7969C133.084 94.0404 132.69 94.9095 132.195 95.4043C131.824 95.8014 131.385 96 130.877 96H130.213C130.083 96 129.959 95.9967 129.842 95.9902V93.7637Z" fill="#FF002E"/>
<path d="M147.537 87.3281C148.038 87.2826 148.299 87.4128 148.318 87.7188V88.1875C148.188 89.4375 148.058 90.0625 147.928 90.0625H147.85C147.752 89.6979 147.439 89.5156 146.912 89.5156C145.831 89.5156 144.686 90.3229 143.475 91.9375V92.0938C143.475 92.3542 144.36 92.5885 146.131 92.7969C146.6 93.2526 146.834 93.7474 146.834 94.2812C146.834 95.7526 145.532 97.3411 142.928 99.0469C142.251 99.4115 141.574 99.5938 140.896 99.5938C139.113 99.5938 137.837 98.5 137.068 96.3125C136.821 95.5508 136.798 94.4896 137 93.1289C137.202 91.7617 137.804 90.9154 138.807 90.5898L138.943 90.6094C139.139 90.7135 138.995 91.013 138.514 91.5078C138.038 91.9961 137.739 92.6341 137.615 93.4219V94.0469C137.615 95.2969 138.292 96.3125 139.646 97.0938C140.115 97.3021 140.61 97.4062 141.131 97.4062H141.443C142.954 97.4062 144.464 96.6771 145.975 95.2188L143.553 94.6719C143.136 94.3984 142.928 94.0339 142.928 93.5781V92.6406C142.947 91.2083 143.624 89.903 144.959 88.7246C145.454 88.2103 146.313 87.7448 147.537 87.3281ZM153.914 99.4648C154.422 99.4844 154.754 99.8392 154.91 100.529C154.91 101.057 154.539 101.32 153.797 101.32C153.211 101.359 152.918 101.441 152.918 101.564V101.662C153.113 102.287 153.302 103.527 153.484 105.383C153.406 105.695 153.296 105.861 153.152 105.881L152.459 102.023L152.42 101.652C152.394 101.105 152.576 100.77 152.967 100.646L153.26 100.549C153.26 99.8913 153.478 99.5299 153.914 99.4648ZM153.777 100.334C153.699 100.419 153.66 100.471 153.66 100.49C153.882 100.516 154.077 100.5 154.246 100.441C154.24 100.285 154.083 100.249 153.777 100.334ZM157.127 79.5723C157.218 79.5723 157.264 79.6406 157.264 79.7773C157.003 80.5326 156.232 81.2129 154.949 81.8184L151.99 83.4395L151.922 83.3711V83.293C152.202 82.3034 152.648 81.6947 153.26 81.4668L156.561 79.7773L157.127 79.5723ZM157.684 81.3301L157.762 81.3984V81.6133C157.358 82.4792 156.795 83.0879 156.072 83.4395C153.833 84.6569 152.589 85.2656 152.342 85.2656C152.251 85.2656 152.205 85.194 152.205 85.0508C152.42 84.224 152.889 83.6641 153.611 83.3711L157.615 81.3301H157.684ZM160.105 96.0098C158.764 95.9186 157.547 95.1862 156.453 93.8125H156.375C155.906 96.5208 154.865 97.875 153.25 97.875H153.016C152.312 97.875 151.635 97.25 150.984 96C150.464 94.2422 150.203 92.9141 150.203 92.0156V91.3906C150.203 91 150.281 90.7917 150.438 90.7656C150.659 90.8828 150.919 91.7389 151.219 93.334C151.525 94.9225 152.15 95.681 153.094 95.6094C154.917 95.3099 155.88 94.2682 155.984 92.4844L155.281 90.0625V89.2031C155.307 88.1615 155.411 87.6406 155.594 87.6406C155.698 87.875 155.776 88.1094 155.828 88.3438L156.922 91.7812C157.781 93.1745 158.842 93.832 160.105 93.7539V96.0098ZM162.371 82.4375C162.371 82.8542 162.723 83.1113 163.426 83.209H163.562C163.823 83.209 163.989 83.1146 164.061 82.9258C164.061 82.5026 163.755 82.1738 163.143 81.9395C162.876 81.9395 162.618 82.1055 162.371 82.4375ZM163.562 80.748C164.363 80.748 164.764 81.2396 164.764 82.2227C164.764 83.7917 163.426 85.1263 160.75 86.2266C160.366 86.3438 160.32 86.2038 160.613 85.8066C160.685 85.6569 161.316 85.1882 162.508 84.4004V84.332C161.993 84.1237 161.736 83.6777 161.736 82.9941C162.075 81.4967 162.615 80.748 163.357 80.748H163.562ZM159.734 93.7734C160.503 93.6758 160.887 93.526 160.887 93.3242C160.887 91.7747 161.355 89.8997 162.293 87.6992C162.423 87.4128 162.553 87.3867 162.684 87.6211C163.022 88.3503 163.621 88.9492 164.48 89.418C166.251 90.2773 167.137 91.4492 167.137 92.9336C167.137 94.4831 166.798 95.3685 166.121 95.5898L165.34 95.668L162.371 95.5117C161.544 95.8633 160.665 96.026 159.734 96V93.7734ZM161.59 92.3867C161.59 92.8815 161.98 93.194 162.762 93.3242C163.439 92.9466 163.777 92.556 163.777 92.1523C163.543 91.2148 163.152 90.7461 162.605 90.7461C162.046 90.7461 161.707 91.293 161.59 92.3867ZM164.168 93.4023L166.121 93.4805L166.434 93.4023C165.952 92.7383 165.327 92.2174 164.559 91.8398C164.415 91.8398 164.285 92.3607 164.168 93.4023ZM176.385 95.9316C176.463 95.8861 176.486 95.9577 176.453 96.1465C176.01 97.1882 175.33 97.9141 174.412 98.3242L171.043 100.014C170.9 99.9746 170.874 99.8574 170.965 99.6621C171.414 98.7962 171.72 98.2819 171.883 98.1191L176.385 95.9316ZM178.523 96H178.504C177.007 96 175.991 95.2708 175.457 93.8125L175.301 93.1875H175.145C175.027 93.6042 174.194 93.8646 172.645 93.9688H172.254C171.212 93.9688 170.691 93.6562 170.691 93.0312V92.3281C170.691 91.5729 171.264 90.6354 172.41 89.5156C173.1 88.9948 173.882 88.5521 174.754 88.1875L174.676 87.9531C174.962 86.651 175.197 86 175.379 86C175.47 86.2214 175.6 87.8359 175.77 90.8438C176.004 92.8685 176.922 93.8548 178.523 93.8027V96ZM171.629 91.4688C171.928 91.6771 172.423 91.7812 173.113 91.7812C173.79 91.7292 174.415 91.599 174.988 91.3906L174.832 89.2031H174.754C172.671 90.1927 171.629 90.9479 171.629 91.4688ZM178.318 93.7734C178.872 93.7799 179.217 93.7702 179.354 93.7441C180.525 93.3861 181.326 92.6276 181.756 91.4688C181.821 91.2474 181.951 91.2214 182.146 91.3906C182.251 91.4818 182.329 91.8464 182.381 92.4844C183.09 93.4414 183.976 93.8711 185.037 93.7734H185.242V96H185.193C183.533 95.9219 182.309 95.1667 181.521 93.7344H181.443C180.89 94.8997 180.161 95.6159 179.256 95.8828C178.982 95.9609 178.67 96 178.318 96V93.7734ZM182.508 97.0156C183.81 97.5755 184.461 98.0182 184.461 98.3438C184.383 98.5911 184.018 99.138 183.367 99.9844C182.495 99.6458 181.87 99.2552 181.492 98.8125C181.766 97.9401 182.104 97.3411 182.508 97.0156ZM179.695 97.4062C180.021 97.4062 180.594 97.7969 181.414 98.5781C181.414 98.8385 181.102 99.4115 180.477 100.297H180.32C179.995 100.297 179.5 99.9844 178.836 99.3594V99.2812C178.836 98.9688 179.122 98.3438 179.695 97.4062ZM190.74 96.9316C190.818 96.8861 190.841 96.9577 190.809 97.1465C190.366 98.1882 189.686 98.9141 188.768 99.3242L185.398 101.014C185.255 100.975 185.229 100.857 185.32 100.662C185.77 99.7962 186.076 99.2819 186.238 99.1191L190.74 96.9316ZM185.018 93.7734H185.408C187.837 93.7279 189.451 93.3861 190.252 92.748L190.408 92.4355C190.304 92.1882 190.174 92.0645 190.018 92.0645C189.64 92.2728 189.223 92.377 188.768 92.377H188.689C187.335 92.2207 186.632 91.6738 186.58 90.7363V90.6582C186.71 88.8874 187.127 88.002 187.83 88.002H188.221C189.425 87.9434 190.337 88.8809 190.955 90.8145L191.033 91.5957V91.752C191.014 93.666 190.327 94.929 188.973 95.541C188.491 95.847 187.173 96 185.018 96V93.7734ZM187.547 83.9688C188.224 83.9688 188.849 84.3854 189.422 85.2188C188.94 86.3125 188.576 86.8594 188.328 86.8594C187.273 86.3385 186.701 86 186.609 85.8438C186.609 85.349 186.922 84.724 187.547 83.9688ZM186.268 83.7441C187.068 84.0762 187.469 84.3724 187.469 84.6328L186.785 85.6875H186.727C186.583 85.6875 186.176 85.4727 185.506 85.043C185.838 84.1771 186.092 83.7441 186.268 83.7441ZM187.332 85.3555C188.204 85.7266 188.641 86.0358 188.641 86.2832C188.582 86.459 188.335 86.8301 187.898 87.3965C187.319 87.1751 186.893 86.9049 186.619 86.5859C186.814 85.9805 187.052 85.5703 187.332 85.3555ZM185.477 85.3457C185.704 85.3457 186.092 85.6094 186.639 86.1367C186.639 86.3385 186.427 86.7389 186.004 87.3379H185.896C185.675 87.3379 185.34 87.1263 184.891 86.7031V86.625C184.891 86.4036 185.086 85.9772 185.477 85.3457ZM205.115 85.1836C205.193 85.138 205.216 85.2096 205.184 85.3984C204.741 86.4401 204.061 87.166 203.143 87.5762L199.773 89.2656C199.63 89.2266 199.604 89.1094 199.695 88.9141C200.145 88.0482 200.451 87.5339 200.613 87.3711L205.115 85.1836ZM209.93 96.0098C208.934 95.9316 208.032 95.2318 207.225 93.9102C206.027 95.3685 204.308 96.0977 202.068 96.0977H201.443C199.021 96.0977 197.355 95.056 196.443 92.9727L196.365 92.5039V91.8008C196.365 91.0456 196.704 90.1862 197.381 89.2227H197.459L197.615 89.3789V89.7695L197.225 91.0195C197.225 92.3867 198.37 93.3242 200.662 93.832L202.068 93.9102C204.503 93.9102 206.43 93.0768 207.85 91.4102C207.928 91.4102 208.006 91.5143 208.084 91.7227L208.006 92.2695C208.273 93.2526 208.914 93.7474 209.93 93.7539V96.0098ZM202.273 97.5234C202.54 97.5234 203.165 97.8359 204.148 98.4609C204.148 98.8516 203.836 99.4766 203.211 100.336C201.961 99.9323 201.336 99.5677 201.336 99.2422C201.368 98.9492 201.681 98.3763 202.273 97.5234ZM212.469 82.9297H213.24C214.178 82.9297 214.646 83.2812 214.646 83.9844C214.041 85.625 213.305 86.4941 212.439 86.5918L211.414 86.7285C211.251 86.7285 211.183 86.6829 211.209 86.5918C212.036 86.1556 212.807 85.638 213.523 85.0391C213.27 84.8047 212.99 84.6875 212.684 84.6875H212.469L211.629 84.7559L211.561 84.6875V84.5508C211.958 83.4701 212.26 82.9297 212.469 82.9297ZM209.578 93.7734C211.622 93.793 212.768 93.4089 213.016 92.6211C213.016 92.3477 212.755 91.6706 212.234 90.5898L212.469 88.5586H212.625C213.302 89.7305 213.641 90.9023 213.641 92.0742V92.7773C213.641 93.2461 213.527 93.7409 213.299 94.2617C213.077 94.776 212.732 95.209 212.264 95.5605C211.801 95.9121 210.906 96.0586 209.578 96V93.7734ZM213.162 96.6445H213.24C213.774 96.7227 214.373 97.0872 215.037 97.7383V97.8164L214.1 99.457C212.85 99.0534 212.225 98.7148 212.225 98.4414C212.628 97.2435 212.941 96.6445 213.162 96.6445ZM210.271 97.3477H210.428C210.962 97.4648 211.535 97.7773 212.146 98.2852V98.3633C211.795 99.431 211.482 100.004 211.209 100.082C210.415 99.9258 209.816 99.6654 209.412 99.3008V99.2227C209.412 98.6107 209.699 97.9857 210.271 97.3477ZM221.248 86.1836C221.326 86.138 221.349 86.2096 221.316 86.3984C220.874 87.4401 220.193 88.166 219.275 88.5762L215.906 90.2656C215.763 90.2266 215.737 90.1094 215.828 89.9141C216.277 89.0482 216.583 88.5339 216.746 88.3711L221.248 86.1836ZM219.637 91.6836C220.105 92.1523 220.548 93.168 220.965 94.7305L221.043 95.7461C221.043 97.582 220.132 98.832 218.309 99.4961L217.762 99.5742L216.375 99.5938L215.027 99.5742L214.949 99.4961V99.418C215.118 99.2357 216.238 98.6888 218.309 97.7773C219.611 97.0352 220.314 96.3841 220.418 95.8242C219.741 94.3789 219.402 93.5456 219.402 93.3242V93.0898C219.402 92.1523 219.48 91.6836 219.637 91.6836ZM224.998 83.7344C225.636 83.7344 226.938 84.724 228.904 86.7031C230.415 88.526 231.17 90.2448 231.17 91.8594V92.4844C231.131 93.5781 231.027 94.125 230.857 94.125L230.701 93.9688V93.0312C230.701 91.5469 229.607 89.724 227.42 87.5625L227.029 87.3281C226.886 87.849 226.756 88.1094 226.639 88.1094L224.764 85.7656L224.842 83.8125L224.92 83.7344H224.998ZM235.369 79.1836C235.447 79.138 235.47 79.2096 235.438 79.3984C234.995 80.4401 234.314 81.166 233.396 81.5762L230.027 83.2656C229.884 83.2266 229.858 83.1094 229.949 82.9141C230.398 82.0482 230.704 81.5339 230.867 81.3711L235.369 79.1836ZM232.781 84.2812L233.406 86.1562C233.719 86.4427 233.875 86.6771 233.875 86.8594L233.328 89.2031L233.406 90.4531C233.406 93.5195 232.312 95.6289 230.125 96.7812C228.348 97.3542 227.098 97.6406 226.375 97.6406L226.297 97.5625V97.4062L227.938 96.625C228.602 96.319 229.487 95.8242 230.594 95.1406C231.792 94.0208 232.469 93.2396 232.625 92.7969L232.43 89.5156L232.234 86.2344C232.443 84.9323 232.625 84.2812 232.781 84.2812ZM242.742 85.4375C242.742 85.8542 243.094 86.1113 243.797 86.209H243.934C244.194 86.209 244.36 86.1146 244.432 85.9258C244.432 85.5026 244.126 85.1738 243.514 84.9395C243.247 84.9395 242.99 85.1055 242.742 85.4375ZM243.934 83.748C244.734 83.748 245.135 84.2396 245.135 85.2227C245.135 86.7917 243.797 88.1263 241.121 89.2266C240.737 89.3438 240.691 89.2038 240.984 88.8066C241.056 88.6569 241.688 88.1882 242.879 87.4004V87.332C242.365 87.1237 242.107 86.6777 242.107 85.9941C242.446 84.4967 242.986 83.748 243.729 83.748H243.934ZM250.906 96.0098C249.91 95.9316 249.008 95.2318 248.201 93.9102C247.003 95.3685 245.285 96.0977 243.045 96.0977H242.42C239.998 96.0977 238.331 95.056 237.42 92.9727L237.342 92.5039V91.8008C237.342 91.0456 237.68 90.1862 238.357 89.2227H238.436L238.592 89.3789V89.7695L238.201 91.0195C238.201 92.3867 239.347 93.3242 241.639 93.832L243.045 93.9102C245.48 93.9102 247.407 93.0768 248.826 91.4102C248.904 91.4102 248.982 91.5143 249.061 91.7227L248.982 92.2695C249.249 93.2526 249.891 93.7474 250.906 93.7539V96.0098ZM243.25 97.5234C243.517 97.5234 244.142 97.8359 245.125 98.4609C245.125 98.8516 244.812 99.4766 244.188 100.336C242.938 99.9323 242.312 99.5677 242.312 99.2422C242.345 98.9492 242.658 98.3763 243.25 97.5234ZM253.777 75.5859C254.402 76.6536 254.715 77.6953 254.715 78.7109C254.441 80.638 254.103 81.6016 253.699 81.6016L253.621 81.5234V81.4453L253.777 80.4297V80.3516C253.777 79.7266 253.517 78.7891 252.996 77.5391V77.3828C253.257 76.1849 253.517 75.5859 253.777 75.5859ZM256.736 81.1836C256.814 81.138 256.837 81.2096 256.805 81.3984C256.362 82.4401 255.682 83.166 254.764 83.5762L251.395 85.2656C251.251 85.2266 251.225 85.1094 251.316 84.9141C251.766 84.0482 252.072 83.5339 252.234 83.3711L256.736 81.1836ZM250.682 93.7734C251.235 93.7799 251.58 93.7702 251.717 93.7441C252.889 93.3861 253.689 92.6276 254.119 91.4688C254.184 91.2474 254.314 91.2214 254.51 91.3906C254.614 91.4818 254.692 91.8464 254.744 92.4844C255.454 93.4414 256.339 93.8711 257.4 93.7734H257.605V96H257.557C255.896 95.9219 254.673 95.1667 253.885 93.7344H253.807C253.253 94.8997 252.524 95.6159 251.619 95.8828C251.346 95.9609 251.033 96 250.682 96V93.7734ZM254.871 86.9277C256.173 87.4876 256.824 87.9303 256.824 88.2559C256.746 88.5033 256.382 89.0501 255.73 89.8965C254.858 89.5579 254.233 89.1673 253.855 88.7246C254.129 87.8522 254.467 87.2533 254.871 86.9277ZM252.059 87.3184C252.384 87.3184 252.957 87.709 253.777 88.4902C253.777 88.7507 253.465 89.3236 252.84 90.209H252.684C252.358 90.209 251.863 89.8965 251.199 89.2715V89.1934C251.199 88.8809 251.486 88.2559 252.059 87.3184ZM264.295 97.9316C264.373 97.8861 264.396 97.9577 264.363 98.1465C263.921 99.1882 263.24 99.9141 262.322 100.324L258.953 102.014C258.81 101.975 258.784 101.857 258.875 101.662C259.324 100.796 259.63 100.282 259.793 100.119L264.295 97.9316ZM258.592 93.6074C259.51 93.3991 260.076 93.015 260.291 92.4551C260.382 92.1426 260.408 91.8822 260.369 91.6738C259.08 88.946 258.436 87.3477 258.436 86.8789C258.37 86.0716 258.449 85.3132 258.67 84.6035C258.891 83.8939 259.256 83.4023 259.764 83.1289L265.936 79.3789C266.092 79.418 265.89 79.9648 265.33 81.0195C264.77 82.0677 264.428 82.6178 264.305 82.6699C264.181 82.7155 264.1 82.5299 264.061 82.1133C261.652 83.6367 260.213 84.5645 259.744 84.8965C259.275 85.2285 258.995 85.5247 258.904 85.7852C259.633 87.7643 260.643 89.8477 261.932 92.0352C262.856 93.2982 264.158 93.9297 265.838 93.9297C265.949 93.9297 266.089 93.9297 266.258 93.9297V96.166L265.994 96.1758C263.715 96.1758 262.049 95.056 260.994 92.8164C260.929 92.6797 260.877 92.6536 260.838 92.7383C260.415 94.5221 259.666 95.541 258.592 95.7949C258.214 95.9121 257.827 95.9805 257.43 96V93.7637C257.866 93.7311 258.253 93.679 258.592 93.6074ZM268.348 78.9297H269.119C270.057 78.9297 270.525 79.2812 270.525 79.9844C269.92 81.625 269.184 82.4941 268.318 82.5918L267.293 82.7285C267.13 82.7285 267.062 82.6829 267.088 82.5918C267.915 82.1556 268.686 81.638 269.402 81.0391C269.148 80.8047 268.868 80.6875 268.562 80.6875H268.348L267.508 80.7559L267.439 80.6875V80.5508C267.837 79.4701 268.139 78.9297 268.348 78.9297ZM266.189 93.7637C266.281 93.7702 266.378 93.7734 266.482 93.7734H267.225C268.006 93.6432 268.605 93.3698 269.021 92.9531L268.084 85.5312C268.318 84.125 268.527 83.4219 268.709 83.4219L269.725 85.7656C269.725 86.1302 269.594 86.6771 269.334 87.4062L269.725 91.625V92.7969C269.432 94.0404 269.038 94.9095 268.543 95.4043C268.172 95.8014 267.732 96 267.225 96H266.561C266.43 96 266.307 95.9967 266.189 95.9902V93.7637ZM272.547 82.875C272.703 82.875 272.859 83.3958 273.016 84.4375L273.719 86L273.406 87.7969L273.641 92.1719V92.875C273.536 94.6589 273.276 95.7005 272.859 96L272.781 95.9219L272.859 94.75C272.859 93.6953 272.521 90.3359 271.844 84.6719C272.169 83.474 272.404 82.875 272.547 82.875ZM275.438 80.3555C275.438 80.8828 275.203 81.3288 274.734 81.6934C274.292 82.0254 273.8 82.1914 273.26 82.1914H271.141C270.88 82.1914 270.75 82.3802 270.75 82.7578C270.75 83.1549 270.757 83.3079 270.77 83.2168C270.359 82.8066 270.154 82.3835 270.154 81.9473C270.154 81.3874 270.48 81.1074 271.131 81.1074H271.434C272.43 79.7533 273.419 79.0762 274.402 79.0762C275.092 79.0762 275.438 79.5026 275.438 80.3555ZM274.295 80.3359C274.295 80.0169 274.161 79.8574 273.895 79.8574C273.419 79.8574 272.827 80.2741 272.117 81.1074H273.152C273.914 81.1074 274.295 80.8503 274.295 80.3359ZM285.623 81.1836C285.701 81.138 285.724 81.2096 285.691 81.3984C285.249 82.4401 284.568 83.166 283.65 83.5762L280.281 85.2656C280.138 85.2266 280.112 85.1094 280.203 84.9141C280.652 84.0482 280.958 83.5339 281.121 83.3711L285.623 81.1836ZM291.033 96C289.848 95.9674 288.953 95.0137 288.348 93.1387L288.27 92.5918H288.191C287.866 93.7376 287.319 94.5449 286.551 95.0137C285.431 95.5866 284.233 95.873 282.957 95.873C280.301 95.873 278.556 94.9876 277.723 93.2168L277.566 92.0449C277.566 90.5736 278.139 89.4798 279.285 88.7637L279.676 88.6855L279.754 88.9199L278.582 90.4043L278.348 90.873C278.348 92.2012 279.337 93.0866 281.316 93.5293L283.191 93.6855C285.34 93.6855 286.954 93.0345 288.035 91.7324L288.113 91.4199L287.41 82.123C287.723 81.0293 287.983 80.4824 288.191 80.4824L288.348 80.7168C288.608 87.8262 288.999 91.7715 289.52 92.5527C289.969 93.3014 290.473 93.7214 291.033 93.8125V96ZM283.582 87.9824C283.868 87.9824 284.051 88.0866 284.129 88.2949V88.4512C284.025 88.9199 283.895 89.1543 283.738 89.1543L283.426 88.9199H283.27C282.801 89.0241 282.566 89.1543 282.566 89.3105V89.3887C282.566 89.5449 282.853 89.6491 283.426 89.7012L284.91 89.623C285.639 89.8184 286.004 90.0267 286.004 90.248V90.4824C286.004 91.3678 285.405 91.8887 284.207 92.0449C283.556 92.2012 282.697 92.2793 281.629 92.2793H281.316C280.848 92.2793 280.613 92.097 280.613 91.7324L284.598 91.1855C284.598 91.1074 284.806 91.0293 285.223 90.9512V90.873C285.197 90.7168 284.988 90.6387 284.598 90.6387H282.723C282.15 90.6387 281.863 90.3522 281.863 89.7793C282.254 88.5814 282.827 87.9824 283.582 87.9824ZM296.111 96.9316C296.189 96.8861 296.212 96.9577 296.18 97.1465C295.737 98.1882 295.057 98.9141 294.139 99.3242L290.77 101.014C290.626 100.975 290.6 100.857 290.691 100.662C291.141 99.7962 291.447 99.2819 291.609 99.1191L296.111 96.9316ZM290.799 93.7637C290.89 93.7702 290.988 93.7734 291.092 93.7734H291.834C292.615 93.6432 293.214 93.3698 293.631 92.9531L292.693 85.5312C292.928 84.125 293.136 83.4219 293.318 83.4219L294.334 85.7656C294.334 86.1302 294.204 86.6771 293.943 87.4062L294.334 91.625V92.7969C294.041 94.0404 293.647 94.9095 293.152 95.4043C292.781 95.8014 292.342 96 291.834 96H291.17C291.04 96 290.916 95.9967 290.799 95.9902V93.7637ZM298.562 74.5859C299.188 75.6536 299.5 76.6953 299.5 77.7109C299.227 79.638 298.888 80.6016 298.484 80.6016L298.406 80.5234V80.4453L298.562 79.4297V79.3516C298.562 78.7266 298.302 77.7891 297.781 76.5391V76.3828C298.042 75.1849 298.302 74.5859 298.562 74.5859ZM301.521 80.1836C301.6 80.138 301.622 80.2096 301.59 80.3984C301.147 81.4401 300.467 82.166 299.549 82.5762L296.18 84.2656C296.036 84.2266 296.01 84.1094 296.102 83.9141C296.551 83.0482 296.857 82.5339 297.02 82.3711L301.521 80.1836ZM298.396 84.9844C299.035 85.0885 299.66 85.4792 300.271 86.1562V86.3125C299.881 87.3542 299.594 87.875 299.412 87.875C298.162 87.4453 297.537 87.1068 297.537 86.8594C297.537 86.3776 297.824 85.7526 298.396 84.9844ZM298.631 88.6562C301.287 89.6068 302.615 90.7786 302.615 92.1719L302.693 92.6406C302.472 94.4635 301.873 95.375 300.896 95.375C300.896 95.5443 299.594 95.7526 296.99 96L296.912 95.7656C296.912 94.4635 297.146 93.8125 297.615 93.8125C300.219 93.6042 301.652 93.2917 301.912 92.875C301.014 92.0026 299.842 91.2995 298.396 90.7656L298.318 90.375C298.357 89.2292 298.462 88.6562 298.631 88.6562Z" fill="black"/>
<g clip-path="url(#clip0_2001_2455)">
<path d="M344.078 34.6219V27.9766C344.078 27.3941 343.606 26.9219 343.023 26.9219H336.378L331.744 22.3073C331.333 21.8976 330.667 21.8976 330.256 22.3073L325.622 26.9219H318.977C318.394 26.9219 317.922 27.3941 317.922 27.9766V34.6219L313.307 39.2558C312.898 39.6674 312.898 40.3327 313.307 40.7443L317.922 45.3781V52.0234C317.922 52.6059 318.394 53.0781 318.977 53.0781H325.622L330.256 57.6927C330.462 57.8976 330.731 58 331 58C331.269 58 331.538 57.8976 331.744 57.6927L336.378 53.0781H343.023C343.606 53.0781 344.078 52.6059 344.078 52.0234V45.3781L348.693 40.7443C349.102 40.3327 349.102 39.6674 348.693 39.2558L344.078 34.6219ZM342.276 44.1983C342.079 44.396 341.969 44.6635 341.969 44.9425V50.9688H335.943C335.664 50.9688 335.396 51.0793 335.198 51.2761L331 55.4569L326.802 51.2761C326.604 51.0793 326.336 50.9688 326.058 50.9688H320.031V44.9425C320.031 44.6636 319.921 44.396 319.724 44.1984L315.543 40L319.724 35.8017C319.921 35.604 320.031 35.3365 320.031 35.0575V29.0312H326.057C326.336 29.0312 326.604 28.9207 326.802 28.7239L331 24.5431L335.198 28.7239C335.396 28.9207 335.664 29.0312 335.943 29.0312H341.969V35.0575C341.969 35.3364 342.079 35.604 342.276 35.8016L346.457 40L342.276 44.1983Z" fill="#03AA77"/>
</g>
<path d="M324.908 39.764C324.908 38.1493 325.179 36.8893 325.72 35.984C326.271 35.0693 327.214 34.612 328.548 34.612C329.883 34.612 330.821 35.0693 331.362 35.984C331.913 36.8893 332.188 38.1493 332.188 39.764C332.188 41.3973 331.913 42.676 331.362 43.6C330.821 44.5147 329.883 44.972 328.548 44.972C327.214 44.972 326.271 44.5147 325.72 43.6C325.179 42.676 324.908 41.3973 324.908 39.764ZM330.62 39.764C330.62 39.008 330.569 38.3687 330.466 37.846C330.373 37.3233 330.177 36.8987 329.878 36.572C329.58 36.236 329.136 36.068 328.548 36.068C327.96 36.068 327.517 36.236 327.218 36.572C326.92 36.8987 326.719 37.3233 326.616 37.846C326.523 38.3687 326.476 39.008 326.476 39.764C326.476 40.548 326.523 41.206 326.616 41.738C326.71 42.27 326.906 42.6993 327.204 43.026C327.512 43.3527 327.96 43.516 328.548 43.516C329.136 43.516 329.58 43.3527 329.878 43.026C330.186 42.6993 330.387 42.27 330.48 41.738C330.574 41.206 330.62 40.548 330.62 39.764ZM333.667 36.25V34.794H336.579V45H334.969V36.25H333.667Z" fill="#240F4F"/>
<line x1="84" y1="64.5" x2="307" y2="64.5" stroke="#EBEDEF"/>
<path d="M28.9858 44.92C29.0658 44.92 29.1058 44.956 29.1058 45.028V45.88C29.1058 45.96 29.0658 46 28.9858 46C27.6738 46 26.4818 45.648 25.4098 44.944C24.4898 45.44 23.9138 45.788 23.6818 45.988C23.3778 46.252 23.2258 46.544 23.2258 46.864C23.2258 47.288 23.4378 47.624 23.8618 47.872C24.2938 48.128 24.8778 48.256 25.6138 48.256C26.4458 48.256 27.3458 48.108 28.3138 47.812L28.6018 48.688C27.4738 49.096 26.4458 49.3 25.5178 49.3C24.5258 49.3 23.7338 49.088 23.1418 48.664C22.5578 48.248 22.2658 47.684 22.2658 46.972C22.2658 46.452 22.4378 46.02 22.7818 45.676C23.1258 45.332 23.6698 44.964 24.4138 44.572C23.9338 44.02 23.5338 43.516 23.2138 43.06C22.9018 42.596 22.5538 42 22.1698 41.272L22.5658 40.348C23.6938 39.772 24.7018 39.484 25.5898 39.484C26.3898 39.484 27.0538 39.7 27.5818 40.132C28.1178 40.556 28.3858 41.092 28.3858 41.74C28.3858 42.676 27.7138 43.564 26.3698 44.404C27.1938 44.748 28.0658 44.92 28.9858 44.92ZM25.4338 40.516C24.8098 40.508 24.0818 40.696 23.2498 41.08C23.8578 42.248 24.5418 43.26 25.3018 44.116C26.6698 43.364 27.3538 42.684 27.3538 42.076C27.3538 41.612 27.1778 41.236 26.8258 40.948C26.4738 40.66 26.0098 40.516 25.4338 40.516ZM32.0963 38.308L31.2203 39.172L30.3443 38.308L31.2203 37.444L32.0963 38.308ZM34.0043 38.308L33.1283 39.172L32.2403 38.308L33.1283 37.444L34.0043 38.308ZM32.2643 40.18C33.0323 40.18 33.6763 40.444 34.1963 40.972C34.7163 41.492 34.9763 42.144 34.9763 42.928C34.9763 43.888 34.6763 44.64 34.0763 45.184C33.4843 45.728 32.6643 46 31.6163 46H28.9883C28.9083 46 28.8683 45.96 28.8683 45.88V45.028C28.8683 44.956 28.9083 44.92 28.9883 44.92H30.0203C29.6603 44.176 29.4803 43.528 29.4803 42.976C29.4803 42.168 29.7403 41.5 30.2603 40.972C30.7883 40.444 31.4563 40.18 32.2643 40.18ZM31.7003 44.92C32.3883 44.92 32.9363 44.748 33.3443 44.404C33.7523 44.06 33.9563 43.58 33.9563 42.964C33.9563 42.452 33.7883 42.032 33.4523 41.704C33.1243 41.368 32.7083 41.2 32.2043 41.2C31.7243 41.2 31.3163 41.38 30.9803 41.74C30.6443 42.092 30.4763 42.508 30.4763 42.988C30.4763 43.564 30.6763 44.208 31.0763 44.92H31.7003ZM41.9842 44.92C42.0642 44.92 42.1042 44.956 42.1042 45.028V45.88C42.1042 45.96 42.0642 46 41.9842 46H41.2762C41.1322 47.72 39.6442 48.58 36.8122 48.58L36.6922 47.704C37.8042 47.704 38.6562 47.568 39.2482 47.296C39.8402 47.024 40.1762 46.592 40.2562 46H38.8162C37.9682 46 37.2882 45.744 36.7762 45.232C36.2642 44.712 36.0082 44.016 36.0082 43.144C36.0082 42.288 36.2682 41.588 36.7882 41.044C37.3162 40.5 37.9802 40.228 38.7802 40.228C39.5242 40.228 40.1282 40.476 40.5922 40.972C41.0562 41.46 41.2882 42.108 41.2882 42.916V44.92H41.9842ZM36.9562 43.096C36.9562 43.696 37.1362 44.156 37.4962 44.476C37.8562 44.796 38.3402 44.956 38.9482 44.956C39.2042 44.956 39.6442 44.948 40.2682 44.932V43C40.2682 42.48 40.1202 42.064 39.8242 41.752C39.5362 41.432 39.1562 41.272 38.6842 41.272C38.1882 41.272 37.7762 41.44 37.4482 41.776C37.1202 42.112 36.9562 42.552 36.9562 43.096ZM44.1924 39.592L43.3164 40.456L42.4404 39.592L43.3164 38.728L44.1924 39.592ZM46.1004 39.592L45.2244 40.456L44.3364 39.592L45.2244 38.728L46.1004 39.592ZM46.4964 44.92C46.5764 44.92 46.6164 44.956 46.6164 45.028V45.88C46.6164 45.96 46.5764 46 46.4964 46C45.7524 46 45.0644 45.708 44.4324 45.124C44.0004 45.708 43.1844 46 41.9844 46C41.9044 46 41.8644 45.96 41.8644 45.88L41.8764 45.028C41.8764 44.956 41.9164 44.92 41.9964 44.92C42.6364 44.92 43.1004 44.804 43.3884 44.572C43.6844 44.332 43.8324 43.948 43.8324 43.42V41.476L44.8404 41.32V43.696C44.8404 43.896 44.8204 44.104 44.7804 44.32C45.3164 44.72 45.8884 44.92 46.4964 44.92ZM49.7721 40.18C50.5401 40.18 51.1841 40.444 51.7041 40.972C52.2241 41.492 52.4841 42.144 52.4841 42.928C52.4841 43.888 52.1841 44.64 51.5841 45.184C50.9921 45.728 50.1721 46 49.1241 46H46.4961C46.4161 46 46.3761 45.96 46.3761 45.88V45.028C46.3761 44.956 46.4161 44.92 46.4961 44.92H47.5281C47.1681 44.176 46.9881 43.528 46.9881 42.976C46.9881 42.168 47.2481 41.5 47.7681 40.972C48.2961 40.444 48.9641 40.18 49.7721 40.18ZM49.2081 44.92C49.8961 44.92 50.4441 44.748 50.8521 44.404C51.2601 44.06 51.4641 43.58 51.4641 42.964C51.4641 42.452 51.2961 42.032 50.9601 41.704C50.6321 41.368 50.2161 41.2 49.7121 41.2C49.2321 41.2 48.8241 41.38 48.4881 41.74C48.1521 42.092 47.9841 42.508 47.9841 42.988C47.9841 43.564 48.1841 44.208 48.5841 44.92H49.2081Z" fill="#BCBDBF"/>
<path d="M19.6288 94.92C19.7088 94.92 19.7488 94.956 19.7488 95.028V95.88C19.7488 95.96 19.7088 96 19.6288 96C18.8928 96 18.3488 95.828 17.9968 95.484C17.1888 95.9 16.4648 96.108 15.8248 96.108C15.0168 96.108 14.3528 95.832 13.8328 95.28C13.3208 94.728 13.0648 94.044 13.0648 93.228C13.0648 92.396 13.3248 91.688 13.8448 91.104C14.3648 90.52 15.0248 90.228 15.8248 90.228C16.3128 90.228 16.8488 90.34 17.4328 90.564V89.82L18.4408 89.652L18.4528 93.576C18.4528 94.056 18.5448 94.4 18.7288 94.608C18.9128 94.816 19.2128 94.92 19.6288 94.92ZM15.8248 95.076C16.3608 95.084 16.9368 94.948 17.5528 94.668C17.4728 94.396 17.4328 94.064 17.4328 93.672V91.584C16.7848 91.368 16.2608 91.26 15.8608 91.26C15.3248 91.26 14.8848 91.448 14.5408 91.824C14.2048 92.2 14.0368 92.664 14.0368 93.216C14.0368 93.744 14.2008 94.184 14.5288 94.536C14.8648 94.888 15.2968 95.068 15.8248 95.076ZM21.5129 89.1L20.6369 88.224L21.5129 87.36L22.3889 88.224L21.5129 89.1ZM23.4209 89.1L22.5329 88.224L23.4209 87.36L24.2969 88.224L23.4209 89.1ZM19.6289 96C19.5489 96 19.5089 95.96 19.5089 95.88L19.5209 95.028C19.5209 94.956 19.5609 94.92 19.6409 94.92H20.5529C21.5529 94.92 22.0529 94.42 22.0529 93.42V90.204L23.0609 90.036V93.696C23.0609 94.432 22.8489 95 22.4249 95.4C22.0009 95.8 21.3729 96 20.5409 96H19.6289ZM27.3935 90.228C28.1375 90.228 28.7415 90.476 29.2055 90.972C29.6695 91.46 29.9015 92.108 29.9015 92.916V95.724C29.9015 97.628 28.4095 98.58 25.4255 98.58L25.3055 97.704C26.5135 97.704 27.4135 97.54 28.0055 97.212C28.5975 96.892 28.8935 96.38 28.8935 95.676V95.652C28.3815 95.884 27.8855 96 27.4055 96C26.5735 96 25.9015 95.744 25.3895 95.232C24.8775 94.712 24.6215 94.016 24.6215 93.144C24.6215 92.288 24.8815 91.588 25.4015 91.044C25.9295 90.5 26.5935 90.228 27.3935 90.228ZM27.5375 94.956C28.0095 94.956 28.4615 94.88 28.8935 94.728V93C28.8935 92.488 28.7455 92.072 28.4495 91.752C28.1535 91.432 27.7695 91.272 27.2975 91.272C26.8015 91.272 26.3895 91.44 26.0615 91.776C25.7335 92.112 25.5695 92.552 25.5695 93.096C25.5695 93.712 25.7455 94.18 26.0975 94.5C26.4495 94.82 26.9295 94.972 27.5375 94.956ZM39.0803 95.028L39.0923 95.88C39.0923 95.96 39.0523 96 38.9723 96C38.1163 96 37.4723 95.792 37.0403 95.376C36.6643 95.56 36.1803 95.712 35.5883 95.832C35.0043 95.944 34.4803 96 34.0163 96H31.0522L30.8603 94.92H33.7043L32.5043 89.064L33.5123 88.812L34.6523 94.896C35.3323 94.848 35.9763 94.74 36.5843 94.572C36.4963 94.268 36.4523 93.944 36.4523 93.6L36.4403 87.396L37.4603 87.24V93.36C37.4603 94.4 37.9603 94.92 38.9603 94.92C39.0403 94.92 39.0803 94.956 39.0803 95.028ZM40.8606 89.1L39.9846 88.224L40.8606 87.36L41.7366 88.224L40.8606 89.1ZM42.7686 89.1L41.8806 88.224L42.7686 87.36L43.6446 88.224L42.7686 89.1ZM38.9766 96C38.8966 96 38.8566 95.96 38.8566 95.88L38.8686 95.028C38.8686 94.956 38.9086 94.92 38.9886 94.92H39.9006C40.9006 94.92 41.4006 94.42 41.4006 93.42V90.204L42.4086 90.036V93.696C42.4086 94.432 42.1966 95 41.7726 95.4C41.3486 95.8 40.7206 96 39.8886 96H38.9766ZM54.5679 94.92C54.6479 94.92 54.6879 94.956 54.6879 95.028V95.88C54.6879 95.96 54.6479 96 54.5679 96H51.6879C50.9279 96 50.2839 95.82 49.7559 95.46C49.2279 95.1 48.8759 94.592 48.6999 93.936C48.0919 94.048 47.7879 94.48 47.7879 95.232V99.084L46.7799 99.24L46.7679 95.1C46.7679 93.764 47.3719 93.02 48.5799 92.868C48.5959 92.092 48.8559 91.452 49.3599 90.948C49.8719 90.436 50.5199 90.18 51.3039 90.18C52.0399 90.18 52.6639 90.448 53.1759 90.984C53.6959 91.512 53.9559 92.136 53.9559 92.856C53.9559 93.432 53.8079 94.12 53.5119 94.92H54.5679ZM51.6039 94.92H52.6119C52.8919 94.168 53.0319 93.536 53.0319 93.024C53.0319 92.536 52.8719 92.108 52.5519 91.74C52.2319 91.372 51.8359 91.188 51.3639 91.188C50.8279 91.188 50.3999 91.356 50.0799 91.692C49.7599 92.02 49.5999 92.456 49.5999 93C49.5999 93.576 49.7799 94.04 50.1399 94.392C50.4999 94.744 50.9879 94.92 51.6039 94.92ZM56.4582 89.1L55.5822 88.224L56.4582 87.36L57.3342 88.224L56.4582 89.1ZM58.3662 89.1L57.4782 88.224L58.3662 87.36L59.2422 88.224L58.3662 89.1ZM54.5742 96C54.4942 96 54.4542 95.96 54.4542 95.88L54.4662 95.028C54.4662 94.956 54.5062 94.92 54.5862 94.92H55.4982C56.4982 94.92 56.9982 94.42 56.9982 93.42V90.204L58.0062 90.036V93.696C58.0062 94.432 57.7942 95 57.3702 95.4C56.9462 95.8 56.3182 96 55.4862 96H54.5742ZM65.4976 96C63.8176 96 62.9776 95.2 62.9776 93.6L62.9656 87.396L63.9856 87.24V93.36C63.9856 94.4 64.4856 94.92 65.4856 94.92C65.5656 94.92 65.6056 94.956 65.6056 95.028L65.6176 95.88C65.6176 95.96 65.5776 96 65.4976 96ZM68.7721 90.18C69.5401 90.18 70.1841 90.444 70.7041 90.972C71.2241 91.492 71.4841 92.144 71.4841 92.928C71.4841 93.888 71.1841 94.64 70.5841 95.184C69.9921 95.728 69.1721 96 68.1241 96H65.4961C65.4161 96 65.3761 95.96 65.3761 95.88V95.028C65.3761 94.956 65.4161 94.92 65.4961 94.92H66.5281C66.1681 94.176 65.9881 93.528 65.9881 92.976C65.9881 92.168 66.2481 91.5 66.7681 90.972C67.2961 90.444 67.9641 90.18 68.7721 90.18ZM68.2081 94.92C68.8961 94.92 69.4441 94.748 69.8521 94.404C70.2601 94.06 70.4641 93.58 70.4641 92.964C70.4641 92.452 70.2961 92.032 69.9601 91.704C69.6321 91.368 69.2161 91.2 68.7121 91.2C68.2321 91.2 67.8241 91.38 67.4881 91.74C67.1521 92.092 66.9841 92.508 66.9841 92.988C66.9841 93.564 67.1841 94.208 67.5841 94.92H68.2081Z" fill="#BCBDBF"/>
<defs>
<clipPath id="clip0_2001_2455">
<rect width="36" height="36" fill="white" transform="translate(313 22)"/>
</clipPath>
</defs>
</svg>
