<svg width="339" height="227" viewBox="0 0 339 227" fill="none" xmlns="http://www.w3.org/2000/svg">
<path d="M278.144 222V213.16H281.329C282.759 213.16 283.89 213.572 284.722 214.395C285.554 215.218 285.97 216.28 285.97 217.58C285.97 218.889 285.554 219.955 284.722 220.778C283.89 221.593 282.759 222 281.329 222H278.144ZM281.316 220.973C282.373 220.973 283.205 220.67 283.812 220.063C284.427 219.456 284.735 218.629 284.735 217.58C284.735 216.54 284.427 215.717 283.812 215.11C283.197 214.495 282.365 214.187 281.316 214.187H279.353V220.973H281.316Z" fill="#544C4C"/>
<path d="M253.249 214.98V222H252.144V213.16H253.34L258.657 220.141V213.238L259.775 213.069V222H258.579L253.249 214.98Z" fill="#544C4C"/>
<path d="M234.736 220.843C233.895 221.701 232.76 222.13 231.33 222.13C229.9 222.13 228.76 221.701 227.911 220.843C227.07 219.985 226.65 218.897 226.65 217.58C226.65 216.271 227.07 215.188 227.911 214.33C228.76 213.463 229.9 213.03 231.33 213.03C232.76 213.03 233.895 213.463 234.736 214.33C235.585 215.188 236.01 216.271 236.01 217.58C236.01 218.897 235.585 219.985 234.736 220.843ZM231.33 214.057C230.281 214.057 229.445 214.382 228.821 215.032C228.197 215.682 227.885 216.531 227.885 217.58C227.885 218.637 228.197 219.491 228.821 220.141C229.445 220.782 230.281 221.103 231.33 221.103C232.387 221.103 233.224 220.782 233.839 220.141C234.463 219.491 234.775 218.637 234.775 217.58C234.775 216.531 234.463 215.682 233.839 215.032C233.224 214.382 232.387 214.057 231.33 214.057Z" fill="#544C4C"/>
<path d="M203.611 220.219C204.504 220.808 205.509 221.103 206.627 221.103C207.234 221.103 207.745 220.99 208.161 220.765C208.577 220.54 208.785 220.171 208.785 219.66C208.785 219.365 208.69 219.11 208.499 218.893C208.317 218.676 208.079 218.503 207.784 218.373C207.489 218.243 207.16 218.122 206.796 218.009C206.441 217.896 206.081 217.771 205.717 217.632C205.362 217.493 205.037 217.337 204.742 217.164C204.447 216.982 204.205 216.739 204.014 216.436C203.832 216.124 203.741 215.76 203.741 215.344C203.741 214.564 204.027 213.983 204.599 213.602C205.171 213.221 205.886 213.03 206.744 213.03C207.819 213.03 208.841 213.294 209.812 213.823L209.63 214.902C208.737 214.339 207.819 214.057 206.874 214.057C205.609 214.057 204.976 214.469 204.976 215.292C204.976 215.561 205.067 215.795 205.249 215.994C205.44 216.193 205.682 216.354 205.977 216.475C206.272 216.588 206.597 216.7 206.952 216.813C207.316 216.917 207.676 217.038 208.031 217.177C208.395 217.316 208.724 217.48 209.019 217.671C209.314 217.853 209.552 218.109 209.734 218.438C209.925 218.759 210.02 219.136 210.02 219.569C210.02 220.436 209.704 221.081 209.071 221.506C208.447 221.922 207.676 222.13 206.757 222.13C205.561 222.13 204.512 221.866 203.611 221.337V220.219Z" fill="#544C4C"/>
<path d="M182.8 222.091L181.916 219.933H177.353L176.508 222H175.26L178.952 213.173L180.33 213.004L184.009 221.909L182.8 222.091ZM177.769 218.919H181.5L179.628 214.356L177.769 218.919Z" fill="#544C4C"/>
<path d="M156.421 213.16V219.309C156.421 220.21 156.148 220.908 155.602 221.402C155.056 221.887 154.28 222.13 153.275 222.13C152.573 222.13 151.858 222.035 151.13 221.844L151.299 220.843C151.819 221.016 152.443 221.103 153.171 221.103C153.778 221.103 154.267 220.96 154.64 220.674C155.021 220.379 155.212 219.92 155.212 219.296V214.187H152.521V213.16H156.421Z" fill="#544C4C"/>
<path d="M131.421 213.16V219.309C131.421 220.21 131.148 220.908 130.602 221.402C130.056 221.887 129.28 222.13 128.275 222.13C127.573 222.13 126.858 222.035 126.13 221.844L126.299 220.843C126.819 221.016 127.443 221.103 128.171 221.103C128.778 221.103 129.267 220.96 129.64 220.674C130.021 220.379 130.212 219.92 130.212 219.296V214.187H127.521V213.16H131.421Z" fill="#544C4C"/>
<path d="M105.071 219.881H104.33L101.249 215.24V222H100.144V213.16H101.34L104.759 218.36L108.191 213.16H109.374V221.909L108.165 222.091V215.24L105.071 219.881Z" fill="#544C4C"/>
<path d="M81.8 222.091L80.916 219.933H76.353L75.508 222H74.26L77.952 213.173L79.33 213.004L83.009 221.909L81.8 222.091ZM76.769 218.919H80.5L78.628 214.356L76.769 218.919Z" fill="#544C4C"/>
<path d="M53.071 219.881H52.33L49.249 215.24V222H48.144V213.16H49.34L52.759 218.36L56.191 213.16H57.374V221.909L56.165 222.091V215.24L53.071 219.881Z" fill="#544C4C"/>
<path d="M26.144 222V213.16H32.241V214.187H27.353V217.307H31.799L31.981 218.334H27.353V222H26.144Z" fill="#544C4C"/>
<path d="M5.421 213.16V219.309C5.421 220.21 5.148 220.908 4.602 221.402C4.056 221.887 3.28033 222.13 2.275 222.13C1.573 222.13 0.858 222.035 0.13 221.844L0.299 220.843C0.819 221.016 1.443 221.103 2.171 221.103C2.77767 221.103 3.26733 220.96 3.64 220.674C4.02133 220.379 4.212 219.92 4.212 219.296V214.187H1.521V213.16H5.421Z" fill="#544C4C"/>
<rect x="277" width="7" height="203" rx="3.5" fill="#544C4C"/>
<rect x="277" y="185" width="7" height="18" rx="3.5" fill="#09F9BF"/>
<rect width="7" height="37" rx="3.5" transform="matrix(1 0 0 -1 277 185)" fill="#03A9F1"/>
<rect x="277" y="33" width="7" height="115" rx="3.5" fill="#E42C64"/>
<rect x="252" width="7" height="203" rx="3.5" fill="#544C4C"/>
<rect x="252" y="185" width="7" height="18" rx="3.5" fill="#09F9BF"/>
<rect width="7" height="37" rx="3.5" transform="matrix(1 0 0 -1 252 185)" fill="#03A9F1"/>
<rect x="252" y="33" width="7" height="115" rx="3.5" fill="#E42C64"/>
<rect x="226" width="7" height="203" rx="3.5" fill="#544C4C"/>
<rect x="226" y="130" width="7" height="73" rx="3.5" fill="#09F9BF"/>
<rect width="7" height="62" rx="3.5" transform="matrix(1 0 0 -1 226 130)" fill="#03A9F1"/>
<rect x="226" y="51" width="7" height="17" rx="3.5" fill="#E42C64"/>
<rect x="201" width="7" height="203" rx="3.5" fill="#544C4C"/>
<rect x="201" y="130" width="7" height="73" rx="3.5" fill="#09F9BF"/>
<rect width="7" height="62" rx="3.5" transform="matrix(1 0 0 -1 201 130)" fill="#03A9F1"/>
<rect x="201" y="51" width="7" height="17" rx="3.5" fill="#E42C64"/>
<rect x="176" width="7" height="203" rx="3.5" fill="#544C4C"/>
<rect x="176" y="185" width="7" height="18" rx="3.5" fill="#09F9BF"/>
<rect width="7" height="37" rx="3.5" transform="matrix(1 0 0 -1 176 185)" fill="#03A9F1"/>
<rect x="176" y="33" width="7" height="115" rx="3.5" fill="#E42C64"/>
<rect x="151" width="7" height="203" rx="3.5" fill="#544C4C"/>
<rect x="151" y="130" width="7" height="73" rx="3.5" fill="#09F9BF"/>
<rect width="7" height="62" rx="3.5" transform="matrix(1 0 0 -1 151 130)" fill="#03A9F1"/>
<rect x="151" y="51" width="7" height="17" rx="3.5" fill="#E42C64"/>
<rect x="126" width="7" height="203" rx="3.5" fill="#544C4C"/>
<rect x="126" y="78" width="7" height="125" rx="3.5" fill="#09F9BF"/>
<rect width="7" height="54" rx="3.5" transform="matrix(1 0 0 -1 126 78)" fill="#03A9F1"/>
<rect x="101" width="7" height="203" rx="3.5" fill="#544C4C"/>
<rect x="101" y="106" width="7" height="97" rx="3.5" fill="#09F9BF"/>
<rect width="7" height="13" rx="3.5" transform="matrix(1 0 0 -1 101 106)" fill="#03A9F1"/>
<rect x="101" y="14" width="7" height="79" rx="3.5" fill="#E42C64"/>
<rect x="75" width="7" height="203" rx="3.5" fill="#544C4C"/>
<rect x="75" y="78" width="7" height="125" rx="3.5" fill="#09F9BF"/>
<rect width="7" height="54" rx="3.5" transform="matrix(1 0 0 -1 75 78)" fill="#03A9F1"/>
<rect x="50" width="7" height="203" rx="3.5" fill="#544C4C"/>
<rect x="50" y="106" width="7" height="97" rx="3.5" fill="#09F9BF"/>
<rect width="7" height="13" rx="3.5" transform="matrix(1 0 0 -1 50 106)" fill="#03A9F1"/>
<rect x="50" y="14" width="7" height="79" rx="3.5" fill="#E42C64"/>
<rect x="25" width="7" height="203" rx="3.5" fill="#544C4C"/>
<rect x="25" y="106" width="7" height="97" rx="3.5" fill="#09F9BF"/>
<rect width="7" height="13" rx="3.5" transform="matrix(1 0 0 -1 25 106)" fill="#03A9F1"/>
<rect x="25" y="14" width="7" height="79" rx="3.5" fill="#E42C64"/>
<rect width="7" height="203" rx="3.5" fill="#544C4C"/>
<rect y="130" width="7" height="73" rx="3.5" fill="#09F9BF"/>
<rect width="7" height="62" rx="3.5" transform="matrix(1 0 0 -1 0 130)" fill="#03A9F1"/>
<rect y="51" width="7" height="17" rx="3.5" fill="#E42C64"/>
<path d="M302.821 71.83H306.305L306.006 73H300.364V71.83H301.885C301.478 71.154 301.274 70.5083 301.274 69.893C301.274 69.2343 301.508 68.6883 301.976 68.255C302.444 67.813 303.02 67.592 303.705 67.592C304.277 67.592 304.983 67.7523 305.824 68.073L305.512 69.022C304.862 68.788 304.32 68.671 303.887 68.671C303.393 68.671 302.999 68.8053 302.704 69.074C302.418 69.334 302.266 69.6937 302.249 70.153C302.223 70.6383 302.414 71.1973 302.821 71.83ZM310.513 73C308.693 73 307.783 72.1333 307.783 70.4L307.77 63.679L308.875 63.51V70.14C308.875 71.2667 309.417 71.83 310.5 71.83C310.587 71.83 310.63 71.869 310.63 71.947L310.643 72.87C310.643 72.9567 310.6 73 310.513 73ZM322.407 71.83C322.493 71.83 322.537 71.869 322.537 71.947V72.87C322.537 72.9567 322.493 73 322.407 73C321.644 73 320.942 72.7053 320.301 72.116C319.833 72.7053 319.074 73 318.026 73H312.904H311.799H310.512C310.425 73 310.382 72.9567 310.382 72.87V71.947C310.399 71.869 310.442 71.83 310.512 71.83H311.799V63.679L312.904 63.51V66.539V68.099C314.256 67.5183 315.274 67.124 315.959 66.916C316.652 66.6993 317.324 66.591 317.974 66.591C318.797 66.591 319.473 66.8553 320.002 67.384C320.539 67.904 320.803 68.5757 320.795 69.399V70.504C320.795 70.7293 320.764 70.9763 320.704 71.245C321.258 71.635 321.826 71.83 322.407 71.83ZM319.69 70.309V69.555C319.69 69.009 319.508 68.5713 319.144 68.242C318.78 67.904 318.312 67.735 317.74 67.735C317.159 67.735 316.587 67.8173 316.024 67.982C315.46 68.138 314.42 68.4977 312.904 69.061V71.83H318.039C318.567 71.83 318.975 71.7 319.261 71.44C319.547 71.18 319.69 70.803 319.69 70.309ZM327.035 64.901L326.086 65.85L325.124 64.901L326.06 63.965L327.035 64.901ZM324.695 66.864C325.259 66.864 325.852 67.0503 326.476 67.423C327.109 67.7957 328.166 68.5973 329.648 69.828L329.479 70.907C328.127 71.6263 326.897 72.155 325.787 72.493C324.687 72.831 323.564 73 322.42 73C322.325 73 322.277 72.9567 322.277 72.87V71.947C322.277 71.869 322.325 71.83 322.42 71.83C324.422 71.83 326.455 71.3273 328.517 70.322C327.399 69.386 326.572 68.7663 326.034 68.463C325.506 68.1597 325.003 68.008 324.526 68.008C324.327 68.008 323.902 68.0773 323.252 68.216L323.031 67.228C323.673 66.9853 324.227 66.864 324.695 66.864ZM331.649 63.731H333.339L333.157 64.472H330.219V63.731H330.934C330.795 63.5057 330.726 63.2543 330.726 62.977C330.726 62.6563 330.834 62.392 331.051 62.184C331.276 61.9673 331.558 61.859 331.896 61.859C332.199 61.859 332.537 61.9413 332.91 62.106V62.743C332.607 62.613 332.329 62.548 332.078 62.548C331.887 62.548 331.731 62.6 331.61 62.704C331.489 62.808 331.428 62.9467 331.428 63.12C331.428 63.3713 331.502 63.575 331.649 63.731ZM331.207 73V65.33L332.312 65.161V73H331.207Z" fill="#544C4C"/>
<ellipse cx="317" cy="50.5" rx="7" ry="7.5" transform="rotate(-180 317 50.5)" fill="#E42C64"/>
<path d="M301.367 111.576L300.418 112.512L299.469 111.576L300.418 110.64L301.367 111.576ZM303.434 111.576L302.485 112.512L301.523 111.576L302.485 110.64L303.434 111.576ZM305.579 118.83C305.666 118.83 305.709 118.869 305.709 118.947V119.87C305.709 119.957 305.666 120 305.579 120C304.782 120 304.192 119.814 303.811 119.441C302.936 119.892 302.151 120.117 301.458 120.117C300.583 120.117 299.863 119.818 299.3 119.22C298.745 118.622 298.468 117.881 298.468 116.997C298.468 116.096 298.75 115.329 299.313 114.696C299.876 114.063 300.591 113.747 301.458 113.747C301.987 113.747 302.567 113.868 303.2 114.111V113.305L304.292 113.123L304.305 117.374C304.305 117.894 304.405 118.267 304.604 118.492C304.803 118.717 305.128 118.83 305.579 118.83ZM301.458 118.999C302.039 119.008 302.663 118.86 303.33 118.557C303.243 118.262 303.2 117.903 303.2 117.478V115.216C302.498 114.982 301.93 114.865 301.497 114.865C300.916 114.865 300.44 115.069 300.067 115.476C299.703 115.883 299.521 116.386 299.521 116.984C299.521 117.556 299.699 118.033 300.054 118.414C300.418 118.795 300.886 118.99 301.458 118.999ZM313.366 118.83C313.453 118.83 313.496 118.869 313.496 118.947V119.87C313.496 119.957 313.453 120 313.366 120C311.849 120 310.627 119.77 309.7 119.311C309.119 119.571 308.521 119.753 307.906 119.857C307.291 119.952 306.515 120 305.579 120C305.492 119.991 305.449 119.948 305.449 119.87V118.947C305.449 118.869 305.492 118.83 305.579 118.83C306.472 118.83 307.351 118.752 308.218 118.596C307.759 118.05 307.369 117.539 307.048 117.062C306.727 116.577 306.372 115.966 305.982 115.229L306.398 114.228C307.611 113.604 308.708 113.292 309.687 113.292C310.554 113.292 311.273 113.522 311.845 113.981C312.417 114.44 312.703 115.025 312.703 115.736C312.703 116.23 312.551 116.733 312.248 117.244C311.945 117.747 311.498 118.206 310.909 118.622C311.602 118.761 312.421 118.83 313.366 118.83ZM309.505 114.41C308.829 114.401 308.045 114.605 307.152 115.021C307.533 115.758 307.889 116.373 308.218 116.867C308.556 117.352 308.968 117.868 309.453 118.414C310.077 118.111 310.584 117.742 310.974 117.309C311.373 116.876 311.572 116.473 311.572 116.1C311.572 115.597 311.381 115.19 311 114.878C310.627 114.566 310.129 114.41 309.505 114.41ZM315.675 113.864C316.238 113.864 316.832 114.05 317.456 114.423C318.088 114.796 319.146 115.597 320.628 116.828L320.459 117.907C319.107 118.626 317.876 119.155 316.767 119.493C315.666 119.831 314.544 120 313.4 120C313.304 120 313.257 119.957 313.257 119.87V118.947C313.257 118.869 313.304 118.83 313.4 118.83C315.402 118.83 317.434 118.327 319.497 117.322C318.379 116.386 317.551 115.766 317.014 115.463C316.485 115.16 315.982 115.008 315.506 115.008C315.306 115.008 314.882 115.077 314.232 115.216L314.011 114.228C314.652 113.985 315.207 113.864 315.675 113.864ZM316.13 121.898L317.066 120.949L318.041 121.898L317.092 122.834L316.13 121.898ZM322.148 120V110.679L323.253 110.51V120H322.148ZM328.828 118.83C328.915 118.83 328.958 118.869 328.958 118.947V119.87C328.958 119.957 328.915 120 328.828 120C328.161 120 327.671 119.77 327.359 119.311V119.649C327.359 120.732 327.082 121.525 326.527 122.028C325.973 122.539 325.141 122.795 324.031 122.795L323.927 121.846C325.487 121.846 326.267 121.101 326.267 119.61L326.254 113.721L327.359 113.539V117.595C327.42 118.418 327.91 118.83 328.828 118.83ZM332.386 113.695C333.218 113.695 333.916 113.981 334.479 114.553C335.042 115.116 335.324 115.823 335.324 116.672C335.324 117.712 334.999 118.527 334.349 119.116C333.708 119.705 332.819 120 331.684 120H328.837C328.75 120 328.707 119.957 328.707 119.87V118.947C328.707 118.869 328.75 118.83 328.837 118.83H329.955C329.565 118.024 329.37 117.322 329.37 116.724C329.37 115.849 329.652 115.125 330.215 114.553C330.787 113.981 331.511 113.695 332.386 113.695ZM331.775 118.83C332.52 118.83 333.114 118.644 333.556 118.271C333.998 117.898 334.219 117.378 334.219 116.711C334.219 116.156 334.037 115.701 333.673 115.346C333.318 114.982 332.867 114.8 332.321 114.8C331.801 114.8 331.359 114.995 330.995 115.385C330.631 115.766 330.449 116.217 330.449 116.737C330.449 117.361 330.666 118.059 331.099 118.83H331.775Z" fill="#544C4C"/>
<ellipse cx="317" cy="97.5" rx="7" ry="7.5" transform="rotate(-180 317 97.5)" fill="#03A9F1"/>
<path d="M315.714 165.83C315.801 165.83 315.844 165.869 315.844 165.947V166.87C315.844 166.957 315.801 167 315.714 167C314.951 167 314.249 166.705 313.608 166.116C313.14 166.705 312.382 167 311.333 167H305.652H305.106H303.429L303.221 165.83H305.106V157.679L306.211 157.51V162.112C307.546 161.531 308.56 161.133 309.253 160.916C309.955 160.699 310.631 160.591 311.281 160.591C312.104 160.591 312.78 160.855 313.309 161.384C313.846 161.904 314.111 162.576 314.102 163.399V164.504C314.102 164.79 314.072 165.037 314.011 165.245C314.566 165.635 315.133 165.83 315.714 165.83ZM310.046 158.459L309.097 159.408L308.135 158.459L309.071 157.523L310.046 158.459ZM312.997 164.309V163.555C312.997 163.009 312.815 162.571 312.451 162.242C312.087 161.904 311.619 161.735 311.047 161.735C310.458 161.735 309.881 161.817 309.318 161.982C308.755 162.138 307.719 162.502 306.211 163.074V165.83H311.346C311.875 165.83 312.282 165.7 312.568 165.44C312.854 165.18 312.997 164.803 312.997 164.309ZM320.297 158.654L319.348 159.603L318.386 158.654L319.322 157.718L320.297 158.654ZM323.027 165.83C323.114 165.83 323.157 165.869 323.157 165.947V166.87C323.157 166.957 323.114 167 323.027 167C321.744 167 320.553 166.84 319.452 166.519C318.464 166.84 317.216 167 315.708 167C315.621 166.991 315.578 166.948 315.578 166.87V165.947C315.578 165.869 315.621 165.83 315.708 165.83C316.462 165.83 317.138 165.804 317.736 165.752C316.939 165.154 316.54 164.387 316.54 163.451C316.54 162.662 316.813 162.008 317.359 161.488C317.905 160.959 318.585 160.695 319.4 160.695C320.232 160.695 320.917 160.964 321.454 161.501C321.991 162.03 322.26 162.68 322.26 163.451C322.26 164.378 321.861 165.137 321.064 165.726C321.575 165.795 322.23 165.83 323.027 165.83ZM319.361 161.787C318.85 161.787 318.429 161.956 318.1 162.294C317.779 162.623 317.619 163.048 317.619 163.568C317.619 164.027 317.779 164.443 318.1 164.816C318.421 165.189 318.85 165.453 319.387 165.609C319.942 165.427 320.379 165.154 320.7 164.79C321.029 164.426 321.194 164.019 321.194 163.568C321.194 163.048 321.016 162.623 320.661 162.294C320.314 161.956 319.881 161.787 319.361 161.787ZM325.321 160.864C325.885 160.864 326.478 161.05 327.102 161.423C327.735 161.796 328.792 162.597 330.274 163.828L330.105 164.907C328.753 165.626 327.523 166.155 326.413 166.493C325.313 166.831 324.19 167 323.046 167C322.951 167 322.903 166.957 322.903 166.87V165.947C322.903 165.869 322.951 165.83 323.046 165.83C325.048 165.83 327.081 165.327 329.143 164.322C328.025 163.386 327.198 162.766 326.66 162.463C326.132 162.16 325.629 162.008 325.152 162.008C324.953 162.008 324.528 162.077 323.878 162.216L323.657 161.228C324.299 160.985 324.853 160.864 325.321 160.864Z" fill="#544C4C"/>
<ellipse cx="317" cy="144.5" rx="7" ry="7.5" transform="rotate(-180 317 144.5)" fill="#09F9BF"/>
</svg>
