<svg width="339" height="126" viewBox="0 0 339 126" fill="none" xmlns="http://www.w3.org/2000/svg">
<path d="M44.9415 25.8817C45.3906 24.4997 47.3457 24.4997 47.7947 25.8817L48.6304 28.4536C48.9651 29.4837 49.925 30.1811 51.008 30.1811H53.7123C55.1654 30.1811 55.7696 32.0405 54.594 32.8946L52.4062 34.4841C51.53 35.1208 51.1633 36.2492 51.498 37.2792L52.3337 39.8512C52.7827 41.2331 51.201 42.3823 50.0254 41.5282L47.8376 39.9387C46.9614 39.3021 45.7749 39.3021 44.8987 39.9387L42.7108 41.5282C41.5353 42.3823 39.9535 41.2331 40.4026 39.8512L41.2382 37.2792C41.5729 36.2492 41.2063 35.1208 40.3301 34.4841L38.1422 32.8946C36.9667 32.0405 37.5708 30.1811 39.0239 30.1811H41.7282C42.8113 30.1811 43.7712 29.4837 44.1059 28.4536L44.9415 25.8817Z" stroke="#544C4C"/>
<g opacity="0.4" filter="url(#filter0_f_296_4647)">
<path d="M46.3681 24.6035L49.5549 34.4115L59.8677 34.4115L51.5245 40.4732L54.7113 50.2812L46.3681 44.2196L38.0249 50.2812L41.2117 40.4732L32.8685 34.4115L43.1813 34.4115L46.3681 24.6035Z" fill="#C4C4C4"/>
</g>
<path fill-rule="evenodd" clip-rule="evenodd" d="M332.891 69.5293C332.373 70.4347 331.398 70.9699 330.355 70.9699C327.87 70.9699 326.384 68.0762 327.532 65.8731C330.466 60.2458 332.089 53.6786 332.089 46.4821C332.089 24.6506 317.158 8.6101 295.971 7.03598C294.069 6.89461 292.516 5.36215 292.516 3.45417C292.516 1.54618 294.068 -0.0139021 295.971 0.125908C320.029 1.89356 338.998 21.9725 338.998 46.4821C338.998 54.8686 336.777 62.7364 332.891 69.5293Z" fill="#09F9BF"/>
<path d="M275.292 106.163C276.761 105.314 278.161 104.89 279.491 104.89C280.808 104.89 281.898 105.194 282.759 105.802C283.633 106.41 284.07 107.303 284.07 108.481C284.07 109.038 283.937 109.564 283.671 110.058C283.405 110.539 283.063 110.957 282.645 111.312C282.227 111.667 281.758 112.009 281.239 112.338C280.732 112.655 280.219 112.965 279.7 113.269C279.193 113.573 278.731 113.883 278.313 114.2C277.895 114.504 277.553 114.852 277.287 115.245C277.021 115.638 276.888 116.056 276.888 116.499L284.07 116.499L284.317 118L274.95 118V116.993C274.95 116.322 275.083 115.707 275.349 115.15C275.615 114.593 275.963 114.124 276.394 113.744C276.825 113.351 277.3 112.99 277.819 112.661C278.338 112.319 278.858 112.002 279.377 111.711C279.909 111.42 280.39 111.128 280.821 110.837C281.252 110.533 281.6 110.191 281.866 109.811C282.132 109.418 282.265 109 282.265 108.557C282.265 107.81 281.986 107.252 281.429 106.885C280.872 106.505 280.169 106.315 279.32 106.315C278.281 106.315 277.053 106.739 275.634 107.588L275.292 106.163ZM286.555 106.163C288.024 105.314 289.424 104.89 290.754 104.89C292.071 104.89 293.16 105.194 294.022 105.802C294.896 106.41 295.333 107.303 295.333 108.481C295.333 109.038 295.2 109.564 294.934 110.058C294.668 110.539 294.326 110.957 293.908 111.312C293.49 111.667 293.021 112.009 292.502 112.338C291.995 112.655 291.482 112.965 290.963 113.269C290.456 113.573 289.994 113.883 289.576 114.2C289.158 114.504 288.816 114.852 288.55 115.245C288.284 115.638 288.151 116.056 288.151 116.499L295.333 116.499L295.58 118H286.213V116.993C286.213 116.322 286.346 115.707 286.612 115.15C286.878 114.593 287.226 114.124 287.657 113.744C288.087 113.351 288.562 112.99 289.082 112.661C289.601 112.319 290.12 112.002 290.64 111.711C291.172 111.42 291.653 111.128 292.084 110.837C292.514 110.533 292.863 110.191 293.129 109.811C293.395 109.418 293.528 109 293.528 108.557C293.528 107.81 293.249 107.252 292.692 106.885C292.134 106.505 291.431 106.315 290.583 106.315C289.544 106.315 288.315 106.739 286.897 107.588L286.555 106.163ZM300.192 111.882C299.242 111.882 298.514 111.559 298.007 110.913C297.501 110.254 297.247 109.412 297.247 108.386C297.247 107.36 297.501 106.524 298.007 105.878C298.514 105.219 299.242 104.89 300.192 104.89C301.13 104.89 301.852 105.219 302.358 105.878C302.865 106.524 303.118 107.36 303.118 108.386C303.118 109.412 302.865 110.254 302.358 110.913C301.852 111.559 301.13 111.882 300.192 111.882ZM304.98 110.97H303.954L307.108 105.08H308.495L304.98 110.97ZM300.173 105.764C299.553 105.764 299.078 106.005 298.748 106.486C298.432 106.955 298.273 107.588 298.273 108.386C298.273 109.184 298.432 109.824 298.748 110.305C299.078 110.774 299.553 111.008 300.173 111.008C300.807 111.008 301.282 110.774 301.598 110.305C301.915 109.824 302.073 109.184 302.073 108.386C302.073 107.588 301.915 106.955 301.598 106.486C301.282 106.005 300.807 105.764 300.173 105.764ZM308.115 118.152C307.165 118.152 306.437 117.829 305.93 117.183C305.424 116.524 305.17 115.682 305.17 114.656C305.17 113.63 305.424 112.794 305.93 112.148C306.437 111.489 307.165 111.16 308.115 111.16C309.053 111.16 309.775 111.489 310.281 112.148C310.788 112.794 311.041 113.63 311.041 114.656C311.041 115.682 310.788 116.524 310.281 117.183C309.775 117.829 309.053 118.152 308.115 118.152ZM308.115 112.034C307.495 112.034 307.02 112.275 306.69 112.756C306.374 113.225 306.215 113.858 306.215 114.656C306.215 115.454 306.374 116.094 306.69 116.575C307.02 117.044 307.495 117.278 308.115 117.278C308.749 117.278 309.224 117.044 309.54 116.575C309.857 116.094 310.015 115.454 310.015 114.656C310.015 113.858 309.857 113.225 309.54 112.756C309.224 112.275 308.749 112.034 308.115 112.034ZM303.194 112.11H304.239L301.085 118H299.698L303.194 112.11Z" fill="#544C4C"/>
<path d="M154.318 118.984L159.866 107.508L152.627 107.508L152.893 106.064L161.69 106.064V107.337L156.047 118.984H154.318ZM169.181 112.258C171.094 112.727 172.05 113.791 172.05 115.45C172.05 116.628 171.626 117.547 170.777 118.205C169.929 118.851 168.725 119.174 167.167 119.174C165.293 119.174 163.754 118.813 162.55 118.091L163.082 116.818C164.438 117.452 165.704 117.768 166.882 117.768C169.15 117.768 170.283 116.951 170.283 115.317C170.283 114.532 169.986 113.937 169.39 113.531C168.795 113.126 167.965 112.923 166.901 112.923H165.571L165.571 111.612H166.901C167.915 111.587 168.681 111.384 169.2 111.004C169.72 110.612 169.979 110.08 169.979 109.408C169.979 107.964 169.036 107.242 167.148 107.242C166.11 107.242 164.913 107.559 163.557 108.192L163.025 106.919C164.292 106.197 165.755 105.836 167.414 105.836C168.732 105.836 169.77 106.134 170.53 106.729C171.29 107.325 171.67 108.173 171.67 109.275C171.67 110.795 170.841 111.79 169.181 112.258ZM176.634 112.866C175.684 112.866 174.955 112.543 174.449 111.897C173.942 111.239 173.689 110.396 173.689 109.37C173.689 108.344 173.942 107.508 174.449 106.862C174.955 106.204 175.684 105.874 176.634 105.874C177.571 105.874 178.293 106.204 178.8 106.862C179.306 107.508 179.56 108.344 179.56 109.37C179.56 110.396 179.306 111.239 178.8 111.897C178.293 112.543 177.571 112.866 176.634 112.866ZM181.422 111.954L180.396 111.954L183.55 106.064H184.937L181.422 111.954ZM176.615 106.748C175.994 106.748 175.519 106.989 175.19 107.47C174.873 107.939 174.715 108.572 174.715 109.37C174.715 110.168 174.873 110.808 175.19 111.289C175.519 111.758 175.994 111.992 176.615 111.992C177.248 111.992 177.723 111.758 178.04 111.289C178.356 110.808 178.515 110.168 178.515 109.37C178.515 108.572 178.356 107.939 178.04 107.47C177.723 106.989 177.248 106.748 176.615 106.748ZM184.557 119.136C183.607 119.136 182.878 118.813 182.372 118.167C181.865 117.509 181.612 116.666 181.612 115.64C181.612 114.614 181.865 113.778 182.372 113.132C182.878 112.474 183.607 112.144 184.557 112.144C185.494 112.144 186.216 112.474 186.723 113.132C187.229 113.778 187.483 114.614 187.483 115.64C187.483 116.666 187.229 117.509 186.723 118.167C186.216 118.813 185.494 119.136 184.557 119.136ZM184.557 113.018C183.936 113.018 183.461 113.259 183.132 113.74C182.815 114.209 182.657 114.842 182.657 115.64C182.657 116.438 182.815 117.078 183.132 117.559C183.461 118.028 183.936 118.262 184.557 118.262C185.19 118.262 185.665 118.028 185.982 117.559C186.298 117.078 186.457 116.438 186.457 115.64C186.457 114.842 186.298 114.209 185.982 113.74C185.665 113.259 185.19 113.018 184.557 113.018ZM179.636 113.094L180.681 113.094L177.527 118.984H176.14L179.636 113.094Z" fill="#544C4C"/>
<path d="M38.457 116.134H36.31L36.31 118.984H34.524L34.524 116.134L27.703 116.134V114.747L34.505 106.064H36.31L36.31 114.747H38.457V116.134ZM34.524 114.747L34.524 108.268L29.489 114.747L34.524 114.747ZM41.2301 118.984L46.7781 107.508H39.5391L39.8051 106.064L48.6021 106.064L48.6021 107.337L42.9591 118.984H41.2301ZM52.6543 112.866C51.7043 112.866 50.976 112.543 50.4693 111.897C49.9626 111.239 49.7093 110.396 49.7093 109.37C49.7093 108.344 49.9626 107.508 50.4693 106.862C50.976 106.204 51.7043 105.874 52.6543 105.874C53.5916 105.874 54.3136 106.204 54.8203 106.862C55.327 107.508 55.5803 108.344 55.5803 109.37C55.5803 110.396 55.327 111.239 54.8203 111.897C54.3136 112.543 53.5916 112.866 52.6543 112.866ZM57.4423 111.954H56.4163L59.5703 106.064H60.9573L57.4423 111.954ZM52.6353 106.748C52.0146 106.748 51.5396 106.989 51.2103 107.47C50.8936 107.939 50.7353 108.572 50.7353 109.37C50.7353 110.168 50.8936 110.808 51.2103 111.289C51.5396 111.758 52.0146 111.992 52.6353 111.992C53.2686 111.992 53.7436 111.758 54.0603 111.289C54.377 110.808 54.5353 110.168 54.5353 109.37C54.5353 108.572 54.377 107.939 54.0603 107.47C53.7436 106.989 53.2686 106.748 52.6353 106.748ZM60.5773 119.136C59.6273 119.136 58.899 118.813 58.3923 118.167C57.8856 117.509 57.6323 116.666 57.6323 115.64C57.6323 114.614 57.8856 113.778 58.3923 113.132C58.899 112.474 59.6273 112.144 60.5773 112.144C61.5146 112.144 62.2366 112.474 62.7433 113.132C63.25 113.778 63.5033 114.614 63.5033 115.64C63.5033 116.666 63.25 117.509 62.7433 118.167C62.2366 118.813 61.5146 119.136 60.5773 119.136ZM60.5773 113.018C59.9566 113.018 59.4816 113.259 59.1523 113.74C58.8356 114.209 58.6773 114.842 58.6773 115.64C58.6773 116.438 58.8356 117.078 59.1523 117.559C59.4816 118.028 59.9566 118.262 60.5773 118.262C61.2106 118.262 61.6856 118.028 62.0023 117.559C62.319 117.078 62.4773 116.438 62.4773 115.64C62.4773 114.842 62.319 114.209 62.0023 113.74C61.6856 113.259 61.2106 113.018 60.5773 113.018ZM55.6563 113.094H56.7013L53.5473 118.984H52.1603L55.6563 113.094Z" fill="#544C4C"/>
<path d="M276.795 58.4608L275.846 59.3968L274.897 58.4608L275.846 57.5248L276.795 58.4608ZM278.862 58.4608L277.913 59.3968L276.951 58.4608L277.913 57.5248L278.862 58.4608ZM281.007 65.7148C281.093 65.7148 281.137 65.7538 281.137 65.8318V66.7548C281.137 66.8414 281.093 66.8848 281.007 66.8848C280.209 66.8848 279.62 66.6984 279.239 66.3258C278.363 66.7764 277.579 67.0018 276.886 67.0018C276.01 67.0018 275.291 66.7028 274.728 66.1048C274.173 65.5068 273.896 64.7658 273.896 63.8818C273.896 62.9804 274.177 62.2134 274.741 61.5808C275.304 60.9481 276.019 60.6318 276.886 60.6318C277.414 60.6318 277.995 60.7531 278.628 60.9958V60.1898L279.72 60.0078L279.733 64.2588C279.733 64.7788 279.832 65.1514 280.032 65.3768C280.231 65.6021 280.556 65.7148 281.007 65.7148ZM276.886 65.8838C277.466 65.8924 278.09 65.7451 278.758 65.4418C278.671 65.1471 278.628 64.7874 278.628 64.3628V62.1008C277.926 61.8668 277.358 61.7498 276.925 61.7498C276.344 61.7498 275.867 61.9534 275.495 62.3608C275.131 62.7681 274.949 63.2708 274.949 63.8688C274.949 64.4408 275.126 64.9174 275.482 65.2988C275.846 65.6801 276.314 65.8751 276.886 65.8838ZM288.794 65.7148C288.881 65.7148 288.924 65.7538 288.924 65.8318V66.7548C288.924 66.8414 288.881 66.8848 288.794 66.8848C287.277 66.8848 286.055 66.6551 285.128 66.1958C284.547 66.4558 283.949 66.6378 283.334 66.7418C282.719 66.8371 281.943 66.8848 281.007 66.8848C280.92 66.8761 280.877 66.8328 280.877 66.7548V65.8318C280.877 65.7538 280.92 65.7148 281.007 65.7148C281.9 65.7148 282.779 65.6368 283.646 65.4808C283.187 64.9348 282.797 64.4234 282.476 63.9468C282.155 63.4614 281.8 62.8504 281.41 62.1138L281.826 61.1128C283.039 60.4888 284.136 60.1768 285.115 60.1768C285.982 60.1768 286.701 60.4064 287.273 60.8658C287.845 61.3251 288.131 61.9101 288.131 62.6208C288.131 63.1148 287.979 63.6174 287.676 64.1288C287.373 64.6314 286.926 65.0908 286.337 65.5068C287.03 65.6454 287.849 65.7148 288.794 65.7148ZM284.933 61.2948C284.257 61.2861 283.473 61.4898 282.58 61.9058C282.961 62.6424 283.317 63.2578 283.646 63.7518C283.984 64.2371 284.396 64.7528 284.881 65.2988C285.505 64.9954 286.012 64.6271 286.402 64.1938C286.801 63.7604 287 63.3574 287 62.9848C287 62.4821 286.809 62.0748 286.428 61.7628C286.055 61.4508 285.557 61.2948 284.933 61.2948ZM291.102 60.7488C291.666 60.7488 292.259 60.9351 292.883 61.3078C293.516 61.6804 294.573 62.4821 296.055 63.7128L295.886 64.7918C294.534 65.5111 293.304 66.0398 292.194 66.3778C291.094 66.7158 289.971 66.8848 288.827 66.8848C288.732 66.8848 288.684 66.8414 288.684 66.7548V65.8318C288.684 65.7538 288.732 65.7148 288.827 65.7148C290.829 65.7148 292.862 65.2121 294.924 64.2068C293.806 63.2708 292.979 62.6511 292.441 62.3478C291.913 62.0444 291.41 61.8928 290.933 61.8928C290.734 61.8928 290.309 61.9621 289.659 62.1008L289.438 61.1128C290.08 60.8701 290.634 60.7488 291.102 60.7488ZM291.557 68.7828L292.493 67.8338L293.468 68.7828L292.519 69.7188L291.557 68.7828ZM297.575 66.8848V57.5638L298.68 57.3948V66.8848H297.575ZM304.256 65.7148C304.343 65.7148 304.386 65.7538 304.386 65.8318V66.7548C304.386 66.8414 304.343 66.8848 304.256 66.8848C303.589 66.8848 303.099 66.6551 302.787 66.1958V66.5338C302.787 67.6171 302.51 68.4101 301.955 68.9128C301.4 69.4241 300.568 69.6798 299.459 69.6798L299.355 68.7308C300.915 68.7308 301.695 67.9854 301.695 66.4948L301.682 60.6058L302.787 60.4238V64.4798C302.848 65.3031 303.337 65.7148 304.256 65.7148ZM307.814 60.5798C308.646 60.5798 309.343 60.8658 309.907 61.4378C310.47 62.0011 310.752 62.7074 310.752 63.5568C310.752 64.5968 310.427 65.4114 309.777 66.0008C309.135 66.5901 308.247 66.8848 307.112 66.8848H304.265C304.178 66.8848 304.135 66.8414 304.135 66.7548V65.8318C304.135 65.7538 304.178 65.7148 304.265 65.7148H305.383C304.993 64.9088 304.798 64.2068 304.798 63.6088C304.798 62.7334 305.079 62.0098 305.643 61.4378C306.215 60.8658 306.938 60.5798 307.814 60.5798ZM307.203 65.7148C307.948 65.7148 308.542 65.5284 308.984 65.1558C309.426 64.7831 309.647 64.2631 309.647 63.5958C309.647 63.0411 309.465 62.5861 309.101 62.2308C308.745 61.8668 308.295 61.6848 307.749 61.6848C307.229 61.6848 306.787 61.8798 306.423 62.2698C306.059 62.6511 305.877 63.1018 305.877 63.6218C305.877 64.2458 306.093 64.9434 306.527 65.7148H307.203Z" fill="#544C4C"/>
<path d="M168.882 63.8202C168.969 63.8202 169.012 63.8592 169.012 63.9372L169.012 64.8602C169.012 64.9469 168.969 64.9902 168.882 64.9902C168.12 64.9902 167.418 64.6956 166.776 64.1062C166.308 64.6956 165.55 64.9902 164.501 64.9902L158.82 64.9902H158.274H156.597L156.389 63.8202H158.274V55.6692L159.379 55.5002V60.1022C160.714 59.5216 161.728 59.1229 162.421 58.9062C163.123 58.6896 163.799 58.5812 164.449 58.5812C165.273 58.5812 165.949 58.8456 166.477 59.3742C167.015 59.8942 167.279 60.5659 167.27 61.3892V62.4942C167.27 62.7802 167.24 63.0272 167.179 63.2352C167.734 63.6252 168.302 63.8202 168.882 63.8202ZM163.214 56.4492L162.265 57.3982L161.303 56.4492L162.239 55.5132L163.214 56.4492ZM166.165 62.2992V61.5452C166.165 60.9992 165.983 60.5616 165.619 60.2322C165.255 59.8942 164.787 59.7252 164.215 59.7252C163.626 59.7252 163.05 59.8076 162.486 59.9722C161.923 60.1282 160.887 60.4922 159.379 61.0642V63.8202L164.514 63.8202C165.043 63.8202 165.45 63.6902 165.736 63.4302C166.022 63.1702 166.165 62.7932 166.165 62.2992ZM173.465 56.6442L172.516 57.5932L171.554 56.6442L172.49 55.7082L173.465 56.6442ZM176.195 63.8202C176.282 63.8202 176.325 63.8592 176.325 63.9372V64.8602C176.325 64.9469 176.282 64.9902 176.195 64.9902C174.913 64.9902 173.721 64.8299 172.62 64.5092C171.632 64.8299 170.384 64.9902 168.876 64.9902C168.79 64.9816 168.746 64.9382 168.746 64.8602L168.746 63.9372C168.746 63.8592 168.79 63.8202 168.876 63.8202C169.63 63.8202 170.306 63.7942 170.904 63.7422C170.107 63.1442 169.708 62.3772 169.708 61.4412C169.708 60.6526 169.981 59.9982 170.527 59.4782C171.073 58.9496 171.754 58.6852 172.568 58.6852C173.4 58.6852 174.085 58.9539 174.622 59.4912C175.16 60.0199 175.428 60.6699 175.428 61.4412C175.428 62.3686 175.03 63.1269 174.232 63.7162C174.744 63.7856 175.398 63.8202 176.195 63.8202ZM172.529 59.7772C172.018 59.7772 171.598 59.9462 171.268 60.2842C170.948 60.6136 170.787 61.0382 170.787 61.5582C170.787 62.0176 170.948 62.4336 171.268 62.8062C171.589 63.1789 172.018 63.4432 172.555 63.5992C173.11 63.4172 173.548 63.1442 173.868 62.7802C174.198 62.4162 174.362 62.0089 174.362 61.5582C174.362 61.0382 174.185 60.6136 173.829 60.2842C173.483 59.9462 173.049 59.7772 172.529 59.7772ZM178.49 58.8542C179.053 58.8542 179.647 59.0406 180.271 59.4132C180.903 59.7859 181.961 60.5876 183.443 61.8182L183.274 62.8972C181.922 63.6166 180.691 64.1452 179.582 64.4832C178.481 64.8212 177.359 64.9902 176.215 64.9902C176.119 64.9902 176.072 64.9469 176.072 64.8602V63.9372C176.072 63.8592 176.119 63.8202 176.215 63.8202C178.217 63.8202 180.249 63.3176 182.312 62.3122C181.194 61.3762 180.366 60.7566 179.829 60.4532C179.3 60.1499 178.797 59.9982 178.321 59.9982C178.121 59.9982 177.697 60.0676 177.047 60.2062L176.826 59.2182C177.467 58.9756 178.022 58.8542 178.49 58.8542Z" fill="#544C4C"/>
<path d="M31.7356 63.8202L35.2196 63.8202L34.9206 64.9902L29.2786 64.9902V63.8202H30.7996C30.3922 63.1442 30.1886 62.4986 30.1886 61.8832C30.1886 61.2246 30.4226 60.6786 30.8906 60.2452C31.3586 59.8032 31.9349 59.5822 32.6196 59.5822C33.1916 59.5822 33.8979 59.7426 34.7386 60.0632L34.4266 61.0122C33.7766 60.7782 33.2349 60.6612 32.8016 60.6612C32.3076 60.6612 31.9132 60.7956 31.6186 61.0642C31.3326 61.3242 31.1809 61.6839 31.1636 62.1432C31.1376 62.6286 31.3282 63.1876 31.7356 63.8202ZM39.4279 64.9902C37.6079 64.9902 36.6979 64.1236 36.6979 62.3902L36.6849 55.6692L37.7899 55.5002L37.7899 62.1302C37.7899 63.2569 38.3316 63.8202 39.4149 63.8202C39.5016 63.8202 39.5449 63.8592 39.5449 63.9372L39.5579 64.8602C39.5579 64.9469 39.5146 64.9902 39.4279 64.9902ZM51.3213 63.8202C51.4079 63.8202 51.4513 63.8592 51.4513 63.9372V64.8602C51.4513 64.9469 51.4079 64.9902 51.3213 64.9902C50.5586 64.9902 49.8566 64.6956 49.2153 64.1062C48.7473 64.6956 47.9889 64.9902 46.9403 64.9902H41.8183H40.7133L39.4263 64.9902C39.3396 64.9902 39.2963 64.9469 39.2963 64.8602V63.9372C39.3136 63.8592 39.3569 63.8202 39.4263 63.8202H40.7133L40.7133 55.6692L41.8183 55.5002V58.5292L41.8183 60.0892C43.1703 59.5086 44.1886 59.1142 44.8733 58.9062C45.5666 58.6896 46.2383 58.5812 46.8883 58.5812C47.7116 58.5812 48.3876 58.8456 48.9163 59.3742C49.4536 59.8942 49.7179 60.5659 49.7093 61.3892V62.4942C49.7093 62.7196 49.6789 62.9666 49.6183 63.2352C50.1729 63.6252 50.7406 63.8202 51.3213 63.8202ZM48.6043 62.2992V61.5452C48.6043 60.9992 48.4223 60.5616 48.0583 60.2322C47.6943 59.8942 47.2263 59.7252 46.6543 59.7252C46.0736 59.7252 45.5016 59.8076 44.9383 59.9722C44.3749 60.1282 43.3349 60.4879 41.8183 61.0512L41.8183 63.8202L46.9533 63.8202C47.4819 63.8202 47.8893 63.6902 48.1753 63.4302C48.4613 63.1702 48.6043 62.7932 48.6043 62.2992ZM55.9498 56.8912L55.0008 57.8402L54.0388 56.8912L54.9748 55.9552L55.9498 56.8912ZM53.6098 58.8542C54.1731 58.8542 54.7668 59.0406 55.3908 59.4132C56.0234 59.7859 57.0808 60.5876 58.5628 61.8182L58.3938 62.8972C57.0418 63.6166 55.8111 64.1452 54.7018 64.4832C53.6011 64.8212 52.4788 64.9902 51.3348 64.9902C51.2394 64.9902 51.1918 64.9469 51.1918 64.8602V63.9372C51.1918 63.8592 51.2394 63.8202 51.3348 63.8202C53.3368 63.8202 55.3691 63.3176 57.4318 62.3122C56.3138 61.3762 55.4861 60.7566 54.9488 60.4532C54.4201 60.1499 53.9174 59.9982 53.4408 59.9982C53.2414 59.9982 52.8168 60.0676 52.1668 60.2062L51.9458 59.2182C52.5871 58.9756 53.1418 58.8542 53.6098 58.8542ZM60.5637 55.7212H62.2537L62.0717 56.4622L59.1337 56.4622V55.7212L59.8487 55.7212C59.71 55.4959 59.6407 55.2446 59.6407 54.9672C59.6407 54.6466 59.749 54.3822 59.9657 54.1742C60.191 53.9576 60.4727 53.8492 60.8107 53.8492C61.114 53.8492 61.452 53.9316 61.8247 54.0962V54.7332C61.5213 54.6032 61.244 54.5382 60.9927 54.5382C60.802 54.5382 60.646 54.5902 60.5247 54.6942C60.4033 54.7982 60.3427 54.9369 60.3427 55.1102C60.3427 55.3616 60.4163 55.5652 60.5637 55.7212ZM60.1217 64.9902L60.1217 57.3202L61.2267 57.1512L61.2267 64.9902H60.1217Z" fill="#544C4C"/>
<circle opacity="0.5" cx="46.368" cy="46.368" r="42.868" transform="matrix(-1 0 0 1 92.7354 0)" stroke="#CBCCC4" stroke-opacity="0.4" stroke-width="7"/>
<path d="M46.4822 3.45667C46.4822 1.54868 48.0343 -0.0113995 49.9372 0.128411C73.9954 1.89606 92.9648 21.9751 92.9648 46.4846C92.9648 70.9942 73.9954 91.0731 49.9372 92.8408C48.0343 92.9806 46.4822 91.4205 46.4822 89.5125C46.4822 87.6046 48.0353 86.0721 49.938 85.9307C71.1245 84.3566 86.0554 68.3161 86.0554 46.4846C86.0554 24.6531 71.1245 8.6126 49.938 7.03848C48.0353 6.89711 46.4822 5.36466 46.4822 3.45667Z" fill="#E42C64"/>
<circle opacity="0.5" cx="46.368" cy="46.368" r="42.868" transform="matrix(-1 0 0 1 215.753 0)" stroke="#CBCCC4" stroke-opacity="0.4" stroke-width="7"/>
<path d="M170.048 3.50106C170.048 1.57621 171.626 0.00892742 173.543 0.17419C197.322 2.22328 215.982 22.1741 215.982 46.4834C215.982 72.155 195.171 92.966 169.5 92.966C157.549 92.966 146.652 88.4563 138.417 81.0457C137.374 80.107 137.166 78.5682 137.848 77.3417C138.864 75.5142 141.353 75.1763 142.964 76.5096C150.17 82.4729 159.416 86.0566 169.5 86.0566C192.5 86.0566 209.073 69.4839 209.073 46.4834C209.073 24.8239 194.406 8.89405 173.46 7.082C171.575 6.91894 170.048 5.39289 170.048 3.50106Z" fill="#03A9F1"/>
<circle opacity="0.5" cx="46.368" cy="46.368" r="42.868" transform="matrix(-1 0 0 1 338.771 0)" stroke="#CBCCC4" stroke-opacity="0.4" stroke-width="7"/>
<defs>
<filter id="filter0_f_296_4647" x="18.8682" y="10.6035" width="55" height="53.6777" filterUnits="userSpaceOnUse" color-interpolation-filters="sRGB">
<feFlood flood-opacity="0" result="BackgroundImageFix"/>
<feBlend mode="normal" in="SourceGraphic" in2="BackgroundImageFix" result="shape"/>
<feGaussianBlur stdDeviation="7" result="effect1_foregroundBlur_296_4647"/>
</filter>
</defs>
</svg>
