<svg width="203" height="48" viewBox="0 0 203 48" fill="none" xmlns="http://www.w3.org/2000/svg">
<path d="M5.28896 12.7994C6.10664 11.4766 7.53261 10.3232 9.57983 9.35993C11.6221 8.39897 14.187 7.67285 17.1384 7.15295C23.0423 6.11292 30.265 5.93594 37.4222 6.19379C51.7214 6.70893 65.4617 8.94612 67.2146 9.23957C67.4407 9.27742 67.6534 9.29295 67.87 9.29244C85.3689 9.25169 95.827 4.22055 99.6562 1.94936C100.114 1.6777 100.714 1.67601 101.156 1.9324C105.029 4.17939 115.633 9.29269 131.919 9.29269C137.096 9.29269 143.186 8.64953 149.492 7.92698C150.247 7.84056 151.004 7.75295 151.765 7.66507C157.393 7.01431 163.157 6.348 168.685 6.02664C174.966 5.66149 180.834 5.75019 185.744 6.77754C190.654 7.80462 194.434 9.73227 196.781 12.9041C200.879 18.4414 201.623 25.0977 201.011 31.1427C200.4 37.1837 198.449 42.4449 197.365 44.9909C197.234 45.2992 196.879 45.5346 196.402 45.4684C190.135 44.5967 166.443 42.1016 100.394 42.1016C35.4945 42.1016 12.2888 44.5104 5.82139 45.4226C5.28614 45.4981 4.87393 45.1986 4.75783 44.8443C3.86155 42.1097 2.33235 36.7216 1.8756 30.6664C1.41692 24.5856 2.05506 18.0309 5.28896 12.7994Z" fill="white" stroke="#229D71" stroke-width="3.03125"/>
<path d="M21.5629 29.5176C21.5116 29.5176 21.4583 29.5176 21.403 29.5176H21.3557C20.8978 29.5136 20.4557 29.4327 20.0295 29.2748C19.5716 30.0642 18.9717 30.4589 18.2297 30.4589C17.3456 30.3326 16.9035 29.9695 16.9035 29.3696H16.8561C16.7062 29.8748 16.3746 30.2853 15.8615 30.601C15.1747 30.8536 14.638 30.9799 14.2512 30.9799L14.0321 31.0095V30.9148C14.2097 30.7688 14.6853 30.4313 15.4589 29.9024C16.2365 29.3735 16.6766 29.042 16.7792 28.9078C16.8857 28.7736 17.0377 28.3276 17.235 27.5698C17.614 26.9383 17.9613 26.6225 18.277 26.6225H18.3718C18.7665 26.6225 19.398 27.0488 20.2663 27.9013C20.5189 28.1144 20.9511 28.2092 21.5629 28.1855V29.5176ZM17.4719 28.2328C17.4719 28.6512 17.8034 28.9354 18.4665 29.0854H18.7033C19.2401 29.0301 19.5085 28.9512 19.5085 28.8486C18.8849 28.2486 18.4112 27.9487 18.0876 27.9487H18.0402C17.7718 27.9487 17.5824 28.0434 17.4719 28.2328ZM23.2679 22.4766C23.2679 22.7292 23.4811 22.8851 23.9073 22.9443H23.9902C24.1481 22.9443 24.2488 22.887 24.2922 22.7726C24.2922 22.516 24.1067 22.3167 23.7357 22.1746C23.5738 22.1746 23.4179 22.2753 23.2679 22.4766ZM23.9902 21.4523C24.4757 21.4523 24.7184 21.7503 24.7184 22.3463C24.7184 23.2975 23.9073 24.1066 22.2852 24.7737C22.0523 24.8447 22.0247 24.7599 22.2023 24.5191C22.2457 24.4283 22.6285 24.1441 23.3508 23.6666V23.6251C23.039 23.4988 22.8831 23.2285 22.8831 22.814C23.0884 21.9062 23.416 21.4523 23.8659 21.4523H23.9902ZM25.2572 29.0617C25.419 29.3498 25.5078 29.5196 25.5236 29.5709L25.5473 29.9557C25.5434 30.6385 25.4506 31.1102 25.269 31.3707C25.0875 31.6312 24.8566 31.7634 24.5764 31.7673C23.9685 31.7673 23.337 31.2779 22.6818 30.2991C22.5674 30.1057 22.4568 29.8531 22.3503 29.5413H21.8766C21.7701 29.5413 21.6675 29.5353 21.5688 29.5235V28.1677C21.7148 28.1993 21.8648 28.2151 22.0187 28.2151H22.2082C22.4687 27.2047 22.9107 26.4469 23.5344 25.9417C23.858 25.689 24.158 25.5627 24.4343 25.5627C24.8605 25.5627 25.1131 25.8785 25.1921 26.51C25.3184 27.1455 25.1763 27.8066 24.7658 28.4933L25.2572 29.0617ZM22.6818 28.0256C22.6463 28.1322 22.6937 28.1796 22.8239 28.1677C23.4238 28.1677 24.0238 27.8993 24.6237 27.3625V27.3152C24.4895 26.9994 24.3159 26.8416 24.1027 26.8416C23.633 26.7823 23.1594 27.177 22.6818 28.0256ZM23.1555 29.4939C23.4791 30.0623 23.9527 30.378 24.5764 30.4412C24.8921 30.4135 25.0974 30.303 25.1921 30.1096C25.1644 29.7268 24.9434 29.4959 24.529 29.4169C24.1146 29.334 23.781 29.3064 23.5284 29.334C23.2798 29.3617 23.1555 29.415 23.1555 29.4939ZM29.1351 18.3226C29.1824 18.295 29.1962 18.3384 29.1765 18.4529C28.9081 19.0844 28.4957 19.5245 27.9391 19.7731L25.8966 20.7974C25.8098 20.7737 25.794 20.7026 25.8492 20.5842C26.1216 20.0593 26.3071 19.7475 26.4058 19.6488L29.1351 18.3226ZM28.2766 27.4277C28.17 27.9645 27.9194 28.3907 27.5247 28.7065C27.1616 28.967 26.4827 29.2196 25.4881 29.4643C23.4002 29.5985 22.22 29.488 21.9477 29.1328C21.6556 28.8288 22.6779 28.59 25.0145 28.4164C26.238 28.2427 27.1853 27.9131 27.8563 27.4277C27.8642 27.4237 27.872 27.404 27.8799 27.3685C27.8878 27.329 27.6964 25.845 27.3057 22.9163C27.4478 22.0638 27.5741 21.6375 27.6846 21.6375L28.3003 23.0584C28.3003 23.2794 28.2214 23.611 28.0635 24.053L28.3003 26.6107C28.3121 27.0488 28.3042 27.3211 28.2766 27.4277ZM34.049 21.3226C34.0964 21.295 34.1102 21.3384 34.0905 21.4529C33.8221 22.0844 33.4096 22.5245 32.8531 22.7731L30.8105 23.7974C30.7237 23.7737 30.7079 23.7026 30.7632 23.5842C31.0355 23.0593 31.221 22.7475 31.3197 22.6488L34.049 21.3226ZM32.7465 25.9061C33.3149 25.9061 33.8832 26.1903 34.4516 26.7587C34.5108 26.8534 34.4891 26.9284 34.3865 26.9836C34.2878 27.0389 34.199 27.0271 34.1201 26.9481C33.8753 26.7271 33.528 26.6166 33.0781 26.6166H32.8886C32.6992 26.6166 32.4781 26.6955 32.2255 26.8534C32.2255 27.3112 32.7781 27.5954 33.8832 27.7059L34.9726 27.2797L35.02 27.4218C35.02 27.9349 34.3884 28.3927 33.1254 28.7953L31.373 29.7899L31.1835 29.8373C31.1164 29.8531 31.0691 29.8215 31.0414 29.7426C31.0414 29.4663 31.4361 29.0874 32.2255 28.6058V28.5585C31.8466 28.3532 31.6572 28.0533 31.6572 27.6586C31.8308 26.4903 32.1939 25.9061 32.7465 25.9061ZM40.1234 17.0433L40.1707 17.0906C40.1707 17.73 39.6655 18.3931 38.6551 19.0799C38.063 19.3325 37.4631 19.4588 36.8553 19.4588L36.429 19.4114C36.2711 20.0114 36.1606 20.3113 36.0975 20.3113C36.0264 20.3113 35.9317 20.0587 35.8133 19.5535C35.5923 19.2536 35.2291 18.8747 34.7239 18.4168V18.3221C34.8345 17.6906 34.9608 17.3748 35.1028 17.3748C35.7186 18.0379 36.4764 18.3694 37.3763 18.3694C38.4183 18.3694 39.334 17.9274 40.1234 17.0433ZM39.1406 29.5176C38.2209 29.5728 37.5519 29.1485 37.1335 28.2447C36.9323 27.9092 36.7428 25.6476 36.5652 21.4599V21.3652C36.6836 20.6705 36.8573 20.3232 37.0862 20.3232L37.323 20.2758C37.6151 20.2758 38.0571 20.3705 38.6492 20.56V20.6547C38.6176 20.7495 38.5229 20.7968 38.365 20.7968H37.5598C37.394 20.7968 37.2362 20.8915 37.0862 21.081C37.2322 24.7161 37.4473 26.8218 37.7315 27.3981C38.0157 27.9743 38.4854 28.2309 39.1406 28.1677V29.5176ZM44.0071 20.3226C44.0545 20.295 44.0683 20.3384 44.0486 20.4529C43.7802 21.0844 43.3677 21.5245 42.8112 21.7731L40.7687 22.7974C40.6818 22.7737 40.6661 22.7026 40.7213 22.5842C40.9937 22.0593 41.1792 21.7475 41.2778 21.6488L44.0071 20.3226ZM42.3968 23.8162C43.1862 24.0688 43.5809 24.2741 43.5809 24.4319V24.5267C43.3283 25.2213 43.123 25.5687 42.9651 25.5687C42.3257 25.3082 41.9626 25.1345 41.8758 25.0477V24.9529C42.0021 24.4793 42.1758 24.1004 42.3968 23.8162ZM38.9807 28.1677H39.1642C39.7879 28.1006 40.3128 27.7237 40.7391 27.0369C40.8022 26.8948 40.8654 26.8159 40.9285 26.8001H40.9759L41.118 26.9422C41.0982 27.1238 41.0667 27.2501 41.0233 27.3211C41.2995 27.8263 41.6311 28.0789 42.0179 28.0789L42.0652 28.1263C42.752 26.6107 43.5256 25.8528 44.386 25.8528C45.0728 25.8528 45.578 26.137 45.9017 26.7054V26.9896C45.9017 28.7262 44.8281 29.5945 42.681 29.5945L41.9705 29.5472C41.7495 30.1471 41.6074 30.4471 41.5443 30.4471L41.4969 30.3997V30.3524L41.639 29.5472V29.4525C41.1732 29.192 40.8101 28.8288 40.5496 28.3631C40.3049 29.1643 39.7819 29.5492 38.9807 29.5176V28.1677ZM42.5389 28.221H42.6336C43.7072 28.221 44.6229 28.0631 45.3807 27.7474C45.3807 27.4079 45.0649 27.1711 44.4334 27.0369H44.244C43.4861 27.0369 42.9178 27.4316 42.5389 28.221ZM48.85 14.3226C48.8974 14.295 48.9112 14.3384 48.8915 14.4529C48.6231 15.0844 48.2106 15.5245 47.6541 15.7731L45.6116 16.7974C45.5247 16.7737 45.509 16.7026 45.5642 16.5842C45.8365 16.0593 46.0221 15.7475 46.1207 15.6488L48.85 14.3226ZM47.6423 21.5605C47.737 21.5605 47.8317 21.8763 47.9265 22.5078L48.3527 23.4551L48.1633 24.5444L48.3054 27.1968V27.623C48.2422 28.7045 48.0843 29.336 47.8317 29.5176L47.7844 29.4702L47.8317 28.7598C47.8317 28.1204 47.6265 26.0837 47.216 22.6499C47.4134 21.9237 47.5554 21.5605 47.6423 21.5605ZM47.3522 18.0438C47.7903 18.0438 48.2304 18.2629 48.6724 18.701C48.7158 18.776 48.6981 18.8352 48.6191 18.8786C48.5441 18.922 48.4751 18.9122 48.4119 18.849C48.2225 18.6793 47.9541 18.5944 47.6068 18.5944H47.4587C47.3127 18.5944 47.143 18.6556 46.9496 18.778C46.9496 19.1332 47.3759 19.3522 48.2284 19.4351L49.075 19.1036L49.1105 19.2161C49.1105 19.6147 48.6211 19.9699 47.6423 20.2817L46.2865 21.0514L46.1444 21.0869C46.0892 21.0988 46.0517 21.0751 46.0319 21.0159C46.0319 20.8027 46.3378 20.5087 46.9496 20.1337V20.0982C46.6536 19.9364 46.5056 19.7035 46.5056 19.3996C46.6437 18.4957 46.9259 18.0438 47.3522 18.0438ZM54.877 17.0433L54.9244 17.0906C54.9244 17.73 54.4192 18.3931 53.4088 19.0799C52.8167 19.3325 52.2168 19.4588 51.6089 19.4588L51.1827 19.4114C51.0248 20.0114 50.9143 20.3113 50.8511 20.3113C50.7801 20.3113 50.6854 20.0587 50.567 19.5535C50.3459 19.2536 49.9828 18.8747 49.4776 18.4168V18.3221C49.5881 17.6906 49.7144 17.3748 49.8565 17.3748C50.4722 18.0379 51.23 18.3694 52.1299 18.3694C53.1719 18.3694 54.0876 17.9274 54.877 17.0433ZM53.8942 29.5176C52.9746 29.5728 52.3056 29.1485 51.8872 28.2447C51.6859 27.9092 51.4965 25.6476 51.3188 21.4599V21.3652C51.4373 20.6705 51.6109 20.3232 51.8398 20.3232L52.0767 20.2758C52.3687 20.2758 52.8108 20.3705 53.4028 20.56V20.6547C53.3713 20.7495 53.2765 20.7968 53.1187 20.7968H52.3135C52.1477 20.7968 51.9898 20.8915 51.8398 21.081C51.9859 24.7161 52.201 26.8218 52.4852 27.3981C52.7693 27.9743 53.239 28.2309 53.8942 28.1677V29.5176ZM57.4109 22.3226C57.4583 22.295 57.4721 22.3384 57.4524 22.4529C57.184 23.0844 56.7715 23.5245 56.215 23.7731L54.1725 24.7974C54.0857 24.7737 54.0699 24.7026 54.1251 24.5842C54.3975 24.0593 54.583 23.7475 54.6816 23.6488L57.4109 22.3226ZM53.7344 28.1677H53.8409C54.1646 28.1677 54.506 28.0434 54.8652 27.7947C55.2243 27.5421 55.4355 27.2264 55.4987 26.8475L55.546 26.8001H55.5934C55.6486 26.8001 55.7276 26.9738 55.8302 27.3211C56.2802 27.9368 56.9117 28.221 57.7247 28.1736C57.78 28.1736 57.8352 28.1717 57.8905 28.1677V29.5235C57.8352 29.5274 57.78 29.5294 57.7247 29.5294L57.0616 29.4525C56.9906 30.084 56.7854 30.3997 56.4459 30.3997H56.3512C55.7197 30.2813 55.4039 30.0603 55.4039 29.7366L55.546 28.8841C55.4355 28.7578 55.325 28.6946 55.2145 28.6946C54.8593 29.2512 54.3659 29.5255 53.7344 29.5176V28.1677ZM60.5843 16.3226C60.6317 16.295 60.6455 16.3384 60.6257 16.4529C60.3573 17.0844 59.9449 17.5245 59.3884 17.7731L57.3458 18.7974C57.259 18.7737 57.2432 18.7026 57.2985 18.5842C57.5708 18.0593 57.7563 17.7475 57.855 17.6488L60.5843 16.3226ZM59.8738 19.3996C59.9607 19.5496 60.0613 19.9759 60.1758 20.6784C60.1047 21.1047 59.9192 21.3178 59.6193 21.3178H59.5778C59.4476 21.3178 59.2759 21.233 59.0627 21.0632C58.9167 21.3198 58.7036 21.4481 58.4233 21.4481C58.0839 21.4481 57.9142 21.0356 57.9142 20.2107C58.0129 19.8989 58.0977 19.743 58.1688 19.743L58.2102 19.7844V20.5126C58.2694 20.7652 58.3405 20.8915 58.4233 20.8915H58.595C58.7726 20.8915 58.8871 20.8205 58.9384 20.6784L58.8496 20.039C58.8851 19.8259 58.9424 19.7134 59.0213 19.7015H59.1101C59.2009 20.412 59.343 20.7672 59.5364 20.7672H59.8324V20.7258L59.7021 19.8732V19.8259C59.7377 19.5417 59.7949 19.3996 59.8738 19.3996ZM57.7899 28.1677C57.7977 28.1677 57.8076 28.1677 57.8195 28.1677C58.5773 28.1204 59.0114 27.7809 59.1219 27.1494C58.8378 25.2549 58.6957 23.9287 58.6957 23.1709C58.6957 22.8788 58.822 22.4999 59.0746 22.0342L59.1219 22.0815L59.2167 22.1763L59.1693 22.5078C59.2088 24.6352 59.4772 26.285 59.9745 27.4573C60.1639 27.8835 60.6297 28.1204 61.3717 28.1677V29.5176C60.3534 29.5018 59.6666 28.965 59.3114 27.9072H59.264C58.9364 28.969 58.445 29.5057 57.7899 29.5176V28.1677ZM61.7625 19.4766C61.7625 19.7292 61.9756 19.8851 62.4019 19.9443H62.4847C62.6426 19.9443 62.7433 19.887 62.7867 19.7726C62.7867 19.516 62.6012 19.3167 62.2302 19.1746C62.0683 19.1746 61.9124 19.2753 61.7625 19.4766ZM62.4847 18.4523C62.9702 18.4523 63.213 18.7503 63.213 19.3463C63.213 20.2975 62.4019 21.1066 60.7797 21.7737C60.5468 21.8447 60.5192 21.7599 60.6968 21.5191C60.7402 21.4283 61.123 21.1441 61.8453 20.6666V20.6251C61.5335 20.4988 61.3776 20.2285 61.3776 19.814C61.5829 18.9062 61.9105 18.4523 62.3604 18.4523H62.4847ZM61.123 28.1677C61.1941 28.1677 61.2691 28.1677 61.348 28.1677H61.6322C62.7058 27.9901 63.2426 27.6665 63.2426 27.1968C62.7334 26.7231 61.9124 26.4863 60.7797 26.4863L60.1284 26.5455H59.4239L59.2522 24.8701L61.7269 23.0288L64.2372 21.229C64.3595 21.154 64.4069 21.1856 64.3793 21.3237L63.3373 23.2183H63.2899L63.2426 22.8867H63.1478L60.1166 25.1602H61.2059C62.4887 25.1602 63.3412 25.5233 63.7635 26.2495L63.8109 26.5337V26.6284C63.807 27.8322 63.2544 28.7321 62.1532 29.3281C61.8374 29.4544 61.5691 29.5176 61.348 29.5176C61.2691 29.5176 61.1941 29.5176 61.123 29.5176V28.1677ZM60.1284 21.3415V21.4362V21.5013C60.1245 22.5394 60.2054 23.0722 60.3712 23.0999C60.4106 23.1354 60.5231 23.1531 60.7086 23.1531C60.831 23.1531 61.0027 23.0446 61.2237 22.8275L61.4605 23.0288H61.5079C61.6855 22.5512 61.9736 22.3124 62.3723 22.3124C62.6525 22.3361 62.7788 22.4999 62.7512 22.8038C62.6959 23.0999 62.5814 23.2972 62.4078 23.3959C62.2302 23.4945 61.9716 23.5439 61.6322 23.5439C61.5967 23.6228 61.5671 23.6781 61.5434 23.7097C61.5197 23.7412 61.4941 23.7215 61.4664 23.6505C61.4625 23.5636 61.423 23.5064 61.348 23.4788L61.129 23.2834C60.9632 23.4847 60.7974 23.5932 60.6317 23.609C60.3514 23.609 60.1541 23.534 60.0396 23.384C59.6173 23.5972 59.3982 23.7235 59.3824 23.7629C59.5285 23.8498 59.7712 23.8912 60.1107 23.8873L63.5504 23.7511C63.6688 23.7472 63.728 23.7708 63.728 23.8221C63.578 24.1103 62.4808 24.282 60.4363 24.3372H59.8798C59.343 24.3372 59.0746 24.2287 59.0746 24.0116V23.982C59.0746 23.5991 59.3647 23.309 59.9449 23.1117V23.0999C59.9133 22.7407 59.8738 22.3223 59.8265 21.8447C59.8462 21.5092 59.9469 21.3415 60.1284 21.3415ZM61.7032 23.0703C61.7625 23.0979 61.8217 23.1077 61.8809 23.0999C62.2637 23.0525 62.4551 22.9953 62.4551 22.9282V22.9045C62.4157 22.8098 62.3111 22.7624 62.1414 22.7624C61.8493 22.8532 61.7032 22.9558 61.7032 23.0703ZM70.1102 22.1687H70.5779C71.1463 22.1687 71.4305 22.3818 71.4305 22.8081C71.0634 23.8027 70.6174 24.3297 70.0925 24.3889L69.4708 24.4717C69.3722 24.4717 69.3307 24.4441 69.3465 24.3889C69.8478 24.1244 70.3155 23.8106 70.7496 23.4475C70.5957 23.3054 70.426 23.2344 70.2405 23.2344H70.1102L69.6011 23.2758L69.5596 23.2344V23.1515C69.8004 22.4963 69.9839 22.1687 70.1102 22.1687ZM74.1479 29.5176C74.0966 29.5176 74.0434 29.5176 73.9881 29.5176H73.9407C73.4829 29.5136 73.0408 29.4327 72.6146 29.2748C72.1567 30.0642 71.5568 30.4589 70.8148 30.4589C69.9306 30.3326 69.4886 29.9695 69.4886 29.3696H69.4412C69.2912 29.8748 68.9597 30.2853 68.4466 30.601C67.7598 30.8536 67.223 30.9799 66.8362 30.9799L66.6172 31.0095V30.9148C66.7948 30.7688 67.2704 30.4313 68.044 29.9024C68.8216 29.3735 69.2616 29.042 69.3643 28.9078C69.4708 28.7736 69.6228 28.3276 69.8201 27.5698C70.199 26.9383 70.5464 26.6225 70.8621 26.6225H70.9568C71.3515 26.6225 71.9831 27.0488 72.8514 27.9013C73.104 28.1144 73.5362 28.2092 74.1479 28.1855V29.5176ZM70.0569 28.2328C70.0569 28.6512 70.3885 28.9354 71.0516 29.0854H71.2884C71.8252 29.0301 72.0936 28.9512 72.0936 28.8486C71.47 28.2486 70.9963 27.9487 70.6727 27.9487H70.6253C70.3569 27.9487 70.1675 28.0434 70.0569 28.2328ZM75.6044 21.4766C75.6044 21.7292 75.8175 21.8851 76.2438 21.9443H76.3267C76.4845 21.9443 76.5852 21.887 76.6286 21.7726C76.6286 21.516 76.4431 21.3167 76.0721 21.1746C75.9103 21.1746 75.7544 21.2753 75.6044 21.4766ZM76.3267 20.4523C76.8121 20.4523 77.0549 20.7503 77.0549 21.3463C77.0549 22.2975 76.2438 23.1066 74.6216 23.7737C74.3887 23.8447 74.3611 23.7599 74.5387 23.5191C74.5821 23.4283 74.965 23.1441 75.6873 22.6666V22.6251C75.3754 22.4988 75.2195 22.2285 75.2195 21.814C75.4248 20.9062 75.7524 20.4523 76.2023 20.4523H76.3267ZM74.0059 28.1677C74.4716 28.1085 74.7045 28.0177 74.7045 27.8954C74.7045 26.956 74.9886 25.8193 75.557 24.4852C75.6359 24.3116 75.7149 24.2958 75.7938 24.4379C75.9991 24.8799 76.3622 25.243 76.8832 25.5272C77.9567 26.0482 78.4935 26.7587 78.4935 27.6586C78.4935 28.5979 78.2883 29.1347 77.8778 29.2689L77.4042 29.3163L75.6044 29.2216C75.1031 29.4347 74.5703 29.5334 74.0059 29.5176V28.1677ZM75.1307 27.327C75.1307 27.627 75.3676 27.8164 75.8412 27.8954C76.2517 27.6665 76.4569 27.4296 76.4569 27.1849C76.3148 26.6166 76.078 26.3324 75.7465 26.3324C75.407 26.3324 75.2018 26.6639 75.1307 27.327ZM76.6937 27.9427L77.8778 27.9901L78.0673 27.9427C77.7752 27.5402 77.3963 27.2244 76.9305 26.9955C76.8437 26.9955 76.7648 27.3112 76.6937 27.9427ZM83.2713 23.3226C83.3187 23.295 83.3325 23.3384 83.3127 23.4529C83.0444 24.0844 82.6319 24.5245 82.0754 24.7731L80.0328 25.7974C79.946 25.7737 79.9302 25.7026 79.9855 25.5842C80.2578 25.0593 80.4433 24.7475 80.542 24.6488L83.2713 23.3226ZM84.3843 29.2275C84.3409 29.2314 84.2975 29.2334 84.2541 29.2334H84.0173C83.6463 29.2334 83.3937 29.2018 83.2595 29.1387C82.9832 30.2004 82.6615 30.8497 82.2944 31.0865C81.9274 31.3273 81.0965 31.5305 79.8019 31.6963H79.7072C79.423 31.6647 79.2809 31.6174 79.2809 31.5542C79.2809 31.4595 79.5178 31.349 79.9914 31.2227C81.8543 30.3701 82.7858 29.7544 82.7858 29.3755C82.7858 29.2176 82.5648 28.8545 82.1227 28.2861C82.028 28.1283 81.9807 27.923 81.9807 27.6704V27.1968C81.9807 26.96 82.028 26.8337 82.1227 26.8179C82.5332 27.4454 83.2279 27.7967 84.2067 27.8717C84.2659 27.8717 84.3251 27.8697 84.3843 27.8658V29.2275ZM87.9307 18.7478C88.3096 19.3951 88.499 20.0266 88.499 20.6423C88.3333 21.8106 88.128 22.3948 87.8833 22.3948L87.8359 22.3474V22.3L87.9307 21.6843V21.637C87.9307 21.2581 87.7728 20.6897 87.457 19.9319V19.8372C87.6149 19.1109 87.7728 18.7478 87.9307 18.7478ZM89.7245 22.3226C89.7719 22.295 89.7857 22.3384 89.766 22.4529C89.4976 23.0844 89.0851 23.5245 88.5286 23.7731L86.4861 24.7974C86.3993 24.7737 86.3835 24.7026 86.4387 24.5842C86.7111 24.0593 86.8966 23.7475 86.9952 23.6488L89.7245 22.3226ZM84.2126 28.1677H84.3962C85.0198 28.1006 85.5447 27.7237 85.971 27.0369C86.0342 26.8948 86.0973 26.8159 86.1605 26.8001H86.2078L86.3499 26.9422C86.3302 27.1238 86.2986 27.2501 86.2552 27.3211C86.5315 27.8263 86.863 28.0789 87.2498 28.0789L87.2972 28.1263C87.9839 26.6107 88.7575 25.8528 89.618 25.8528C90.3047 25.8528 90.81 26.137 91.1336 26.7054V26.9896C91.1336 28.7262 90.06 29.5945 87.9129 29.5945L87.2025 29.5472C86.9814 30.1471 86.8393 30.4471 86.7762 30.4471L86.7288 30.3997V30.3524L86.8709 29.5472V29.4525C86.4052 29.192 86.0421 28.8288 85.7816 28.3631C85.5368 29.1643 85.0139 29.5492 84.2126 29.5176V28.1677ZM87.7708 28.221H87.8655C88.9391 28.221 89.8548 28.0631 90.6126 27.7474C90.6126 27.4079 90.2969 27.1711 89.6653 27.0369H89.4759C88.7181 27.0369 88.1497 27.4316 87.7708 28.221ZM92.7972 21.1687H93.265C93.8333 21.1687 94.1175 21.3818 94.1175 21.8081C93.7504 22.8027 93.3044 23.3297 92.7795 23.3889L92.1578 23.4717C92.0592 23.4717 92.0177 23.4441 92.0335 23.3889C92.5348 23.1244 93.0025 22.8106 93.4366 22.4475C93.2827 22.3054 93.113 22.2344 92.9275 22.2344H92.7972L92.2881 22.2758L92.2466 22.2344V22.1515C92.4874 21.4963 92.6709 21.1687 92.7972 21.1687ZM92.9926 30.3228C93.2847 30.3228 93.6478 30.528 94.082 30.9385V31.0332C93.8136 31.7279 93.6241 32.0752 93.5136 32.0752C92.9768 31.87 92.6453 31.6647 92.519 31.4595V31.4121C92.519 31.0806 92.6769 30.7174 92.9926 30.3228ZM91.5066 29.4761C88.8779 29.5866 87.4649 29.4643 87.2676 29.1091C87.0663 28.7538 87.9741 28.5723 89.991 28.5644C90.3896 28.5565 90.6422 28.5447 90.7488 28.5289C92.3512 28.2802 93.3301 28.0118 93.6853 27.7237V27.6763L93.1643 26.4449V26.2554C93.1643 25.6239 93.2432 25.3082 93.4011 25.3082C93.8432 26.1528 94.0642 26.8159 94.0642 27.2974V27.3922C94.0642 28.4894 93.5116 29.1209 92.4065 29.2867C92.1263 29.3617 91.8263 29.4248 91.5066 29.4761ZM96.9711 14.3226C97.0185 14.295 97.0323 14.3384 97.0126 14.4529C96.7442 15.0844 96.3317 15.5245 95.7752 15.7731L93.7327 16.7974C93.6458 16.7737 93.63 16.7026 93.6853 16.5842C93.9576 16.0593 94.1431 15.7475 94.2418 15.6488L96.9711 14.3226ZM95.7634 21.5605C95.8581 21.5605 95.9528 21.8763 96.0475 22.5078L96.4738 23.4551L96.2844 24.5444L96.4265 27.1968V27.623C96.3633 28.7045 96.2054 29.336 95.9528 29.5176L95.9055 29.4702L95.9528 28.7598C95.9528 28.1204 95.7476 26.0837 95.3371 22.6499C95.5344 21.9237 95.6765 21.5605 95.7634 21.5605ZM95.4733 18.0438C95.9114 18.0438 96.3515 18.2629 96.7935 18.701C96.8369 18.776 96.8192 18.8352 96.7402 18.8786C96.6652 18.922 96.5962 18.9122 96.533 18.849C96.3436 18.6793 96.0752 18.5944 95.7278 18.5944H95.5798C95.4338 18.5944 95.2641 18.6556 95.0707 18.778C95.0707 19.1332 95.4969 19.3522 96.3495 19.4351L97.1961 19.1036L97.2316 19.2161C97.2316 19.6147 96.7422 19.9699 95.7634 20.2817L94.4076 21.0514L94.2655 21.0869C94.2102 21.0988 94.1727 21.0751 94.153 21.0159C94.153 20.8027 94.4589 20.5087 95.0707 20.1337V20.0982C94.7747 19.9364 94.6266 19.7035 94.6266 19.3996C94.7648 18.4957 95.047 18.0438 95.4733 18.0438ZM102.98 20.4766C102.98 20.7292 103.193 20.8851 103.62 20.9443H103.703C103.861 20.9443 103.961 20.887 104.005 20.7726C104.005 20.516 103.819 20.3167 103.448 20.1746C103.286 20.1746 103.13 20.2753 102.98 20.4766ZM103.703 19.4523C104.188 19.4523 104.431 19.7503 104.431 20.3463C104.431 21.2975 103.62 22.1066 101.998 22.7737C101.765 22.8447 101.737 22.7599 101.915 22.5191C101.958 22.4283 102.341 22.1441 103.063 21.6666V21.6251C102.751 21.4988 102.596 21.2285 102.596 20.814C102.801 19.9062 103.128 19.4523 103.578 19.4523H103.703ZM107.48 29.5176C107.286 29.5215 107.079 29.5235 106.858 29.5235H106.811C106.314 29.5235 105.856 29.3656 105.437 29.0499C104.462 29.4603 103.436 29.6656 102.359 29.6656H101.743C100.275 29.6656 99.2801 29.0814 98.7591 27.9131L98.7117 27.4869C98.8972 26.1291 99.1814 25.4503 99.5643 25.4503L99.659 25.545C99.659 25.6594 99.4853 26.0384 99.138 26.6817V26.7291C99.4103 27.8026 100.405 28.3394 102.122 28.3394H102.69C103.373 28.3394 103.989 28.2605 104.537 28.1026L104.395 27.2974C104.395 26.0976 104.743 25.4976 105.437 25.4976H105.864C106.464 25.6397 106.763 26.0344 106.763 26.6817C106.7 27.3527 106.621 27.8263 106.527 28.1026V28.15H106.574L107.142 28.1855C107.261 28.1855 107.373 28.1835 107.48 28.1796V29.5176ZM104.348 23.0821C104.936 23.3031 105.252 23.4926 105.295 23.6505V23.8873C105.272 24.1162 105.098 24.4319 104.774 24.8345H104.727C104.545 24.6767 104.23 24.5188 103.78 24.3609L103.732 24.1241C104.016 23.4294 104.222 23.0821 104.348 23.0821ZM104.822 27.108C104.936 27.329 105.204 27.5658 105.627 27.8184L106.385 27.5342V27.3922C106.183 27.0448 105.915 26.8712 105.579 26.8712H105.485C105.043 26.8909 104.822 26.9698 104.822 27.108ZM112.494 21.3226C112.542 21.295 112.556 21.3384 112.536 21.4529C112.267 22.0844 111.855 22.5245 111.299 22.7731L109.256 23.7974C109.169 23.7737 109.153 23.7026 109.209 23.5842C109.481 23.0593 109.666 22.7475 109.765 22.6488L112.494 21.3226ZM107.219 28.1677C107.318 28.1677 107.421 28.1677 107.527 28.1677L107.764 28.0493C107.914 27.7415 108.135 27.3625 108.427 26.9126L107.953 23.2656C108.111 22.5078 108.253 22.1289 108.38 22.1289L108.617 23.0288C108.838 23.3367 108.948 23.6208 108.948 23.8813C108.79 24.1734 108.711 24.4102 108.711 24.5918V24.6865L108.806 26.2021V26.439C109.295 26.0285 109.951 25.8035 110.772 25.764C111.719 25.8982 112.193 26.214 112.193 26.7113V27.0428C112.035 27.7454 111.798 28.2822 111.482 28.6532C110.527 29.19 109.477 29.4781 108.332 29.5176H107.811C107.602 29.5176 107.405 29.5176 107.219 29.5176V28.1677ZM108.143 28.1914H108.238C109.682 28.1519 110.811 27.8954 111.624 27.4218C111.253 27.0428 110.985 26.8534 110.819 26.8534H110.44C109.359 26.8929 108.593 27.3389 108.143 28.1914ZM114.904 20.1687H115.372C115.94 20.1687 116.224 20.3818 116.224 20.8081C115.857 21.8027 115.411 22.3297 114.886 22.3889L114.265 22.4717C114.166 22.4717 114.125 22.4441 114.14 22.3889C114.642 22.1244 115.109 21.8106 115.543 21.4475C115.39 21.3054 115.22 21.2344 115.034 21.2344H114.904L114.395 21.2758L114.353 21.2344V21.1515C114.594 20.4963 114.778 20.1687 114.904 20.1687ZM118.581 30.0327C117.527 30.1076 116.903 29.6735 116.71 28.7302V28.6118L113.252 29.4169C112.155 29.5274 111.297 29.5274 110.677 29.4169C110.057 29.3025 109.718 29.1268 109.659 28.89C109.513 28.6414 109.854 28.5091 110.683 28.4933C111.508 28.4736 112.096 28.4539 112.447 28.4341C113.3 28.3078 114.531 28.0355 116.141 27.6171C115.352 27.1435 114.799 26.9067 114.484 26.9067H114.342C113.971 26.9067 113.702 27.1277 113.536 27.5698C113.469 27.6724 113.422 27.6566 113.394 27.5224V27.4277C113.517 26.5436 113.959 26.1015 114.721 26.1015C115.052 26.1015 115.936 26.4015 117.373 27.0014C117.831 27.0843 118.21 27.1001 118.51 27.0488C118.549 27.0527 118.565 27.0843 118.557 27.1435C118.336 27.9329 118.036 28.3276 117.657 28.3276C117.306 28.3631 117.148 28.4262 117.183 28.517C117.349 28.7538 117.815 28.8328 118.581 28.7538V30.0327ZM114.999 23.4669C115.465 23.6169 115.828 23.8064 116.088 24.0353V24.13C116.088 24.2879 115.914 24.6352 115.567 25.172C115.243 25.172 114.88 24.9983 114.478 24.651V24.5563C114.478 24.2168 114.651 23.8537 114.999 23.4669ZM121.908 22.3226C121.955 22.295 121.969 22.3384 121.949 22.4529C121.681 23.0844 121.268 23.5245 120.712 23.7731L118.669 24.7974C118.583 24.7737 118.567 24.7026 118.622 24.5842C118.894 24.0593 119.08 23.7475 119.179 23.6488L121.908 22.3226ZM118.35 29.1677C119.589 29.1796 120.284 28.9467 120.434 28.4691C120.434 28.3033 120.276 27.8929 119.96 27.2377L120.102 26.0062H120.197C120.607 26.7167 120.813 27.4271 120.813 28.1376V28.5638C120.813 28.848 120.744 29.148 120.605 29.4637C120.471 29.7756 120.262 30.038 119.978 30.2512C119.698 30.4643 119.155 30.5531 118.35 30.5176V29.1677ZM120.523 30.9083H120.57C120.894 30.9557 121.257 31.1767 121.659 31.5714V31.6188L121.091 32.6134C120.333 32.3687 119.954 32.1635 119.954 31.9977C120.199 31.2714 120.388 30.9083 120.523 30.9083ZM118.77 31.3346H118.865C119.188 31.4056 119.536 31.5951 119.907 31.903V31.9503C119.694 32.5976 119.504 32.9449 119.338 32.9923C118.857 32.8976 118.494 32.7397 118.249 32.5187V32.4713C118.249 32.1003 118.423 31.7214 118.77 31.3346ZM125.904 20.4766C125.904 20.7292 126.117 20.8851 126.544 20.9443H126.626C126.784 20.9443 126.885 20.887 126.928 20.7726C126.928 20.516 126.743 20.3167 126.372 20.1746C126.21 20.1746 126.054 20.2753 125.904 20.4766ZM126.626 19.4523C127.112 19.4523 127.355 19.7503 127.355 20.3463C127.355 21.2975 126.544 22.1066 124.921 22.7737C124.689 22.8447 124.661 22.7599 124.839 22.5191C124.882 22.4283 125.265 22.1441 125.987 21.6666V21.6251C125.675 21.4988 125.519 21.2285 125.519 20.814C125.725 19.9062 126.052 19.4523 126.502 19.4523H126.626ZM128.03 23.0288C128.377 23.1077 128.724 23.313 129.072 23.6445V23.6919C129.072 23.8656 128.882 24.1813 128.503 24.6392H128.361C128.14 24.6392 127.856 24.4655 127.509 24.1182C127.595 23.6287 127.769 23.2656 128.03 23.0288ZM126.23 23.2656C126.601 23.3761 126.98 23.613 127.367 23.9761V24.0234C127.011 24.6471 126.806 24.9628 126.751 24.9707H126.609C126.34 24.9312 126.056 24.7576 125.756 24.4497V24.4023C125.788 24.0313 125.946 23.6524 126.23 23.2656ZM127.698 25.5864H127.793C128.558 25.5864 129.079 26.36 129.356 27.9072V28.6177C129.356 28.9571 129.166 29.415 128.787 29.9912C127.895 31.1279 126.98 31.6963 126.04 31.6963C124.485 31.6963 123.506 30.9858 123.104 29.5649L123.009 28.7598V28.7124C123.009 27.6467 123.325 26.7626 123.956 26.0601L124.241 25.8706C124.304 25.8706 124.335 25.918 124.335 26.0127C124.146 26.4863 123.956 26.8573 123.767 27.1257C123.577 27.3941 123.467 27.6862 123.435 28.002C123.435 29.1781 123.988 29.936 125.093 30.2754L125.946 30.3701H125.993C127.24 30.3701 128.266 29.786 129.072 28.6177V28.4756C129.072 28.3098 128.977 28.1361 128.787 27.9546L128.03 28.144C127.177 28.0572 126.751 27.7257 126.751 27.1494V27.0547C126.822 26.1074 127.043 25.6338 127.414 25.6338L127.698 25.5864ZM132.263 23.1687H132.73C133.299 23.1687 133.583 23.3818 133.583 23.8081C133.216 24.8027 132.77 25.3297 132.245 25.3889L131.623 25.4717C131.525 25.4717 131.483 25.4441 131.499 25.3889C132 25.1244 132.468 24.8106 132.902 24.4475C132.748 24.3054 132.578 24.2344 132.393 24.2344H132.263L131.754 24.2758L131.712 24.2344V24.1515C131.953 23.4963 132.136 23.1687 132.263 23.1687ZM135.17 29.2275C135.126 29.2314 135.083 29.2334 135.039 29.2334H134.803C134.432 29.2334 134.179 29.2018 134.045 29.1387C133.768 30.2004 133.447 30.8497 133.08 31.0865C132.713 31.3273 131.882 31.5305 130.587 31.6963H130.492C130.208 31.6647 130.066 31.6174 130.066 31.5542C130.066 31.4595 130.303 31.349 130.777 31.2227C132.64 30.3701 133.571 29.7544 133.571 29.3755C133.571 29.2176 133.35 28.8545 132.908 28.2861C132.813 28.1283 132.766 27.923 132.766 27.6704V27.1968C132.766 26.96 132.813 26.8337 132.908 26.8179C133.319 27.4454 134.013 27.7967 134.992 27.8717C135.051 27.8717 135.11 27.8697 135.17 27.8658V29.2275ZM138.426 22.3226C138.473 22.295 138.487 22.3384 138.467 22.4529C138.199 23.0844 137.786 23.5245 137.23 23.7731L135.187 24.7974C135.101 24.7737 135.085 24.7026 135.14 24.5842C135.412 24.0593 135.598 23.7475 135.697 23.6488L138.426 22.3226ZM135.797 31.495H135.987C136.61 31.8502 136.926 32.0555 136.934 32.1107C136.626 32.7738 136.421 33.1211 136.318 33.1527C135.963 33.1527 135.616 32.979 135.276 32.6317C135.339 32.2923 135.513 31.9134 135.797 31.495ZM135.116 28.1322H135.128C135.681 28.1322 136.123 27.9427 136.454 27.5638L136.407 27.1849C136.407 26.7192 136.502 26.3403 136.691 26.0482C136.778 26.0482 136.904 26.8534 137.07 28.4637C137.26 29.3321 137.921 29.7347 139.053 29.6715V31.0214C137.948 31.1003 137.177 30.5951 136.739 29.5057C136.667 28.7479 136.589 28.369 136.502 28.369C136.316 29.0874 135.854 29.4643 135.116 29.4998V28.1322ZM140.255 20.1687H140.723C141.291 20.1687 141.576 20.3818 141.576 20.8081C141.208 21.8027 140.762 22.3297 140.237 22.3889L139.616 22.4717C139.517 22.4717 139.476 22.4441 139.492 22.3889C139.993 22.1244 140.46 21.8106 140.895 21.4475C140.741 21.3054 140.571 21.2344 140.385 21.2344H140.255L139.746 21.2758L139.705 21.2344V21.1515C139.945 20.4963 140.129 20.1687 140.255 20.1687ZM138.947 29.1618C139.002 29.1658 139.061 29.1677 139.124 29.1677H139.574C140.048 29.0888 140.411 28.923 140.664 28.6704L140.095 24.1709C140.237 23.3184 140.364 22.8921 140.474 22.8921L141.09 24.313C141.09 24.534 141.011 24.8656 140.853 25.3076L141.09 27.8652V28.5757C140.912 29.3295 140.674 29.8565 140.374 30.1564C140.149 30.3972 139.882 30.5176 139.574 30.5176H139.172C139.093 30.5176 139.018 30.5156 138.947 30.5117V29.1618ZM142.801 21.5605C142.896 21.5605 142.99 21.8763 143.085 22.5078L143.511 23.4551L143.322 24.5444L143.464 27.1968V27.623C143.401 28.7045 143.243 29.336 142.99 29.5176L142.943 29.4702L142.99 28.7598C142.99 28.1204 142.785 26.0837 142.375 22.6499C142.572 21.9237 142.714 21.5605 142.801 21.5605ZM144.553 20.0331C144.553 20.3528 144.411 20.6231 144.127 20.8442C143.859 21.0455 143.561 21.1461 143.233 21.1461H141.948C141.791 21.1461 141.712 21.2606 141.712 21.4895C141.712 21.7303 141.716 21.823 141.724 21.7678C141.475 21.5191 141.351 21.2626 141.351 20.9981C141.351 20.6587 141.548 20.489 141.943 20.489H142.126C142.73 19.668 143.33 19.2575 143.926 19.2575C144.344 19.2575 144.553 19.516 144.553 20.0331ZM143.861 20.0212C143.861 19.8278 143.78 19.7311 143.618 19.7311C143.33 19.7311 142.971 19.9837 142.541 20.489H143.168C143.63 20.489 143.861 20.333 143.861 20.0212ZM146.851 21.4766C146.851 21.7292 147.064 21.8851 147.49 21.9443H147.573C147.731 21.9443 147.831 21.887 147.875 21.7726C147.875 21.516 147.689 21.3167 147.318 21.1746C147.156 21.1746 147.001 21.2753 146.851 21.4766ZM147.573 20.4523C148.058 20.4523 148.301 20.7503 148.301 21.3463C148.301 22.2975 147.49 23.1066 145.868 23.7737C145.635 23.8447 145.607 23.7599 145.785 23.5191C145.828 23.4283 146.211 23.1441 146.933 22.6666V22.6251C146.622 22.4988 146.466 22.2285 146.466 21.814C146.671 20.9062 146.999 20.4523 147.449 20.4523H147.573ZM147.01 25.0654C148.621 25.6417 149.426 26.3521 149.426 27.1968L149.473 27.481C149.339 28.5861 148.976 29.1387 148.384 29.1387C148.384 29.2413 147.595 29.3676 146.016 29.5176L145.968 29.3755C145.968 28.5861 146.111 28.1914 146.395 28.1914C147.973 28.0651 148.842 27.8757 149 27.623C148.455 27.0942 147.745 26.6679 146.868 26.3442L146.821 26.1074C146.845 25.4128 146.908 25.0654 147.01 25.0654ZM152.889 29.5176H152.771C151.626 29.5176 150.916 28.7124 150.64 27.1021L150.355 22.5078C150.474 21.8447 150.6 21.4658 150.734 21.3711H150.782C150.845 21.3711 150.876 21.4185 150.876 21.5132C150.876 24.6471 151.082 26.6284 151.492 27.4573C151.911 27.9191 152.376 28.1539 152.889 28.1618V29.5176ZM155.702 18.3226C155.749 18.295 155.763 18.3384 155.743 18.4529C155.475 19.0844 155.062 19.5245 154.506 19.7731L152.463 20.7974C152.376 20.7737 152.361 20.7026 152.416 20.5842C152.688 20.0593 152.874 19.7475 152.972 19.6488L155.702 18.3226ZM151.001 26.1311L150.841 24.7635H150.847L153.191 22.9341C154.739 21.7342 155.781 20.9606 156.317 20.6133L156.365 20.6606V20.708L155.512 22.8394L155.465 22.8867C155.417 22.9183 155.378 22.9104 155.346 22.863C155.315 22.8157 155.307 22.7288 155.323 22.6025L155.37 22.271H155.323L152.149 24.7812C153.381 24.8168 154.742 25.4285 156.234 26.6166C156.704 26.8929 157.063 27.031 157.312 27.031V28.3809H157.217C156.755 28.3809 155.998 27.9862 154.944 27.1968L154.896 27.2441C154.316 28.7598 153.574 29.5176 152.67 29.5176H152.576V28.1677H152.86C153.511 28.1243 154.048 27.8322 154.47 27.2915V27.0073C154.47 26.7745 153.665 26.4745 152.055 26.1074H151.344V26.1311H151.001ZM160.769 20.3226C160.817 20.295 160.831 20.3384 160.811 20.4529C160.543 21.0844 160.13 21.5245 159.574 21.7731L157.531 22.7974C157.444 22.7737 157.428 22.7026 157.484 22.5842C157.756 22.0593 157.941 21.7475 158.04 21.6488L160.769 20.3226ZM157.211 27.1677C158.451 27.1796 159.145 26.9467 159.295 26.4691C159.295 26.3033 159.137 25.8929 158.822 25.2377L158.964 24.0062H159.058C159.469 24.7167 159.674 25.4271 159.674 26.1376V26.5638C159.674 26.848 159.605 27.148 159.467 27.4637C159.333 27.7756 159.124 28.038 158.839 28.2512C158.559 28.4643 158.016 28.5531 157.211 28.5176V27.1677ZM159.384 28.9083H159.431C159.755 28.9557 160.118 29.1767 160.521 29.5714V29.6188L159.952 30.6134C159.195 30.3687 158.816 30.1635 158.816 29.9977C159.06 29.2714 159.25 28.9083 159.384 28.9083ZM157.632 29.3346H157.726C158.05 29.4056 158.397 29.5951 158.768 29.903V29.9503C158.555 30.5976 158.366 30.9449 158.2 30.9923C157.718 30.8976 157.355 30.7397 157.111 30.5187V30.4713C157.111 30.1003 157.284 29.7214 157.632 29.3346Z" fill="black"/>
<g clip-path="url(#clip0_199_1873)">
<path d="M187.135 22.1715V18.1428C187.135 17.7897 186.849 17.5034 186.496 17.5034H182.467L179.658 14.7059C179.408 14.4574 179.005 14.4574 178.755 14.7059L175.946 17.5034H171.917C171.564 17.5034 171.278 17.7897 171.278 18.1428V22.1715L168.48 24.9809C168.232 25.2304 168.232 25.6337 168.48 25.8832L171.278 28.6925V32.7212C171.278 33.0744 171.564 33.3606 171.917 33.3606H175.946L178.755 36.1582C178.88 36.2824 179.043 36.3445 179.206 36.3445C179.37 36.3445 179.533 36.2824 179.658 36.1582L182.467 33.3606H186.496C186.849 33.3606 187.135 33.0744 187.135 32.7212V28.6925L189.933 25.8832C190.181 25.6337 190.181 25.2304 189.933 24.9809L187.135 22.1715ZM186.043 27.9772C185.923 28.0971 185.856 28.2593 185.856 28.4284V32.0818H182.203C182.034 32.0818 181.872 32.1488 181.752 32.2682L179.206 34.8028L176.661 32.2682C176.541 32.1488 176.379 32.0818 176.21 32.0818H172.557V28.4285C172.557 28.2593 172.49 28.0971 172.37 27.9773L169.836 25.432L172.37 22.8868C172.49 22.767 172.557 22.6048 172.557 22.4357V18.7822H176.21C176.379 18.7822 176.541 18.7152 176.661 18.5959L179.206 16.0613L181.752 18.5959C181.872 18.7152 182.034 18.7822 182.203 18.7822H185.856V22.4356C185.856 22.6047 185.923 22.767 186.043 22.8868L188.577 25.432L186.043 27.9772Z" fill="#03AA77"/>
</g>
<path d="M175.667 23.0937V22.211H177.433V28.3984H176.457V23.0937H175.667ZM179.967 26.7179C180.024 27.0008 180.145 27.2158 180.332 27.363C180.519 27.5101 180.771 27.5836 181.088 27.5836C181.489 27.5836 181.784 27.4252 181.97 27.1083C182.157 26.7915 182.25 26.2511 182.25 25.4872C182.115 25.6796 181.922 25.8296 181.673 25.9371C181.43 26.0389 181.164 26.0898 180.875 26.0898C180.508 26.0898 180.174 26.0163 179.874 25.8692C179.574 25.7164 179.336 25.4929 179.161 25.1986C178.991 24.8988 178.906 24.5366 178.906 24.1122C178.906 23.4898 179.087 22.9947 179.449 22.6269C179.817 22.2535 180.321 22.0668 180.96 22.0668C181.73 22.0668 182.276 22.3242 182.598 22.8391C182.927 23.3484 183.091 24.1321 183.091 25.1902C183.091 25.9201 183.028 26.517 182.904 26.981C182.785 27.445 182.576 27.7958 182.276 28.0335C181.976 28.2711 181.56 28.3899 181.028 28.3899C180.423 28.3899 179.956 28.2315 179.628 27.9146C179.3 27.5978 179.116 27.1989 179.076 26.7179H179.967ZM181.045 25.275C181.385 25.275 181.651 25.1704 181.843 24.961C182.041 24.746 182.14 24.4631 182.14 24.1122C182.14 23.7218 182.035 23.4191 181.826 23.2041C181.622 22.9834 181.342 22.8731 180.986 22.8731C180.629 22.8731 180.346 22.9862 180.137 23.2126C179.933 23.4332 179.831 23.7247 179.831 24.0868C179.831 24.4319 179.93 24.7177 180.128 24.944C180.332 25.1647 180.638 25.275 181.045 25.275Z" fill="#240F4F"/>
<defs>
<clipPath id="clip0_199_1873">
<rect width="21.825" height="21.825" fill="white" transform="translate(168.294 14.5176)"/>
</clipPath>
</defs>
</svg>
