<svg width="16" height="19" viewBox="0 0 16 19" fill="none" xmlns="http://www.w3.org/2000/svg">
<mask id="path-1-outside-1_199_1862" maskUnits="userSpaceOnUse" x="-2" y="-1" width="20" height="21" fill="black">
<rect fill="white" x="-2" y="-1" width="20" height="21"/>
<path d="M7.85 18.25C2.5 18.25 0.075 14.3 0.075 9.5C0.075 4.75 2.5 0.75 7.85 0.75C13.2 0.75 15.625 4.75 15.625 9.5C15.625 14.3 13.2 18.25 7.85 18.25ZM7.85 4.025C5.325 4.025 4.525 6.225 4.525 9.5C4.525 12.775 5.325 14.975 7.85 14.975C10.375 14.975 11.175 12.775 11.175 9.5C11.175 6.225 10.375 4.025 7.85 4.025Z"/>
</mask>
<path d="M7.85 18.25C2.5 18.25 0.075 14.3 0.075 9.5C0.075 4.75 2.5 0.75 7.85 0.75C13.2 0.75 15.625 4.75 15.625 9.5C15.625 14.3 13.2 18.25 7.85 18.25ZM7.85 4.025C5.325 4.025 4.525 6.225 4.525 9.5C4.525 12.775 5.325 14.975 7.85 14.975C10.375 14.975 11.175 12.775 11.175 9.5C11.175 6.225 10.375 4.025 7.85 4.025Z" fill="#229D71"/>
<path d="M7.85 16.5833C5.62874 16.5833 4.18349 15.7865 3.2557 14.6313C2.28585 13.4238 1.74167 11.6444 1.74167 9.5H-1.59167C-1.59167 12.1556 -0.923352 14.7512 0.656801 16.7187C2.27901 18.7385 4.72126 19.9167 7.85 19.9167V16.5833ZM1.74167 9.5C1.74167 7.38371 2.28441 5.60152 3.2577 4.38491C4.18906 3.22071 5.63584 2.41667 7.85 2.41667V-0.916667C4.71416 -0.916667 2.27344 0.279292 0.654802 2.30259C-0.921906 4.27348 -1.59167 6.86629 -1.59167 9.5H1.74167ZM7.85 2.41667C10.0642 2.41667 11.5109 3.22071 12.4423 4.38491C13.4156 5.60152 13.9583 7.38371 13.9583 9.5H17.2917C17.2917 6.86629 16.6219 4.27348 15.0452 2.30259C13.4266 0.279292 10.9858 -0.916667 7.85 -0.916667V2.41667ZM13.9583 9.5C13.9583 11.6444 13.4141 13.4238 12.4443 14.6313C11.5165 15.7865 10.0713 16.5833 7.85 16.5833V19.9167C10.9787 19.9167 13.421 18.7385 15.0432 16.7187C16.6234 14.7512 17.2917 12.1556 17.2917 9.5H13.9583ZM7.85 2.35833C6.97076 2.35833 6.14035 2.55226 5.40927 2.98985C4.67816 3.42745 4.14713 4.04842 3.77256 4.74535C3.05619 6.07823 2.85833 7.78916 2.85833 9.5H6.19167C6.19167 7.93584 6.39381 6.90928 6.70869 6.3234C6.84975 6.06095 6.99215 5.92724 7.1212 5.84999C7.25027 5.77274 7.46673 5.69167 7.85 5.69167V2.35833ZM2.85833 9.5C2.85833 11.2108 3.05619 12.9218 3.77256 14.2547C4.14713 14.9516 4.67816 15.5725 5.40927 16.0101C6.14035 16.4477 6.97076 16.6417 7.85 16.6417V13.3083C7.46673 13.3083 7.25027 13.2273 7.1212 13.15C6.99215 13.0728 6.84975 12.939 6.70869 12.6766C6.39381 12.0907 6.19167 11.0642 6.19167 9.5H2.85833ZM7.85 16.6417C8.72923 16.6417 9.55965 16.4477 10.2907 16.0101C11.0218 15.5725 11.5529 14.9516 11.9274 14.2547C12.6438 12.9218 12.8417 11.2108 12.8417 9.5H9.50833C9.50833 11.0642 9.30619 12.0907 8.99131 12.6766C8.85025 12.939 8.70785 13.0728 8.5788 13.15C8.44973 13.2273 8.23326 13.3083 7.85 13.3083V16.6417ZM12.8417 9.5C12.8417 7.78916 12.6438 6.07823 11.9274 4.74535C11.5529 4.04842 11.0218 3.42745 10.2907 2.98985C9.55965 2.55226 8.72923 2.35833 7.85 2.35833V5.69167C8.23326 5.69167 8.44973 5.77274 8.5788 5.84999C8.70785 5.92724 8.85025 6.06095 8.99131 6.3234C9.30619 6.90928 9.50833 7.93584 9.50833 9.5H12.8417Z" fill="white" mask="url(#path-1-outside-1_199_1862)"/>
</svg>
