<svg width="13" height="18" viewBox="0 0 13 18" fill="none" xmlns="http://www.w3.org/2000/svg">
<mask id="path-1-outside-1_199_1883" maskUnits="userSpaceOnUse" x="-2" y="-1" width="17" height="21" fill="black">
<rect fill="white" x="-2" y="-1" width="17" height="21"/>
<path d="M12.075 14.525L12.55 18H1.05V14.525H4.625V5L1.75 6.4L0.625 3.15L5.25 0.875H8.95V14.525H12.075Z"/>
</mask>
<path d="M12.075 14.525L12.55 18H1.05V14.525H4.625V5L1.75 6.4L0.625 3.15L5.25 0.875H8.95V14.525H12.075Z" fill="#229D71"/>
<path d="M12.075 14.525L13.7263 14.2993L13.5293 12.8583H12.075V14.525ZM12.55 18V19.6667H14.46L14.2013 17.7743L12.55 18ZM1.05 18H-0.616666V19.6667H1.05V18ZM1.05 14.525V12.8583H-0.616666V14.525H1.05ZM4.625 14.525V16.1917H6.29167V14.525H4.625ZM4.625 5H6.29167V2.33464L3.89532 3.50155L4.625 5ZM1.75 6.4L0.175023 6.94518L0.789841 8.72133L2.47968 7.89845L1.75 6.4ZM0.625 3.15L-0.11064 1.65447L-1.43148 2.30418L-0.949977 3.69518L0.625 3.15ZM5.25 0.875V-0.791667H4.86227L4.51436 -0.620531L5.25 0.875ZM8.95 0.875H10.6167V-0.791667H8.95V0.875ZM8.95 14.525H7.28333V16.1917H8.95V14.525ZM10.4237 14.7507L10.8987 18.2257L14.2013 17.7743L13.7263 14.2993L10.4237 14.7507ZM12.55 16.3333H1.05V19.6667H12.55V16.3333ZM2.71667 18V14.525H-0.616666V18H2.71667ZM1.05 16.1917H4.625V12.8583H1.05V16.1917ZM6.29167 14.525V5H2.95833V14.525H6.29167ZM3.89532 3.50155L1.02032 4.90155L2.47968 7.89845L5.35468 6.49845L3.89532 3.50155ZM3.32498 5.85482L2.19998 2.60482L-0.949977 3.69518L0.175023 6.94518L3.32498 5.85482ZM1.36064 4.64553L5.98564 2.37053L4.51436 -0.620531L-0.11064 1.65447L1.36064 4.64553ZM5.25 2.54167H8.95V-0.791667H5.25V2.54167ZM7.28333 0.875V14.525H10.6167V0.875H7.28333ZM8.95 16.1917H12.075V12.8583H8.95V16.1917Z" fill="white" mask="url(#path-1-outside-1_199_1883)"/>
</svg>
