<svg width="36" height="36" viewBox="0 0 36 36" fill="none" xmlns="http://www.w3.org/2000/svg">
<g clip-path="url(#clip0_132_1966)">
<path d="M31.0781 12.6219V5.97656C31.0781 5.39409 30.6059 4.92188 30.0234 4.92188H23.3781L18.7442 0.307336C18.3326 -0.102445 17.6673 -0.102445 17.2557 0.307336L12.6219 4.92188H5.97656C5.39409 4.92188 4.92188 5.39409 4.92188 5.97656V12.6219L0.307336 17.2558C-0.102445 17.6674 -0.102445 18.3327 0.307336 18.7443L4.92188 23.3781V30.0234C4.92188 30.6059 5.39409 31.0781 5.97656 31.0781H12.6219L17.2557 35.6927C17.4615 35.8976 17.7308 36 18 36C18.2692 36 18.5385 35.8976 18.7442 35.6927L23.3781 31.0781H30.0234C30.6059 31.0781 31.0781 30.6059 31.0781 30.0234V23.3781L35.6927 18.7443C36.1024 18.3327 36.1024 17.6674 35.6927 17.2558L31.0781 12.6219ZM29.2761 22.1983C29.0793 22.396 28.9688 22.6635 28.9688 22.9425V28.9688H22.9425C22.6636 28.9688 22.396 29.0793 22.1984 29.2761L18 33.4569L13.8017 29.2761C13.604 29.0793 13.3365 28.9688 13.0575 28.9688H7.03125V22.9425C7.03125 22.6636 6.92072 22.396 6.72391 22.1984L2.54313 18L6.72391 13.8017C6.92072 13.604 7.03125 13.3365 7.03125 13.0575V7.03125H13.0575C13.3364 7.03125 13.604 6.92072 13.8016 6.72391L18 2.54313L22.1984 6.72391C22.3961 6.92072 22.6636 7.03125 22.9425 7.03125H28.9688V13.0575C28.9688 13.3364 29.0793 13.604 29.2761 13.8016L33.4569 18L29.2761 22.1983Z" fill="#03AA77"/>
</g>
<path d="M11.9084 17.764C11.9084 16.1493 12.179 14.8893 12.7204 13.984C13.271 13.0693 14.2137 12.612 15.5484 12.612C16.883 12.612 17.821 13.0693 18.3624 13.984C18.913 14.8893 19.1884 16.1493 19.1884 17.764C19.1884 19.3973 18.913 20.676 18.3624 21.6C17.821 22.5147 16.883 22.972 15.5484 22.972C14.2137 22.972 13.271 22.5147 12.7204 21.6C12.179 20.676 11.9084 19.3973 11.9084 17.764ZM17.6204 17.764C17.6204 17.008 17.569 16.3687 17.4664 15.846C17.373 15.3233 17.177 14.8987 16.8784 14.572C16.5797 14.236 16.1364 14.068 15.5484 14.068C14.9604 14.068 14.517 14.236 14.2184 14.572C13.9197 14.8987 13.719 15.3233 13.6164 15.846C13.523 16.3687 13.4764 17.008 13.4764 17.764C13.4764 18.548 13.523 19.206 13.6164 19.738C13.7097 20.27 13.9057 20.6993 14.2044 21.026C14.5124 21.3527 14.9604 21.516 15.5484 21.516C16.1364 21.516 16.5797 21.3527 16.8784 21.026C17.1864 20.6993 17.387 20.27 17.4804 19.738C17.5737 19.206 17.6204 18.548 17.6204 17.764ZM20.6671 14.25V12.794H23.5791V23H21.9691V14.25H20.6671Z" fill="#240F4F"/>
<defs>
<clipPath id="clip0_132_1966">
<rect width="36" height="36" fill="white"/>
</clipPath>
</defs>
</svg>
