<svg width="20" height="20" viewBox="0 0 20 20" fill="none" xmlns="http://www.w3.org/2000/svg">
<path d="M9.9998 18.4009C9.7498 18.4009 9.49982 18.3426 9.29148 18.2259C7.73315 17.3759 4.9998 16.4759 3.28313 16.2509L3.04148 16.2176C1.94982 16.0843 1.0498 15.0592 1.0498 13.9509V3.88422C1.0498 3.22588 1.30814 2.62591 1.78314 2.19258C2.25814 1.75924 2.87478 1.5509 3.52478 1.60923C5.34978 1.75923 8.11646 2.67591 9.68313 3.65091L9.88312 3.76759C9.94145 3.79259 10.0665 3.80092 10.1165 3.76759L10.2498 3.68423C10.8081 3.33423 11.5081 2.99255 12.2748 2.68422C12.4664 2.60922 12.6831 2.63423 12.8581 2.7509C13.0331 2.86756 13.1331 3.05923 13.1331 3.26756V5.50089L13.8248 5.04256C14.0332 4.9009 14.3081 4.9009 14.5164 5.04256L15.2081 5.50089V2.3176C15.2081 2.0176 15.4248 1.75922 15.7165 1.70089C15.9581 1.65922 16.1998 1.6259 16.4165 1.60923C16.4331 1.60923 16.4998 1.60923 16.5165 1.60923C17.1248 1.55923 17.7498 1.76759 18.2165 2.20092C18.6915 2.63425 18.9498 3.23423 18.9498 3.89256V13.9509C18.9498 15.0676 18.0498 16.0843 16.9498 16.2176L16.6748 16.2509C14.9581 16.4759 12.2081 17.3842 10.6831 18.2259C10.4998 18.3426 10.2498 18.4009 9.9998 18.4009ZM3.31645 2.84255C3.04978 2.84255 2.80814 2.93422 2.61648 3.10922C2.40814 3.30089 2.29146 3.57588 2.29146 3.88422V13.9509C2.29146 14.4426 2.71648 14.9176 3.19148 14.9842L3.44147 15.0176C5.31647 15.2676 8.19148 16.2092 9.85814 17.1259C9.93314 17.1592 10.0414 17.1676 10.0831 17.1509C11.7581 16.2259 14.6415 15.2759 16.5248 15.0259L16.8081 14.9926C17.2831 14.9342 17.7081 14.4509 17.7081 13.9592V3.9009C17.7081 3.59257 17.5915 3.32591 17.3831 3.12591C17.1748 2.93424 16.8832 2.84257 16.5832 2.85923C16.5582 2.85923 16.4831 2.85923 16.4665 2.85923V6.66757C16.4665 6.90091 16.3415 7.10922 16.1331 7.21755C15.9248 7.32588 15.6832 7.31757 15.4915 7.18424L14.1748 6.30925L12.8581 7.18424C12.6665 7.30924 12.4248 7.32588 12.2164 7.21755C12.0164 7.10922 11.8831 6.90091 11.8831 6.66757V4.22591C11.5248 4.40091 11.1998 4.57591 10.9164 4.74258L10.7831 4.82589C10.3248 5.10922 9.67481 5.10923 9.23314 4.83423L9.03315 4.70926C7.62482 3.82593 5.05812 2.97588 3.42478 2.84255C3.38312 2.84255 3.34978 2.84255 3.31645 2.84255Z" fill="#229D71"/>
<path d="M10 17.6992C9.65833 17.6992 9.375 17.4159 9.375 17.0742V4.57422C9.375 4.23255 9.65833 3.94922 10 3.94922C10.3417 3.94922 10.625 4.23255 10.625 4.57422V17.0742C10.625 17.4242 10.3417 17.6992 10 17.6992Z" fill="#229D71"/>
<path d="M15.8333 7.29239C15.7083 7.29239 15.5917 7.25905 15.4833 7.18405L14.1667 6.30906L12.85 7.18405C12.6583 7.30905 12.4167 7.3257 12.2084 7.21737C12.0084 7.10903 11.875 6.90072 11.875 6.66739V3.26738C11.875 3.00904 12.0333 2.78403 12.2666 2.68403C13.4166 2.2257 14.675 1.86737 15.7333 1.7007C15.9167 1.66737 16.1 1.72574 16.2417 1.84241C16.3833 1.95907 16.4583 2.13408 16.4583 2.31741V6.66739C16.4583 6.90072 16.3333 7.10903 16.125 7.21737C16.0333 7.26737 15.9333 7.29239 15.8333 7.29239ZM14.1667 4.93404C14.2833 4.93404 14.4083 4.96738 14.5167 5.04238L15.2083 5.5007V3.07573C14.5417 3.22573 13.8167 3.44239 13.125 3.70073V5.5007L13.8167 5.04238C13.925 4.96738 14.05 4.93404 14.1667 4.93404Z" fill="#229D71"/>
</svg>
