<svg width="46" height="52" viewBox="0 0 46 52" fill="none" xmlns="http://www.w3.org/2000/svg">
<g filter="url(#filter0_d_266_1082)">
<path fill-rule="evenodd" clip-rule="evenodd" d="M37 13.5C37 13.9265 36.9727 14.3476 36.9196 14.7621C36.515 19.0905 32.71 24.8553 24.6569 27.7717C24.336 27.8879 24 27.6476 24 27.3063V24.9922C23.8341 24.9974 23.6674 25 23.5 25C16.0442 25 10 19.8513 10 13.5C10 7.14874 16.0442 2 23.5 2C30.9558 2 37 7.14874 37 13.5ZM18 16C19.1046 16 20 15.1046 20 14C20 12.8954 19.1046 12 18 12C16.8954 12 16 12.8954 16 14C16 15.1046 16.8954 16 18 16ZM24 16C25.1046 16 26 15.1046 26 14C26 12.8954 25.1046 12 24 12C22.8954 12 22 12.8954 22 14C22 15.1046 22.8954 16 24 16ZM32 14C32 15.1046 31.1046 16 30 16C28.8954 16 28 15.1046 28 14C28 12.8954 28.8954 12 30 12C31.1046 12 32 12.8954 32 14Z" fill="white"/>
</g>
<g filter="url(#filter1_d_266_1082)">
<path d="M13.1651 47.076L13.3331 48H8.53306V47.076H10.3691V40.884L8.79706 41.772L8.44906 40.908L10.4891 39.78H11.4851V47.076H13.1651ZM20.3498 46.944C19.7258 47.728 18.8418 48.12 17.6978 48.12C16.5538 48.12 15.6698 47.728 15.0458 46.944C14.4298 46.16 14.1218 45.152 14.1218 43.92C14.1218 42.688 14.4298 41.68 15.0458 40.896C15.6698 40.112 16.5538 39.72 17.6978 39.72C18.8418 39.72 19.7258 40.116 20.3498 40.908C20.9738 41.692 21.2858 42.696 21.2858 43.92C21.2858 45.152 20.9738 46.16 20.3498 46.944ZM19.5098 41.508C19.0938 40.916 18.4898 40.62 17.6978 40.62C16.9058 40.62 16.3018 40.916 15.8858 41.508C15.4698 42.1 15.2618 42.904 15.2618 43.92C15.2618 44.936 15.4698 45.74 15.8858 46.332C16.3018 46.924 16.9058 47.22 17.6978 47.22C18.4898 47.22 19.0938 46.924 19.5098 46.332C19.9338 45.74 20.1458 44.936 20.1458 43.92C20.1458 42.904 19.9338 42.1 19.5098 41.508ZM28.6673 46.944C28.0433 47.728 27.1593 48.12 26.0153 48.12C24.8713 48.12 23.9873 47.728 23.3633 46.944C22.7473 46.16 22.4393 45.152 22.4393 43.92C22.4393 42.688 22.7473 41.68 23.3633 40.896C23.9873 40.112 24.8713 39.72 26.0153 39.72C27.1593 39.72 28.0433 40.116 28.6673 40.908C29.2913 41.692 29.6033 42.696 29.6033 43.92C29.6033 45.152 29.2913 46.16 28.6673 46.944ZM27.8273 41.508C27.4113 40.916 26.8073 40.62 26.0153 40.62C25.2233 40.62 24.6193 40.916 24.2033 41.508C23.7873 42.1 23.5793 42.904 23.5793 43.92C23.5793 44.936 23.7873 45.74 24.2033 46.332C24.6193 46.924 25.2233 47.22 26.0153 47.22C26.8073 47.22 27.4113 46.924 27.8273 46.332C28.2513 45.74 28.4633 44.936 28.4633 43.92C28.4633 42.904 28.2513 42.1 27.8273 41.508ZM36.7208 48.12L34.1048 44.316H32.2928V48H31.1768V39.84H32.2928V43.368H34.1528L36.5288 39.84H37.8128L35.0648 43.824L37.9328 47.964L36.7208 48.12Z" fill="white"/>
</g>
<defs>
<filter id="filter0_d_266_1082" x="8" y="0" width="32" height="32" filterUnits="userSpaceOnUse" color-interpolation-filters="sRGB">
<feFlood flood-opacity="0" result="BackgroundImageFix"/>
<feColorMatrix in="SourceAlpha" type="matrix" values="0 0 0 0 0 0 0 0 0 0 0 0 0 0 0 0 0 0 127 0" result="hardAlpha"/>
<feOffset dx="1" dy="1"/>
<feGaussianBlur stdDeviation="0.5"/>
<feComposite in2="hardAlpha" operator="out"/>
<feColorMatrix type="matrix" values="0 0 0 0 0 0 0 0 0 0 0 0 0 0 0 0 0 0 0.25 0"/>
<feBlend mode="normal" in2="BackgroundImageFix" result="effect1_dropShadow_266_1082"/>
<feBlend mode="normal" in="SourceGraphic" in2="effect1_dropShadow_266_1082" result="shape"/>
</filter>
<filter id="filter1_d_266_1082" x="8.44922" y="39.7207" width="31.4834" height="10.3984" filterUnits="userSpaceOnUse" color-interpolation-filters="sRGB">
<feFlood flood-opacity="0" result="BackgroundImageFix"/>
<feColorMatrix in="SourceAlpha" type="matrix" values="0 0 0 0 0 0 0 0 0 0 0 0 0 0 0 0 0 0 127 0" result="hardAlpha"/>
<feOffset dx="1" dy="1"/>
<feGaussianBlur stdDeviation="0.5"/>
<feComposite in2="hardAlpha" operator="out"/>
<feColorMatrix type="matrix" values="0 0 0 0 0 0 0 0 0 0 0 0 0 0 0 0 0 0 0.25 0"/>
<feBlend mode="normal" in2="BackgroundImageFix" result="effect1_dropShadow_266_1082"/>
<feBlend mode="normal" in="SourceGraphic" in2="effect1_dropShadow_266_1082" result="shape"/>
</filter>
</defs>
</svg>
