<svg width="30" height="30" viewBox="0 0 30 30" fill="none" xmlns="http://www.w3.org/2000/svg">
<path d="M9.4502 25.75C9.0402 25.75 8.7002 25.41 8.7002 25V5C8.7002 4.59 9.0402 4.25 9.4502 4.25C9.8602 4.25 10.2002 4.59 10.2002 5V25C10.2002 25.41 9.8602 25.75 9.4502 25.75Z" fill="white"/>
<path d="M9.95005 20.7504C9.67005 20.7504 9.41005 20.6004 9.28005 20.3304C9.10005 19.9604 9.25005 19.5104 9.62005 19.3304L17.92 15.2304C19.14 14.6004 19.83 13.8404 19.8 13.1304C19.77 12.4404 19.03 11.7304 17.76 11.1904L9.66005 7.69036C9.27005 7.52036 9.10005 7.08036 9.26005 6.70036C9.42005 6.32036 9.87005 6.14036 10.25 6.31036L18.35 9.81036C20.85 10.8704 21.27 12.3104 21.3 13.0704C21.35 14.4004 20.39 15.6404 18.6 16.5604L10.29 20.6704C10.18 20.7304 10.06 20.7504 9.95005 20.7504Z" fill="white"/>
</svg>
