<svg width="318" height="17" viewBox="0 0 318 17" fill="none" xmlns="http://www.w3.org/2000/svg">
<path d="M1.5 8.5H94" stroke="#CDCED1" stroke-width="2" stroke-linecap="round" stroke-linejoin="round"/>
<path d="M112.153 5.266C113.077 5.266 113.842 5.61133 114.449 6.302C115.055 6.98333 115.359 7.80467 115.359 8.766C115.359 9.718 115.055 10.516 114.449 11.16C113.851 11.804 113.086 12.126 112.153 12.126C111.369 12.126 110.697 11.8927 110.137 11.426C109.577 10.9593 109.213 10.3527 109.045 9.606C108.373 9.746 108.037 10.2453 108.037 11.104V15.598L106.861 15.78L106.847 10.95C106.847 9.39133 107.556 8.52333 108.975 8.346C109.059 7.46867 109.395 6.736 109.983 6.148C110.571 5.56 111.294 5.266 112.153 5.266ZM110.697 10.25C111.079 10.6513 111.565 10.852 112.153 10.852C112.741 10.852 113.221 10.6513 113.595 10.25C113.977 9.84867 114.169 9.34933 114.169 8.752C114.169 8.136 113.977 7.61333 113.595 7.184C113.221 6.74533 112.741 6.526 112.153 6.526C111.565 6.526 111.079 6.74533 110.697 7.184C110.314 7.61333 110.123 8.136 110.123 8.752C110.123 9.34933 110.314 9.84867 110.697 10.25ZM117.035 12V1.962L118.225 1.78V12H117.035ZM127.702 10.74C127.795 10.74 127.842 10.782 127.842 10.866V11.86C127.842 11.9533 127.795 12 127.702 12C126.881 12 126.134 11.6873 125.462 11.062C124.949 11.6873 124.137 12 123.026 12H119.75L119.512 10.74H123.04C123.609 10.74 124.043 10.6 124.342 10.32C124.65 10.04 124.804 9.64333 124.804 9.13L124.79 8.318C124.781 7.74867 124.575 7.28667 124.174 6.932C123.782 6.57733 123.278 6.4 122.662 6.4H121.836V5.168H122.914C123.81 5.168 124.543 5.44333 125.112 5.994C125.681 6.54467 125.971 7.268 125.98 8.164L125.994 9.312C125.994 9.564 125.961 9.83467 125.896 10.124C126.475 10.5347 127.077 10.74 127.702 10.74ZM132.752 3.278L131.73 4.3L130.694 3.278L131.702 2.27L132.752 3.278ZM136.588 10.74C136.682 10.74 136.728 10.782 136.728 10.866V11.86C136.728 11.9533 136.682 12 136.588 12H135.944C135.356 12 134.88 11.8693 134.516 11.608C134.152 11.3467 133.91 10.9827 133.788 10.516C131.642 11.5053 129.616 12 127.712 12C127.61 12 127.558 11.9533 127.558 11.86V10.866C127.558 10.782 127.61 10.74 127.712 10.74C129.868 10.74 132.057 10.1987 134.278 9.116C133.074 8.108 132.183 7.44067 131.604 7.114C131.035 6.78733 130.494 6.624 129.98 6.624C129.766 6.624 129.308 6.69867 128.608 6.848L128.37 5.784C129.061 5.52267 129.658 5.392 130.162 5.392C130.769 5.392 131.408 5.59267 132.08 5.994C132.762 6.39533 133.9 7.25867 135.496 8.584L135.314 9.746C135.053 9.90467 134.787 10.0447 134.516 10.166C134.75 10.5487 135.23 10.74 135.958 10.74H136.588ZM139.161 4.524L138.139 5.532L137.117 4.524L138.139 3.516L139.161 4.524ZM141.387 4.524L140.365 5.532L139.329 4.524L140.365 3.516L141.387 4.524ZM141.849 10.74C141.942 10.74 141.989 10.782 141.989 10.866V11.86C141.989 11.9533 141.942 12 141.849 12C140.981 12 140.178 11.6593 139.441 10.978C138.937 11.6593 137.985 12 136.585 12C136.492 12 136.445 11.9533 136.445 11.86L136.459 10.866C136.459 10.782 136.506 10.74 136.599 10.74C137.346 10.74 137.887 10.6047 138.223 10.334C138.568 10.054 138.741 9.606 138.741 8.99V6.722L139.917 6.54V9.312C139.917 9.54533 139.894 9.788 139.847 10.04C140.472 10.5067 141.14 10.74 141.849 10.74ZM152.223 5.224L153.399 5.028V9.298C153.399 10.1567 153.165 10.8193 152.699 11.286C152.232 11.7527 151.541 11.986 150.627 11.986C149.88 11.986 149.101 11.7387 148.289 11.244C147.794 11.7387 147.085 11.986 146.161 11.986C145.489 11.986 144.793 11.7433 144.075 11.258C143.561 11.7527 142.819 12 141.849 12C141.755 12 141.709 11.9533 141.709 11.86V10.866C141.709 10.782 141.755 10.74 141.849 10.74C143.025 10.74 143.613 10.1567 143.613 8.99L143.599 6.722L144.789 6.54V9.312C144.789 9.704 144.733 10.0633 144.621 10.39C145.162 10.614 145.647 10.726 146.077 10.726C147.253 10.726 147.841 10.1427 147.841 8.976L147.827 6.708L149.017 6.526V9.298C149.017 9.70867 148.956 10.068 148.835 10.376C149.413 10.6093 149.955 10.726 150.459 10.726C151.028 10.726 151.462 10.5813 151.761 10.292C152.069 9.99333 152.223 9.55467 152.223 8.976V5.224ZM158.38 12C156.42 12 155.44 11.0667 155.44 9.2L155.426 1.962L156.616 1.78V8.92C156.616 10.1333 157.199 10.74 158.366 10.74C158.459 10.74 158.506 10.782 158.506 10.866L158.52 11.86C158.52 11.9533 158.473 12 158.38 12ZM158.378 12C158.285 12 158.238 11.9533 158.238 11.86L158.252 10.866C158.252 10.782 158.299 10.74 158.392 10.74C159.568 10.74 160.156 10.1567 160.156 8.99L160.142 5.238L161.332 5.042V9.312C161.332 10.1707 161.08 10.8333 160.576 11.3C160.081 11.7667 159.349 12 158.378 12ZM159.904 15.136L158.868 14.128L159.876 13.106L160.926 14.128L159.904 15.136ZM175.802 10.74C175.895 10.74 175.942 10.782 175.942 10.866V11.86C175.942 11.9533 175.895 12 175.802 12C175.018 12 174.434 11.7293 174.052 11.188C173.968 12.3827 173.599 13.316 172.946 13.988C172.292 14.6693 171.331 15.01 170.062 15.01C168.886 15.01 167.952 14.702 167.262 14.086C166.58 13.4793 166.24 12.5787 166.24 11.384C166.24 10.3853 166.445 9.26067 166.856 8.01L167.822 8.276C167.495 9.23733 167.332 10.1707 167.332 11.076C167.341 11.9533 167.588 12.616 168.074 13.064C168.559 13.5213 169.245 13.75 170.132 13.75C171.065 13.75 171.756 13.484 172.204 12.952C172.661 12.4293 172.89 11.6173 172.89 10.516V5.238V1.92L174.08 1.738V8.416V9.228C174.08 9.71333 174.252 10.0867 174.598 10.348C174.943 10.6093 175.344 10.74 175.802 10.74ZM184.686 10.74C184.779 10.74 184.826 10.782 184.826 10.866V11.86C184.826 11.9533 184.779 12 184.686 12H184.042C183.454 12 182.978 11.8693 182.614 11.608C182.25 11.3467 182.007 10.9827 181.886 10.516C179.739 11.5053 177.714 12 175.81 12C175.707 12 175.656 11.9533 175.656 11.86V10.866C175.656 10.782 175.707 10.74 175.81 10.74C177.966 10.74 180.155 10.1987 182.376 9.116C181.172 8.108 180.281 7.44067 179.702 7.114C179.133 6.78733 178.591 6.624 178.078 6.624C177.863 6.624 177.406 6.69867 176.706 6.848L176.468 5.784C177.159 5.52267 177.756 5.392 178.26 5.392C178.867 5.392 179.506 5.59267 180.178 5.994C180.859 6.39533 181.998 7.25867 183.594 8.584L183.412 9.746C183.151 9.90467 182.885 10.0447 182.614 10.166C182.847 10.5487 183.328 10.74 184.056 10.74H184.686ZM179.03 14.044L180.038 13.022L181.088 14.044L180.066 15.052L179.03 14.044ZM195.057 5.224L196.233 5.028V9.298C196.233 10.1567 195.999 10.8193 195.533 11.286C195.066 11.7527 194.375 11.986 193.461 11.986C192.714 11.986 191.935 11.7387 191.123 11.244C190.628 11.7387 189.919 11.986 188.995 11.986C188.323 11.986 187.627 11.7433 186.909 11.258C186.395 11.7527 185.653 12 184.683 12C184.589 12 184.543 11.9533 184.543 11.86V10.866C184.543 10.782 184.589 10.74 184.683 10.74C185.859 10.74 186.447 10.1567 186.447 8.99L186.433 6.722L187.623 6.54V9.312C187.623 9.704 187.567 10.0633 187.455 10.39C187.996 10.614 188.481 10.726 188.911 10.726C190.087 10.726 190.675 10.1427 190.675 8.976L190.661 6.708L191.851 6.526V9.298C191.851 9.70867 191.79 10.068 191.669 10.376C192.247 10.6093 192.789 10.726 193.293 10.726C193.862 10.726 194.296 10.5813 194.595 10.292C194.903 9.99333 195.057 9.55467 195.057 8.976V5.224ZM204.255 5.266C205.123 5.266 205.828 5.55533 206.369 6.134C206.91 6.70333 207.181 7.45933 207.181 8.402V11.678C207.181 13.8993 205.44 15.01 201.959 15.01L201.819 13.988C203.228 13.988 204.278 13.7967 204.969 13.414C205.66 13.0407 206.005 12.4433 206.005 11.622V11.594C205.408 11.8647 204.829 12 204.269 12C203.298 12 202.514 11.7013 201.917 11.104C201.32 10.4973 201.021 9.68533 201.021 8.668C201.021 7.66933 201.324 6.85267 201.931 6.218C202.547 5.58333 203.322 5.266 204.255 5.266ZM204.423 10.782C204.974 10.782 205.501 10.6933 206.005 10.516V8.5C206.005 7.90267 205.832 7.41733 205.487 7.044C205.142 6.67067 204.694 6.484 204.143 6.484C203.564 6.484 203.084 6.68 202.701 7.072C202.318 7.464 202.127 7.97733 202.127 8.612C202.127 9.33067 202.332 9.87667 202.743 10.25C203.154 10.6233 203.714 10.8007 204.423 10.782ZM209.798 2.018H211.618L211.422 2.816H208.258V2.018H209.028C208.878 1.77533 208.804 1.50467 208.804 1.206C208.804 0.860666 208.92 0.576 209.154 0.352C209.396 0.118666 209.7 0.00199926 210.064 0.00199926C210.39 0.00199926 210.754 0.0906659 211.156 0.267999V0.954C210.829 0.814 210.53 0.744 210.26 0.744C210.054 0.744 209.886 0.8 209.756 0.911999C209.625 1.024 209.56 1.17333 209.56 1.36C209.56 1.63067 209.639 1.85 209.798 2.018ZM209.322 12V3.74L210.512 3.558V12H209.322Z" fill="#747980"/>
<path d="M224 8.5H316.5" stroke="#CDCED1" stroke-width="2" stroke-linecap="round" stroke-linejoin="round"/>
</svg>
