<svg width="24" height="24" viewBox="0 0 24 24" fill="none" xmlns="http://www.w3.org/2000/svg">
<g clip-path="url(#clip0_276_7542)">
<path d="M16.1667 12.334H7.83333V14.0007H16.1667V12.334ZM17.8333 6.50065H17V4.83398H15.3333V6.50065H8.66667V4.83398H7V6.50065H6.16667C5.24167 6.50065 4.50833 7.25065 4.50833 8.16732L4.5 19.834C4.5 20.7507 5.24167 21.5007 6.16667 21.5007H17.8333C18.75 21.5007 19.5 20.7507 19.5 19.834V8.16732C19.5 7.25065 18.75 6.50065 17.8333 6.50065ZM17.8333 19.834H6.16667V10.6673H17.8333V19.834ZM13.6667 15.6673H7.83333V17.334H13.6667V15.6673Z" fill="#544C4C"/>
</g>
<defs>
<clipPath id="clip0_276_7542">
<rect width="20" height="20" fill="white" transform="translate(2 4)"/>
</clipPath>
</defs>
</svg>
