<svg width="37" height="37" viewBox="0 0 37 37" fill="none" xmlns="http://www.w3.org/2000/svg">
<g clip-path="url(#clip0_216_102)">
<path d="M36.5 18.6094C36.5 8.66888 28.4405 0.609375 18.5 0.609375C8.5595 0.609375 0.5 8.66888 0.5 18.6094C0.5 27.5944 7.082 35.0404 15.6875 36.3904V23.8129H11.117V18.6079H15.6875V14.6449C15.6875 10.1344 18.3755 7.64138 22.487 7.64138C24.455 7.64138 26.516 7.99388 26.516 7.99388V12.4234H24.245C22.0085 12.4234 21.311 13.8109 21.311 15.2344V18.6094H26.303L25.505 23.8144H21.311V36.3919C29.918 35.0404 36.5 27.5929 36.5 18.6094Z" fill="#1877F2"/>
</g>
<defs>
<clipPath id="clip0_216_102">
<rect width="36" height="36" fill="white" transform="translate(0.5 0.5)"/>
</clipPath>
</defs>
</svg>
