<svg width="19" height="19" viewBox="0 0 19 19" fill="none" xmlns="http://www.w3.org/2000/svg">
<path d="M7.12533 8.51042C5.92199 8.51042 4.94824 7.53667 4.94824 6.33333C4.94824 5.13 5.92199 4.15625 7.12533 4.15625C8.32866 4.15625 9.30241 5.13 9.30241 6.33333C9.30241 7.53667 8.32866 8.51042 7.12533 8.51042ZM7.12533 5.34375C6.57908 5.34375 6.13574 5.78708 6.13574 6.33333C6.13574 6.87958 6.57908 7.32292 7.12533 7.32292C7.67158 7.32292 8.11491 6.87958 8.11491 6.33333C8.11491 5.78708 7.67158 5.34375 7.12533 5.34375Z" fill="white"/>
<path d="M11.8747 18.0111H7.12467C2.82592 18.0111 0.989258 16.1744 0.989258 11.8757V7.12565C0.989258 2.8269 2.82592 0.990234 7.12467 0.990234H10.2913C10.6159 0.990234 10.8851 1.2594 10.8851 1.58398C10.8851 1.90857 10.6159 2.17773 10.2913 2.17773H7.12467C3.47509 2.17773 2.17676 3.47607 2.17676 7.12565V11.8757C2.17676 15.5252 3.47509 16.8236 7.12467 16.8236H11.8747C15.5243 16.8236 16.8226 15.5252 16.8226 11.8757V7.91732C16.8226 7.59273 17.0918 7.32357 17.4163 7.32357C17.7409 7.32357 18.0101 7.59273 18.0101 7.91732V11.8757C18.0101 16.1744 16.1734 18.0111 11.8747 18.0111Z" fill="white"/>
<path d="M16.8229 4.55273H12.4688C12.1442 4.55273 11.875 4.28357 11.875 3.95898C11.875 3.6344 12.1442 3.36523 12.4688 3.36523H16.8229C17.1475 3.36523 17.4167 3.6344 17.4167 3.95898C17.4167 4.28357 17.1475 4.55273 16.8229 4.55273Z" fill="white"/>
<path d="M14.6455 6.72917C14.3209 6.72917 14.0518 6.46 14.0518 6.13542V1.78125C14.0518 1.45667 14.3209 1.1875 14.6455 1.1875C14.9701 1.1875 15.2393 1.45667 15.2393 1.78125V6.13542C15.2393 6.46 14.9701 6.72917 14.6455 6.72917Z" fill="white"/>
<path d="M2.11419 15.5959C1.92419 15.5959 1.73419 15.5009 1.62335 15.3346C1.44127 15.0654 1.51252 14.6934 1.78169 14.5113L5.6846 11.8909C6.5396 11.3209 7.71918 11.3842 8.49502 12.0413L8.75627 12.2709C9.1521 12.6113 9.82502 12.6113 10.2129 12.2709L13.5063 9.44461C14.3534 8.72419 15.6675 8.72419 16.5146 9.44461L17.805 10.5529C18.0504 10.7667 18.0821 11.1388 17.8684 11.3921C17.6546 11.6375 17.2825 11.6692 17.0292 11.4554L15.7388 10.3471C15.3429 10.0067 14.67 10.0067 14.2821 10.3471L10.9888 13.1734C10.1496 13.8938 8.82752 13.8938 7.98044 13.1734L7.71919 12.9438C7.35502 12.635 6.75335 12.6034 6.3496 12.8804L2.4546 15.5009C2.34377 15.5642 2.22502 15.5959 2.11419 15.5959Z" fill="white"/>
</svg>
