<svg width="37" height="37" viewBox="0 0 37 37" fill="none" xmlns="http://www.w3.org/2000/svg">
<path d="M36.1178 18.905C36.1178 17.72 36.0128 16.595 35.8328 15.5H18.8828V22.265H28.5878C28.1528 24.485 26.8778 26.36 24.9878 27.635V32.135H30.7778C34.1678 29 36.1178 24.38 36.1178 18.905Z" fill="#4285F4"/>
<path d="M18.8824 36.4996C23.7424 36.4996 27.8074 34.8796 30.7774 32.1346L24.9874 27.6346C23.3674 28.7146 21.3124 29.3746 18.8824 29.3746C14.1874 29.3746 10.2124 26.2096 8.78738 21.9346H2.81738V26.5696C5.77238 32.4496 11.8474 36.4996 18.8824 36.4996Z" fill="#34A853"/>
<path d="M8.78781 21.9347C8.41281 20.8547 8.21781 19.6997 8.21781 18.4997C8.21781 17.2997 8.42781 16.1447 8.78781 15.0647V10.4297H2.81781C1.58781 12.8597 0.882812 15.5897 0.882812 18.4997C0.882812 21.4097 1.58781 24.1397 2.81781 26.5697L8.78781 21.9347Z" fill="#FBBC05"/>
<path d="M18.8824 7.625C21.5374 7.625 23.9074 8.54 25.7824 10.325L30.9124 5.195C27.8074 2.285 23.7424 0.5 18.8824 0.5C11.8474 0.5 5.77238 4.55 2.81738 10.43L8.78738 15.065C10.2124 10.79 14.1874 7.625 18.8824 7.625Z" fill="#EA4335"/>
</svg>
