<svg width="46" height="52" viewBox="0 0 46 52" fill="none" xmlns="http://www.w3.org/2000/svg">
<g filter="url(#filter0_d_266_1078)">
<path d="M37 9.99184C37 18.4448 28.55 24.9693 24.7796 27.4599C23.6881 28.1808 22.3123 28.1799 21.2215 27.4579C17.4517 24.9625 9 18.4274 9 9.99184C9 8.31449 9.51362 6.67966 10.4681 5.31893C11.4226 3.95819 12.7696 2.94054 14.3182 2.41012C15.8669 1.87969 17.5387 1.86339 19.0969 2.36352C20.655 2.86365 22.0205 3.85486 23 5.19674C23.9795 3.85486 25.345 2.86365 26.9031 2.36352C28.4613 1.86339 30.1331 1.87969 31.6818 2.41012C33.2304 2.94054 34.5774 3.95819 35.5319 5.31893C36.4864 6.67966 37 8.31449 37 9.99184Z" fill="white"/>
</g>
<g filter="url(#filter1_d_266_1078)">
<path d="M4.22342 40.524C5.15142 39.988 6.03542 39.72 6.87542 39.72C7.70742 39.72 8.39542 39.912 8.93942 40.296C9.49142 40.68 9.76742 41.244 9.76742 41.988C9.76742 42.34 9.68342 42.672 9.51542 42.984C9.34742 43.288 9.13142 43.552 8.86742 43.776C8.60342 44 8.30742 44.216 7.97942 44.424C7.65942 44.624 7.33542 44.82 7.00742 45.012C6.68742 45.204 6.39542 45.4 6.13142 45.6C5.86742 45.792 5.65142 46.012 5.48342 46.26C5.31542 46.508 5.23142 46.772 5.23142 47.052H9.76742L9.92342 48H4.00742V47.364C4.00742 46.94 4.09142 46.552 4.25942 46.2C4.42742 45.848 4.64742 45.552 4.91942 45.312C5.19142 45.064 5.49142 44.836 5.81942 44.628C6.14742 44.412 6.47542 44.212 6.80342 44.028C7.13942 43.844 7.44342 43.66 7.71542 43.476C7.98742 43.284 8.20742 43.068 8.37542 42.828C8.54342 42.58 8.62742 42.316 8.62742 42.036C8.62742 41.564 8.45142 41.212 8.09942 40.98C7.74742 40.74 7.30342 40.62 6.76742 40.62C6.11142 40.62 5.33542 40.888 4.43942 41.424L4.22342 40.524ZM11.5887 39.84H16.4967L16.3407 40.752H12.5367L12.4167 43.116C13.0167 42.996 13.5567 42.936 14.0367 42.936C14.9487 42.936 15.6567 43.16 16.1607 43.608C16.6647 44.056 16.9167 44.648 16.9167 45.384C16.9167 46.248 16.6327 46.92 16.0647 47.4C15.5047 47.88 14.7287 48.12 13.7367 48.12C12.6087 48.12 11.6607 47.892 10.8927 47.436L11.2287 46.632C12.1007 47.032 12.8767 47.232 13.5567 47.232C14.2607 47.232 14.8047 47.08 15.1887 46.776C15.5807 46.472 15.7767 46.016 15.7767 45.408C15.7767 44.904 15.5887 44.508 15.2127 44.22C14.8447 43.924 14.3327 43.776 13.6767 43.776C12.9567 43.776 12.1927 43.888 11.3847 44.112L11.5887 39.84ZM24.2228 46.944C23.5988 47.728 22.7148 48.12 21.5708 48.12C20.4268 48.12 19.5428 47.728 18.9188 46.944C18.3028 46.16 17.9948 45.152 17.9948 43.92C17.9948 42.688 18.3028 41.68 18.9188 40.896C19.5428 40.112 20.4268 39.72 21.5708 39.72C22.7148 39.72 23.5988 40.116 24.2228 40.908C24.8468 41.692 25.1588 42.696 25.1588 43.92C25.1588 45.152 24.8468 46.16 24.2228 46.944ZM23.3828 41.508C22.9668 40.916 22.3628 40.62 21.5708 40.62C20.7788 40.62 20.1748 40.916 19.7588 41.508C19.3428 42.1 19.1348 42.904 19.1348 43.92C19.1348 44.936 19.3428 45.74 19.7588 46.332C20.1748 46.924 20.7788 47.22 21.5708 47.22C22.3628 47.22 22.9668 46.924 23.3828 46.332C23.8068 45.74 24.0188 44.936 24.0188 43.92C24.0188 42.904 23.8068 42.1 23.3828 41.508ZM26.4083 49.56L25.7483 49.5C26.0603 48.684 26.2403 47.828 26.2883 46.932H27.2483C27.1683 47.82 26.8883 48.696 26.4083 49.56ZM28.9123 39.84H33.8203L33.6643 40.752H29.8603L29.7403 43.116C30.3403 42.996 30.8803 42.936 31.3603 42.936C32.2723 42.936 32.9803 43.16 33.4843 43.608C33.9883 44.056 34.2403 44.648 34.2403 45.384C34.2403 46.248 33.9563 46.92 33.3883 47.4C32.8283 47.88 32.0523 48.12 31.0603 48.12C29.9323 48.12 28.9843 47.892 28.2163 47.436L28.5523 46.632C29.4243 47.032 30.2003 47.232 30.8803 47.232C31.5843 47.232 32.1283 47.08 32.5123 46.776C32.9043 46.472 33.1003 46.016 33.1003 45.408C33.1003 44.904 32.9123 44.508 32.5363 44.22C32.1683 43.924 31.6563 43.776 31.0003 43.776C30.2803 43.776 29.5163 43.888 28.7083 44.112L28.9123 39.84ZM41.2824 48.12L38.6664 44.316H36.8544V48H35.7384V39.84H36.8544V43.368H38.7144L41.0904 39.84H42.3744L39.6264 43.824L42.4944 47.964L41.2824 48.12Z" fill="white"/>
</g>
<defs>
<filter id="filter0_d_266_1078" x="8" y="0" width="32" height="32" filterUnits="userSpaceOnUse" color-interpolation-filters="sRGB">
<feFlood flood-opacity="0" result="BackgroundImageFix"/>
<feColorMatrix in="SourceAlpha" type="matrix" values="0 0 0 0 0 0 0 0 0 0 0 0 0 0 0 0 0 0 127 0" result="hardAlpha"/>
<feOffset dx="1" dy="1"/>
<feGaussianBlur stdDeviation="0.5"/>
<feComposite in2="hardAlpha" operator="out"/>
<feColorMatrix type="matrix" values="0 0 0 0 0 0 0 0 0 0 0 0 0 0 0 0 0 0 0.25 0"/>
<feBlend mode="normal" in2="BackgroundImageFix" result="effect1_dropShadow_266_1078"/>
<feBlend mode="normal" in="SourceGraphic" in2="effect1_dropShadow_266_1078" result="shape"/>
</filter>
<filter id="filter1_d_266_1078" x="4.00781" y="39.7207" width="40.4863" height="11.8398" filterUnits="userSpaceOnUse" color-interpolation-filters="sRGB">
<feFlood flood-opacity="0" result="BackgroundImageFix"/>
<feColorMatrix in="SourceAlpha" type="matrix" values="0 0 0 0 0 0 0 0 0 0 0 0 0 0 0 0 0 0 127 0" result="hardAlpha"/>
<feOffset dx="1" dy="1"/>
<feGaussianBlur stdDeviation="0.5"/>
<feComposite in2="hardAlpha" operator="out"/>
<feColorMatrix type="matrix" values="0 0 0 0 0 0 0 0 0 0 0 0 0 0 0 0 0 0 0.25 0"/>
<feBlend mode="normal" in2="BackgroundImageFix" result="effect1_dropShadow_266_1078"/>
<feBlend mode="normal" in="SourceGraphic" in2="effect1_dropShadow_266_1078" result="shape"/>
</filter>
</defs>
</svg>
