<svg width="37" height="37" viewBox="0 0 37 37" fill="none" xmlns="http://www.w3.org/2000/svg">
<path d="M31.1705 31.178H25.8395V22.8245C25.8395 20.8325 25.799 18.269 23.0615 18.269C20.282 18.269 19.8575 20.4365 19.8575 22.6775V31.178H14.5265V14H19.6475V16.3415H19.7165C20.432 14.9915 22.172 13.5665 24.7715 13.5665C30.173 13.5665 31.172 17.1215 31.172 21.749V31.178H31.1705ZM8.5055 11.6495C6.7895 11.6495 5.411 10.2605 5.411 8.552C5.411 6.845 6.791 5.4575 8.5055 5.4575C10.2155 5.4575 11.6015 6.845 11.6015 8.552C11.6015 10.2605 10.214 11.6495 8.5055 11.6495ZM11.1785 31.178H5.8325V14H11.1785V31.178ZM33.8375 0.5H3.1565C1.688 0.5 0.5 1.661 0.5 3.0935V33.9065C0.5 35.3405 1.688 36.5 3.1565 36.5H33.833C35.3 36.5 36.5 35.3405 36.5 33.9065V3.0935C36.5 1.661 35.3 0.5 33.833 0.5H33.8375Z" fill="#0A66C2"/>
</svg>
