<svg width="90" height="32" viewBox="0 0 90 32" fill="none" xmlns="http://www.w3.org/2000/svg">
<rect width="90" height="32" rx="16" fill="#888888" fill-opacity="0.32"/>
<path d="M24.205 18.15C24.305 18.15 24.355 18.195 24.355 18.285V19.35C24.355 19.45 24.305 19.5 24.205 19.5C23.435 19.5 22.87 19.235 22.51 18.705V19.095C22.51 20.345 22.19 21.26 21.55 21.84C20.91 22.43 19.95 22.725 18.67 22.725L18.55 21.63C20.35 21.63 21.25 20.77 21.25 19.05L21.235 12.255L22.51 12.045V16.725C22.58 17.675 23.145 18.15 24.205 18.15ZM31.9848 8.55L31.2048 9.33L30.4098 8.55L31.1898 7.755L31.9848 8.55ZM31.0398 10.38L29.9598 11.475L28.8498 10.38L29.9448 9.3L31.0398 10.38ZM32.4348 11.475L31.3248 10.38L32.4348 9.3L33.5298 10.38L32.4348 11.475ZM35.3298 12.24L36.5898 12.03V16.605C36.5898 17.525 36.3398 18.235 35.8398 18.735C35.3398 19.235 34.5998 19.485 33.6198 19.485C32.8198 19.485 31.9848 19.22 31.1148 18.69C30.5848 19.22 29.8248 19.485 28.8348 19.485C28.1148 19.485 27.3698 19.225 26.5998 18.705C26.0498 19.235 25.2548 19.5 24.2148 19.5C24.1148 19.5 24.0648 19.45 24.0648 19.35V18.285C24.0648 18.195 24.1148 18.15 24.2148 18.15C25.4748 18.15 26.1048 17.525 26.1048 16.275L26.0898 13.845L27.3648 13.65V16.62C27.3648 17.04 27.3048 17.425 27.1848 17.775C27.7648 18.015 28.2848 18.135 28.7448 18.135C30.0048 18.135 30.6348 17.51 30.6348 16.26L30.6198 13.83L31.8948 13.635V16.605C31.8948 17.045 31.8298 17.43 31.6998 17.76C32.3198 18.01 32.8998 18.135 33.4398 18.135C34.0498 18.135 34.5148 17.98 34.8348 17.67C35.1648 17.35 35.3298 16.88 35.3298 16.26V12.24ZM41.9267 19.5C39.8267 19.5 38.7767 18.5 38.7767 16.5L38.7617 8.745L40.0367 8.55V16.2C40.0367 17.5 40.6617 18.15 41.9117 18.15C42.0117 18.15 42.0617 18.195 42.0617 18.285L42.0767 19.35C42.0767 19.45 42.0267 19.5 41.9267 19.5ZM46.8898 18.15C46.9898 18.15 47.0398 18.195 47.0398 18.285V19.35C47.0398 19.45 46.9898 19.5 46.8898 19.5C46.0398 19.5 45.2448 19.175 44.5048 18.525C43.9748 19.175 43.1148 19.5 41.9248 19.5C41.8248 19.5 41.7748 19.45 41.7748 19.35L41.7898 18.285C41.7898 18.195 41.8398 18.15 41.9398 18.15C43.1998 18.15 43.8298 17.525 43.8298 16.275L43.8148 13.845L45.0898 13.65V16.62C45.0898 16.97 45.0548 17.27 44.9848 17.52C45.6048 17.94 46.2398 18.15 46.8898 18.15ZM43.2148 21.795L44.2948 20.7L45.4198 21.795L44.3248 22.875L43.2148 21.795ZM50.9856 12.225C51.9456 12.225 52.7506 12.555 53.4006 13.215C54.0506 13.865 54.3756 14.68 54.3756 15.66C54.3756 16.86 54.0006 17.8 53.2506 18.48C52.5106 19.16 51.4856 19.5 50.1756 19.5H46.8906C46.7906 19.5 46.7406 19.45 46.7406 19.35V18.285C46.7406 18.195 46.7906 18.15 46.8906 18.15H48.1806C47.7306 17.22 47.5056 16.41 47.5056 15.72C47.5056 14.71 47.8306 13.875 48.4806 13.215C49.1406 12.555 49.9756 12.225 50.9856 12.225ZM50.2806 18.15C51.1406 18.15 51.8256 17.935 52.3356 17.505C52.8456 17.075 53.1006 16.475 53.1006 15.705C53.1006 15.065 52.8906 14.54 52.4706 14.13C52.0606 13.71 51.5406 13.5 50.9106 13.5C50.3106 13.5 49.8006 13.725 49.3806 14.175C48.9606 14.615 48.7506 15.135 48.7506 15.735C48.7506 16.455 49.0006 17.26 49.5006 18.15H50.2806Z" fill="white"/>
<path d="M72.7337 22.3839H67.6753C64.717 22.3839 63.667 20.3089 63.667 18.3755V11.6255C63.667 8.74219 64.792 7.61719 67.6753 7.61719H72.7337C75.617 7.61719 76.742 8.74219 76.742 11.6255V18.3755C76.742 21.2589 75.617 22.3839 72.7337 22.3839ZM67.6753 8.88385C65.5003 8.88385 64.9337 9.45052 64.9337 11.6255V18.3755C64.9337 19.4005 65.292 21.1172 67.6753 21.1172H72.7337C74.9087 21.1172 75.4753 20.5505 75.4753 18.3755V11.6255C75.4753 9.45052 74.9087 8.88385 72.7337 8.88385H67.6753V8.88385Z" fill="#FF002E"/>
<path d="M79.3167 20.0911C78.9584 20.0911 78.5001 19.9744 77.9751 19.6078L75.7501 18.0494C75.5834 17.9328 75.4834 17.7411 75.4834 17.5328V12.4661C75.4834 12.2578 75.5834 12.0661 75.7501 11.9494L77.9751 10.3911C78.9667 9.69943 79.6917 9.89943 80.0334 10.0744C80.3751 10.2578 80.9584 10.7328 80.9584 11.9411V18.0494C80.9584 19.2578 80.3751 19.7411 80.0334 19.9161C79.8751 20.0078 79.6251 20.0911 79.3167 20.0911ZM76.7417 17.1994L78.7001 18.5661C79.0751 18.8244 79.3417 18.8494 79.4501 18.7911C79.5667 18.7328 79.6917 18.4994 79.6917 18.0494V11.9494C79.6917 11.4911 79.5584 11.2661 79.4501 11.2078C79.3417 11.1494 79.0751 11.1744 78.7001 11.4328L76.7417 12.7994V17.1994Z" fill="#FF002E"/>
<path d="M71.583 14.791C70.5497 14.791 69.708 13.9493 69.708 12.916C69.708 11.8827 70.5497 11.041 71.583 11.041C72.6163 11.041 73.458 11.8827 73.458 12.916C73.458 13.9493 72.6163 14.791 71.583 14.791ZM71.583 12.291C71.2413 12.291 70.958 12.5743 70.958 12.916C70.958 13.2577 71.2413 13.541 71.583 13.541C71.9247 13.541 72.208 13.2577 72.208 12.916C72.208 12.5743 71.9247 12.291 71.583 12.291Z" fill="#FF002E"/>
</svg>
