<svg width="27" height="27" viewBox="0 0 27 27" fill="none" xmlns="http://www.w3.org/2000/svg">
<path d="M13.9999 16.1695C11.8699 16.1695 10.1299 14.4395 10.1299 12.2995C10.1299 10.1595 11.8699 8.43945 13.9999 8.43945C16.1299 8.43945 17.8699 10.1695 17.8699 12.3095C17.8699 14.4495 16.1299 16.1695 13.9999 16.1695ZM13.9999 9.93945C12.6999 9.93945 11.6299 10.9995 11.6299 12.3095C11.6299 13.6195 12.6899 14.6795 13.9999 14.6795C15.3099 14.6795 16.3699 13.6195 16.3699 12.3095C16.3699 10.9995 15.2999 9.93945 13.9999 9.93945Z" fill="#229D71"/>
<path d="M13.9997 24.76C12.5197 24.76 11.0297 24.2 9.86969 23.09C6.91969 20.25 3.65969 15.72 4.88969 10.33C5.99969 5.44 10.2697 3.25 13.9997 3.25C13.9997 3.25 13.9997 3.25 14.0097 3.25C17.7397 3.25 22.0097 5.44 23.1197 10.34C24.3397 15.73 21.0797 20.25 18.1297 23.09C16.9697 24.2 15.4797 24.76 13.9997 24.76ZM13.9997 4.75C11.0897 4.75 7.34969 6.3 6.35969 10.66C5.27969 15.37 8.23969 19.43 10.9197 22C12.6497 23.67 15.3597 23.67 17.0897 22C19.7597 19.43 22.7197 15.37 21.6597 10.66C20.6597 6.3 16.9097 4.75 13.9997 4.75Z" fill="#229D71"/>
</svg>
