<svg width="30" height="30" viewBox="0 0 30 30" fill="none" xmlns="http://www.w3.org/2000/svg">
<path d="M21 13.75C20.59 13.75 20.25 13.41 20.25 13V11C20.25 7.85 19.36 5.75 15 5.75C10.64 5.75 9.75 7.85 9.75 11V13C9.75 13.41 9.41 13.75 9 13.75C8.59 13.75 8.25 13.41 8.25 13V11C8.25 8.1 8.95 4.25 15 4.25C21.05 4.25 21.75 8.1 21.75 11V13C21.75 13.41 21.41 13.75 21 13.75Z" fill="white"/>
<path d="M20 25.75H10C5.59 25.75 4.25 24.41 4.25 20V18C4.25 13.59 5.59 12.25 10 12.25H20C24.41 12.25 25.75 13.59 25.75 18V20C25.75 24.41 24.41 25.75 20 25.75ZM10 13.75C6.42 13.75 5.75 14.43 5.75 18V20C5.75 23.57 6.42 24.25 10 24.25H20C23.58 24.25 24.25 23.57 24.25 20V18C24.25 14.43 23.58 13.75 20 13.75H10Z" fill="white"/>
<path d="M11 20.0008C10.87 20.0008 10.74 19.9709 10.62 19.9209C10.49 19.8709 10.39 19.8008 10.29 19.7108C10.11 19.5208 10 19.2708 10 19.0008C10 18.8708 10.03 18.7408 10.08 18.6208C10.13 18.4908 10.2 18.3909 10.29 18.2909C10.39 18.2009 10.49 18.1308 10.62 18.0808C10.98 17.9208 11.43 18.0109 11.71 18.2909C11.8 18.3909 11.87 18.5008 11.92 18.6208C11.97 18.7408 12 18.8708 12 19.0008C12 19.2608 11.89 19.5208 11.71 19.7108C11.52 19.8908 11.26 20.0008 11 20.0008Z" fill="white"/>
<path d="M15 20.0009C14.74 20.0009 14.48 19.8909 14.29 19.7109C14.11 19.5209 14 19.2709 14 19.0009C14 18.8709 14.02 18.7409 14.08 18.6209C14.13 18.5009 14.2 18.3909 14.29 18.2909C14.52 18.0609 14.87 17.9509 15.19 18.0209C15.26 18.0309 15.32 18.0509 15.38 18.0809C15.44 18.1009 15.5 18.1309 15.56 18.1709C15.61 18.2009 15.66 18.2509 15.71 18.2909C15.8 18.3909 15.87 18.5009 15.92 18.6209C15.97 18.7409 16 18.8709 16 19.0009C16 19.2709 15.89 19.5209 15.71 19.7109C15.66 19.7509 15.61 19.7909 15.56 19.8309C15.5 19.8709 15.44 19.9009 15.38 19.9209C15.32 19.9509 15.26 19.9709 15.19 19.9809C15.13 19.9909 15.06 20.0009 15 20.0009Z" fill="white"/>
<path d="M19 20.0009C18.73 20.0009 18.48 19.8909 18.29 19.7109C18.2 19.6109 18.13 19.5009 18.08 19.3809C18.03 19.2609 18 19.1309 18 19.0009C18 18.7409 18.11 18.4809 18.29 18.2909C18.34 18.2509 18.39 18.2109 18.44 18.1709C18.5 18.1309 18.56 18.1009 18.62 18.0809C18.68 18.0509 18.74 18.0309 18.8 18.0209C19.13 17.9509 19.47 18.0609 19.71 18.2909C19.89 18.4809 20 18.7309 20 19.0009C20 19.1309 19.97 19.2609 19.92 19.3809C19.87 19.5109 19.8 19.6109 19.71 19.7109C19.52 19.8909 19.26 20.0009 19 20.0009Z" fill="white"/>
</svg>
