<svg width="44" height="44" viewBox="0 0 44 44" fill="none" xmlns="http://www.w3.org/2000/svg">
<g clip-path="url(#clip0_216_1064)">
<path d="M22.0004 25.6C24.9884 25.6 27.4004 23.188 27.4004 20.2V9.4C27.4004 6.412 24.9884 4 22.0004 4C19.0124 4 16.6004 6.412 16.6004 9.4V20.2C16.6004 23.188 19.0124 25.6 22.0004 25.6ZM20.2004 9.4C20.2004 8.41 21.0104 7.6 22.0004 7.6C22.9904 7.6 23.8004 8.41 23.8004 9.4V20.2C23.8004 21.19 22.9904 22 22.0004 22C21.0104 22 20.2004 21.19 20.2004 20.2V9.4ZM31.0004 20.2C31.0004 25.168 26.9684 29.2 22.0004 29.2C17.0324 29.2 13.0004 25.168 13.0004 20.2H9.40039C9.40039 26.554 14.0984 31.774 20.2004 32.656V38.2H23.8004V32.656C29.9024 31.774 34.6004 26.554 34.6004 20.2H31.0004Z" fill="white"/>
</g>
<defs>
<clipPath id="clip0_216_1064">
<rect width="43.2" height="43.2" fill="white" transform="translate(0.400391 0.400391)"/>
</clipPath>
</defs>
</svg>
