<svg width="30" height="30" viewBox="0 0 30 30" fill="none" xmlns="http://www.w3.org/2000/svg">
<path d="M15 13.5195C14.59 13.5195 14.25 13.1795 14.25 12.7695V9.43945C14.25 9.02945 14.59 8.68945 15 8.68945C15.41 8.68945 15.75 9.02945 15.75 9.43945V12.7695C15.75 13.1895 15.41 13.5195 15 13.5195Z" fill="white"/>
<path d="M15.0199 23.3502C12.4399 23.3502 9.86987 22.9402 7.41987 22.1202C6.50987 21.8202 5.81987 21.1702 5.51987 20.3502C5.21987 19.5302 5.31987 18.5902 5.80987 17.7702L7.07987 15.6502C7.35987 15.1802 7.60987 14.3002 7.60987 13.7502V11.6502C7.60987 7.56023 10.9299 4.24023 15.0199 4.24023C19.1099 4.24023 22.4299 7.56023 22.4299 11.6502V13.7502C22.4299 14.2902 22.6799 15.1802 22.9599 15.6502L24.2299 17.7702C24.6999 18.5502 24.7799 19.4802 24.4699 20.3302C24.1599 21.1802 23.4799 21.8302 22.6199 22.1202C20.1699 22.9502 17.5999 23.3502 15.0199 23.3502ZM15.0199 5.75023C11.7599 5.75023 9.10987 8.40023 9.10987 11.6602V13.7602C9.10987 14.5702 8.78987 15.7402 8.36987 16.4302L7.09987 18.5602C6.83987 18.9902 6.77987 19.4502 6.92987 19.8502C7.07987 20.2502 7.41987 20.5502 7.89987 20.7102C12.4999 22.2402 17.5599 22.2402 22.1599 20.7102C22.5899 20.5702 22.9199 20.2502 23.0699 19.8302C23.2299 19.4102 23.1799 18.9502 22.9499 18.5602L21.6799 16.4402C21.2599 15.7502 20.9399 14.5802 20.9399 13.7702V11.6702C20.9299 8.40023 18.2799 5.75023 15.0199 5.75023Z" fill="white"/>
<path d="M14.9999 25.9003C13.9299 25.9003 12.8799 25.4603 12.1199 24.7003C11.3599 23.9403 10.9199 22.8903 10.9199 21.8203H12.4199C12.4199 22.5003 12.6999 23.1603 13.1799 23.6403C13.6599 24.1203 14.3199 24.4003 14.9999 24.4003C16.4199 24.4003 17.5799 23.2403 17.5799 21.8203H19.0799C19.0799 24.0703 17.2499 25.9003 14.9999 25.9003Z" fill="white"/>
</svg>
