<svg width="30" height="30" viewBox="0 0 30 30" fill="none" xmlns="http://www.w3.org/2000/svg">
<path d="M15 15.75C11.83 15.75 9.25 13.17 9.25 10C9.25 6.83 11.83 4.25 15 4.25C18.17 4.25 20.75 6.83 20.75 10C20.75 13.17 18.17 15.75 15 15.75ZM15 5.75C12.66 5.75 10.75 7.66 10.75 10C10.75 12.34 12.66 14.25 15 14.25C17.34 14.25 19.25 12.34 19.25 10C19.25 7.66 17.34 5.75 15 5.75Z" fill="white"/>
<path d="M23.5901 25.75C23.1801 25.75 22.8401 25.41 22.8401 25C22.8401 21.55 19.3202 18.75 15.0002 18.75C10.6802 18.75 7.16016 21.55 7.16016 25C7.16016 25.41 6.82016 25.75 6.41016 25.75C6.00016 25.75 5.66016 25.41 5.66016 25C5.66016 20.73 9.85015 17.25 15.0002 17.25C20.1502 17.25 24.3401 20.73 24.3401 25C24.3401 25.41 24.0001 25.75 23.5901 25.75Z" fill="white"/>
</svg>
