<svg width="91" height="91" viewBox="0 0 91 91" fill="none" xmlns="http://www.w3.org/2000/svg">
<path opacity="0.2" d="M45.3864 83.4173C66.3272 83.4173 83.3031 66.4414 83.3031 45.5006C83.3031 24.5599 66.3272 7.58398 45.3864 7.58398C24.4456 7.58398 7.46973 24.5599 7.46973 45.5006C7.46973 66.4414 24.4456 83.4173 45.3864 83.4173Z" fill="white"/>
<path d="M56.7615 38.7882L45.7657 32.4561C43.0357 30.8636 39.7369 30.8636 37.0069 32.4561C34.2769 34.0486 32.6465 36.8544 32.6465 40.0394V52.7415C32.6465 55.8886 34.2769 58.7323 37.0069 60.3248C38.3719 61.1211 39.8886 61.5003 41.3673 61.5003C42.884 61.5003 44.3627 61.1211 45.7277 60.3248L56.7236 53.9928C59.4536 52.4003 61.084 49.5944 61.084 46.4094C61.1598 43.2244 59.5294 40.3807 56.7615 38.7882Z" fill="white"/>
</svg>
