<svg width="18" height="18" viewBox="0 0 18 18" fill="none" xmlns="http://www.w3.org/2000/svg">
<path opacity="0.4" d="M14.3028 14.8648C14.1603 14.8648 14.0178 14.8123 13.9053 14.6998C13.6878 14.4823 13.6878 14.1223 13.9053 13.9048C16.6128 11.1973 16.6128 6.79484 13.9053 4.09484C13.6878 3.87734 13.6878 3.51734 13.9053 3.29984C14.1228 3.08234 14.4828 3.08234 14.7003 3.29984C17.8428 6.44234 17.8428 11.5573 14.7003 14.6998C14.5878 14.8123 14.4453 14.8648 14.3028 14.8648Z" fill="#229D71"/>
<path opacity="0.4" d="M3.69773 14.8648C3.55523 14.8648 3.41273 14.8123 3.30023 14.6998C0.157734 11.5573 0.157734 6.44234 3.30023 3.29984C3.51773 3.08234 3.87773 3.08234 4.09523 3.29984C4.31273 3.51734 4.31273 3.87734 4.09523 4.09484C1.38773 6.80234 1.38773 11.2048 4.09523 13.9048C4.31273 14.1223 4.31273 14.4823 4.09523 14.6998C3.98273 14.8123 3.84023 14.8648 3.69773 14.8648Z" fill="#229D71"/>
<path opacity="0.4" d="M9.00007 17.032C8.06257 17.0245 7.17008 16.8745 6.33758 16.582C6.04508 16.477 5.88756 16.1545 5.99256 15.862C6.09756 15.5695 6.41258 15.412 6.71258 15.517C7.43258 15.7645 8.19758 15.8995 9.00758 15.8995C9.81008 15.8995 10.5826 15.7645 11.2951 15.517C11.5876 15.4195 11.9101 15.5695 12.0151 15.862C12.1201 16.1545 11.9626 16.477 11.6701 16.582C10.8301 16.8745 9.93757 17.032 9.00007 17.032Z" fill="#229D71"/>
<path opacity="0.4" d="M11.4747 2.50433C11.4147 2.50433 11.3472 2.4968 11.2872 2.4743C10.5672 2.2268 9.79474 2.0918 8.99224 2.0918C8.18974 2.0918 7.42475 2.2268 6.70475 2.4743C6.41225 2.5718 6.08975 2.42183 5.98475 2.12933C5.87975 1.83683 6.03725 1.51432 6.32975 1.40932C7.16225 1.11682 8.06224 0.966797 8.99224 0.966797C9.92224 0.966797 10.8222 1.11682 11.6547 1.40932C11.9472 1.51432 12.1047 1.83683 11.9997 2.12933C11.9247 2.36183 11.7072 2.50433 11.4747 2.50433Z" fill="#229D71"/>
<path d="M6.55469 8.99913V7.74664C6.55469 6.18664 7.6572 5.54913 9.0072 6.32913L10.0947 6.95915L11.1822 7.58912C12.5322 8.36912 12.5322 9.64415 11.1822 10.4241L10.0947 11.0541L9.0072 11.6841C7.6572 12.4641 6.55469 11.8266 6.55469 10.2666V8.99913Z" fill="#229D71"/>
</svg>
