<svg width="30" height="30" viewBox="0 0 30 30" fill="none" xmlns="http://www.w3.org/2000/svg">
<path d="M9.18014 25.7499C9.08014 25.7499 8.97014 25.7399 8.88014 25.7299L6.71014 25.4299C5.67014 25.2899 4.73014 24.3599 4.57014 23.2999L4.27014 21.1099C4.17014 20.4099 4.47014 19.4999 4.97014 18.9899L9.36014 14.5999C8.65014 11.7599 9.47014 8.75992 11.5601 6.68992C14.8001 3.45992 20.0701 3.44992 23.3201 6.68992C24.8901 8.25992 25.7501 10.3499 25.7501 12.5699C25.7501 14.7899 24.8901 16.8799 23.3201 18.4499C21.2201 20.5299 18.2301 21.3499 15.4101 20.6299L11.0101 25.0199C10.5901 25.4599 9.84014 25.7499 9.18014 25.7499ZM17.4301 5.75992C15.6801 5.75992 13.9401 6.41992 12.6101 7.74992C10.8101 9.53992 10.1601 12.1599 10.9101 14.5999C10.9901 14.8699 10.9201 15.1499 10.7201 15.3499L6.02014 20.0499C5.85014 20.2199 5.71014 20.6599 5.74014 20.8899L6.04014 23.0799C6.10014 23.4599 6.51014 23.8899 6.89014 23.9399L9.07014 24.2399C9.31014 24.2799 9.75014 24.1399 9.92014 23.9699L14.6401 19.2599C14.8401 19.0599 15.1301 18.9999 15.3901 19.0799C17.8001 19.8399 20.4301 19.1899 22.2301 17.3899C23.5101 16.1099 24.2201 14.3899 24.2201 12.5699C24.2201 10.7399 23.5101 9.02992 22.2301 7.74992C20.9301 6.42992 19.1801 5.75992 17.4301 5.75992Z" fill="white"/>
<path d="M12.1901 23.5397C12.0001 23.5397 11.8101 23.4697 11.6601 23.3197L9.36008 21.0197C9.07008 20.7297 9.07008 20.2497 9.36008 19.9597C9.65008 19.6697 10.1301 19.6697 10.4201 19.9597L12.7201 22.2597C13.0101 22.5497 13.0101 23.0297 12.7201 23.3197C12.5701 23.4697 12.3801 23.5397 12.1901 23.5397Z" fill="white"/>
<path d="M17.5 14.75C16.26 14.75 15.25 13.74 15.25 12.5C15.25 11.26 16.26 10.25 17.5 10.25C18.74 10.25 19.75 11.26 19.75 12.5C19.75 13.74 18.74 14.75 17.5 14.75ZM17.5 11.75C17.09 11.75 16.75 12.09 16.75 12.5C16.75 12.91 17.09 13.25 17.5 13.25C17.91 13.25 18.25 12.91 18.25 12.5C18.25 12.09 17.91 11.75 17.5 11.75Z" fill="white"/>
</svg>
