<svg width="30" height="30" viewBox="0 0 30 30" fill="none" xmlns="http://www.w3.org/2000/svg">
<path d="M10.333 27.039C10.0063 27.039 9.66799 26.9573 9.36466 26.794C8.69966 26.444 8.29134 25.744 8.29134 24.9973V23.3407C4.76801 22.9791 2.45801 20.389 2.45801 16.679V9.67904C2.45801 5.6657 5.15301 2.9707 9.16634 2.9707H20.833C24.8463 2.9707 27.5413 5.6657 27.5413 9.67904V16.679C27.5413 20.6923 24.8463 23.3873 20.833 23.3873H16.4347L11.4646 26.7007C11.1263 26.9224 10.7297 27.039 10.333 27.039ZM9.16634 4.70903C6.15634 4.70903 4.20801 6.65736 4.20801 9.66736V16.6674C4.20801 19.6774 6.15634 21.6258 9.16634 21.6258C9.64467 21.6258 10.0413 22.0224 10.0413 22.5008V24.9858C10.0413 25.1374 10.1347 25.2074 10.193 25.2424C10.2513 25.2774 10.368 25.3124 10.4964 25.2307L15.688 21.7774C15.828 21.6841 16.003 21.6258 16.178 21.6258H20.8447C23.8547 21.6258 25.803 19.6774 25.803 16.6674V9.66736C25.803 6.65736 23.8547 4.70903 20.8447 4.70903H9.16634Z" fill="white"/>
<path d="M15.0001 15.127C14.5218 15.127 14.1251 14.7303 14.1251 14.252V14.007C14.1251 12.6537 15.1168 11.9887 15.4901 11.732C15.9218 11.4403 16.0617 11.242 16.0617 10.9387C16.0617 10.3553 15.5834 9.87695 15.0001 9.87695C14.4168 9.87695 13.9385 10.3553 13.9385 10.9387C13.9385 11.417 13.5418 11.8137 13.0635 11.8137C12.5851 11.8137 12.1885 11.417 12.1885 10.9387C12.1885 9.38699 13.4484 8.12695 15.0001 8.12695C16.5518 8.12695 17.8117 9.38699 17.8117 10.9387C17.8117 12.2687 16.8318 12.9336 16.4701 13.1786C16.0151 13.482 15.8751 13.6803 15.8751 14.007V14.252C15.8751 14.742 15.4784 15.127 15.0001 15.127Z" fill="white"/>
<path d="M15 18.0332C14.51 18.0332 14.125 17.6365 14.125 17.1582C14.125 16.6799 14.5217 16.2832 15 16.2832C15.4783 16.2832 15.875 16.6799 15.875 17.1582C15.875 17.6365 15.49 18.0332 15 18.0332Z" fill="white"/>
</svg>
