<svg width="46" height="52" viewBox="0 0 46 52" fill="none" xmlns="http://www.w3.org/2000/svg">
<g filter="url(#filter0_d_266_1087)">
<path fill-rule="evenodd" clip-rule="evenodd" d="M24.6193 2.2949C23.9893 1.66493 22.9122 2.1111 22.9122 3.002V8.58779C17.0957 9.49329 10.8274 12.0869 10.0033 23.0559C9.93541 23.9601 10.9196 24.3127 11.5701 23.6811C13.2136 22.0852 16.2504 20.2449 22.9122 20.2449V26.1736C22.9122 27.0645 23.9893 27.5107 24.6193 26.8807L35.498 16.002C36.279 15.221 36.279 13.9546 35.498 13.1736L24.6193 2.2949Z" fill="white"/>
</g>
<g filter="url(#filter1_d_266_1087)">
<path d="M10.1034 47.076L10.2714 48H5.47142V47.076H7.30742V40.884L5.73542 41.772L5.38742 40.908L7.42742 39.78H8.42342V47.076H10.1034ZM14.9121 43.752C16.1201 44.048 16.7241 44.72 16.7241 45.768C16.7241 46.512 16.4561 47.092 15.9201 47.508C15.3841 47.916 14.6241 48.12 13.6401 48.12C12.4561 48.12 11.4841 47.892 10.7241 47.436L11.0601 46.632C11.9161 47.032 12.7161 47.232 13.4601 47.232C14.8921 47.232 15.6081 46.716 15.6081 45.684C15.6081 45.188 15.4201 44.812 15.0441 44.556C14.6681 44.3 14.1441 44.172 13.4721 44.172H12.6321V43.344H13.4721C14.1121 43.328 14.5961 43.2 14.9241 42.96C15.2521 42.712 15.4161 42.376 15.4161 41.952C15.4161 41.04 14.8201 40.584 13.6281 40.584C12.9721 40.584 12.2161 40.784 11.3601 41.184L11.0241 40.38C11.8241 39.924 12.7481 39.696 13.7961 39.696C14.6281 39.696 15.2841 39.884 15.7641 40.26C16.2441 40.636 16.4841 41.172 16.4841 41.868C16.4841 42.828 15.9601 43.456 14.9121 43.752ZM17.999 40.524C18.927 39.988 19.811 39.72 20.651 39.72C21.483 39.72 22.171 39.912 22.715 40.296C23.267 40.68 23.543 41.244 23.543 41.988C23.543 42.34 23.459 42.672 23.291 42.984C23.123 43.288 22.907 43.552 22.643 43.776C22.379 44 22.083 44.216 21.755 44.424C21.435 44.624 21.111 44.82 20.783 45.012C20.463 45.204 20.171 45.4 19.907 45.6C19.643 45.792 19.427 46.012 19.259 46.26C19.091 46.508 19.007 46.772 19.007 47.052H23.543L23.699 48H17.783V47.364C17.783 46.94 17.867 46.552 18.035 46.2C18.203 45.848 18.423 45.552 18.695 45.312C18.967 45.064 19.267 44.836 19.595 44.628C19.923 44.412 20.251 44.212 20.579 44.028C20.915 43.844 21.219 43.66 21.491 43.476C21.763 43.284 21.983 43.068 22.151 42.828C22.319 42.58 22.403 42.316 22.403 42.036C22.403 41.564 22.227 41.212 21.875 40.98C21.523 40.74 21.079 40.62 20.543 40.62C19.887 40.62 19.111 40.888 18.215 41.424L17.999 40.524ZM24.9083 49.56L24.2483 49.5C24.5603 48.684 24.7403 47.828 24.7883 46.932H25.7483C25.6683 47.82 25.3883 48.696 24.9083 49.56ZM27.4123 39.84H32.3203L32.1643 40.752H28.3603L28.2403 43.116C28.8403 42.996 29.3803 42.936 29.8603 42.936C30.7723 42.936 31.4803 43.16 31.9843 43.608C32.4883 44.056 32.7403 44.648 32.7403 45.384C32.7403 46.248 32.4563 46.92 31.8883 47.4C31.3283 47.88 30.5523 48.12 29.5603 48.12C28.4323 48.12 27.4843 47.892 26.7163 47.436L27.0523 46.632C27.9243 47.032 28.7003 47.232 29.3803 47.232C30.0843 47.232 30.6283 47.08 31.0123 46.776C31.4043 46.472 31.6003 46.016 31.6003 45.408C31.6003 44.904 31.4123 44.508 31.0363 44.22C30.6683 43.924 30.1563 43.776 29.5003 43.776C28.7803 43.776 28.0163 43.888 27.2083 44.112L27.4123 39.84ZM39.7824 48.12L37.1664 44.316H35.3544V48H34.2384V39.84H35.3544V43.368H37.2144L39.5904 39.84H40.8744L38.1264 43.824L40.9944 47.964L39.7824 48.12Z" fill="white"/>
</g>
<defs>
<filter id="filter0_d_266_1087" x="8" y="0" width="32" height="32" filterUnits="userSpaceOnUse" color-interpolation-filters="sRGB">
<feFlood flood-opacity="0" result="BackgroundImageFix"/>
<feColorMatrix in="SourceAlpha" type="matrix" values="0 0 0 0 0 0 0 0 0 0 0 0 0 0 0 0 0 0 127 0" result="hardAlpha"/>
<feOffset dx="1" dy="1"/>
<feGaussianBlur stdDeviation="0.5"/>
<feComposite in2="hardAlpha" operator="out"/>
<feColorMatrix type="matrix" values="0 0 0 0 0 0 0 0 0 0 0 0 0 0 0 0 0 0 0.25 0"/>
<feBlend mode="normal" in2="BackgroundImageFix" result="effect1_dropShadow_266_1087"/>
<feBlend mode="normal" in="SourceGraphic" in2="effect1_dropShadow_266_1087" result="shape"/>
</filter>
<filter id="filter1_d_266_1087" x="5.3877" y="39.6953" width="37.6064" height="11.8652" filterUnits="userSpaceOnUse" color-interpolation-filters="sRGB">
<feFlood flood-opacity="0" result="BackgroundImageFix"/>
<feColorMatrix in="SourceAlpha" type="matrix" values="0 0 0 0 0 0 0 0 0 0 0 0 0 0 0 0 0 0 127 0" result="hardAlpha"/>
<feOffset dx="1" dy="1"/>
<feGaussianBlur stdDeviation="0.5"/>
<feComposite in2="hardAlpha" operator="out"/>
<feColorMatrix type="matrix" values="0 0 0 0 0 0 0 0 0 0 0 0 0 0 0 0 0 0 0.25 0"/>
<feBlend mode="normal" in2="BackgroundImageFix" result="effect1_dropShadow_266_1087"/>
<feBlend mode="normal" in="SourceGraphic" in2="effect1_dropShadow_266_1087" result="shape"/>
</filter>
</defs>
</svg>
