<svg width="20" height="20" viewBox="0 0 20 20" fill="none" xmlns="http://www.w3.org/2000/svg">
<g clip-path="url(#clip0_276_7537)">
<path d="M11.2497 0.558594C11.2497 0.558594 11.8663 2.76693 11.8663 4.55859C11.8663 6.27526 10.7413 7.66693 9.02467 7.66693C7.29967 7.66693 5.99967 6.27526 5.99967 4.55859L6.02467 4.25859C4.34134 6.25859 3.33301 8.85026 3.33301 11.6669C3.33301 15.3503 6.31634 18.3336 9.99967 18.3336C13.683 18.3336 16.6663 15.3503 16.6663 11.6669C16.6663 7.17526 14.508 3.16693 11.2497 0.558594ZM9.75801 15.8336C8.27467 15.8336 7.07467 14.6669 7.07467 13.2169C7.07467 11.8669 7.94967 10.9169 9.41634 10.6169C10.8913 10.3169 12.4163 9.60859 13.2663 8.46693C13.5913 9.54193 13.758 10.6753 13.758 11.8336C13.758 14.0419 11.9663 15.8336 9.75801 15.8336Z" fill="#FFA844"/>
</g>
<defs>
<clipPath id="clip0_276_7537">
<rect width="20" height="20" fill="white"/>
</clipPath>
</defs>
</svg>
