<svg width="130" height="47" viewBox="0 0 130 47" fill="none" xmlns="http://www.w3.org/2000/svg">
<path d="M64.8613 16.9531L64.9395 17.1875C64.8353 17.6302 64.3665 18.151 63.5332 18.75C64.3665 19.4271 64.7832 20.4167 64.7832 21.7188V21.7969C64.7832 23.9323 63.8978 25 62.127 25C60.7207 24.7266 60.0176 24.0234 60.0176 22.8906V22.8125C60.0697 21.8359 60.4603 20.7943 61.1895 19.6875C60.5124 19.4792 60.1738 19.1927 60.1738 18.8281C60.1738 17.8516 60.252 17.2526 60.4082 17.0312C61.1113 17.2266 61.8926 17.6172 62.752 18.2031H62.8301L64.8613 16.9531ZM61.8145 20.0781C61.1895 20.7031 60.877 21.1458 60.877 21.4062C60.877 22.2135 61.4499 22.6823 62.5957 22.8125C63.1947 22.7344 63.7155 22.526 64.1582 22.1875C63.6504 21.3151 62.8691 20.612 61.8145 20.0781ZM63.582 13.1738C64.1549 13.304 64.7279 13.6426 65.3008 14.1895V14.2676C65.3008 14.554 64.9883 15.0749 64.3633 15.8301H64.1289C63.7643 15.8301 63.2956 15.5436 62.7227 14.9707C62.8659 14.1634 63.1523 13.5645 63.582 13.1738ZM60.6133 13.0176C61.2253 13.1999 61.8503 13.5905 62.4883 14.1895V14.2676C61.9023 15.2962 61.5638 15.8171 61.4727 15.8301H61.2383C60.7956 15.765 60.3268 15.4785 59.832 14.9707V14.8926C59.8841 14.2806 60.1445 13.6556 60.6133 13.0176ZM74.4316 24.5215C74.36 24.528 74.2884 24.5312 74.2168 24.5312H73.8262C73.2142 24.5312 72.7975 24.4792 72.5762 24.375C72.1204 26.1263 71.5898 27.1973 70.9844 27.5879C70.3789 27.985 69.0085 28.3203 66.873 28.5938H66.7168C66.248 28.5417 66.0137 28.4635 66.0137 28.3594C66.0137 28.2031 66.4043 28.0208 67.1855 27.8125C70.2585 26.4062 71.7949 25.3906 71.7949 24.7656C71.7949 24.5052 71.4303 23.9062 70.7012 22.9688C70.5449 22.7083 70.4668 22.3698 70.4668 21.9531V21.1719C70.4668 20.7812 70.5449 20.5729 70.7012 20.5469C71.3783 21.582 72.5241 22.1615 74.1387 22.2852C74.2363 22.2852 74.334 22.2819 74.4316 22.2754V24.5215ZM78.4941 12.2617C79.3405 12.5221 80.0697 12.9388 80.6816 13.5117V13.5898C80.6816 13.9154 80.3431 14.4362 79.666 15.1523C79.4577 15.1523 78.7546 14.8919 77.5566 14.3711V14.4492C77.14 15.2565 76.8796 15.6732 76.7754 15.6992C76.0983 15.556 75.5254 15.2435 75.0566 14.7617C75.3691 13.4596 75.6296 12.8086 75.8379 12.8086C76.0072 12.8086 76.6322 13.1211 77.7129 13.7461C77.7129 13.4727 77.9733 12.9779 78.4941 12.2617ZM74.2168 21.7734C75.0827 21.8451 75.8216 21.7604 76.4336 21.5195L76.1113 20.9336C75.8053 19.2148 75.9421 18.0788 76.5215 17.5254C77.1009 16.9655 77.7227 16.7083 78.3867 16.7539C79.6758 16.8125 80.4049 17.4896 80.5742 18.7852V19.2539C80.5742 20.3346 80.418 21.0117 80.1055 21.2852C79.9102 21.487 80.3529 21.6562 81.4336 21.793L81.6875 21.7832C81.8828 21.7767 82.1074 21.7734 82.3613 21.7734V24L81.5703 24.0098C80.099 24.0033 78.9857 23.8177 78.2305 23.4531C77.1888 23.8177 76.3815 24 75.8086 24H75.4961C75.1055 24 74.679 24 74.2168 24V21.7734ZM76.9805 19.5664V19.7227C77.306 20.2826 77.8008 20.6732 78.4648 20.8945C78.9076 20.8164 79.3503 20.6341 79.793 20.3477C79.5977 19.6185 78.9466 19.2018 77.8398 19.0977C77.2669 19.2539 76.9805 19.4102 76.9805 19.5664ZM82.1855 21.7734C82.7389 21.7799 83.084 21.7702 83.2207 21.7441C84.3926 21.3861 85.1934 20.6276 85.623 19.4688C85.6882 19.2474 85.8184 19.2214 86.0137 19.3906C86.1178 19.4818 86.196 19.8464 86.248 20.4844C86.9577 21.4414 87.8431 21.8711 88.9043 21.7734H89.1094V24H89.0605C87.4004 23.9219 86.1764 23.1667 85.3887 21.7344H85.3105C84.7572 22.8997 84.028 23.6159 83.123 23.8828C82.8496 23.9609 82.5371 24 82.1855 24V21.7734ZM85.0273 24.8594C85.2943 24.8594 85.9193 25.1719 86.9023 25.7969C86.9023 26.1875 86.5898 26.8125 85.9648 27.6719C84.7148 27.2682 84.0898 26.9036 84.0898 26.5781C84.1224 26.2852 84.4349 25.7122 85.0273 24.8594ZM88.9043 21.7637C88.9954 21.7702 89.0931 21.7734 89.1973 21.7734H89.9395C90.7207 21.6432 91.3197 21.3698 91.7363 20.9531L90.7988 13.5312C91.0332 12.125 91.2415 11.4219 91.4238 11.4219L92.4395 13.7656C92.4395 14.1302 92.3092 14.6771 92.0488 15.4062L92.4395 19.625V20.7969C92.1465 22.0404 91.7526 22.9095 91.2578 23.4043C90.8867 23.8014 90.4473 24 89.9395 24H89.2754C89.1452 24 89.0215 23.9967 88.9043 23.9902V21.7637ZM95.8574 11.875C96.0137 11.875 96.1699 12.3958 96.3262 13.4375L97.0293 15L96.7168 16.7969L96.9512 21.1719V21.875C96.847 23.6589 96.5866 24.7005 96.1699 25L96.0918 24.9219L96.1699 23.75C96.1699 22.6953 95.8314 19.3359 95.1543 13.6719C95.4798 12.474 95.7142 11.875 95.8574 11.875ZM105.369 16.9531L105.447 17.1875C105.343 17.6302 104.874 18.151 104.041 18.75C104.874 19.4271 105.291 20.4167 105.291 21.7188V21.7969C105.291 23.9323 104.406 25 102.635 25C101.229 24.7266 100.525 24.0234 100.525 22.8906V22.8125C100.577 21.8359 100.968 20.7943 101.697 19.6875C101.02 19.4792 100.682 19.1927 100.682 18.8281C100.682 17.8516 100.76 17.2526 100.916 17.0312C101.619 17.2266 102.4 17.6172 103.26 18.2031H103.338L105.369 16.9531ZM102.322 20.0781C101.697 20.7031 101.385 21.1458 101.385 21.4062C101.385 22.2135 101.958 22.6823 103.104 22.8125C103.702 22.7344 104.223 22.526 104.666 22.1875C104.158 21.3151 103.377 20.612 102.322 20.0781ZM104.09 13.1738C104.663 13.304 105.236 13.6426 105.809 14.1895V14.2676C105.809 14.554 105.496 15.0749 104.871 15.8301H104.637C104.272 15.8301 103.803 15.5436 103.23 14.9707C103.374 14.1634 103.66 13.5645 104.09 13.1738ZM101.121 13.0176C101.733 13.1999 102.358 13.5905 102.996 14.1895V14.2676C102.41 15.2962 102.072 15.8171 101.98 15.8301H101.746C101.303 15.765 100.835 15.4785 100.34 14.9707V14.8926C100.392 14.2806 100.652 13.6556 101.121 13.0176ZM110.945 20.6836C111.414 21.1523 111.857 22.168 112.273 23.7305L112.352 24.7461C112.352 26.582 111.44 27.832 109.617 28.4961L109.07 28.5742L107.684 28.5938L106.336 28.5742L106.258 28.4961V28.418C106.427 28.2357 107.547 27.6888 109.617 26.7773C110.919 26.0352 111.622 25.3841 111.727 24.8242C111.049 23.3789 110.711 22.5456 110.711 22.3242V22.0898C110.711 21.1523 110.789 20.6836 110.945 20.6836ZM119.51 25L118.631 24.9902C118.143 27.1322 116.854 28.2161 114.764 28.2422C113.644 28.2943 113.084 28.2747 113.084 28.1836C113.188 27.9883 113.937 27.6107 115.33 27.0508C116.762 26.1393 117.628 25.5534 117.928 25.293L118.006 25.0586L116.639 24.8438C115.643 24.5833 115.083 24.082 114.959 23.3398V23.1836C114.959 21.9206 115.271 21.1133 115.896 20.7617L116.365 20.6836C117.29 20.6836 118.045 21.3281 118.631 22.6172C119.002 22.7474 119.295 22.8092 119.51 22.8027V25ZM119.168 22.7734H119.197C120.408 22.7214 121.242 22.1354 121.697 21.0156C121.697 20.8594 121.801 20.7292 122.01 20.625H122.166C122.27 20.625 122.322 20.7031 122.322 20.8594L122.244 21.3281C122.687 22.1094 123.156 22.5 123.65 22.5H124.041C124.718 22.5 125.239 21.8229 125.604 20.4688H125.682C125.76 20.4818 125.89 20.7943 126.072 21.4062C126.515 21.7969 126.958 22.0312 127.4 22.1094C127.921 22.1094 128.182 21.7969 128.182 21.1719C128.234 20.1823 128.338 19.6875 128.494 19.6875C128.702 20.1302 128.807 20.6771 128.807 21.3281C128.807 23.2552 128.338 24.2188 127.4 24.2188C126.671 24.2188 126.072 23.8542 125.604 23.125H125.447C125.122 24.1667 124.601 24.6875 123.885 24.6875H123.807C123.169 24.6875 122.439 24.1927 121.619 23.2031C120.929 24.401 120.148 25 119.275 25H119.168V22.7734Z" fill="black"/>
<path d="M91.5898 35.2637C91.5898 35.7754 91.4746 36.1641 91.2441 36.4297C91.0137 36.6914 90.6543 36.8672 90.166 36.957C90.4043 37.7891 90.5234 38.6523 90.5234 39.5469C90.5234 40.1562 90.4434 40.625 90.2832 40.9531C90.2441 41.0391 90.2012 41.082 90.1543 41.082C90.1035 41.082 90.0742 41.0391 90.0664 40.9531C90.0039 39.0625 89.3965 37.2617 88.2441 35.5508L88.5898 34.6133C88.6172 34.5508 88.6426 34.5195 88.666 34.5195C88.6973 34.5195 88.7598 34.5645 88.8535 34.6543C89.0723 34.9004 89.2891 35.1484 89.5039 35.3984C89.6484 35.5391 89.8398 35.6094 90.0781 35.6094C90.4219 35.6094 90.6953 35.5176 90.8984 35.334C91.0078 35.2324 91.1191 35.0645 91.2324 34.8301C91.3105 34.6465 91.3828 34.5547 91.4492 34.5547C91.543 34.5547 91.5898 34.791 91.5898 35.2637ZM96.9043 39.9688L96.5469 41C96.5156 41.1211 96.4629 41.1367 96.3887 41.0469C96.0801 40.6797 95.8535 40.2598 95.709 39.7871C95.5879 39.3965 95.4961 38.873 95.4336 38.2168C95.2656 38.2637 95.0938 38.2871 94.918 38.2871C94.4766 38.2871 94.0762 38.1621 93.7168 37.9121C93.3574 37.6582 93.1777 37.3711 93.1777 37.0508C93.1777 36.6289 93.3691 36.0938 93.752 35.4453C94.1504 34.7734 94.5137 34.4375 94.8418 34.4375C95.1621 34.4375 95.4297 34.6895 95.6445 35.1934C95.8633 35.7207 95.9727 36.3965 95.9727 37.2207C95.9727 38.2363 96.2832 39.1523 96.9043 39.9688ZM95.2754 36.9453C95.1855 36.1445 94.9414 35.7441 94.543 35.7441C94.4062 35.7441 94.2754 35.8223 94.1504 35.9785C94.0293 36.1348 93.9688 36.2734 93.9688 36.3945C93.9688 36.5352 94.0859 36.6641 94.3203 36.7812C94.5586 36.8984 94.8164 36.957 95.0938 36.957C95.1602 36.957 95.2207 36.9531 95.2754 36.9453ZM102.881 39.9688C102.748 40.4492 102.598 40.8281 102.43 41.1055C102.18 40.9805 101.951 40.7324 101.744 40.3613C101.4 39.7715 101.176 38.9609 101.07 37.9297C101.039 37.543 101.047 37.0664 101.094 36.5C100.711 36.6055 100.252 36.6582 99.7168 36.6582C99.4121 36.6582 99.1641 36.5469 98.9727 36.3242C98.7812 36.0977 98.6855 35.8047 98.6855 35.4453C98.6855 34.8906 98.6816 34.7227 98.6738 34.9414C98.6816 34.7148 98.7285 34.6016 98.8145 34.6016C98.8457 34.6016 98.9961 34.6973 99.2656 34.8887C99.5352 35.0762 99.8047 35.1699 100.074 35.1699C100.441 35.1699 100.789 35.1426 101.117 35.0879C101.445 35.0293 101.605 35 101.598 35C101.703 35 101.756 35.1113 101.756 35.334C101.756 35.4082 101.746 35.5898 101.727 35.8789C101.707 36.1641 101.697 36.4102 101.697 36.6172C101.697 36.9805 101.725 37.3223 101.779 37.6426C101.877 38.2559 102.018 38.7422 102.201 39.1016C102.318 39.3359 102.465 39.5332 102.641 39.6934C102.793 39.8223 102.873 39.9141 102.881 39.9688ZM111.242 41H111.23C110.332 41 109.723 40.5625 109.402 39.6875L109.309 39.3125H109.215C109.145 39.5625 108.645 39.7188 107.715 39.7812H107.48C106.855 39.7812 106.543 39.5938 106.543 39.2188V38.7969C106.543 38.3438 106.887 37.7812 107.574 37.1094C107.988 36.7969 108.457 36.5312 108.98 36.3125L108.934 36.1719C109.105 35.3906 109.246 35 109.355 35C109.41 35.1328 109.488 36.1016 109.59 37.9062C109.73 39.1211 110.281 39.7129 111.242 39.6816V41ZM107.105 38.2812C107.285 38.4062 107.582 38.4688 107.996 38.4688C108.402 38.4375 108.777 38.3594 109.121 38.2344L109.027 36.9219H108.98C107.73 37.5156 107.105 37.9688 107.105 38.2812ZM108.934 32.7383C109.23 32.7383 109.59 32.9414 110.012 33.3477C110.012 33.5117 109.809 33.8398 109.402 34.332C109.168 34.332 108.824 34.1758 108.371 33.8633C108.371 33.5898 108.559 33.2148 108.934 32.7383ZM107.293 32.9727H107.48C108.098 33.3242 108.41 33.5273 108.418 33.582C108.113 34.2383 107.91 34.582 107.809 34.6133C107.457 34.6133 107.113 34.4414 106.777 34.0977C106.84 33.7617 107.012 33.3867 107.293 32.9727ZM111.125 39.6641C111.508 39.6641 111.789 39.6641 111.969 39.6641H112.156C112.719 39.5898 113.559 39.3496 114.676 38.9434C114.301 38.6309 113.723 38.3965 112.941 38.2402C112.48 38.2402 112.168 38.459 112.004 38.8965C111.945 39.0254 111.893 39.0605 111.846 39.002C111.803 38.9395 111.793 38.8574 111.816 38.7559C112.098 37.8105 112.473 37.3379 112.941 37.3379H113.27C113.582 37.3379 114.145 37.5137 114.957 37.8652C115.773 38.2168 116.477 38.3574 117.066 38.2871C117.141 38.2871 117.172 38.334 117.16 38.4277C117.035 39.209 116.801 39.5996 116.457 39.5996L116.223 39.6465V39.7402C116.34 39.9863 116.881 40.1035 117.846 40.0918V41.4219C116.447 41.4961 115.75 40.9512 115.754 39.7871C115.254 39.8613 114.576 40.0957 113.721 40.4902C112.865 40.8809 112 41.0488 111.125 40.9941V39.6641ZM119.639 34.3555C120.045 34.3555 120.42 34.6055 120.764 35.1055C120.475 35.7617 120.256 36.0898 120.107 36.0898C119.475 35.7773 119.131 35.5742 119.076 35.4805C119.076 35.1836 119.264 34.8086 119.639 34.3555ZM117.699 39.6641C118.219 39.707 118.662 39.6562 119.029 39.5117L118.836 39.1602C118.652 38.1289 118.734 37.4473 119.082 37.1152C119.43 36.7793 119.803 36.625 120.201 36.6523C120.975 36.6875 121.412 37.0938 121.514 37.8711V38.1523C121.514 38.8008 121.42 39.207 121.232 39.3711C121.115 39.4922 121.381 39.5938 122.029 39.6758L122.182 39.6699C122.299 39.666 122.434 39.6641 122.586 39.6641V41L122.111 41.0059C121.229 41.002 120.561 40.8906 120.107 40.6719C119.482 40.8906 118.998 41 118.654 41H118.467C118.232 41 117.977 41 117.699 41V39.6641ZM119.357 38.3398V38.4336C119.553 38.7695 119.85 39.0039 120.248 39.1367C120.514 39.0898 120.779 38.9805 121.045 38.8086C120.928 38.3711 120.537 38.1211 119.873 38.0586C119.529 38.1523 119.357 38.2461 119.357 38.3398ZM122.404 39.6641H122.586C123.203 39.5977 123.723 39.2246 124.145 38.5449C124.207 38.4043 124.27 38.3262 124.332 38.3105H124.379L124.52 38.4512C124.5 38.6309 124.469 38.7559 124.426 38.8262C124.699 39.3262 125.027 39.5762 125.41 39.5762L125.457 39.623C126.137 38.123 126.902 37.373 127.754 37.373C128.434 37.373 128.934 37.6543 129.254 38.2168V38.498C129.254 40.2168 128.191 41.0762 126.066 41.0762L125.363 41.0293C125.145 41.623 125.004 41.9199 124.941 41.9199L124.895 41.873V41.8262L125.035 41.0293V40.9355C124.574 40.6777 124.215 40.3184 123.957 39.8574C123.715 40.6504 123.197 41.0312 122.404 41V39.6641ZM125.926 39.7168H126.02C127.082 39.7168 127.988 39.5605 128.738 39.248C128.738 38.9121 128.426 38.6777 127.801 38.5449H127.613C126.863 38.5449 126.301 38.9355 125.926 39.7168Z" fill="#3F3F3F"/>
<path d="M53 39.918C52.9609 40.0625 52.9082 40.1348 52.8418 40.1348C52.7871 40.1348 52.7559 40.0547 52.748 39.8945C52.6934 38.7344 52.5137 37.709 52.209 36.8184C51.959 36.1152 51.582 35.3965 51.0781 34.6621C51.1992 34.4199 51.3633 34.1035 51.5703 33.7129C51.6367 33.584 51.6855 33.5195 51.7168 33.5195C51.748 33.5195 51.8086 33.584 51.8984 33.7129C52.2812 34.2715 52.5938 34.9844 52.8359 35.8516C53.082 36.7148 53.2051 37.5527 53.2051 38.3652C53.2051 38.959 53.1367 39.4766 53 39.918ZM58.1328 37.334C58.1328 38.0801 57.9355 38.6602 57.541 39.0742C57.1738 39.4609 56.707 39.6543 56.1406 39.6543C55.5977 39.6543 55.2148 39.5195 54.9922 39.25C54.7734 38.9805 54.6641 38.5312 54.6641 37.9023C54.6641 37.1953 54.8594 36.4785 55.25 35.752C55.6602 34.9902 56.0801 34.6094 56.5098 34.6094C56.8965 34.6094 57.2402 34.8105 57.541 35.2129C57.9355 35.709 58.1328 36.416 58.1328 37.334ZM57.6289 37.3984C57.6289 36.9336 57.4844 36.5684 57.1953 36.3027C56.957 36.0801 56.666 35.9688 56.3223 35.9688C56.1035 35.9688 55.8555 36.1328 55.5781 36.4609C55.2656 36.8281 55.1094 37.2207 55.1094 37.6387C55.1094 38.1895 55.4727 38.4648 56.1992 38.4648C56.5664 38.4648 56.8867 38.373 57.1602 38.1895C57.4727 37.9902 57.6289 37.7266 57.6289 37.3984ZM62.6973 36.4258C63.2598 36.4258 63.8223 36.707 64.3848 37.2695C64.4434 37.3633 64.4219 37.4375 64.3203 37.4922C64.2227 37.5469 64.1348 37.5352 64.0566 37.457C63.8145 37.2383 63.4707 37.1289 63.0254 37.1289H62.8379C62.6504 37.1289 62.4316 37.207 62.1816 37.3633C62.1816 37.8164 62.7285 38.0977 63.8223 38.207L64.9004 37.7852L64.9473 37.9258C64.9473 38.4336 64.3223 38.8867 63.0723 39.2852L61.3379 40.2695L61.1504 40.3164C61.084 40.332 61.0371 40.3008 61.0098 40.2227C61.0098 39.9492 61.4004 39.5742 62.1816 39.0977V39.0508C61.8066 38.8477 61.6191 38.5508 61.6191 38.1602C61.791 37.0039 62.1504 36.4258 62.6973 36.4258ZM70.7188 39.7129C70.6758 39.7168 70.6328 39.7188 70.5898 39.7188H70.3555C69.9883 39.7188 69.7383 39.6875 69.6055 39.625C69.332 40.6758 69.0137 41.3184 68.6504 41.5527C68.2871 41.791 67.4648 41.9922 66.1836 42.1562H66.0898C65.8086 42.125 65.668 42.0781 65.668 42.0156C65.668 41.9219 65.9023 41.8125 66.3711 41.6875C68.2148 40.8438 69.1367 40.2344 69.1367 39.8594C69.1367 39.7031 68.918 39.3438 68.4805 38.7812C68.3867 38.625 68.3398 38.4219 68.3398 38.1719V37.7031C68.3398 37.4688 68.3867 37.3438 68.4805 37.3281C68.8867 37.9492 69.5742 38.2969 70.543 38.3711C70.6016 38.3711 70.6602 38.3691 70.7188 38.3652V39.7129ZM67.8008 34.7734C68.457 35.1016 68.7852 35.3828 68.7852 35.6172C68.4727 36.2344 68.2852 36.5469 68.2227 36.5547H68.1289C67.6484 36.3125 67.3516 36.0938 67.2383 35.8984C67.3477 35.543 67.5352 35.168 67.8008 34.7734ZM70.5078 38.6641H71.0469C71.6172 38.5859 72.5234 38.375 73.7656 38.0312V37.9844C72.6328 37.4844 71.9141 37.2344 71.6094 37.2344C71.1953 37.2344 70.9141 37.4688 70.7656 37.9375L70.625 38.0312C70.5625 38.0312 70.5312 37.9844 70.5312 37.8906C70.6875 36.9531 71.1094 36.4844 71.7969 36.4844H72.0312C72.3203 36.4844 73.3047 36.8125 74.9844 37.4688L76.25 37.5625L76.3438 37.7031C76.3203 37.9141 76.1328 38.3203 75.7812 38.9219H75.6406L75.4531 38.875H75.2188C72.7812 39.5938 71.3594 39.9688 70.9531 40H70.5078V38.6641ZM73.0625 39.9062C73.7188 40.2344 74.0469 40.5156 74.0469 40.75C73.7344 41.3672 73.5469 41.6797 73.4844 41.6875H73.3906C72.9102 41.4453 72.6133 41.2266 72.5 41.0312C72.6094 40.6758 72.7969 40.3008 73.0625 39.9062Z" fill="#3F3F3F"/>
<path d="M4.69922 34.2637C4.69922 34.7754 4.58398 35.1641 4.35352 35.4297C4.12305 35.6914 3.76367 35.8672 3.27539 35.957C3.51367 36.7891 3.63281 37.6523 3.63281 38.5469C3.63281 39.1562 3.55273 39.625 3.39258 39.9531C3.35352 40.0391 3.31055 40.082 3.26367 40.082C3.21289 40.082 3.18359 40.0391 3.17578 39.9531C3.11328 38.0625 2.50586 36.2617 1.35352 34.5508L1.69922 33.6133C1.72656 33.5508 1.75195 33.5195 1.77539 33.5195C1.80664 33.5195 1.86914 33.5645 1.96289 33.6543C2.18164 33.9004 2.39844 34.1484 2.61328 34.3984C2.75781 34.5391 2.94922 34.6094 3.1875 34.6094C3.53125 34.6094 3.80469 34.5176 4.00781 34.334C4.11719 34.2324 4.22852 34.0645 4.3418 33.8301C4.41992 33.6465 4.49219 33.5547 4.55859 33.5547C4.65234 33.5547 4.69922 33.791 4.69922 34.2637ZM8.08008 36.8945C8.07227 36.9102 7.91797 37.418 7.61719 38.418C7.38281 38.1992 6.99805 37.9062 6.46289 37.5391C6.52539 37.3711 6.66992 36.8438 6.89648 35.957C7.26367 36.2773 7.6582 36.5898 8.08008 36.8945ZM9.9375 35.8281H9.98438L10.0781 35.9219C9.82812 36.4766 9.70312 36.8516 9.70312 37.0469C9.70312 37.9609 10.5781 38.4922 12.3281 38.6406L12.8906 38.7344C13.4531 38.7344 14.2969 38.5625 15.4219 38.2188L16.0781 37.8438C15.8594 37.4453 15.7188 37.1016 15.6562 36.8125L15.75 35.9219H15.8438C16.2188 36.3125 16.4062 37 16.4062 37.9844C16.4062 38.9297 15.5781 39.5703 13.9219 39.9062L13.2188 40C10.5938 40 9.28125 39.1406 9.28125 37.4219C9.28125 36.7031 9.5 36.1719 9.9375 35.8281ZM12.75 40.2344C13.4062 40.4219 13.7344 40.6562 13.7344 40.9375L13.125 41.9219C12.5156 41.6719 12.1875 41.4844 12.1406 41.3594C12.1406 41.0703 12.3438 40.6953 12.75 40.2344ZM22.0957 39.7129C22.0527 39.7168 22.0098 39.7188 21.9668 39.7188H21.7324C21.3652 39.7188 21.1152 39.6875 20.9824 39.625C20.709 40.6758 20.3906 41.3184 20.0273 41.5527C19.6641 41.791 18.8418 41.9922 17.5605 42.1562H17.4668C17.1855 42.125 17.0449 42.0781 17.0449 42.0156C17.0449 41.9219 17.2793 41.8125 17.748 41.6875C19.5918 40.8438 20.5137 40.2344 20.5137 39.8594C20.5137 39.7031 20.2949 39.3438 19.8574 38.7812C19.7637 38.625 19.7168 38.4219 19.7168 38.1719V37.7031C19.7168 37.4688 19.7637 37.3438 19.8574 37.3281C20.2637 37.9492 20.9512 38.2969 21.9199 38.3711C21.9785 38.3711 22.0371 38.3691 22.0957 38.3652V39.7129ZM19.1777 34.7734C19.834 35.1016 20.1621 35.3828 20.1621 35.6172C19.8496 36.2344 19.6621 36.5469 19.5996 36.5547H19.5059C19.0254 36.3125 18.7285 36.0938 18.6152 35.8984C18.7246 35.543 18.9121 35.168 19.1777 34.7734ZM21.8848 38.6641H22.4238C22.9941 38.5859 23.9004 38.375 25.1426 38.0312V37.9844C24.0098 37.4844 23.291 37.2344 22.9863 37.2344C22.5723 37.2344 22.291 37.4688 22.1426 37.9375L22.002 38.0312C21.9395 38.0312 21.9082 37.9844 21.9082 37.8906C22.0645 36.9531 22.4863 36.4844 23.1738 36.4844H23.4082C23.6973 36.4844 24.6816 36.8125 26.3613 37.4688L27.627 37.5625L27.7207 37.7031C27.6973 37.9141 27.5098 38.3203 27.1582 38.9219H27.0176L26.8301 38.875H26.5957C24.1582 39.5938 22.7363 39.9688 22.3301 40H21.8848V38.6641ZM32.2441 39.918C32.2051 40.0625 32.1523 40.1348 32.0859 40.1348C32.0312 40.1348 32 40.0547 31.9922 39.8945C31.9375 38.7344 31.7578 37.709 31.4531 36.8184C31.2031 36.1152 30.8262 35.3965 30.3223 34.6621C30.4434 34.4199 30.6074 34.1035 30.8145 33.7129C30.8809 33.584 30.9297 33.5195 30.9609 33.5195C30.9922 33.5195 31.0527 33.584 31.1426 33.7129C31.5254 34.2715 31.8379 34.9844 32.0801 35.8516C32.3262 36.7148 32.4492 37.5527 32.4492 38.3652C32.4492 38.959 32.3809 39.4766 32.2441 39.918ZM36.2988 31.6504L34.0781 40.8145H33.709L35.9121 31.6504H36.2988ZM40.7812 38.8691C40.582 39.2793 40.2988 39.5957 39.9316 39.8184C39.6348 40.002 39.334 40.0938 39.0293 40.0938C38.6465 40.0938 38.3184 40.0312 38.0449 39.9062C37.7363 39.7539 37.582 39.5488 37.582 39.291C37.582 39.0605 37.75 38.7051 38.0859 38.2246C38.4219 37.7441 38.5898 37.4844 38.5898 37.4453C38.5898 37.332 38.4141 37.1992 38.0625 37.0469C37.7148 36.8945 37.541 36.7031 37.541 36.4727C37.541 36.082 37.7227 35.5898 38.0859 34.9961C38.5078 34.3008 39.0195 33.8008 39.6211 33.4961C39.6289 33.4883 39.6406 33.4844 39.6562 33.4844C39.6953 33.4844 39.7148 33.5566 39.7148 33.7012C39.7148 34.0684 39.6543 34.4199 39.5332 34.7559C39.3027 34.9004 39.0684 35.0371 38.8301 35.166C38.5098 35.373 38.3496 35.541 38.3496 35.6699C38.3496 35.7559 38.4648 35.8477 38.6953 35.9453C39.0547 36.082 39.2715 36.1738 39.3457 36.2207C39.5762 36.3574 39.6914 36.5293 39.6914 36.7363C39.6914 36.9043 39.4941 37.2246 39.0996 37.6973C38.709 38.1699 38.5137 38.4375 38.5137 38.5C38.5137 38.7812 38.791 38.9219 39.3457 38.9219C39.9434 38.9219 40.3984 38.8379 40.7109 38.6699C40.7266 38.6621 40.7461 38.6582 40.7695 38.6582C40.8828 38.6582 40.8867 38.7285 40.7812 38.8691Z" fill="#3F3F3F"/>
<path d="M80.5 32L80.5 43" stroke="#727272" stroke-linecap="round"/>
<path d="M45.5 32L45.5 43" stroke="#727272" stroke-linecap="round"/>
</svg>
