<svg width="41" height="41" viewBox="0 0 41 41" fill="none" xmlns="http://www.w3.org/2000/svg">
<path d="M26.0347 38.8639H14.9647C11.736 38.8639 9.37849 37.5143 8.47307 35.191C7.53349 32.7652 8.40474 29.7585 10.6597 27.7256L18.5864 20.4993L10.6597 13.2731C8.40474 11.2402 7.53349 8.23352 8.47307 5.80768C9.37849 3.46727 11.736 2.13477 14.9647 2.13477H26.0347C29.2635 2.13477 31.621 3.48435 32.5264 5.80768C33.466 8.23352 32.5947 11.2402 30.3397 13.2731L22.4131 20.4993L30.3568 27.7256C32.5947 29.7585 33.4831 32.7652 32.5435 35.191C31.621 37.5143 29.2635 38.8639 26.0347 38.8639ZM20.4997 22.2248L12.3852 29.6048C10.9502 30.9202 10.3181 32.8335 10.8647 34.2514C11.3772 35.5668 12.8293 36.3014 14.9647 36.3014H26.0347C28.1702 36.3014 29.6222 35.5839 30.1347 34.2514C30.6814 32.8335 30.0664 30.9202 28.6143 29.6048L20.4997 22.2248ZM14.9647 4.69727C12.8293 4.69727 11.3772 5.41477 10.8647 6.74727C10.3181 8.16518 10.9331 10.0785 12.3852 11.3939L20.4997 18.7739L28.6143 11.3939C30.0493 10.0785 30.6814 8.16518 30.1347 6.74727C29.6222 5.43185 28.1702 4.69727 26.0347 4.69727H14.9647Z" fill="white"/>
</svg>
