<svg width="77" height="30" viewBox="0 0 77 30" fill="none" xmlns="http://www.w3.org/2000/svg">
<rect x="3" y="1" width="74" height="24" rx="12" fill="#229D71"/>
<g filter="url(#filter0_ddd_218_1942)">
<rect x="4.5" y="2.5" width="21" height="21" rx="10.5" fill="white"/>
</g>
<path d="M38.5006 11.19C39.1606 11.19 39.7073 11.4367 40.1406 11.93C40.5739 12.4167 40.7906 13.0033 40.7906 13.69C40.7906 14.37 40.5739 14.94 40.1406 15.4C39.7139 15.86 39.1673 16.09 38.5006 16.09C37.9406 16.09 37.4606 15.9233 37.0606 15.59C36.6606 15.2567 36.4006 14.8233 36.2806 14.29C35.8006 14.39 35.5606 14.7467 35.5606 15.36V18.57L34.7206 18.7L34.7106 15.25C34.7106 14.1367 35.2173 13.5167 36.2306 13.39C36.2906 12.7633 36.5306 12.24 36.9506 11.82C37.3706 11.4 37.8873 11.19 38.5006 11.19ZM37.4606 14.75C37.7339 15.0367 38.0806 15.18 38.5006 15.18C38.9206 15.18 39.2639 15.0367 39.5306 14.75C39.8039 14.4633 39.9406 14.1067 39.9406 13.68C39.9406 13.24 39.8039 12.8667 39.5306 12.56C39.2639 12.2467 38.9206 12.09 38.5006 12.09C38.0806 12.09 37.7339 12.2467 37.4606 12.56C37.1873 12.8667 37.0506 13.24 37.0506 13.68C37.0506 14.1067 37.1873 14.4633 37.4606 14.75ZM44.0882 16C42.6882 16 41.9882 15.3333 41.9882 14L41.9782 8.83L42.8282 8.7V13.8C42.8282 14.6667 43.2448 15.1 44.0782 15.1C44.1448 15.1 44.1782 15.13 44.1782 15.19L44.1882 15.9C44.1882 15.9667 44.1548 16 44.0882 16ZM50.6269 15.1C50.6936 15.1 50.7269 15.13 50.7269 15.19V15.9C50.7269 15.9667 50.6936 16 50.6269 16C50.0402 16 49.5002 15.7733 49.0069 15.32C48.6069 15.7733 48.0236 16 47.2569 16H44.0869C44.0202 16 43.9869 15.9667 43.9869 15.9V15.19C43.9869 15.13 44.0202 15.1 44.0869 15.1H47.1869C47.6469 15.1 48.0069 14.99 48.2669 14.77C48.5336 14.55 48.6669 14.2433 48.6669 13.85C48.6669 13.4567 48.5336 13.1467 48.2669 12.92C48.0069 12.6867 47.6502 12.57 47.1969 12.57H44.7869L44.3269 11.76L47.3169 8.22L48.1369 8.65L45.3269 11.77H47.1069C47.8402 11.77 48.4236 11.96 48.8569 12.34C49.2969 12.7133 49.5169 13.22 49.5169 13.86C49.5169 14.18 49.4736 14.4567 49.3869 14.69C49.7736 14.9633 50.1869 15.1 50.6269 15.1ZM52.3899 11.28C52.8232 11.28 53.2799 11.4233 53.7599 11.71C54.2465 11.9967 55.0599 12.6133 56.1999 13.56L56.0699 14.39C55.0299 14.9433 54.0832 15.35 53.2299 15.61C52.3832 15.87 51.5199 16 50.6399 16C50.5665 16 50.5299 15.9667 50.5299 15.9V15.19C50.5299 15.13 50.5665 15.1 50.6399 15.1C52.1799 15.1 53.7432 14.7133 55.3299 13.94C54.4699 13.22 53.8332 12.7433 53.4199 12.51C53.0132 12.2767 52.6265 12.16 52.2599 12.16C52.1065 12.16 51.7799 12.2133 51.2799 12.32L51.1099 11.56C51.6032 11.3733 52.0299 11.28 52.3899 11.28ZM61.399 8.83L62.249 8.7V14C62.249 15.3333 61.5457 16 60.139 16H60.129H56.829L56.669 15.1H59.039L58.039 10.22L58.879 10.01L59.839 15.1H60.129H60.139C60.979 15.1 61.399 14.6667 61.399 13.8V8.83ZM63.9804 16V8.83L64.8304 8.7V16H63.9804Z" fill="white"/>
<defs>
<filter id="filter0_ddd_218_1942" x="0.5" y="0.5" width="29" height="29" filterUnits="userSpaceOnUse" color-interpolation-filters="sRGB">
<feFlood flood-opacity="0" result="BackgroundImageFix"/>
<feColorMatrix in="SourceAlpha" type="matrix" values="0 0 0 0 0 0 0 0 0 0 0 0 0 0 0 0 0 0 127 0" result="hardAlpha"/>
<feOffset dy="1"/>
<feGaussianBlur stdDeviation="1.5"/>
<feColorMatrix type="matrix" values="0 0 0 0 0 0 0 0 0 0 0 0 0 0 0 0 0 0 0.1 0"/>
<feBlend mode="normal" in2="BackgroundImageFix" result="effect1_dropShadow_218_1942"/>
<feColorMatrix in="SourceAlpha" type="matrix" values="0 0 0 0 0 0 0 0 0 0 0 0 0 0 0 0 0 0 127 0" result="hardAlpha"/>
<feOffset dy="1"/>
<feGaussianBlur stdDeviation="1"/>
<feColorMatrix type="matrix" values="0 0 0 0 0 0 0 0 0 0 0 0 0 0 0 0 0 0 0.1 0"/>
<feBlend mode="normal" in2="effect1_dropShadow_218_1942" result="effect2_dropShadow_218_1942"/>
<feColorMatrix in="SourceAlpha" type="matrix" values="0 0 0 0 0 0 0 0 0 0 0 0 0 0 0 0 0 0 127 0" result="hardAlpha"/>
<feOffset dy="2"/>
<feGaussianBlur stdDeviation="2"/>
<feColorMatrix type="matrix" values="0 0 0 0 0 0 0 0 0 0 0 0 0 0 0 0 0 0 0.1 0"/>
<feBlend mode="normal" in2="effect2_dropShadow_218_1942" result="effect3_dropShadow_218_1942"/>
<feBlend mode="normal" in="SourceGraphic" in2="effect3_dropShadow_218_1942" result="shape"/>
</filter>
</defs>
</svg>
