<svg width="74" height="24" viewBox="0 0 74 24" fill="none" xmlns="http://www.w3.org/2000/svg">
<rect width="74" height="24" rx="12" fill="#C0C0C0"/>
<rect x="51.5" y="1.5" width="21" height="21" rx="10.5" fill="white"/>
<path d="M16.5006 10.19C17.1606 10.19 17.7073 10.4367 18.1406 10.93C18.5739 11.4167 18.7906 12.0033 18.7906 12.69C18.7906 13.37 18.5739 13.94 18.1406 14.4C17.7139 14.86 17.1673 15.09 16.5006 15.09C15.9406 15.09 15.4606 14.9233 15.0606 14.59C14.6606 14.2567 14.4006 13.8233 14.2806 13.29C13.8006 13.39 13.5606 13.7467 13.5606 14.36V17.57L12.7206 17.7L12.7106 14.25C12.7106 13.1367 13.2173 12.5167 14.2306 12.39C14.2906 11.7633 14.5306 11.24 14.9506 10.82C15.3706 10.4 15.8873 10.19 16.5006 10.19ZM15.4606 13.75C15.7339 14.0367 16.0806 14.18 16.5006 14.18C16.9206 14.18 17.2639 14.0367 17.5306 13.75C17.8039 13.4633 17.9406 13.1067 17.9406 12.68C17.9406 12.24 17.8039 11.8667 17.5306 11.56C17.2639 11.2467 16.9206 11.09 16.5006 11.09C16.0806 11.09 15.7339 11.2467 15.4606 11.56C15.1873 11.8667 15.0506 12.24 15.0506 12.68C15.0506 13.1067 15.1873 13.4633 15.4606 13.75ZM22.0882 15C20.6882 15 19.9882 14.3333 19.9882 13L19.9782 7.83L20.8282 7.7V12.8C20.8282 13.6667 21.2448 14.1 22.0782 14.1C22.1448 14.1 22.1782 14.13 22.1782 14.19L22.1882 14.9C22.1882 14.9667 22.1548 15 22.0882 15ZM28.6269 14.1C28.6936 14.1 28.7269 14.13 28.7269 14.19V14.9C28.7269 14.9667 28.6936 15 28.6269 15C28.0402 15 27.5002 14.7733 27.0069 14.32C26.6069 14.7733 26.0236 15 25.2569 15H22.0869C22.0202 15 21.9869 14.9667 21.9869 14.9V14.19C21.9869 14.13 22.0202 14.1 22.0869 14.1H25.1869C25.6469 14.1 26.0069 13.99 26.2669 13.77C26.5336 13.55 26.6669 13.2433 26.6669 12.85C26.6669 12.4567 26.5336 12.1467 26.2669 11.92C26.0069 11.6867 25.6502 11.57 25.1969 11.57H22.7869L22.3269 10.76L25.3169 7.22L26.1369 7.65L23.3269 10.77H25.1069C25.8402 10.77 26.4236 10.96 26.8569 11.34C27.2969 11.7133 27.5169 12.22 27.5169 12.86C27.5169 13.18 27.4736 13.4567 27.3869 13.69C27.7736 13.9633 28.1869 14.1 28.6269 14.1ZM30.3899 10.28C30.8232 10.28 31.2799 10.4233 31.7599 10.71C32.2465 10.9967 33.0599 11.6133 34.1999 12.56L34.0699 13.39C33.0299 13.9433 32.0832 14.35 31.2299 14.61C30.3832 14.87 29.5199 15 28.6399 15C28.5665 15 28.5299 14.9667 28.5299 14.9V14.19C28.5299 14.13 28.5665 14.1 28.6399 14.1C30.1799 14.1 31.7432 13.7133 33.3299 12.94C32.4699 12.22 31.8332 11.7433 31.4199 11.51C31.0132 11.2767 30.6265 11.16 30.2599 11.16C30.1065 11.16 29.7799 11.2133 29.2799 11.32L29.1099 10.56C29.6032 10.3733 30.0299 10.28 30.3899 10.28ZM39.399 7.83L40.249 7.7V13C40.249 14.3333 39.5457 15 38.139 15H38.129H34.829L34.669 14.1H37.039L36.039 9.22L36.879 9.01L37.839 14.1H38.129H38.139C38.979 14.1 39.399 13.6667 39.399 12.8V7.83ZM41.9804 15V7.83L42.8304 7.7V15H41.9804Z" fill="white"/>
</svg>
