<svg width="20" height="20" viewBox="0 0 20 20" fill="none" xmlns="http://www.w3.org/2000/svg">
<g clip-path="url(#clip0_276_7531)">
<path d="M17.4997 4.99935H11.1747L13.9163 2.25768L13.333 1.66602L9.99967 4.99935L6.66634 1.66602L6.07467 2.25768L8.82467 4.99935H2.49967C1.58301 4.99935 0.833008 5.74102 0.833008 6.66602V16.666C0.833008 17.5827 1.58301 18.3327 2.49967 18.3327H17.4997C18.4163 18.3327 19.1663 17.5827 19.1663 16.666V6.66602C19.1663 5.74102 18.4163 4.99935 17.4997 4.99935ZM17.4997 16.666H2.49967V6.66602H17.4997V16.666ZM7.49967 8.33268V14.9993L13.333 11.666L7.49967 8.33268Z" fill="#544C4C"/>
</g>
<defs>
<clipPath id="clip0_276_7531">
<rect width="20" height="20" fill="white"/>
</clipPath>
</defs>
</svg>
