<svg width="30" height="30" viewBox="0 0 30 30" fill="none" xmlns="http://www.w3.org/2000/svg">
<path d="M25.6663 10.791H2.33301C1.85467 10.791 1.45801 10.3943 1.45801 9.91602C1.45801 9.43768 1.85467 9.04102 2.33301 9.04102H25.6663C26.1447 9.04102 26.5413 9.43768 26.5413 9.91602C26.5413 10.3943 26.1447 10.791 25.6663 10.791Z" fill="white"/>
<path d="M9.33333 20.125H7C6.52167 20.125 6.125 19.7283 6.125 19.25C6.125 18.7717 6.52167 18.375 7 18.375H9.33333C9.81167 18.375 10.2083 18.7717 10.2083 19.25C10.2083 19.7283 9.81167 20.125 9.33333 20.125Z" fill="white"/>
<path d="M16.9167 20.125H12.25C11.7717 20.125 11.375 19.7283 11.375 19.25C11.375 18.7717 11.7717 18.375 12.25 18.375H16.9167C17.395 18.375 17.7917 18.7717 17.7917 19.25C17.7917 19.7283 17.395 20.125 16.9167 20.125Z" fill="white"/>
<path d="M20.4863 24.7923H7.51301C2.86967 24.7923 1.45801 23.3923 1.45801 18.7957V9.20565C1.45801 4.60898 2.86967 3.20898 7.51301 3.20898H20.4747C25.118 3.20898 26.5297 4.60898 26.5297 9.20565V18.784C26.5413 23.3923 25.1297 24.7923 20.4863 24.7923ZM7.51301 4.95898C3.84967 4.95898 3.20801 5.58898 3.20801 9.20565V18.784C3.20801 22.4007 3.84967 23.0307 7.51301 23.0307H20.4747C24.138 23.0307 24.7797 22.4007 24.7797 18.784V9.20565C24.7797 5.58898 24.138 4.95898 20.4747 4.95898H7.51301Z" fill="white"/>
</svg>
